G04 EAGLE Gerber RS-274X export*
G75*
%MOMM*%
%FSLAX34Y34*%
%LPD*%
%INBottom Copper*%
%IPPOS*%
%AMOC8*
5,1,8,0,0,1.08239X$1,22.5*%
G01*
%ADD10C,1.158000*%
%ADD11R,0.600000X0.540000*%
%ADD12R,0.900000X1.700000*%
%ADD13R,4.500000X4.500000*%
%ADD14R,1.000000X0.300000*%
%ADD15R,1.200000X0.550000*%
%ADD16R,1.200000X0.800000*%
%ADD17R,1.100000X1.000000*%
%ADD18R,1.000000X0.800000*%
%ADD19R,1.000000X1.400000*%
%ADD20R,0.550000X1.200000*%
%ADD21R,0.540000X0.600000*%
%ADD22C,1.400000*%
%ADD23C,0.706400*%
%ADD24C,0.200000*%
%ADD25C,0.152400*%
%ADD26C,0.406400*%
%ADD27C,0.508000*%
%ADD28C,0.304800*%
%ADD29C,0.609600*%

G36*
X322904Y112311D02*
X322904Y112311D01*
X322966Y112313D01*
X322988Y112325D01*
X323014Y112330D01*
X323085Y112378D01*
X323118Y112396D01*
X323124Y112404D01*
X323134Y112411D01*
X324786Y114063D01*
X324826Y114128D01*
X324870Y114190D01*
X324872Y114202D01*
X324877Y114210D01*
X324881Y114247D01*
X324897Y114332D01*
X324897Y134588D01*
X324884Y134644D01*
X324884Y134657D01*
X324879Y134665D01*
X324867Y134737D01*
X324860Y134747D01*
X324858Y134757D01*
X324834Y134786D01*
X324786Y134857D01*
X324150Y135493D01*
X324128Y135507D01*
X324112Y135527D01*
X324055Y135552D01*
X324003Y135584D01*
X323977Y135587D01*
X323953Y135597D01*
X323892Y135595D01*
X323830Y135601D01*
X323806Y135592D01*
X323780Y135591D01*
X323726Y135561D01*
X323668Y135539D01*
X323651Y135520D01*
X323628Y135508D01*
X323593Y135458D01*
X323551Y135412D01*
X323543Y135387D01*
X323528Y135366D01*
X323512Y135282D01*
X323501Y135246D01*
X323503Y135236D01*
X323501Y135224D01*
X323501Y134221D01*
X315721Y134221D01*
X315721Y140001D01*
X321295Y140001D01*
X321369Y139981D01*
X321382Y139980D01*
X321395Y139975D01*
X321468Y139978D01*
X321542Y139975D01*
X321554Y139981D01*
X321568Y139981D01*
X321632Y140017D01*
X321699Y140047D01*
X321708Y140058D01*
X321720Y140064D01*
X321762Y140124D01*
X321809Y140182D01*
X321812Y140195D01*
X321820Y140206D01*
X321847Y140348D01*
X321847Y142415D01*
X321836Y142465D01*
X321834Y142516D01*
X321816Y142548D01*
X321808Y142584D01*
X321775Y142623D01*
X321751Y142668D01*
X321721Y142689D01*
X321698Y142717D01*
X321651Y142738D01*
X321609Y142768D01*
X321567Y142776D01*
X321539Y142788D01*
X321509Y142787D01*
X321467Y142795D01*
X321278Y142795D01*
X320385Y143688D01*
X320385Y150952D01*
X321278Y151845D01*
X327942Y151845D01*
X328661Y151125D01*
X328704Y151098D01*
X328742Y151064D01*
X328777Y151053D01*
X328808Y151034D01*
X328859Y151029D01*
X328908Y151014D01*
X328944Y151021D01*
X328981Y151017D01*
X329028Y151035D01*
X329079Y151044D01*
X329114Y151068D01*
X329143Y151079D01*
X329164Y151101D01*
X329199Y151125D01*
X329918Y151845D01*
X336582Y151845D01*
X337524Y150903D01*
X337567Y150876D01*
X337604Y150841D01*
X337640Y150831D01*
X337671Y150811D01*
X337722Y150806D01*
X337771Y150792D01*
X337807Y150798D01*
X337843Y150795D01*
X337891Y150813D01*
X337941Y150822D01*
X337977Y150845D01*
X338005Y150856D01*
X338026Y150879D01*
X338061Y150903D01*
X339535Y152377D01*
X342900Y152377D01*
X342950Y152388D01*
X343001Y152390D01*
X343033Y152408D01*
X343069Y152416D01*
X343108Y152449D01*
X343153Y152473D01*
X343174Y152503D01*
X343202Y152526D01*
X343223Y152573D01*
X343253Y152615D01*
X343261Y152657D01*
X343273Y152685D01*
X343272Y152715D01*
X343280Y152757D01*
X343280Y160655D01*
X343263Y160729D01*
X343250Y160804D01*
X343243Y160814D01*
X343241Y160824D01*
X343217Y160853D01*
X343169Y160924D01*
X342677Y161416D01*
X342677Y341504D01*
X343169Y341996D01*
X343209Y342061D01*
X343253Y342123D01*
X343255Y342135D01*
X343260Y342143D01*
X343264Y342180D01*
X343280Y342265D01*
X343280Y451573D01*
X343275Y451596D01*
X343277Y451620D01*
X343255Y451679D01*
X343241Y451742D01*
X343226Y451760D01*
X343217Y451782D01*
X343153Y451848D01*
X343131Y451875D01*
X343123Y451879D01*
X343116Y451886D01*
X330633Y460507D01*
X330614Y460514D01*
X330594Y460530D01*
X304783Y474101D01*
X304764Y474106D01*
X304742Y474120D01*
X277489Y484495D01*
X277469Y484498D01*
X277445Y484509D01*
X249144Y491537D01*
X249123Y491537D01*
X249099Y491546D01*
X220158Y495126D01*
X220138Y495124D01*
X220113Y495129D01*
X190952Y495210D01*
X190932Y495205D01*
X190906Y495207D01*
X161946Y491787D01*
X161927Y491780D01*
X161901Y491779D01*
X133561Y484907D01*
X133543Y484898D01*
X133517Y484894D01*
X106207Y474670D01*
X106190Y474659D01*
X106166Y474652D01*
X80280Y461224D01*
X80265Y461210D01*
X80241Y461200D01*
X56154Y444762D01*
X56141Y444747D01*
X56118Y444734D01*
X36580Y427626D01*
X36579Y427624D01*
X36577Y427624D01*
X36557Y427595D01*
X36538Y427580D01*
X36525Y427549D01*
X36479Y427485D01*
X36478Y427483D01*
X36477Y427482D01*
X36450Y427340D01*
X36450Y344773D01*
X36461Y344723D01*
X36463Y344672D01*
X36481Y344640D01*
X36489Y344604D01*
X36522Y344565D01*
X36546Y344520D01*
X36576Y344499D01*
X36599Y344471D01*
X36646Y344450D01*
X36688Y344420D01*
X36730Y344412D01*
X36758Y344400D01*
X36788Y344401D01*
X36830Y344393D01*
X42109Y344393D01*
X42159Y344404D01*
X42210Y344406D01*
X42242Y344424D01*
X42278Y344432D01*
X42317Y344465D01*
X42362Y344489D01*
X42383Y344519D01*
X42411Y344542D01*
X42432Y344589D01*
X42462Y344631D01*
X42470Y344673D01*
X42482Y344701D01*
X42481Y344731D01*
X42489Y344773D01*
X42489Y349195D01*
X42662Y349841D01*
X42997Y350420D01*
X43470Y350893D01*
X44049Y351228D01*
X44695Y351401D01*
X48769Y351401D01*
X48769Y340741D01*
X48780Y340691D01*
X48782Y340640D01*
X48800Y340608D01*
X48808Y340572D01*
X48841Y340533D01*
X48865Y340488D01*
X48895Y340467D01*
X48918Y340439D01*
X48965Y340418D01*
X49007Y340388D01*
X49049Y340380D01*
X49077Y340368D01*
X49107Y340369D01*
X49149Y340361D01*
X49911Y340361D01*
X49961Y340372D01*
X50012Y340374D01*
X50044Y340392D01*
X50080Y340400D01*
X50119Y340433D01*
X50164Y340457D01*
X50185Y340487D01*
X50213Y340511D01*
X50234Y340557D01*
X50264Y340599D01*
X50272Y340641D01*
X50284Y340669D01*
X50283Y340699D01*
X50291Y340741D01*
X50291Y351401D01*
X54365Y351401D01*
X55011Y351228D01*
X55590Y350893D01*
X56063Y350420D01*
X56207Y350170D01*
X56216Y350161D01*
X56221Y350148D01*
X56275Y350098D01*
X56326Y350044D01*
X56339Y350039D01*
X56348Y350030D01*
X56419Y350009D01*
X56488Y349983D01*
X56502Y349985D01*
X56515Y349981D01*
X56587Y349994D01*
X56660Y350001D01*
X56672Y350008D01*
X56685Y350011D01*
X56805Y350092D01*
X57098Y350385D01*
X67362Y350385D01*
X68311Y349435D01*
X68354Y349408D01*
X68392Y349374D01*
X68427Y349363D01*
X68458Y349344D01*
X68509Y349339D01*
X68558Y349324D01*
X68594Y349331D01*
X68631Y349327D01*
X68678Y349345D01*
X68729Y349354D01*
X68764Y349378D01*
X68793Y349389D01*
X68814Y349411D01*
X68849Y349435D01*
X69798Y350385D01*
X71549Y350385D01*
X71599Y350396D01*
X71650Y350398D01*
X71682Y350416D01*
X71718Y350424D01*
X71757Y350457D01*
X71802Y350481D01*
X71823Y350511D01*
X71851Y350534D01*
X71872Y350581D01*
X71902Y350623D01*
X71910Y350665D01*
X71922Y350693D01*
X71921Y350723D01*
X71929Y350765D01*
X71929Y393570D01*
X71912Y393644D01*
X71899Y393718D01*
X71892Y393728D01*
X71890Y393738D01*
X71866Y393767D01*
X71818Y393838D01*
X70303Y395354D01*
X70259Y395381D01*
X70222Y395415D01*
X70187Y395426D01*
X70156Y395445D01*
X70105Y395450D01*
X70056Y395464D01*
X70020Y395458D01*
X69983Y395462D01*
X69935Y395443D01*
X69885Y395435D01*
X69850Y395411D01*
X69821Y395400D01*
X69800Y395377D01*
X69765Y395354D01*
X69405Y394993D01*
X65215Y394993D01*
X62253Y397955D01*
X62253Y402145D01*
X65215Y405107D01*
X69405Y405107D01*
X72367Y402145D01*
X72367Y401934D01*
X72384Y401860D01*
X72397Y401786D01*
X72404Y401776D01*
X72406Y401766D01*
X72430Y401737D01*
X72478Y401666D01*
X77931Y396213D01*
X77931Y350765D01*
X77942Y350715D01*
X77944Y350664D01*
X77962Y350632D01*
X77970Y350596D01*
X78003Y350557D01*
X78027Y350512D01*
X78057Y350491D01*
X78080Y350463D01*
X78127Y350442D01*
X78169Y350412D01*
X78211Y350404D01*
X78239Y350392D01*
X78269Y350393D01*
X78311Y350385D01*
X80062Y350385D01*
X81011Y349435D01*
X81054Y349408D01*
X81092Y349374D01*
X81127Y349363D01*
X81158Y349344D01*
X81209Y349339D01*
X81258Y349324D01*
X81294Y349331D01*
X81331Y349327D01*
X81378Y349345D01*
X81429Y349354D01*
X81464Y349378D01*
X81493Y349389D01*
X81514Y349411D01*
X81549Y349435D01*
X82498Y350385D01*
X92762Y350385D01*
X93711Y349435D01*
X93754Y349408D01*
X93792Y349374D01*
X93827Y349363D01*
X93858Y349344D01*
X93909Y349339D01*
X93958Y349324D01*
X93994Y349331D01*
X94031Y349327D01*
X94078Y349345D01*
X94129Y349354D01*
X94164Y349378D01*
X94193Y349389D01*
X94214Y349411D01*
X94249Y349435D01*
X95198Y350385D01*
X105462Y350385D01*
X106411Y349435D01*
X106454Y349408D01*
X106492Y349374D01*
X106527Y349363D01*
X106558Y349344D01*
X106609Y349339D01*
X106658Y349324D01*
X106694Y349331D01*
X106731Y349327D01*
X106778Y349345D01*
X106829Y349354D01*
X106864Y349378D01*
X106893Y349389D01*
X106914Y349411D01*
X106949Y349435D01*
X107898Y350385D01*
X118162Y350385D01*
X119111Y349435D01*
X119154Y349408D01*
X119192Y349374D01*
X119227Y349363D01*
X119258Y349344D01*
X119309Y349339D01*
X119358Y349324D01*
X119394Y349331D01*
X119431Y349327D01*
X119478Y349345D01*
X119529Y349354D01*
X119564Y349378D01*
X119593Y349389D01*
X119614Y349411D01*
X119649Y349435D01*
X120598Y350385D01*
X130862Y350385D01*
X131811Y349435D01*
X131854Y349408D01*
X131892Y349374D01*
X131927Y349363D01*
X131958Y349344D01*
X132009Y349339D01*
X132058Y349324D01*
X132094Y349331D01*
X132131Y349327D01*
X132178Y349345D01*
X132229Y349354D01*
X132264Y349378D01*
X132293Y349389D01*
X132314Y349411D01*
X132349Y349435D01*
X133298Y350385D01*
X143562Y350385D01*
X144511Y349435D01*
X144554Y349408D01*
X144592Y349374D01*
X144627Y349363D01*
X144658Y349344D01*
X144709Y349339D01*
X144758Y349324D01*
X144794Y349331D01*
X144831Y349327D01*
X144878Y349345D01*
X144929Y349354D01*
X144964Y349378D01*
X144993Y349389D01*
X145014Y349411D01*
X145049Y349435D01*
X145998Y350385D01*
X147749Y350385D01*
X147799Y350396D01*
X147850Y350398D01*
X147882Y350416D01*
X147918Y350424D01*
X147957Y350457D01*
X148002Y350481D01*
X148023Y350511D01*
X148051Y350534D01*
X148072Y350581D01*
X148102Y350623D01*
X148110Y350665D01*
X148122Y350693D01*
X148121Y350723D01*
X148129Y350765D01*
X148129Y388490D01*
X148112Y388564D01*
X148099Y388638D01*
X148092Y388648D01*
X148090Y388658D01*
X148066Y388687D01*
X148018Y388758D01*
X139838Y396938D01*
X139774Y396978D01*
X139712Y397022D01*
X139700Y397024D01*
X139691Y397029D01*
X139654Y397033D01*
X139570Y397049D01*
X108448Y397049D01*
X108374Y397032D01*
X108299Y397019D01*
X108289Y397012D01*
X108279Y397010D01*
X108251Y396986D01*
X108179Y396938D01*
X106235Y394993D01*
X102045Y394993D01*
X99083Y397955D01*
X99083Y402145D01*
X102045Y405107D01*
X106235Y405107D01*
X108179Y403162D01*
X108244Y403122D01*
X108306Y403078D01*
X108318Y403076D01*
X108326Y403071D01*
X108363Y403067D01*
X108448Y403051D01*
X142213Y403051D01*
X154131Y391133D01*
X154131Y350765D01*
X154142Y350715D01*
X154144Y350664D01*
X154162Y350632D01*
X154170Y350596D01*
X154203Y350557D01*
X154227Y350512D01*
X154257Y350491D01*
X154280Y350463D01*
X154327Y350442D01*
X154369Y350412D01*
X154411Y350404D01*
X154439Y350392D01*
X154469Y350393D01*
X154511Y350385D01*
X156262Y350385D01*
X157211Y349435D01*
X157254Y349408D01*
X157292Y349374D01*
X157327Y349363D01*
X157358Y349344D01*
X157409Y349339D01*
X157458Y349324D01*
X157494Y349331D01*
X157531Y349327D01*
X157578Y349345D01*
X157629Y349354D01*
X157664Y349378D01*
X157693Y349389D01*
X157714Y349411D01*
X157749Y349435D01*
X158698Y350385D01*
X168962Y350385D01*
X169911Y349435D01*
X169954Y349408D01*
X169992Y349374D01*
X170027Y349363D01*
X170058Y349344D01*
X170109Y349339D01*
X170158Y349324D01*
X170194Y349331D01*
X170231Y349327D01*
X170278Y349345D01*
X170329Y349354D01*
X170364Y349378D01*
X170393Y349389D01*
X170414Y349411D01*
X170449Y349435D01*
X171398Y350385D01*
X181662Y350385D01*
X182611Y349435D01*
X182654Y349408D01*
X182692Y349374D01*
X182727Y349363D01*
X182758Y349344D01*
X182809Y349339D01*
X182858Y349324D01*
X182894Y349331D01*
X182931Y349327D01*
X182978Y349345D01*
X183029Y349354D01*
X183064Y349378D01*
X183093Y349389D01*
X183114Y349411D01*
X183149Y349435D01*
X184098Y350385D01*
X185849Y350385D01*
X185899Y350396D01*
X185950Y350398D01*
X185982Y350416D01*
X186018Y350424D01*
X186057Y350457D01*
X186102Y350481D01*
X186123Y350511D01*
X186151Y350534D01*
X186172Y350581D01*
X186202Y350623D01*
X186210Y350665D01*
X186222Y350693D01*
X186221Y350723D01*
X186229Y350765D01*
X186229Y353832D01*
X186212Y353906D01*
X186199Y353981D01*
X186192Y353991D01*
X186190Y354001D01*
X186166Y354029D01*
X186118Y354101D01*
X185443Y354775D01*
X185443Y358965D01*
X188405Y361927D01*
X192595Y361927D01*
X195557Y358965D01*
X195557Y354775D01*
X192590Y351808D01*
X192561Y351802D01*
X192510Y351800D01*
X192478Y351782D01*
X192442Y351774D01*
X192403Y351741D01*
X192358Y351717D01*
X192337Y351687D01*
X192309Y351664D01*
X192288Y351617D01*
X192258Y351575D01*
X192250Y351533D01*
X192238Y351505D01*
X192239Y351475D01*
X192231Y351433D01*
X192231Y350765D01*
X192242Y350715D01*
X192244Y350664D01*
X192262Y350632D01*
X192270Y350596D01*
X192303Y350557D01*
X192327Y350512D01*
X192357Y350491D01*
X192380Y350463D01*
X192427Y350442D01*
X192469Y350412D01*
X192511Y350404D01*
X192539Y350392D01*
X192569Y350393D01*
X192611Y350385D01*
X194362Y350385D01*
X195311Y349435D01*
X195354Y349408D01*
X195392Y349374D01*
X195427Y349363D01*
X195458Y349344D01*
X195509Y349339D01*
X195558Y349324D01*
X195594Y349331D01*
X195631Y349327D01*
X195678Y349345D01*
X195729Y349354D01*
X195764Y349378D01*
X195793Y349389D01*
X195814Y349411D01*
X195849Y349435D01*
X196798Y350385D01*
X207062Y350385D01*
X208011Y349435D01*
X208054Y349408D01*
X208092Y349374D01*
X208127Y349363D01*
X208158Y349344D01*
X208209Y349339D01*
X208258Y349324D01*
X208294Y349331D01*
X208331Y349327D01*
X208378Y349345D01*
X208429Y349354D01*
X208464Y349378D01*
X208493Y349389D01*
X208514Y349411D01*
X208549Y349435D01*
X209498Y350385D01*
X219762Y350385D01*
X220055Y350092D01*
X220066Y350085D01*
X220074Y350073D01*
X220139Y350039D01*
X220202Y350000D01*
X220215Y349999D01*
X220227Y349993D01*
X220301Y349991D01*
X220374Y349984D01*
X220387Y349989D01*
X220401Y349988D01*
X220467Y350019D01*
X220536Y350045D01*
X220545Y350055D01*
X220558Y350061D01*
X220653Y350170D01*
X220797Y350420D01*
X221270Y350893D01*
X221849Y351228D01*
X222495Y351401D01*
X226569Y351401D01*
X226569Y340741D01*
X226580Y340691D01*
X226582Y340640D01*
X226600Y340608D01*
X226608Y340572D01*
X226641Y340533D01*
X226665Y340488D01*
X226695Y340467D01*
X226718Y340439D01*
X226765Y340418D01*
X226807Y340388D01*
X226849Y340380D01*
X226877Y340368D01*
X226907Y340369D01*
X226949Y340361D01*
X227711Y340361D01*
X227761Y340372D01*
X227812Y340374D01*
X227844Y340392D01*
X227880Y340400D01*
X227919Y340433D01*
X227964Y340457D01*
X227985Y340487D01*
X228013Y340511D01*
X228034Y340557D01*
X228064Y340599D01*
X228072Y340641D01*
X228084Y340669D01*
X228083Y340699D01*
X228091Y340741D01*
X228091Y351401D01*
X232165Y351401D01*
X232811Y351228D01*
X233390Y350893D01*
X233863Y350420D01*
X234007Y350170D01*
X234016Y350161D01*
X234021Y350148D01*
X234075Y350098D01*
X234126Y350044D01*
X234139Y350039D01*
X234148Y350030D01*
X234219Y350009D01*
X234288Y349983D01*
X234302Y349985D01*
X234315Y349981D01*
X234387Y349994D01*
X234460Y350001D01*
X234472Y350008D01*
X234485Y350011D01*
X234605Y350092D01*
X234898Y350385D01*
X245162Y350385D01*
X246111Y349435D01*
X246154Y349408D01*
X246192Y349374D01*
X246227Y349363D01*
X246258Y349344D01*
X246309Y349339D01*
X246358Y349324D01*
X246394Y349331D01*
X246431Y349327D01*
X246478Y349345D01*
X246529Y349354D01*
X246564Y349378D01*
X246593Y349389D01*
X246614Y349411D01*
X246649Y349435D01*
X247598Y350385D01*
X257862Y350385D01*
X258811Y349435D01*
X258854Y349408D01*
X258892Y349374D01*
X258927Y349363D01*
X258958Y349344D01*
X259009Y349339D01*
X259058Y349324D01*
X259094Y349331D01*
X259131Y349327D01*
X259178Y349345D01*
X259229Y349354D01*
X259264Y349378D01*
X259293Y349389D01*
X259314Y349411D01*
X259349Y349435D01*
X260298Y350385D01*
X270562Y350385D01*
X271511Y349435D01*
X271554Y349408D01*
X271592Y349374D01*
X271627Y349363D01*
X271658Y349344D01*
X271709Y349339D01*
X271758Y349324D01*
X271794Y349331D01*
X271831Y349327D01*
X271878Y349345D01*
X271929Y349354D01*
X271964Y349378D01*
X271993Y349389D01*
X272014Y349411D01*
X272049Y349435D01*
X272998Y350385D01*
X283262Y350385D01*
X284155Y349492D01*
X284155Y331228D01*
X283262Y330335D01*
X272998Y330335D01*
X272049Y331285D01*
X272006Y331312D01*
X271968Y331346D01*
X271933Y331357D01*
X271902Y331376D01*
X271851Y331381D01*
X271802Y331396D01*
X271766Y331389D01*
X271729Y331393D01*
X271682Y331375D01*
X271631Y331366D01*
X271596Y331342D01*
X271567Y331331D01*
X271546Y331309D01*
X271511Y331285D01*
X270562Y330335D01*
X260298Y330335D01*
X259349Y331285D01*
X259306Y331312D01*
X259268Y331346D01*
X259233Y331357D01*
X259202Y331376D01*
X259151Y331381D01*
X259102Y331396D01*
X259066Y331389D01*
X259029Y331393D01*
X258982Y331375D01*
X258931Y331366D01*
X258896Y331342D01*
X258867Y331331D01*
X258846Y331309D01*
X258811Y331285D01*
X257862Y330335D01*
X247598Y330335D01*
X246649Y331285D01*
X246606Y331312D01*
X246568Y331346D01*
X246533Y331357D01*
X246502Y331376D01*
X246451Y331381D01*
X246402Y331396D01*
X246366Y331389D01*
X246329Y331393D01*
X246282Y331375D01*
X246231Y331366D01*
X246196Y331342D01*
X246167Y331331D01*
X246146Y331309D01*
X246111Y331285D01*
X245162Y330335D01*
X243411Y330335D01*
X243361Y330324D01*
X243310Y330322D01*
X243278Y330304D01*
X243242Y330296D01*
X243203Y330263D01*
X243158Y330239D01*
X243137Y330209D01*
X243109Y330186D01*
X243088Y330139D01*
X243058Y330097D01*
X243050Y330055D01*
X243038Y330027D01*
X243039Y329997D01*
X243031Y329955D01*
X243031Y238890D01*
X243048Y238816D01*
X243061Y238742D01*
X243068Y238732D01*
X243070Y238722D01*
X243094Y238693D01*
X243142Y238622D01*
X246726Y235038D01*
X246790Y234998D01*
X246852Y234954D01*
X246864Y234952D01*
X246873Y234947D01*
X246910Y234943D01*
X246994Y234927D01*
X249745Y234927D01*
X252707Y231965D01*
X252707Y227775D01*
X249831Y224900D01*
X249818Y224878D01*
X249798Y224862D01*
X249772Y224805D01*
X249740Y224753D01*
X249737Y224727D01*
X249727Y224703D01*
X249729Y224642D01*
X249723Y224580D01*
X249732Y224556D01*
X249733Y224530D01*
X249763Y224476D01*
X249785Y224418D01*
X249804Y224401D01*
X249816Y224378D01*
X249867Y224343D01*
X249912Y224301D01*
X249937Y224293D01*
X249958Y224278D01*
X250042Y224262D01*
X250078Y224251D01*
X250088Y224253D01*
X250100Y224251D01*
X272391Y224251D01*
X293155Y203487D01*
X293155Y138615D01*
X293166Y138565D01*
X293168Y138514D01*
X293186Y138482D01*
X293194Y138446D01*
X293227Y138407D01*
X293251Y138362D01*
X293281Y138341D01*
X293304Y138313D01*
X293351Y138292D01*
X293393Y138262D01*
X293435Y138254D01*
X293463Y138242D01*
X293493Y138243D01*
X293535Y138235D01*
X305383Y138235D01*
X305828Y137790D01*
X305881Y137757D01*
X305930Y137717D01*
X305954Y137711D01*
X305975Y137698D01*
X306037Y137692D01*
X306099Y137678D01*
X306123Y137684D01*
X306147Y137682D01*
X306206Y137704D01*
X306267Y137719D01*
X306286Y137735D01*
X306309Y137743D01*
X306352Y137790D01*
X306400Y137830D01*
X306412Y137855D01*
X306427Y137871D01*
X306437Y137907D01*
X306464Y137960D01*
X306592Y138441D01*
X306927Y139020D01*
X307400Y139493D01*
X307979Y139828D01*
X308625Y140001D01*
X314199Y140001D01*
X314199Y133841D01*
X314210Y133791D01*
X314212Y133740D01*
X314230Y133708D01*
X314238Y133672D01*
X314271Y133633D01*
X314295Y133588D01*
X314325Y133567D01*
X314348Y133539D01*
X314395Y133518D01*
X314437Y133488D01*
X314479Y133480D01*
X314507Y133468D01*
X314537Y133469D01*
X314579Y133461D01*
X314961Y133461D01*
X314961Y133459D01*
X314579Y133459D01*
X314529Y133448D01*
X314478Y133446D01*
X314446Y133428D01*
X314410Y133420D01*
X314371Y133387D01*
X314326Y133363D01*
X314305Y133333D01*
X314277Y133309D01*
X314256Y133263D01*
X314226Y133221D01*
X314218Y133179D01*
X314206Y133151D01*
X314207Y133121D01*
X314199Y133079D01*
X314199Y126919D01*
X308625Y126919D01*
X307979Y127092D01*
X307400Y127427D01*
X306927Y127900D01*
X306592Y128479D01*
X306419Y129125D01*
X306419Y129804D01*
X306413Y129829D01*
X306416Y129855D01*
X306394Y129913D01*
X306380Y129973D01*
X306363Y129993D01*
X306354Y130017D01*
X306309Y130059D01*
X306270Y130106D01*
X306246Y130117D01*
X306227Y130134D01*
X306168Y130152D01*
X306111Y130177D01*
X306086Y130176D01*
X306061Y130184D01*
X306000Y130173D01*
X305938Y130171D01*
X305916Y130158D01*
X305890Y130154D01*
X305819Y130106D01*
X305786Y130088D01*
X305780Y130080D01*
X305770Y130073D01*
X305383Y129685D01*
X293535Y129685D01*
X293485Y129674D01*
X293434Y129672D01*
X293402Y129654D01*
X293366Y129646D01*
X293327Y129613D01*
X293282Y129589D01*
X293261Y129559D01*
X293233Y129536D01*
X293212Y129489D01*
X293182Y129447D01*
X293174Y129405D01*
X293162Y129377D01*
X293163Y129347D01*
X293155Y129305D01*
X293155Y119881D01*
X293166Y119831D01*
X293168Y119780D01*
X293186Y119748D01*
X293194Y119712D01*
X293227Y119673D01*
X293251Y119628D01*
X293281Y119607D01*
X293304Y119579D01*
X293351Y119558D01*
X293393Y119528D01*
X293435Y119520D01*
X293463Y119508D01*
X293493Y119509D01*
X293535Y119501D01*
X300632Y119501D01*
X300786Y119346D01*
X300851Y119306D01*
X300913Y119262D01*
X300925Y119260D01*
X300934Y119255D01*
X300971Y119251D01*
X301055Y119235D01*
X305383Y119235D01*
X306021Y118596D01*
X306086Y118556D01*
X306148Y118512D01*
X306160Y118510D01*
X306168Y118505D01*
X306205Y118501D01*
X306290Y118485D01*
X307055Y118485D01*
X307105Y118496D01*
X307156Y118498D01*
X307188Y118516D01*
X307224Y118524D01*
X307263Y118557D01*
X307308Y118581D01*
X307329Y118611D01*
X307357Y118634D01*
X307378Y118681D01*
X307408Y118723D01*
X307416Y118765D01*
X307428Y118793D01*
X307427Y118823D01*
X307435Y118865D01*
X307435Y120092D01*
X308328Y120985D01*
X321592Y120985D01*
X322485Y120092D01*
X322485Y112680D01*
X322491Y112655D01*
X322488Y112629D01*
X322510Y112571D01*
X322524Y112511D01*
X322541Y112491D01*
X322550Y112467D01*
X322595Y112425D01*
X322634Y112377D01*
X322658Y112367D01*
X322677Y112349D01*
X322736Y112332D01*
X322793Y112307D01*
X322818Y112308D01*
X322843Y112300D01*
X322904Y112311D01*
G37*
G36*
X205947Y8698D02*
X205947Y8698D01*
X205974Y8695D01*
X236437Y10776D01*
X236457Y10783D01*
X236484Y10783D01*
X263648Y16109D01*
X263705Y16135D01*
X263766Y16154D01*
X263783Y16170D01*
X263806Y16180D01*
X263846Y16229D01*
X263892Y16273D01*
X263900Y16295D01*
X263916Y16314D01*
X263930Y16376D01*
X263952Y16435D01*
X263949Y16459D01*
X263955Y16483D01*
X263940Y16544D01*
X263934Y16607D01*
X263920Y16628D01*
X263915Y16652D01*
X263875Y16700D01*
X263841Y16754D01*
X263818Y16769D01*
X263804Y16785D01*
X263770Y16800D01*
X263720Y16834D01*
X263451Y16945D01*
X261888Y17989D01*
X260559Y19318D01*
X259515Y20881D01*
X258796Y22617D01*
X258429Y24460D01*
X258429Y24639D01*
X267209Y24639D01*
X267209Y17433D01*
X267214Y17409D01*
X267212Y17384D01*
X267222Y17358D01*
X267222Y17339D01*
X267237Y17312D01*
X267248Y17264D01*
X267264Y17245D01*
X267272Y17222D01*
X267300Y17196D01*
X267305Y17187D01*
X267322Y17175D01*
X267358Y17130D01*
X267381Y17120D01*
X267399Y17103D01*
X267442Y17090D01*
X267447Y17087D01*
X267462Y17084D01*
X267517Y17059D01*
X267541Y17060D01*
X267565Y17053D01*
X267654Y17065D01*
X267690Y17066D01*
X267698Y17070D01*
X267708Y17072D01*
X268470Y17323D01*
X268536Y17363D01*
X268604Y17400D01*
X268610Y17408D01*
X268618Y17414D01*
X268659Y17479D01*
X268704Y17542D01*
X268706Y17553D01*
X268710Y17560D01*
X268714Y17596D01*
X268731Y17684D01*
X268731Y24639D01*
X277511Y24639D01*
X277511Y24460D01*
X277414Y23976D01*
X277188Y22836D01*
X277188Y22835D01*
X277144Y22617D01*
X276425Y20881D01*
X276242Y20606D01*
X276224Y20561D01*
X276198Y20519D01*
X276194Y20480D01*
X276181Y20444D01*
X276186Y20396D01*
X276180Y20347D01*
X276194Y20310D01*
X276198Y20272D01*
X276224Y20230D01*
X276241Y20184D01*
X276269Y20158D01*
X276290Y20125D01*
X276332Y20099D01*
X276367Y20066D01*
X276405Y20055D01*
X276438Y20034D01*
X276486Y20030D01*
X276533Y20016D01*
X276578Y20021D01*
X276610Y20018D01*
X276637Y20029D01*
X276677Y20034D01*
X284803Y22718D01*
X284837Y22739D01*
X284875Y22750D01*
X284910Y22783D01*
X284951Y22808D01*
X284972Y22842D01*
X285001Y22869D01*
X285017Y22914D01*
X285043Y22955D01*
X285047Y22995D01*
X285061Y23032D01*
X285056Y23079D01*
X285061Y23127D01*
X285047Y23165D01*
X285043Y23204D01*
X285017Y23245D01*
X285000Y23290D01*
X284971Y23317D01*
X284950Y23350D01*
X284901Y23383D01*
X284874Y23408D01*
X284853Y23415D01*
X284829Y23430D01*
X282191Y24523D01*
X279793Y26921D01*
X278495Y30054D01*
X278495Y33446D01*
X279793Y36579D01*
X282191Y38977D01*
X285324Y40275D01*
X288217Y40275D01*
X288242Y40281D01*
X288268Y40278D01*
X288326Y40300D01*
X288386Y40314D01*
X288406Y40331D01*
X288430Y40340D01*
X288472Y40385D01*
X288520Y40424D01*
X288530Y40448D01*
X288548Y40467D01*
X288565Y40526D01*
X288591Y40583D01*
X288590Y40608D01*
X288597Y40633D01*
X288586Y40694D01*
X288584Y40756D01*
X288572Y40778D01*
X288567Y40804D01*
X288519Y40875D01*
X288501Y40908D01*
X288493Y40914D01*
X288486Y40924D01*
X287588Y41822D01*
X287558Y41840D01*
X284415Y44983D01*
X284392Y45018D01*
X280701Y48709D01*
X280701Y53755D01*
X280690Y53805D01*
X280688Y53856D01*
X280670Y53888D01*
X280662Y53924D01*
X280629Y53963D01*
X280605Y54008D01*
X280575Y54029D01*
X280552Y54057D01*
X280505Y54078D01*
X280463Y54108D01*
X280421Y54116D01*
X280393Y54128D01*
X280363Y54127D01*
X280321Y54135D01*
X280118Y54135D01*
X279225Y55028D01*
X279225Y59465D01*
X279214Y59515D01*
X279212Y59566D01*
X279194Y59598D01*
X279186Y59634D01*
X279153Y59673D01*
X279129Y59718D01*
X279099Y59739D01*
X279076Y59767D01*
X279029Y59788D01*
X278987Y59818D01*
X278945Y59826D01*
X278917Y59838D01*
X278887Y59837D01*
X278845Y59845D01*
X258872Y59845D01*
X257002Y61714D01*
X254812Y63905D01*
X254811Y63906D01*
X254810Y63907D01*
X254737Y63951D01*
X254664Y63997D01*
X254663Y63997D01*
X254579Y64005D01*
X254492Y64013D01*
X254491Y64013D01*
X254490Y64013D01*
X254410Y63982D01*
X254330Y63952D01*
X254329Y63951D01*
X254227Y63848D01*
X254141Y63719D01*
X252980Y62559D01*
X251616Y61647D01*
X250100Y61019D01*
X248491Y60699D01*
X248431Y60699D01*
X248431Y74439D01*
X248420Y74489D01*
X248418Y74540D01*
X248400Y74572D01*
X248392Y74608D01*
X248359Y74647D01*
X248335Y74692D01*
X248305Y74713D01*
X248282Y74741D01*
X248235Y74762D01*
X248193Y74791D01*
X248151Y74800D01*
X248123Y74812D01*
X248093Y74811D01*
X248051Y74819D01*
X247669Y74819D01*
X247669Y74821D01*
X248051Y74821D01*
X248101Y74833D01*
X248152Y74834D01*
X248184Y74852D01*
X248220Y74860D01*
X248259Y74893D01*
X248304Y74917D01*
X248325Y74947D01*
X248353Y74971D01*
X248374Y75017D01*
X248404Y75059D01*
X248412Y75101D01*
X248424Y75129D01*
X248423Y75159D01*
X248424Y75165D01*
X248431Y75201D01*
X248431Y88941D01*
X248491Y88941D01*
X250100Y88621D01*
X251616Y87993D01*
X252980Y87081D01*
X253184Y86877D01*
X253206Y86864D01*
X253222Y86844D01*
X253279Y86818D01*
X253331Y86786D01*
X253357Y86783D01*
X253381Y86773D01*
X253442Y86775D01*
X253504Y86769D01*
X253528Y86778D01*
X253554Y86779D01*
X253608Y86809D01*
X253666Y86831D01*
X253683Y86850D01*
X253706Y86862D01*
X253741Y86913D01*
X253783Y86958D01*
X253791Y86983D01*
X253806Y87004D01*
X253822Y87088D01*
X253833Y87124D01*
X253831Y87134D01*
X253833Y87146D01*
X253833Y96096D01*
X253816Y96170D01*
X253803Y96244D01*
X253796Y96254D01*
X253794Y96264D01*
X253770Y96293D01*
X253722Y96364D01*
X250643Y99444D01*
X250599Y99471D01*
X250562Y99505D01*
X250527Y99516D01*
X250495Y99535D01*
X250445Y99540D01*
X250396Y99554D01*
X250360Y99548D01*
X250323Y99552D01*
X250275Y99533D01*
X250225Y99525D01*
X250190Y99501D01*
X250161Y99490D01*
X250140Y99468D01*
X250105Y99444D01*
X249745Y99083D01*
X245555Y99083D01*
X242593Y102045D01*
X242593Y106235D01*
X245555Y109197D01*
X249729Y109197D01*
X249754Y109203D01*
X249780Y109200D01*
X249838Y109222D01*
X249898Y109236D01*
X249918Y109253D01*
X249942Y109262D01*
X249984Y109307D01*
X250031Y109346D01*
X250042Y109370D01*
X250059Y109389D01*
X250077Y109448D01*
X250102Y109505D01*
X250101Y109530D01*
X250109Y109555D01*
X250098Y109616D01*
X250096Y109678D01*
X250083Y109700D01*
X250079Y109726D01*
X250031Y109797D01*
X250013Y109830D01*
X250005Y109836D01*
X249998Y109846D01*
X249015Y110828D01*
X249015Y120092D01*
X249908Y120985D01*
X263172Y120985D01*
X263727Y120429D01*
X263791Y120389D01*
X263852Y120346D01*
X263864Y120344D01*
X263875Y120338D01*
X263949Y120330D01*
X264023Y120319D01*
X264035Y120322D01*
X264047Y120321D01*
X264117Y120348D01*
X264188Y120370D01*
X264197Y120378D01*
X264209Y120383D01*
X264260Y120438D01*
X264314Y120489D01*
X264318Y120501D01*
X264327Y120510D01*
X264348Y120582D01*
X264374Y120652D01*
X264373Y120665D01*
X264376Y120676D01*
X264369Y120713D01*
X264363Y120796D01*
X264208Y121375D01*
X264208Y123699D01*
X272368Y123699D01*
X272418Y123710D01*
X272469Y123712D01*
X272501Y123730D01*
X272537Y123738D01*
X272576Y123771D01*
X272621Y123795D01*
X272642Y123825D01*
X272670Y123848D01*
X272691Y123895D01*
X272721Y123937D01*
X272729Y123979D01*
X272741Y124007D01*
X272740Y124037D01*
X272748Y124079D01*
X272748Y124841D01*
X272737Y124891D01*
X272735Y124942D01*
X272717Y124974D01*
X272709Y125010D01*
X272676Y125049D01*
X272652Y125094D01*
X272622Y125115D01*
X272598Y125143D01*
X272552Y125164D01*
X272510Y125194D01*
X272468Y125202D01*
X272440Y125214D01*
X272410Y125213D01*
X272368Y125221D01*
X264208Y125221D01*
X264208Y126831D01*
X264194Y126892D01*
X264188Y126955D01*
X264174Y126976D01*
X264169Y127000D01*
X264129Y127048D01*
X264095Y127101D01*
X264074Y127114D01*
X264059Y127133D01*
X264001Y127159D01*
X263947Y127192D01*
X263923Y127194D01*
X263900Y127204D01*
X263838Y127202D01*
X263775Y127207D01*
X263749Y127198D01*
X263727Y127197D01*
X263694Y127180D01*
X263638Y127160D01*
X263521Y127092D01*
X262875Y126919D01*
X257301Y126919D01*
X257301Y133079D01*
X257290Y133129D01*
X257288Y133180D01*
X257270Y133212D01*
X257262Y133248D01*
X257229Y133287D01*
X257205Y133332D01*
X257175Y133353D01*
X257151Y133381D01*
X257105Y133402D01*
X257063Y133432D01*
X257021Y133440D01*
X256993Y133452D01*
X256963Y133451D01*
X256921Y133459D01*
X256539Y133459D01*
X256539Y133461D01*
X256921Y133461D01*
X256971Y133472D01*
X257022Y133474D01*
X257054Y133492D01*
X257090Y133500D01*
X257129Y133533D01*
X257174Y133557D01*
X257195Y133587D01*
X257223Y133611D01*
X257244Y133657D01*
X257274Y133699D01*
X257282Y133741D01*
X257294Y133769D01*
X257293Y133799D01*
X257301Y133841D01*
X257301Y140001D01*
X262875Y140001D01*
X263521Y139828D01*
X264100Y139493D01*
X264573Y139020D01*
X264908Y138441D01*
X265036Y137960D01*
X265066Y137905D01*
X265088Y137846D01*
X265106Y137829D01*
X265118Y137807D01*
X265169Y137771D01*
X265216Y137728D01*
X265239Y137721D01*
X265259Y137707D01*
X265321Y137697D01*
X265382Y137679D01*
X265406Y137683D01*
X265430Y137679D01*
X265490Y137698D01*
X265552Y137709D01*
X265575Y137724D01*
X265596Y137731D01*
X265623Y137756D01*
X265672Y137790D01*
X266117Y138235D01*
X279381Y138235D01*
X280019Y137596D01*
X280084Y137556D01*
X280146Y137512D01*
X280158Y137510D01*
X280166Y137505D01*
X280203Y137501D01*
X280288Y137485D01*
X282790Y137485D01*
X283424Y136851D01*
X283446Y136837D01*
X283462Y136817D01*
X283519Y136792D01*
X283571Y136759D01*
X283597Y136757D01*
X283621Y136746D01*
X283682Y136749D01*
X283744Y136743D01*
X283768Y136752D01*
X283794Y136753D01*
X283848Y136782D01*
X283906Y136804D01*
X283923Y136823D01*
X283946Y136836D01*
X283981Y136886D01*
X284023Y136931D01*
X284031Y136956D01*
X284046Y136977D01*
X284062Y137062D01*
X284073Y137098D01*
X284071Y137107D01*
X284073Y137119D01*
X284073Y150229D01*
X284067Y150254D01*
X284070Y150280D01*
X284048Y150338D01*
X284034Y150398D01*
X284017Y150418D01*
X284008Y150442D01*
X283963Y150484D01*
X283924Y150531D01*
X283900Y150542D01*
X283881Y150559D01*
X283822Y150577D01*
X283765Y150602D01*
X283740Y150601D01*
X283715Y150609D01*
X283654Y150598D01*
X283592Y150596D01*
X283570Y150583D01*
X283544Y150579D01*
X283473Y150531D01*
X283440Y150513D01*
X283434Y150505D01*
X283424Y150498D01*
X283262Y150335D01*
X272998Y150335D01*
X272049Y151285D01*
X272006Y151312D01*
X271968Y151346D01*
X271933Y151357D01*
X271902Y151376D01*
X271851Y151381D01*
X271802Y151396D01*
X271766Y151389D01*
X271729Y151393D01*
X271682Y151375D01*
X271631Y151366D01*
X271596Y151342D01*
X271567Y151331D01*
X271546Y151309D01*
X271511Y151285D01*
X270562Y150335D01*
X260298Y150335D01*
X259349Y151285D01*
X259306Y151312D01*
X259268Y151346D01*
X259233Y151357D01*
X259202Y151376D01*
X259151Y151381D01*
X259102Y151396D01*
X259066Y151389D01*
X259029Y151393D01*
X258982Y151375D01*
X258931Y151366D01*
X258896Y151342D01*
X258867Y151331D01*
X258846Y151309D01*
X258811Y151285D01*
X257862Y150335D01*
X247598Y150335D01*
X246649Y151285D01*
X246606Y151312D01*
X246568Y151346D01*
X246533Y151357D01*
X246502Y151376D01*
X246451Y151381D01*
X246402Y151396D01*
X246366Y151389D01*
X246329Y151393D01*
X246282Y151375D01*
X246231Y151366D01*
X246196Y151342D01*
X246167Y151331D01*
X246146Y151309D01*
X246111Y151285D01*
X245162Y150335D01*
X243411Y150335D01*
X243361Y150324D01*
X243310Y150322D01*
X243278Y150304D01*
X243242Y150296D01*
X243203Y150263D01*
X243158Y150239D01*
X243137Y150209D01*
X243109Y150186D01*
X243088Y150139D01*
X243058Y150097D01*
X243050Y150055D01*
X243038Y150027D01*
X243039Y149997D01*
X243031Y149955D01*
X243031Y148617D01*
X237463Y143049D01*
X232050Y143049D01*
X232025Y143043D01*
X231999Y143046D01*
X231941Y143024D01*
X231881Y143010D01*
X231861Y142993D01*
X231837Y142984D01*
X231795Y142939D01*
X231748Y142900D01*
X231737Y142876D01*
X231720Y142857D01*
X231702Y142798D01*
X231677Y142741D01*
X231678Y142716D01*
X231670Y142691D01*
X231681Y142630D01*
X231683Y142568D01*
X231696Y142546D01*
X231700Y142520D01*
X231748Y142449D01*
X231766Y142416D01*
X231774Y142410D01*
X231781Y142400D01*
X232387Y141795D01*
X232387Y137605D01*
X229425Y134643D01*
X226674Y134643D01*
X226600Y134626D01*
X226526Y134613D01*
X226515Y134606D01*
X226506Y134604D01*
X226477Y134580D01*
X226406Y134532D01*
X217362Y125488D01*
X215493Y123619D01*
X146809Y123619D01*
X146736Y123602D01*
X146662Y123590D01*
X146652Y123583D01*
X146640Y123580D01*
X146583Y123532D01*
X146522Y123488D01*
X146516Y123477D01*
X146507Y123470D01*
X146476Y123401D01*
X146441Y123335D01*
X146441Y123323D01*
X146436Y123311D01*
X146439Y123237D01*
X146437Y123162D01*
X146442Y123151D01*
X146442Y123138D01*
X146478Y123072D01*
X146510Y123005D01*
X146520Y122996D01*
X146525Y122986D01*
X146556Y122964D01*
X146619Y122910D01*
X147150Y122603D01*
X147623Y122130D01*
X147958Y121551D01*
X148131Y120905D01*
X148131Y116331D01*
X140471Y116331D01*
X140421Y116320D01*
X140370Y116318D01*
X140338Y116300D01*
X140302Y116292D01*
X140263Y116259D01*
X140218Y116235D01*
X140197Y116205D01*
X140169Y116181D01*
X140148Y116135D01*
X140118Y116093D01*
X140110Y116051D01*
X140098Y116023D01*
X140099Y115999D01*
X140098Y115997D01*
X140098Y115988D01*
X140091Y115951D01*
X140091Y115569D01*
X140089Y115569D01*
X140089Y115951D01*
X140078Y116001D01*
X140076Y116052D01*
X140058Y116084D01*
X140050Y116120D01*
X140017Y116159D01*
X139993Y116204D01*
X139963Y116225D01*
X139939Y116253D01*
X139893Y116274D01*
X139851Y116304D01*
X139809Y116312D01*
X139781Y116324D01*
X139751Y116323D01*
X139709Y116331D01*
X132049Y116331D01*
X132049Y120905D01*
X132222Y121551D01*
X132557Y122130D01*
X133030Y122603D01*
X133561Y122910D01*
X133616Y122961D01*
X133673Y123008D01*
X133678Y123020D01*
X133687Y123028D01*
X133714Y123098D01*
X133744Y123167D01*
X133744Y123179D01*
X133748Y123191D01*
X133740Y123265D01*
X133738Y123340D01*
X133732Y123351D01*
X133730Y123363D01*
X133691Y123426D01*
X133655Y123492D01*
X133645Y123499D01*
X133638Y123510D01*
X133574Y123549D01*
X133513Y123592D01*
X133500Y123594D01*
X133490Y123600D01*
X133453Y123603D01*
X133371Y123619D01*
X96877Y123619D01*
X96827Y123608D01*
X96776Y123606D01*
X96744Y123588D01*
X96708Y123580D01*
X96669Y123547D01*
X96624Y123523D01*
X96603Y123493D01*
X96575Y123470D01*
X96554Y123423D01*
X96524Y123381D01*
X96516Y123339D01*
X96504Y123311D01*
X96505Y123281D01*
X96497Y123239D01*
X96497Y121095D01*
X93535Y118133D01*
X89366Y118133D01*
X89332Y118125D01*
X89297Y118127D01*
X89249Y118106D01*
X89197Y118094D01*
X89170Y118072D01*
X89138Y118058D01*
X89104Y118017D01*
X89063Y117984D01*
X89049Y117952D01*
X89027Y117925D01*
X89014Y117874D01*
X88993Y117825D01*
X88994Y117791D01*
X88986Y117757D01*
X88997Y117705D01*
X88999Y117652D01*
X89016Y117622D01*
X89023Y117588D01*
X89063Y117534D01*
X89082Y117500D01*
X89096Y117490D01*
X89110Y117472D01*
X97802Y109570D01*
X97834Y109552D01*
X97859Y109527D01*
X97920Y109504D01*
X97953Y109486D01*
X97972Y109485D01*
X97995Y109476D01*
X102917Y108656D01*
X102938Y108657D01*
X102958Y108651D01*
X103024Y108663D01*
X103090Y108667D01*
X103108Y108678D01*
X103128Y108681D01*
X103214Y108739D01*
X103240Y108754D01*
X103243Y108758D01*
X103248Y108762D01*
X104052Y109566D01*
X104073Y109599D01*
X104085Y109610D01*
X104099Y109640D01*
X104136Y109692D01*
X104138Y109704D01*
X104143Y109713D01*
X104146Y109746D01*
X104156Y109768D01*
X104155Y109794D01*
X104163Y109834D01*
X104163Y112585D01*
X107125Y115547D01*
X111315Y115547D01*
X114277Y112585D01*
X114277Y108395D01*
X111917Y106036D01*
X111904Y106014D01*
X111884Y105998D01*
X111858Y105941D01*
X111826Y105889D01*
X111823Y105863D01*
X111813Y105839D01*
X111815Y105778D01*
X111809Y105716D01*
X111818Y105692D01*
X111819Y105666D01*
X111849Y105612D01*
X111871Y105554D01*
X111890Y105537D01*
X111902Y105514D01*
X111953Y105479D01*
X111998Y105437D01*
X112023Y105429D01*
X112044Y105414D01*
X112128Y105398D01*
X112164Y105387D01*
X112174Y105389D01*
X112186Y105387D01*
X116395Y105387D01*
X119357Y102425D01*
X119357Y98235D01*
X116395Y95273D01*
X112205Y95273D01*
X109243Y98235D01*
X109243Y102425D01*
X111603Y104784D01*
X111616Y104806D01*
X111636Y104822D01*
X111662Y104879D01*
X111694Y104931D01*
X111697Y104957D01*
X111707Y104981D01*
X111705Y105042D01*
X111711Y105104D01*
X111702Y105128D01*
X111701Y105154D01*
X111671Y105208D01*
X111649Y105266D01*
X111630Y105283D01*
X111618Y105306D01*
X111567Y105341D01*
X111522Y105383D01*
X111497Y105391D01*
X111476Y105406D01*
X111392Y105422D01*
X111356Y105433D01*
X111346Y105431D01*
X111334Y105433D01*
X108564Y105433D01*
X108490Y105416D01*
X108416Y105403D01*
X108406Y105396D01*
X108396Y105394D01*
X108367Y105370D01*
X108296Y105322D01*
X107028Y104054D01*
X107004Y104016D01*
X106972Y103984D01*
X106955Y103936D01*
X106937Y103907D01*
X106934Y103881D01*
X106922Y103848D01*
X106896Y103691D01*
X106112Y103131D01*
X106094Y103111D01*
X106064Y103090D01*
X105383Y102409D01*
X105223Y102409D01*
X105179Y102399D01*
X105134Y102399D01*
X105088Y102378D01*
X105055Y102370D01*
X105035Y102353D01*
X105002Y102338D01*
X104873Y102246D01*
X103923Y102404D01*
X103896Y102402D01*
X103860Y102409D01*
X102897Y102409D01*
X102784Y102522D01*
X102746Y102546D01*
X102714Y102578D01*
X102666Y102595D01*
X102637Y102613D01*
X102611Y102616D01*
X102578Y102628D01*
X96383Y103661D01*
X96350Y103659D01*
X96302Y103665D01*
X95421Y103624D01*
X95238Y103790D01*
X95206Y103808D01*
X95181Y103833D01*
X95120Y103856D01*
X95087Y103874D01*
X95068Y103875D01*
X95045Y103884D01*
X94801Y103924D01*
X94288Y104642D01*
X94263Y104664D01*
X94234Y104703D01*
X81300Y116461D01*
X81264Y116481D01*
X81235Y116509D01*
X81180Y116528D01*
X81148Y116545D01*
X81126Y116547D01*
X81098Y116556D01*
X80895Y116585D01*
X80342Y117322D01*
X80319Y117342D01*
X80294Y117376D01*
X79612Y117996D01*
X79602Y118200D01*
X79591Y118239D01*
X79590Y118280D01*
X79565Y118331D01*
X79555Y118367D01*
X79539Y118384D01*
X79526Y118410D01*
X79404Y118574D01*
X79534Y119486D01*
X79531Y119517D01*
X79537Y119558D01*
X79494Y120479D01*
X79631Y120630D01*
X79635Y120636D01*
X79635Y120637D01*
X79637Y120641D01*
X79651Y120666D01*
X79679Y120695D01*
X79698Y120750D01*
X79715Y120782D01*
X79717Y120804D01*
X79726Y120832D01*
X80815Y128456D01*
X80813Y128480D01*
X80819Y128510D01*
X80819Y129513D01*
X80901Y129595D01*
X80927Y129637D01*
X80961Y129673D01*
X80976Y129715D01*
X80993Y129742D01*
X80995Y129771D01*
X81009Y129810D01*
X81025Y129925D01*
X81827Y130526D01*
X81842Y130544D01*
X81868Y130562D01*
X82276Y130970D01*
X82290Y130992D01*
X82310Y131008D01*
X82335Y131065D01*
X82368Y131117D01*
X82370Y131143D01*
X82381Y131167D01*
X82379Y131228D01*
X82384Y131290D01*
X82375Y131314D01*
X82374Y131340D01*
X82345Y131394D01*
X82323Y131452D01*
X82304Y131469D01*
X82292Y131492D01*
X82241Y131527D01*
X82196Y131569D01*
X82171Y131577D01*
X82150Y131592D01*
X82065Y131608D01*
X82030Y131619D01*
X82020Y131617D01*
X82008Y131619D01*
X75428Y131619D01*
X75354Y131602D01*
X75279Y131589D01*
X75269Y131582D01*
X75259Y131580D01*
X75231Y131556D01*
X75159Y131508D01*
X73215Y129563D01*
X69025Y129563D01*
X66063Y132525D01*
X66063Y134562D01*
X66057Y134587D01*
X66060Y134612D01*
X66050Y134637D01*
X66050Y134657D01*
X66034Y134686D01*
X66024Y134730D01*
X66007Y134750D01*
X65998Y134774D01*
X65974Y134797D01*
X65967Y134809D01*
X65947Y134823D01*
X65914Y134864D01*
X65890Y134875D01*
X65871Y134892D01*
X65834Y134903D01*
X65825Y134909D01*
X65804Y134913D01*
X65755Y134935D01*
X65730Y134934D01*
X65705Y134941D01*
X65679Y134937D01*
X65678Y134937D01*
X65675Y134936D01*
X65644Y134931D01*
X65582Y134928D01*
X65560Y134916D01*
X65534Y134912D01*
X65515Y134899D01*
X65509Y134897D01*
X65492Y134883D01*
X65463Y134863D01*
X65430Y134846D01*
X65424Y134837D01*
X65414Y134830D01*
X65342Y134758D01*
X65302Y134694D01*
X65258Y134632D01*
X65256Y134620D01*
X65251Y134611D01*
X65247Y134574D01*
X65231Y134490D01*
X65231Y104638D01*
X65248Y104564D01*
X65261Y104489D01*
X65268Y104479D01*
X65270Y104469D01*
X65294Y104441D01*
X65342Y104369D01*
X67287Y102425D01*
X67287Y98235D01*
X64325Y95273D01*
X60135Y95273D01*
X57173Y98235D01*
X57173Y102425D01*
X59118Y104369D01*
X59158Y104434D01*
X59202Y104496D01*
X59204Y104508D01*
X59209Y104516D01*
X59213Y104553D01*
X59229Y104638D01*
X59229Y137133D01*
X66067Y143971D01*
X96163Y143971D01*
X96213Y143982D01*
X96264Y143984D01*
X96296Y144002D01*
X96332Y144010D01*
X96371Y144043D01*
X96416Y144067D01*
X96437Y144097D01*
X96465Y144120D01*
X96486Y144167D01*
X96516Y144209D01*
X96524Y144251D01*
X96536Y144279D01*
X96535Y144309D01*
X96539Y144331D01*
X99505Y147297D01*
X103695Y147297D01*
X106657Y144335D01*
X106657Y142001D01*
X106668Y141951D01*
X106670Y141900D01*
X106688Y141868D01*
X106696Y141832D01*
X106729Y141793D01*
X106753Y141748D01*
X106783Y141727D01*
X106806Y141699D01*
X106853Y141678D01*
X106895Y141648D01*
X106937Y141640D01*
X106965Y141628D01*
X106995Y141629D01*
X107037Y141621D01*
X167510Y141621D01*
X167584Y141638D01*
X167658Y141651D01*
X167668Y141658D01*
X167678Y141660D01*
X167707Y141684D01*
X167778Y141732D01*
X168822Y142776D01*
X168862Y142840D01*
X168906Y142902D01*
X168908Y142914D01*
X168913Y142923D01*
X168917Y142960D01*
X168933Y143044D01*
X168933Y143065D01*
X169539Y143670D01*
X169552Y143692D01*
X169572Y143708D01*
X169598Y143765D01*
X169630Y143817D01*
X169633Y143843D01*
X169643Y143867D01*
X169641Y143928D01*
X169647Y143990D01*
X169638Y144014D01*
X169637Y144040D01*
X169607Y144094D01*
X169585Y144152D01*
X169566Y144169D01*
X169554Y144192D01*
X169503Y144227D01*
X169458Y144269D01*
X169433Y144277D01*
X169412Y144292D01*
X169328Y144308D01*
X169292Y144319D01*
X169282Y144317D01*
X169270Y144319D01*
X152427Y144319D01*
X148129Y148617D01*
X148129Y149955D01*
X148118Y150005D01*
X148116Y150056D01*
X148098Y150088D01*
X148090Y150124D01*
X148057Y150163D01*
X148033Y150208D01*
X148003Y150229D01*
X147980Y150257D01*
X147933Y150278D01*
X147891Y150308D01*
X147849Y150316D01*
X147821Y150328D01*
X147791Y150327D01*
X147749Y150335D01*
X145998Y150335D01*
X145049Y151285D01*
X145006Y151312D01*
X144968Y151346D01*
X144933Y151357D01*
X144902Y151376D01*
X144851Y151381D01*
X144802Y151396D01*
X144766Y151389D01*
X144729Y151393D01*
X144682Y151375D01*
X144631Y151366D01*
X144596Y151342D01*
X144567Y151331D01*
X144546Y151309D01*
X144511Y151285D01*
X143562Y150335D01*
X133298Y150335D01*
X132349Y151285D01*
X132306Y151312D01*
X132268Y151346D01*
X132233Y151357D01*
X132202Y151376D01*
X132151Y151381D01*
X132102Y151396D01*
X132066Y151389D01*
X132029Y151393D01*
X131982Y151375D01*
X131931Y151366D01*
X131896Y151342D01*
X131867Y151331D01*
X131846Y151309D01*
X131811Y151285D01*
X130862Y150335D01*
X120598Y150335D01*
X119649Y151285D01*
X119606Y151312D01*
X119568Y151346D01*
X119533Y151357D01*
X119502Y151376D01*
X119451Y151381D01*
X119402Y151396D01*
X119366Y151389D01*
X119329Y151393D01*
X119282Y151375D01*
X119231Y151366D01*
X119196Y151342D01*
X119167Y151331D01*
X119146Y151309D01*
X119111Y151285D01*
X118162Y150335D01*
X107898Y150335D01*
X106949Y151285D01*
X106906Y151312D01*
X106868Y151346D01*
X106833Y151357D01*
X106802Y151376D01*
X106751Y151381D01*
X106702Y151396D01*
X106666Y151389D01*
X106629Y151393D01*
X106582Y151375D01*
X106531Y151366D01*
X106496Y151342D01*
X106467Y151331D01*
X106446Y151309D01*
X106411Y151285D01*
X105462Y150335D01*
X95198Y150335D01*
X94249Y151285D01*
X94206Y151312D01*
X94168Y151346D01*
X94133Y151357D01*
X94102Y151376D01*
X94051Y151381D01*
X94002Y151396D01*
X93966Y151389D01*
X93929Y151393D01*
X93882Y151375D01*
X93831Y151366D01*
X93796Y151342D01*
X93767Y151331D01*
X93746Y151309D01*
X93711Y151285D01*
X92762Y150335D01*
X82498Y150335D01*
X81549Y151285D01*
X81506Y151312D01*
X81468Y151346D01*
X81433Y151357D01*
X81402Y151376D01*
X81351Y151381D01*
X81302Y151396D01*
X81266Y151389D01*
X81229Y151393D01*
X81182Y151375D01*
X81131Y151366D01*
X81096Y151342D01*
X81067Y151331D01*
X81046Y151309D01*
X81011Y151285D01*
X80062Y150335D01*
X69798Y150335D01*
X68849Y151285D01*
X68806Y151312D01*
X68768Y151346D01*
X68733Y151357D01*
X68702Y151376D01*
X68651Y151381D01*
X68602Y151396D01*
X68566Y151389D01*
X68529Y151393D01*
X68482Y151375D01*
X68431Y151366D01*
X68396Y151342D01*
X68367Y151331D01*
X68346Y151309D01*
X68311Y151285D01*
X67362Y150335D01*
X57098Y150335D01*
X56805Y150628D01*
X56794Y150635D01*
X56786Y150647D01*
X56721Y150681D01*
X56658Y150720D01*
X56645Y150721D01*
X56633Y150727D01*
X56559Y150729D01*
X56486Y150736D01*
X56473Y150731D01*
X56459Y150732D01*
X56393Y150701D01*
X56324Y150675D01*
X56315Y150665D01*
X56302Y150659D01*
X56207Y150550D01*
X56063Y150300D01*
X55590Y149827D01*
X55011Y149492D01*
X54365Y149319D01*
X50291Y149319D01*
X50291Y159979D01*
X50280Y160029D01*
X50278Y160080D01*
X50260Y160112D01*
X50252Y160148D01*
X50219Y160187D01*
X50195Y160232D01*
X50165Y160253D01*
X50141Y160281D01*
X50095Y160302D01*
X50053Y160332D01*
X50011Y160340D01*
X49983Y160352D01*
X49953Y160351D01*
X49911Y160359D01*
X49149Y160359D01*
X49099Y160348D01*
X49048Y160346D01*
X49016Y160328D01*
X48980Y160320D01*
X48941Y160287D01*
X48896Y160263D01*
X48875Y160233D01*
X48847Y160209D01*
X48826Y160163D01*
X48796Y160121D01*
X48788Y160079D01*
X48776Y160051D01*
X48777Y160021D01*
X48769Y159979D01*
X48769Y149319D01*
X44695Y149319D01*
X44049Y149492D01*
X43470Y149827D01*
X42997Y150300D01*
X42662Y150879D01*
X42489Y151525D01*
X42489Y156877D01*
X42478Y156927D01*
X42476Y156978D01*
X42458Y157010D01*
X42450Y157046D01*
X42417Y157085D01*
X42393Y157130D01*
X42363Y157151D01*
X42340Y157179D01*
X42293Y157200D01*
X42251Y157230D01*
X42209Y157238D01*
X42181Y157250D01*
X42151Y157249D01*
X42109Y157257D01*
X36830Y157257D01*
X36780Y157246D01*
X36729Y157244D01*
X36697Y157226D01*
X36661Y157218D01*
X36622Y157185D01*
X36577Y157161D01*
X36556Y157131D01*
X36528Y157108D01*
X36507Y157061D01*
X36477Y157019D01*
X36469Y156977D01*
X36457Y156949D01*
X36458Y156919D01*
X36450Y156877D01*
X36450Y76279D01*
X36466Y76209D01*
X36477Y76138D01*
X36486Y76124D01*
X36489Y76110D01*
X36514Y76080D01*
X36555Y76016D01*
X38802Y73658D01*
X38819Y73647D01*
X38837Y73626D01*
X62499Y54329D01*
X62518Y54319D01*
X62538Y54301D01*
X88428Y38115D01*
X88448Y38108D01*
X88470Y38092D01*
X116182Y25271D01*
X116202Y25267D01*
X116226Y25254D01*
X145323Y15999D01*
X145344Y15997D01*
X145369Y15987D01*
X175396Y10444D01*
X175417Y10445D01*
X175443Y10439D01*
X205927Y8694D01*
X205947Y8698D01*
G37*
G36*
X49961Y160372D02*
X49961Y160372D01*
X50012Y160374D01*
X50044Y160392D01*
X50080Y160400D01*
X50119Y160433D01*
X50164Y160457D01*
X50185Y160487D01*
X50213Y160511D01*
X50234Y160557D01*
X50264Y160599D01*
X50272Y160641D01*
X50284Y160669D01*
X50283Y160699D01*
X50291Y160741D01*
X50291Y171401D01*
X54365Y171401D01*
X55011Y171228D01*
X55590Y170893D01*
X56063Y170420D01*
X56207Y170170D01*
X56216Y170161D01*
X56221Y170148D01*
X56275Y170098D01*
X56326Y170044D01*
X56339Y170039D01*
X56348Y170030D01*
X56419Y170009D01*
X56488Y169983D01*
X56502Y169985D01*
X56515Y169981D01*
X56587Y169994D01*
X56660Y170001D01*
X56672Y170008D01*
X56685Y170011D01*
X56805Y170092D01*
X57098Y170385D01*
X58849Y170385D01*
X58899Y170396D01*
X58950Y170398D01*
X58982Y170416D01*
X59018Y170424D01*
X59057Y170457D01*
X59102Y170481D01*
X59123Y170511D01*
X59151Y170534D01*
X59172Y170581D01*
X59202Y170623D01*
X59210Y170665D01*
X59222Y170693D01*
X59221Y170723D01*
X59229Y170765D01*
X59229Y170952D01*
X59212Y171026D01*
X59199Y171101D01*
X59192Y171111D01*
X59190Y171121D01*
X59166Y171149D01*
X59118Y171221D01*
X57173Y173165D01*
X57173Y177355D01*
X60135Y180317D01*
X64325Y180317D01*
X67287Y177355D01*
X67287Y173165D01*
X65342Y171221D01*
X65302Y171156D01*
X65258Y171094D01*
X65256Y171082D01*
X65251Y171074D01*
X65247Y171037D01*
X65231Y170952D01*
X65231Y170765D01*
X65242Y170715D01*
X65244Y170664D01*
X65262Y170632D01*
X65270Y170596D01*
X65303Y170557D01*
X65327Y170512D01*
X65357Y170491D01*
X65380Y170463D01*
X65427Y170442D01*
X65469Y170412D01*
X65511Y170404D01*
X65539Y170392D01*
X65569Y170393D01*
X65611Y170385D01*
X67362Y170385D01*
X68311Y169435D01*
X68354Y169408D01*
X68392Y169374D01*
X68427Y169363D01*
X68458Y169344D01*
X68509Y169339D01*
X68558Y169324D01*
X68594Y169331D01*
X68631Y169327D01*
X68678Y169345D01*
X68729Y169354D01*
X68764Y169378D01*
X68793Y169389D01*
X68814Y169411D01*
X68849Y169435D01*
X69798Y170385D01*
X71549Y170385D01*
X71599Y170396D01*
X71650Y170398D01*
X71682Y170416D01*
X71718Y170424D01*
X71757Y170457D01*
X71802Y170481D01*
X71823Y170511D01*
X71851Y170534D01*
X71872Y170581D01*
X71902Y170623D01*
X71910Y170665D01*
X71922Y170693D01*
X71921Y170723D01*
X71929Y170765D01*
X71929Y170952D01*
X71912Y171026D01*
X71899Y171101D01*
X71892Y171111D01*
X71890Y171121D01*
X71866Y171149D01*
X71818Y171221D01*
X69873Y173165D01*
X69873Y177355D01*
X72835Y180317D01*
X77025Y180317D01*
X79987Y177355D01*
X79987Y173165D01*
X78042Y171221D01*
X78002Y171156D01*
X77958Y171094D01*
X77956Y171082D01*
X77951Y171074D01*
X77947Y171037D01*
X77931Y170952D01*
X77931Y170765D01*
X77942Y170715D01*
X77944Y170664D01*
X77962Y170632D01*
X77970Y170596D01*
X78003Y170557D01*
X78027Y170512D01*
X78057Y170491D01*
X78080Y170463D01*
X78127Y170442D01*
X78169Y170412D01*
X78211Y170404D01*
X78239Y170392D01*
X78269Y170393D01*
X78311Y170385D01*
X80062Y170385D01*
X81011Y169435D01*
X81054Y169408D01*
X81092Y169374D01*
X81127Y169363D01*
X81158Y169344D01*
X81209Y169339D01*
X81258Y169324D01*
X81294Y169331D01*
X81331Y169327D01*
X81378Y169345D01*
X81429Y169354D01*
X81464Y169378D01*
X81493Y169389D01*
X81514Y169411D01*
X81549Y169435D01*
X82498Y170385D01*
X84249Y170385D01*
X84299Y170396D01*
X84350Y170398D01*
X84382Y170416D01*
X84418Y170424D01*
X84457Y170457D01*
X84502Y170481D01*
X84523Y170511D01*
X84551Y170534D01*
X84572Y170581D01*
X84602Y170623D01*
X84610Y170665D01*
X84622Y170693D01*
X84621Y170723D01*
X84629Y170765D01*
X84629Y170952D01*
X84612Y171026D01*
X84599Y171101D01*
X84592Y171111D01*
X84590Y171121D01*
X84566Y171149D01*
X84518Y171221D01*
X82573Y173165D01*
X82573Y177355D01*
X85535Y180317D01*
X89725Y180317D01*
X92687Y177355D01*
X92687Y173165D01*
X90742Y171221D01*
X90702Y171156D01*
X90658Y171094D01*
X90656Y171082D01*
X90651Y171074D01*
X90647Y171037D01*
X90631Y170952D01*
X90631Y170765D01*
X90642Y170715D01*
X90644Y170664D01*
X90662Y170632D01*
X90670Y170596D01*
X90703Y170557D01*
X90727Y170512D01*
X90757Y170491D01*
X90780Y170463D01*
X90827Y170442D01*
X90869Y170412D01*
X90911Y170404D01*
X90939Y170392D01*
X90969Y170393D01*
X91011Y170385D01*
X92762Y170385D01*
X93711Y169435D01*
X93754Y169408D01*
X93792Y169374D01*
X93827Y169363D01*
X93858Y169344D01*
X93909Y169339D01*
X93958Y169324D01*
X93994Y169331D01*
X94031Y169327D01*
X94078Y169345D01*
X94129Y169354D01*
X94164Y169378D01*
X94193Y169389D01*
X94214Y169411D01*
X94249Y169435D01*
X95198Y170385D01*
X96949Y170385D01*
X96999Y170396D01*
X97050Y170398D01*
X97082Y170416D01*
X97118Y170424D01*
X97157Y170457D01*
X97202Y170481D01*
X97223Y170511D01*
X97251Y170534D01*
X97272Y170581D01*
X97302Y170623D01*
X97310Y170665D01*
X97322Y170693D01*
X97321Y170723D01*
X97329Y170765D01*
X97329Y170952D01*
X97312Y171026D01*
X97299Y171101D01*
X97292Y171111D01*
X97290Y171121D01*
X97266Y171149D01*
X97218Y171221D01*
X95273Y173165D01*
X95273Y177355D01*
X98235Y180317D01*
X102425Y180317D01*
X105387Y177355D01*
X105387Y173165D01*
X103442Y171221D01*
X103402Y171156D01*
X103358Y171094D01*
X103356Y171082D01*
X103351Y171074D01*
X103347Y171037D01*
X103331Y170952D01*
X103331Y170765D01*
X103342Y170715D01*
X103344Y170664D01*
X103362Y170632D01*
X103370Y170596D01*
X103403Y170557D01*
X103427Y170512D01*
X103457Y170491D01*
X103480Y170463D01*
X103527Y170442D01*
X103569Y170412D01*
X103611Y170404D01*
X103639Y170392D01*
X103669Y170393D01*
X103711Y170385D01*
X105462Y170385D01*
X106411Y169435D01*
X106454Y169408D01*
X106492Y169374D01*
X106527Y169363D01*
X106558Y169344D01*
X106609Y169339D01*
X106658Y169324D01*
X106694Y169331D01*
X106731Y169327D01*
X106778Y169345D01*
X106829Y169354D01*
X106864Y169378D01*
X106893Y169389D01*
X106914Y169411D01*
X106949Y169435D01*
X107898Y170385D01*
X109649Y170385D01*
X109699Y170396D01*
X109750Y170398D01*
X109782Y170416D01*
X109818Y170424D01*
X109857Y170457D01*
X109902Y170481D01*
X109923Y170511D01*
X109951Y170534D01*
X109972Y170581D01*
X110002Y170623D01*
X110010Y170665D01*
X110022Y170693D01*
X110021Y170723D01*
X110029Y170765D01*
X110029Y189100D01*
X110012Y189174D01*
X109999Y189248D01*
X109992Y189258D01*
X109990Y189268D01*
X109966Y189297D01*
X109918Y189368D01*
X89709Y209577D01*
X89709Y285252D01*
X89692Y285326D01*
X89679Y285401D01*
X89672Y285411D01*
X89670Y285421D01*
X89646Y285449D01*
X89598Y285521D01*
X87653Y287465D01*
X87653Y291655D01*
X90615Y294617D01*
X94805Y294617D01*
X97767Y291655D01*
X97767Y287465D01*
X95822Y285521D01*
X95782Y285456D01*
X95738Y285394D01*
X95736Y285382D01*
X95731Y285374D01*
X95727Y285337D01*
X95711Y285252D01*
X95711Y212220D01*
X95728Y212146D01*
X95741Y212072D01*
X95748Y212062D01*
X95750Y212052D01*
X95774Y212023D01*
X95822Y211952D01*
X116031Y191743D01*
X116031Y170765D01*
X116042Y170715D01*
X116044Y170664D01*
X116062Y170632D01*
X116070Y170596D01*
X116103Y170557D01*
X116127Y170512D01*
X116157Y170491D01*
X116180Y170463D01*
X116227Y170442D01*
X116269Y170412D01*
X116311Y170404D01*
X116339Y170392D01*
X116369Y170393D01*
X116411Y170385D01*
X118162Y170385D01*
X119111Y169435D01*
X119154Y169408D01*
X119192Y169374D01*
X119227Y169363D01*
X119258Y169344D01*
X119309Y169339D01*
X119358Y169324D01*
X119394Y169331D01*
X119431Y169327D01*
X119478Y169345D01*
X119529Y169354D01*
X119564Y169378D01*
X119593Y169389D01*
X119614Y169411D01*
X119649Y169435D01*
X120598Y170385D01*
X130862Y170385D01*
X131811Y169435D01*
X131854Y169408D01*
X131892Y169374D01*
X131927Y169363D01*
X131958Y169344D01*
X132009Y169339D01*
X132058Y169324D01*
X132094Y169331D01*
X132131Y169327D01*
X132178Y169345D01*
X132229Y169354D01*
X132264Y169378D01*
X132293Y169389D01*
X132314Y169411D01*
X132349Y169435D01*
X133298Y170385D01*
X143562Y170385D01*
X144511Y169435D01*
X144554Y169408D01*
X144592Y169374D01*
X144627Y169363D01*
X144658Y169344D01*
X144709Y169339D01*
X144758Y169324D01*
X144794Y169331D01*
X144831Y169327D01*
X144878Y169345D01*
X144929Y169354D01*
X144964Y169378D01*
X144993Y169389D01*
X145014Y169411D01*
X145049Y169435D01*
X145998Y170385D01*
X156262Y170385D01*
X157211Y169435D01*
X157254Y169408D01*
X157292Y169374D01*
X157327Y169363D01*
X157358Y169344D01*
X157409Y169339D01*
X157458Y169324D01*
X157494Y169331D01*
X157531Y169327D01*
X157578Y169345D01*
X157629Y169354D01*
X157664Y169378D01*
X157693Y169389D01*
X157714Y169411D01*
X157749Y169435D01*
X158698Y170385D01*
X159366Y170385D01*
X159391Y170391D01*
X159417Y170388D01*
X159475Y170410D01*
X159535Y170424D01*
X159555Y170441D01*
X159579Y170450D01*
X159621Y170495D01*
X159668Y170534D01*
X159679Y170558D01*
X159696Y170577D01*
X159714Y170636D01*
X159739Y170693D01*
X159738Y170718D01*
X159746Y170743D01*
X159735Y170804D01*
X159733Y170866D01*
X159720Y170888D01*
X159716Y170914D01*
X159668Y170985D01*
X159650Y171018D01*
X159642Y171024D01*
X159635Y171034D01*
X158773Y171895D01*
X158773Y176085D01*
X160718Y178029D01*
X160729Y178046D01*
X160739Y178055D01*
X160751Y178083D01*
X160758Y178094D01*
X160802Y178156D01*
X160804Y178168D01*
X160809Y178176D01*
X160813Y178213D01*
X160829Y178298D01*
X160829Y203983D01*
X170878Y214032D01*
X171366Y214520D01*
X171380Y214542D01*
X171400Y214558D01*
X171425Y214615D01*
X171458Y214667D01*
X171460Y214693D01*
X171471Y214717D01*
X171469Y214778D01*
X171474Y214840D01*
X171465Y214864D01*
X171464Y214890D01*
X171435Y214944D01*
X171413Y215002D01*
X171394Y215019D01*
X171382Y215042D01*
X171331Y215077D01*
X171286Y215119D01*
X171261Y215127D01*
X171240Y215142D01*
X171155Y215158D01*
X171120Y215169D01*
X171110Y215167D01*
X171098Y215169D01*
X165328Y215169D01*
X165254Y215152D01*
X165179Y215139D01*
X165169Y215132D01*
X165159Y215130D01*
X165131Y215106D01*
X165059Y215058D01*
X164655Y214653D01*
X160465Y214653D01*
X157503Y217615D01*
X157503Y221929D01*
X157511Y221970D01*
X157511Y293661D01*
X157494Y293735D01*
X157481Y293810D01*
X157474Y293820D01*
X157472Y293830D01*
X157448Y293859D01*
X157400Y293930D01*
X144070Y307260D01*
X144006Y307300D01*
X143943Y307344D01*
X143931Y307346D01*
X143923Y307351D01*
X143886Y307355D01*
X143801Y307371D01*
X72839Y307371D01*
X60258Y319952D01*
X60228Y319970D01*
X57173Y323025D01*
X57173Y327339D01*
X57181Y327380D01*
X57181Y330095D01*
X57164Y330169D01*
X57151Y330244D01*
X57144Y330254D01*
X57142Y330264D01*
X57118Y330292D01*
X57070Y330364D01*
X56805Y330628D01*
X56794Y330635D01*
X56786Y330647D01*
X56721Y330681D01*
X56658Y330720D01*
X56645Y330721D01*
X56633Y330727D01*
X56559Y330729D01*
X56486Y330736D01*
X56473Y330731D01*
X56459Y330732D01*
X56393Y330701D01*
X56324Y330675D01*
X56315Y330665D01*
X56302Y330659D01*
X56207Y330550D01*
X56063Y330300D01*
X55590Y329827D01*
X55011Y329492D01*
X54365Y329319D01*
X50291Y329319D01*
X50291Y339979D01*
X50280Y340029D01*
X50278Y340080D01*
X50260Y340112D01*
X50252Y340148D01*
X50219Y340187D01*
X50195Y340232D01*
X50165Y340253D01*
X50141Y340281D01*
X50095Y340302D01*
X50053Y340332D01*
X50011Y340340D01*
X49983Y340352D01*
X49953Y340351D01*
X49911Y340359D01*
X49149Y340359D01*
X49099Y340348D01*
X49048Y340346D01*
X49016Y340328D01*
X48980Y340320D01*
X48941Y340287D01*
X48896Y340263D01*
X48875Y340233D01*
X48847Y340209D01*
X48826Y340163D01*
X48796Y340121D01*
X48788Y340079D01*
X48776Y340051D01*
X48777Y340021D01*
X48769Y339979D01*
X48769Y329319D01*
X45053Y329319D01*
X45003Y329308D01*
X44952Y329306D01*
X44920Y329288D01*
X44884Y329280D01*
X44845Y329247D01*
X44800Y329223D01*
X44779Y329193D01*
X44751Y329170D01*
X44730Y329123D01*
X44700Y329081D01*
X44692Y329039D01*
X44680Y329011D01*
X44681Y328981D01*
X44673Y328939D01*
X44673Y171781D01*
X44684Y171731D01*
X44686Y171680D01*
X44704Y171648D01*
X44712Y171612D01*
X44745Y171573D01*
X44769Y171528D01*
X44799Y171507D01*
X44822Y171479D01*
X44869Y171458D01*
X44911Y171428D01*
X44953Y171420D01*
X44981Y171408D01*
X45011Y171409D01*
X45053Y171401D01*
X48769Y171401D01*
X48769Y160741D01*
X48780Y160691D01*
X48782Y160640D01*
X48800Y160608D01*
X48808Y160572D01*
X48841Y160533D01*
X48865Y160488D01*
X48895Y160467D01*
X48918Y160439D01*
X48965Y160418D01*
X49007Y160388D01*
X49049Y160380D01*
X49077Y160368D01*
X49107Y160369D01*
X49149Y160361D01*
X49911Y160361D01*
X49961Y160372D01*
G37*
G36*
X241146Y224268D02*
X241146Y224268D01*
X241221Y224281D01*
X241231Y224288D01*
X241241Y224290D01*
X241269Y224314D01*
X241341Y224362D01*
X241745Y224767D01*
X244684Y224767D01*
X244709Y224773D01*
X244735Y224770D01*
X244793Y224792D01*
X244853Y224806D01*
X244873Y224823D01*
X244897Y224832D01*
X244939Y224877D01*
X244986Y224916D01*
X244997Y224940D01*
X245014Y224959D01*
X245032Y225018D01*
X245057Y225075D01*
X245056Y225100D01*
X245064Y225125D01*
X245053Y225186D01*
X245051Y225248D01*
X245038Y225270D01*
X245034Y225296D01*
X244986Y225367D01*
X244968Y225400D01*
X244960Y225406D01*
X244953Y225416D01*
X242593Y227775D01*
X242593Y230526D01*
X242576Y230600D01*
X242563Y230674D01*
X242556Y230684D01*
X242554Y230694D01*
X242530Y230723D01*
X242482Y230794D01*
X237029Y236247D01*
X237029Y329955D01*
X237018Y330005D01*
X237016Y330056D01*
X236998Y330088D01*
X236990Y330124D01*
X236957Y330163D01*
X236933Y330208D01*
X236903Y330229D01*
X236880Y330257D01*
X236833Y330278D01*
X236791Y330308D01*
X236749Y330316D01*
X236721Y330328D01*
X236691Y330327D01*
X236649Y330335D01*
X234898Y330335D01*
X234605Y330628D01*
X234594Y330635D01*
X234586Y330647D01*
X234521Y330681D01*
X234458Y330720D01*
X234445Y330721D01*
X234433Y330727D01*
X234359Y330729D01*
X234286Y330736D01*
X234273Y330731D01*
X234259Y330732D01*
X234193Y330701D01*
X234124Y330675D01*
X234115Y330665D01*
X234102Y330659D01*
X234007Y330550D01*
X233863Y330300D01*
X233390Y329827D01*
X232811Y329492D01*
X232165Y329319D01*
X228091Y329319D01*
X228091Y339979D01*
X228080Y340029D01*
X228078Y340080D01*
X228060Y340112D01*
X228052Y340148D01*
X228019Y340187D01*
X227995Y340232D01*
X227965Y340253D01*
X227941Y340281D01*
X227895Y340302D01*
X227853Y340332D01*
X227811Y340340D01*
X227783Y340352D01*
X227753Y340351D01*
X227711Y340359D01*
X226949Y340359D01*
X226899Y340348D01*
X226848Y340346D01*
X226816Y340328D01*
X226780Y340320D01*
X226741Y340287D01*
X226696Y340263D01*
X226675Y340233D01*
X226647Y340209D01*
X226626Y340163D01*
X226596Y340121D01*
X226588Y340079D01*
X226576Y340051D01*
X226577Y340021D01*
X226569Y339979D01*
X226569Y329319D01*
X222495Y329319D01*
X221849Y329492D01*
X221270Y329827D01*
X220797Y330300D01*
X220653Y330550D01*
X220644Y330559D01*
X220639Y330572D01*
X220585Y330622D01*
X220534Y330676D01*
X220521Y330681D01*
X220512Y330690D01*
X220441Y330711D01*
X220372Y330737D01*
X220358Y330735D01*
X220345Y330739D01*
X220273Y330726D01*
X220200Y330719D01*
X220188Y330712D01*
X220175Y330709D01*
X220055Y330628D01*
X219762Y330335D01*
X209498Y330335D01*
X208549Y331285D01*
X208506Y331312D01*
X208468Y331346D01*
X208433Y331357D01*
X208402Y331376D01*
X208351Y331381D01*
X208302Y331396D01*
X208266Y331389D01*
X208229Y331393D01*
X208182Y331375D01*
X208131Y331366D01*
X208096Y331342D01*
X208067Y331331D01*
X208046Y331309D01*
X208011Y331285D01*
X207062Y330335D01*
X205311Y330335D01*
X205261Y330324D01*
X205210Y330322D01*
X205178Y330304D01*
X205142Y330296D01*
X205103Y330263D01*
X205058Y330239D01*
X205037Y330209D01*
X205009Y330186D01*
X204988Y330139D01*
X204958Y330097D01*
X204950Y330055D01*
X204938Y330027D01*
X204939Y329997D01*
X204931Y329955D01*
X204931Y320397D01*
X204942Y320347D01*
X204944Y320296D01*
X204962Y320264D01*
X204970Y320228D01*
X205003Y320189D01*
X205027Y320144D01*
X205057Y320123D01*
X205080Y320095D01*
X205127Y320074D01*
X205169Y320044D01*
X205211Y320036D01*
X205239Y320024D01*
X205269Y320025D01*
X205291Y320021D01*
X208257Y317055D01*
X208257Y312865D01*
X205295Y309903D01*
X201105Y309903D01*
X198143Y312865D01*
X198143Y317055D01*
X198818Y317729D01*
X198858Y317794D01*
X198902Y317856D01*
X198904Y317868D01*
X198909Y317876D01*
X198913Y317913D01*
X198929Y317998D01*
X198929Y329955D01*
X198918Y330005D01*
X198916Y330056D01*
X198898Y330088D01*
X198890Y330124D01*
X198857Y330163D01*
X198833Y330208D01*
X198803Y330229D01*
X198780Y330257D01*
X198733Y330278D01*
X198691Y330308D01*
X198649Y330316D01*
X198621Y330328D01*
X198591Y330327D01*
X198549Y330335D01*
X196798Y330335D01*
X195849Y331285D01*
X195806Y331312D01*
X195768Y331346D01*
X195733Y331357D01*
X195702Y331376D01*
X195651Y331381D01*
X195602Y331396D01*
X195566Y331389D01*
X195529Y331393D01*
X195482Y331375D01*
X195431Y331366D01*
X195396Y331342D01*
X195367Y331331D01*
X195346Y331309D01*
X195311Y331285D01*
X194362Y330335D01*
X184098Y330335D01*
X183149Y331285D01*
X183106Y331312D01*
X183068Y331346D01*
X183033Y331357D01*
X183002Y331376D01*
X182951Y331381D01*
X182902Y331396D01*
X182866Y331389D01*
X182829Y331393D01*
X182782Y331375D01*
X182731Y331366D01*
X182696Y331342D01*
X182667Y331331D01*
X182646Y331309D01*
X182611Y331285D01*
X181662Y330335D01*
X171398Y330335D01*
X170449Y331285D01*
X170406Y331312D01*
X170368Y331346D01*
X170333Y331357D01*
X170302Y331376D01*
X170251Y331381D01*
X170202Y331396D01*
X170166Y331389D01*
X170129Y331393D01*
X170082Y331375D01*
X170031Y331366D01*
X169996Y331342D01*
X169967Y331331D01*
X169946Y331309D01*
X169911Y331285D01*
X168962Y330335D01*
X158698Y330335D01*
X157749Y331285D01*
X157706Y331312D01*
X157668Y331346D01*
X157633Y331357D01*
X157602Y331376D01*
X157551Y331381D01*
X157502Y331396D01*
X157466Y331389D01*
X157429Y331393D01*
X157382Y331375D01*
X157331Y331366D01*
X157296Y331342D01*
X157267Y331331D01*
X157246Y331309D01*
X157211Y331285D01*
X156262Y330335D01*
X145998Y330335D01*
X145049Y331285D01*
X145006Y331312D01*
X144968Y331346D01*
X144933Y331357D01*
X144902Y331376D01*
X144851Y331381D01*
X144802Y331396D01*
X144766Y331389D01*
X144729Y331393D01*
X144682Y331375D01*
X144631Y331366D01*
X144596Y331342D01*
X144567Y331331D01*
X144546Y331309D01*
X144511Y331285D01*
X143562Y330335D01*
X133298Y330335D01*
X132349Y331285D01*
X132306Y331312D01*
X132268Y331346D01*
X132233Y331357D01*
X132202Y331376D01*
X132151Y331381D01*
X132102Y331396D01*
X132066Y331389D01*
X132029Y331393D01*
X131982Y331375D01*
X131931Y331366D01*
X131896Y331342D01*
X131867Y331331D01*
X131846Y331309D01*
X131811Y331285D01*
X130862Y330335D01*
X120598Y330335D01*
X119649Y331285D01*
X119606Y331312D01*
X119568Y331346D01*
X119533Y331357D01*
X119502Y331376D01*
X119451Y331381D01*
X119402Y331396D01*
X119366Y331389D01*
X119329Y331393D01*
X119282Y331375D01*
X119231Y331366D01*
X119196Y331342D01*
X119167Y331331D01*
X119146Y331309D01*
X119111Y331285D01*
X118162Y330335D01*
X107898Y330335D01*
X106949Y331285D01*
X106906Y331312D01*
X106868Y331346D01*
X106833Y331357D01*
X106802Y331376D01*
X106751Y331381D01*
X106702Y331396D01*
X106666Y331389D01*
X106629Y331393D01*
X106582Y331375D01*
X106531Y331366D01*
X106496Y331342D01*
X106467Y331331D01*
X106446Y331309D01*
X106411Y331285D01*
X105462Y330335D01*
X95198Y330335D01*
X94249Y331285D01*
X94206Y331312D01*
X94168Y331346D01*
X94133Y331357D01*
X94102Y331376D01*
X94051Y331381D01*
X94002Y331396D01*
X93966Y331389D01*
X93929Y331393D01*
X93882Y331375D01*
X93831Y331366D01*
X93796Y331342D01*
X93767Y331331D01*
X93746Y331309D01*
X93711Y331285D01*
X92762Y330335D01*
X82498Y330335D01*
X81549Y331285D01*
X81506Y331312D01*
X81468Y331346D01*
X81433Y331357D01*
X81402Y331376D01*
X81351Y331381D01*
X81302Y331396D01*
X81266Y331389D01*
X81229Y331393D01*
X81182Y331375D01*
X81131Y331366D01*
X81096Y331342D01*
X81067Y331331D01*
X81046Y331309D01*
X81011Y331285D01*
X80062Y330335D01*
X69798Y330335D01*
X68849Y331285D01*
X68806Y331312D01*
X68768Y331346D01*
X68733Y331357D01*
X68702Y331376D01*
X68651Y331381D01*
X68602Y331396D01*
X68566Y331389D01*
X68529Y331393D01*
X68482Y331375D01*
X68431Y331366D01*
X68396Y331342D01*
X68367Y331331D01*
X68346Y331309D01*
X68311Y331285D01*
X67390Y330364D01*
X67350Y330299D01*
X67306Y330237D01*
X67304Y330225D01*
X67299Y330217D01*
X67295Y330180D01*
X67279Y330095D01*
X67279Y327380D01*
X67296Y327306D01*
X67309Y327231D01*
X67315Y327222D01*
X67317Y327212D01*
X67324Y327202D01*
X67326Y327192D01*
X67350Y327163D01*
X67398Y327092D01*
X76910Y317580D01*
X76974Y317540D01*
X77037Y317496D01*
X77049Y317494D01*
X77057Y317489D01*
X77094Y317485D01*
X77179Y317469D01*
X148141Y317469D01*
X167609Y298001D01*
X167609Y224631D01*
X167620Y224581D01*
X167622Y224530D01*
X167640Y224498D01*
X167648Y224462D01*
X167681Y224423D01*
X167705Y224378D01*
X167735Y224357D01*
X167758Y224329D01*
X167805Y224308D01*
X167847Y224278D01*
X167889Y224270D01*
X167917Y224258D01*
X167947Y224259D01*
X167989Y224251D01*
X241072Y224251D01*
X241146Y224268D01*
G37*
%LPC*%
G36*
X199835Y16533D02*
X199835Y16533D01*
X196873Y19495D01*
X196873Y22246D01*
X196856Y22320D01*
X196843Y22394D01*
X196836Y22404D01*
X196834Y22414D01*
X196810Y22443D01*
X196762Y22514D01*
X189368Y29908D01*
X189304Y29948D01*
X189242Y29992D01*
X189230Y29994D01*
X189221Y29999D01*
X189184Y30003D01*
X189100Y30019D01*
X187605Y30019D01*
X187555Y30008D01*
X187504Y30006D01*
X187472Y29988D01*
X187436Y29980D01*
X187397Y29947D01*
X187352Y29923D01*
X187331Y29893D01*
X187303Y29870D01*
X187282Y29823D01*
X187252Y29781D01*
X187244Y29739D01*
X187232Y29711D01*
X187233Y29682D01*
X187232Y29680D01*
X187232Y29676D01*
X187225Y29639D01*
X187225Y25888D01*
X187125Y25789D01*
X187098Y25746D01*
X187064Y25708D01*
X187053Y25673D01*
X187034Y25642D01*
X187029Y25591D01*
X187014Y25542D01*
X187021Y25506D01*
X187017Y25469D01*
X187035Y25422D01*
X187044Y25371D01*
X187068Y25336D01*
X187079Y25307D01*
X187101Y25286D01*
X187125Y25251D01*
X187225Y25152D01*
X187225Y20888D01*
X186332Y19995D01*
X175068Y19995D01*
X174175Y20888D01*
X174175Y24639D01*
X174164Y24689D01*
X174162Y24740D01*
X174144Y24772D01*
X174136Y24808D01*
X174103Y24847D01*
X174079Y24892D01*
X174049Y24913D01*
X174026Y24941D01*
X173979Y24962D01*
X173937Y24992D01*
X173895Y25000D01*
X173867Y25012D01*
X173837Y25011D01*
X173795Y25019D01*
X172667Y25019D01*
X170318Y27368D01*
X170250Y27436D01*
X170228Y27450D01*
X170212Y27470D01*
X170155Y27495D01*
X170103Y27528D01*
X170077Y27530D01*
X170053Y27541D01*
X169992Y27539D01*
X169930Y27544D01*
X169906Y27535D01*
X169880Y27534D01*
X169826Y27505D01*
X169768Y27483D01*
X169751Y27464D01*
X169728Y27452D01*
X169693Y27401D01*
X169651Y27356D01*
X169643Y27331D01*
X169628Y27310D01*
X169612Y27225D01*
X169601Y27190D01*
X169603Y27180D01*
X169601Y27168D01*
X169601Y26409D01*
X169495Y25878D01*
X169495Y25877D01*
X169419Y25497D01*
X169281Y24800D01*
X168653Y23284D01*
X167741Y21920D01*
X166580Y20759D01*
X165216Y19847D01*
X163700Y19219D01*
X162091Y18899D01*
X162031Y18899D01*
X162031Y32639D01*
X162020Y32689D01*
X162018Y32740D01*
X162000Y32772D01*
X161992Y32808D01*
X161959Y32847D01*
X161935Y32892D01*
X161905Y32913D01*
X161882Y32941D01*
X161835Y32962D01*
X161793Y32991D01*
X161751Y33000D01*
X161723Y33012D01*
X161693Y33011D01*
X161651Y33019D01*
X161269Y33019D01*
X161269Y33021D01*
X161651Y33021D01*
X161701Y33033D01*
X161752Y33034D01*
X161784Y33052D01*
X161820Y33060D01*
X161859Y33093D01*
X161904Y33117D01*
X161925Y33147D01*
X161953Y33171D01*
X161974Y33217D01*
X162004Y33259D01*
X162012Y33301D01*
X162024Y33329D01*
X162024Y33337D01*
X162024Y33338D01*
X162023Y33361D01*
X162031Y33401D01*
X162031Y47141D01*
X162091Y47141D01*
X163700Y46821D01*
X165216Y46193D01*
X166580Y45281D01*
X167741Y44121D01*
X167753Y44103D01*
X167799Y44060D01*
X167838Y44012D01*
X167861Y44001D01*
X167879Y43984D01*
X167939Y43966D01*
X167997Y43941D01*
X168021Y43942D01*
X168045Y43934D01*
X168107Y43945D01*
X168170Y43947D01*
X168192Y43959D01*
X168216Y43963D01*
X168267Y44000D01*
X168322Y44030D01*
X168336Y44050D01*
X168356Y44065D01*
X168386Y44120D01*
X168422Y44172D01*
X168427Y44199D01*
X168437Y44218D01*
X168438Y44256D01*
X168449Y44314D01*
X168449Y53313D01*
X180178Y65041D01*
X180205Y65085D01*
X180239Y65122D01*
X180250Y65157D01*
X180269Y65189D01*
X180274Y65239D01*
X180288Y65288D01*
X180282Y65325D01*
X180286Y65361D01*
X180268Y65409D01*
X180259Y65459D01*
X180235Y65494D01*
X180224Y65523D01*
X180202Y65544D01*
X180178Y65579D01*
X180062Y65695D01*
X180019Y65722D01*
X179981Y65757D01*
X179946Y65767D01*
X179915Y65786D01*
X179864Y65791D01*
X179815Y65806D01*
X179779Y65799D01*
X179742Y65803D01*
X179695Y65785D01*
X179644Y65776D01*
X179609Y65752D01*
X179580Y65741D01*
X179560Y65719D01*
X179524Y65695D01*
X177848Y64019D01*
X173292Y64019D01*
X170021Y67290D01*
X169957Y67329D01*
X169896Y67373D01*
X169884Y67375D01*
X169874Y67381D01*
X169799Y67388D01*
X169725Y67400D01*
X169713Y67397D01*
X169701Y67398D01*
X169631Y67371D01*
X169559Y67349D01*
X169551Y67341D01*
X169539Y67336D01*
X169488Y67281D01*
X169434Y67229D01*
X169429Y67217D01*
X169422Y67209D01*
X169411Y67173D01*
X169379Y67095D01*
X169349Y66945D01*
X169349Y66944D01*
X169281Y66600D01*
X168653Y65084D01*
X167741Y63720D01*
X166580Y62559D01*
X165216Y61647D01*
X163700Y61019D01*
X162091Y60699D01*
X162031Y60699D01*
X162031Y74059D01*
X169601Y74059D01*
X169601Y72248D01*
X169607Y72223D01*
X169604Y72197D01*
X169626Y72139D01*
X169640Y72079D01*
X169657Y72059D01*
X169666Y72035D01*
X169711Y71993D01*
X169750Y71946D01*
X169774Y71935D01*
X169793Y71917D01*
X169852Y71900D01*
X169908Y71875D01*
X169934Y71876D01*
X169959Y71868D01*
X170020Y71879D01*
X170082Y71881D01*
X170104Y71894D01*
X170130Y71898D01*
X170201Y71946D01*
X170234Y71964D01*
X170240Y71972D01*
X170250Y71979D01*
X173292Y75021D01*
X174100Y75021D01*
X174125Y75027D01*
X174151Y75024D01*
X174209Y75046D01*
X174269Y75060D01*
X174289Y75077D01*
X174313Y75086D01*
X174355Y75131D01*
X174402Y75170D01*
X174413Y75194D01*
X174430Y75213D01*
X174448Y75272D01*
X174473Y75329D01*
X174472Y75354D01*
X174480Y75379D01*
X174469Y75440D01*
X174467Y75502D01*
X174454Y75524D01*
X174450Y75550D01*
X174402Y75621D01*
X174384Y75654D01*
X174376Y75660D01*
X174369Y75670D01*
X173767Y76271D01*
X173767Y88342D01*
X173750Y88416D01*
X173737Y88491D01*
X173730Y88501D01*
X173728Y88511D01*
X173704Y88540D01*
X173656Y88611D01*
X167351Y94916D01*
X167286Y94956D01*
X167224Y95000D01*
X167212Y95002D01*
X167204Y95007D01*
X167167Y95011D01*
X167082Y95027D01*
X164495Y95027D01*
X164445Y95016D01*
X164394Y95014D01*
X164362Y94996D01*
X164326Y94988D01*
X164287Y94955D01*
X164242Y94931D01*
X164221Y94901D01*
X164193Y94878D01*
X164172Y94831D01*
X164142Y94789D01*
X164134Y94747D01*
X164122Y94719D01*
X164122Y94704D01*
X164122Y94703D01*
X164122Y94686D01*
X164115Y94647D01*
X164115Y93428D01*
X163222Y92535D01*
X150958Y92535D01*
X150065Y93428D01*
X150065Y104692D01*
X150958Y105585D01*
X152677Y105585D01*
X152727Y105596D01*
X152778Y105598D01*
X152810Y105616D01*
X152846Y105624D01*
X152885Y105657D01*
X152930Y105681D01*
X152951Y105711D01*
X152979Y105734D01*
X153000Y105781D01*
X153030Y105823D01*
X153038Y105865D01*
X153050Y105893D01*
X153049Y105923D01*
X153057Y105965D01*
X153057Y108665D01*
X153046Y108715D01*
X153044Y108766D01*
X153026Y108798D01*
X153018Y108834D01*
X152985Y108873D01*
X152961Y108918D01*
X152931Y108939D01*
X152908Y108967D01*
X152861Y108988D01*
X152819Y109018D01*
X152777Y109026D01*
X152749Y109038D01*
X152719Y109037D01*
X152677Y109045D01*
X150958Y109045D01*
X150065Y109938D01*
X150065Y121202D01*
X150958Y122095D01*
X163222Y122095D01*
X164115Y121202D01*
X164115Y109938D01*
X163222Y109045D01*
X161503Y109045D01*
X161453Y109034D01*
X161402Y109032D01*
X161370Y109014D01*
X161334Y109006D01*
X161295Y108973D01*
X161250Y108949D01*
X161229Y108919D01*
X161201Y108896D01*
X161180Y108849D01*
X161150Y108807D01*
X161142Y108765D01*
X161130Y108737D01*
X161131Y108707D01*
X161123Y108665D01*
X161123Y105965D01*
X161134Y105915D01*
X161136Y105864D01*
X161154Y105832D01*
X161162Y105796D01*
X161195Y105757D01*
X161219Y105712D01*
X161249Y105691D01*
X161272Y105663D01*
X161319Y105642D01*
X161361Y105612D01*
X161403Y105604D01*
X161431Y105592D01*
X161461Y105593D01*
X161503Y105585D01*
X163222Y105585D01*
X164115Y104692D01*
X164115Y103473D01*
X164126Y103423D01*
X164128Y103372D01*
X164146Y103340D01*
X164154Y103304D01*
X164187Y103265D01*
X164211Y103220D01*
X164241Y103199D01*
X164264Y103171D01*
X164311Y103150D01*
X164353Y103120D01*
X164395Y103112D01*
X164423Y103100D01*
X164453Y103101D01*
X164495Y103093D01*
X170580Y103093D01*
X181833Y91840D01*
X181833Y79770D01*
X181846Y79714D01*
X181846Y79700D01*
X181851Y79692D01*
X181863Y79621D01*
X181870Y79611D01*
X181872Y79601D01*
X181896Y79572D01*
X181944Y79501D01*
X187135Y74310D01*
X187135Y71477D01*
X187146Y71427D01*
X187148Y71376D01*
X187166Y71344D01*
X187174Y71308D01*
X187207Y71269D01*
X187231Y71224D01*
X187261Y71203D01*
X187284Y71175D01*
X187331Y71154D01*
X187373Y71124D01*
X187415Y71116D01*
X187443Y71104D01*
X187473Y71105D01*
X187514Y71097D01*
X190477Y68135D01*
X190477Y66411D01*
X190483Y66386D01*
X190480Y66360D01*
X190502Y66302D01*
X190516Y66242D01*
X190533Y66222D01*
X190542Y66198D01*
X190587Y66156D01*
X190626Y66109D01*
X190650Y66098D01*
X190669Y66081D01*
X190728Y66063D01*
X190785Y66038D01*
X190810Y66039D01*
X190835Y66031D01*
X190896Y66042D01*
X190958Y66044D01*
X190980Y66057D01*
X191006Y66061D01*
X191077Y66109D01*
X191110Y66127D01*
X191116Y66135D01*
X191126Y66142D01*
X191948Y66965D01*
X192199Y66965D01*
X192249Y66976D01*
X192300Y66978D01*
X192332Y66996D01*
X192368Y67004D01*
X192407Y67037D01*
X192452Y67061D01*
X192473Y67091D01*
X192501Y67114D01*
X192522Y67161D01*
X192552Y67203D01*
X192560Y67245D01*
X192572Y67273D01*
X192571Y67303D01*
X192579Y67345D01*
X192579Y68553D01*
X195607Y71581D01*
X196493Y71581D01*
X196543Y71592D01*
X196594Y71594D01*
X196626Y71612D01*
X196662Y71620D01*
X196701Y71653D01*
X196746Y71677D01*
X196767Y71707D01*
X196795Y71730D01*
X196816Y71777D01*
X196846Y71819D01*
X196854Y71861D01*
X196866Y71889D01*
X196865Y71919D01*
X196869Y71941D01*
X199835Y74907D01*
X204025Y74907D01*
X205900Y73031D01*
X205922Y73018D01*
X205938Y72998D01*
X205995Y72972D01*
X206047Y72940D01*
X206073Y72937D01*
X206097Y72927D01*
X206158Y72929D01*
X206220Y72923D01*
X206244Y72932D01*
X206270Y72933D01*
X206324Y72963D01*
X206382Y72985D01*
X206399Y73004D01*
X206422Y73016D01*
X206457Y73067D01*
X206499Y73112D01*
X206507Y73137D01*
X206522Y73158D01*
X206538Y73242D01*
X206549Y73278D01*
X206547Y73288D01*
X206549Y73300D01*
X206549Y91083D01*
X206538Y91133D01*
X206536Y91184D01*
X206518Y91216D01*
X206510Y91252D01*
X206477Y91291D01*
X206453Y91336D01*
X206423Y91357D01*
X206400Y91385D01*
X206353Y91406D01*
X206311Y91436D01*
X206269Y91444D01*
X206241Y91456D01*
X206211Y91455D01*
X206169Y91463D01*
X204915Y91463D01*
X201953Y94425D01*
X201953Y98615D01*
X204915Y101577D01*
X209105Y101577D01*
X212067Y98615D01*
X212067Y95864D01*
X212084Y95790D01*
X212097Y95716D01*
X212104Y95706D01*
X212106Y95696D01*
X212130Y95667D01*
X212178Y95596D01*
X212551Y95223D01*
X212551Y67345D01*
X212562Y67295D01*
X212564Y67244D01*
X212582Y67212D01*
X212590Y67176D01*
X212623Y67137D01*
X212647Y67092D01*
X212677Y67071D01*
X212700Y67043D01*
X212747Y67022D01*
X212789Y66992D01*
X212831Y66984D01*
X212859Y66972D01*
X212889Y66973D01*
X212931Y66965D01*
X213182Y66965D01*
X214075Y66072D01*
X214075Y59408D01*
X213355Y58689D01*
X213328Y58646D01*
X213294Y58608D01*
X213283Y58573D01*
X213264Y58542D01*
X213259Y58491D01*
X213244Y58442D01*
X213251Y58406D01*
X213247Y58369D01*
X213265Y58322D01*
X213274Y58271D01*
X213298Y58236D01*
X213309Y58207D01*
X213331Y58186D01*
X213355Y58151D01*
X214075Y57432D01*
X214075Y50768D01*
X213182Y49875D01*
X212931Y49875D01*
X212881Y49864D01*
X212830Y49862D01*
X212798Y49844D01*
X212762Y49836D01*
X212723Y49803D01*
X212678Y49779D01*
X212657Y49749D01*
X212629Y49726D01*
X212608Y49679D01*
X212578Y49637D01*
X212570Y49595D01*
X212558Y49567D01*
X212559Y49537D01*
X212551Y49495D01*
X212551Y48390D01*
X212568Y48316D01*
X212581Y48242D01*
X212588Y48232D01*
X212590Y48222D01*
X212614Y48193D01*
X212662Y48122D01*
X214652Y46132D01*
X214716Y46092D01*
X214778Y46048D01*
X214790Y46046D01*
X214799Y46041D01*
X214836Y46037D01*
X214920Y46021D01*
X219887Y46021D01*
X219961Y46038D01*
X219999Y46045D01*
X231332Y46045D01*
X232225Y45152D01*
X232225Y40888D01*
X232125Y40789D01*
X232098Y40746D01*
X232064Y40708D01*
X232053Y40673D01*
X232034Y40642D01*
X232029Y40591D01*
X232014Y40542D01*
X232021Y40506D01*
X232017Y40469D01*
X232035Y40422D01*
X232044Y40371D01*
X232068Y40336D01*
X232079Y40307D01*
X232101Y40287D01*
X232125Y40251D01*
X232225Y40152D01*
X232225Y36746D01*
X232242Y36672D01*
X232255Y36597D01*
X232262Y36587D01*
X232264Y36577D01*
X232288Y36548D01*
X232336Y36477D01*
X232733Y36080D01*
X233068Y35501D01*
X233241Y34855D01*
X233241Y33769D01*
X226069Y33769D01*
X226020Y33758D01*
X225969Y33756D01*
X225936Y33738D01*
X225900Y33730D01*
X225861Y33697D01*
X225816Y33673D01*
X225795Y33643D01*
X225767Y33620D01*
X225746Y33573D01*
X225717Y33531D01*
X225708Y33489D01*
X225698Y33467D01*
X225697Y33490D01*
X225680Y33522D01*
X225672Y33558D01*
X225639Y33597D01*
X225615Y33642D01*
X225585Y33663D01*
X225561Y33691D01*
X225515Y33712D01*
X225473Y33742D01*
X225431Y33750D01*
X225403Y33762D01*
X225373Y33761D01*
X225331Y33769D01*
X218159Y33769D01*
X218159Y34639D01*
X218148Y34689D01*
X218146Y34740D01*
X218128Y34772D01*
X218120Y34808D01*
X218087Y34847D01*
X218063Y34892D01*
X218033Y34913D01*
X218010Y34941D01*
X217963Y34962D01*
X217921Y34992D01*
X217879Y35000D01*
X217851Y35012D01*
X217821Y35011D01*
X217779Y35019D01*
X205460Y35019D01*
X205435Y35013D01*
X205409Y35016D01*
X205351Y34994D01*
X205291Y34980D01*
X205271Y34963D01*
X205247Y34954D01*
X205205Y34909D01*
X205158Y34870D01*
X205147Y34846D01*
X205130Y34827D01*
X205112Y34768D01*
X205087Y34711D01*
X205088Y34686D01*
X205080Y34661D01*
X205091Y34600D01*
X205093Y34538D01*
X205106Y34516D01*
X205110Y34490D01*
X205158Y34419D01*
X205176Y34386D01*
X205184Y34380D01*
X205191Y34370D01*
X206987Y32575D01*
X206987Y28385D01*
X204905Y26304D01*
X204878Y26261D01*
X204844Y26223D01*
X204833Y26188D01*
X204814Y26157D01*
X204809Y26106D01*
X204794Y26057D01*
X204801Y26021D01*
X204797Y25984D01*
X204815Y25936D01*
X204824Y25886D01*
X204848Y25851D01*
X204859Y25822D01*
X204881Y25801D01*
X204905Y25766D01*
X206987Y23685D01*
X206987Y19495D01*
X204025Y16533D01*
X199835Y16533D01*
G37*
%LPD*%
G36*
X271794Y169331D02*
X271794Y169331D01*
X271831Y169327D01*
X271878Y169345D01*
X271929Y169354D01*
X271964Y169378D01*
X271993Y169389D01*
X272014Y169411D01*
X272049Y169435D01*
X272998Y170385D01*
X283262Y170385D01*
X283424Y170222D01*
X283446Y170209D01*
X283462Y170189D01*
X283519Y170163D01*
X283571Y170131D01*
X283597Y170128D01*
X283621Y170118D01*
X283682Y170120D01*
X283744Y170114D01*
X283768Y170123D01*
X283794Y170124D01*
X283848Y170154D01*
X283906Y170176D01*
X283923Y170195D01*
X283946Y170207D01*
X283981Y170258D01*
X284023Y170303D01*
X284031Y170328D01*
X284046Y170349D01*
X284062Y170433D01*
X284073Y170469D01*
X284071Y170479D01*
X284073Y170491D01*
X284073Y199568D01*
X284056Y199642D01*
X284043Y199716D01*
X284036Y199727D01*
X284034Y199736D01*
X284010Y199765D01*
X283967Y199828D01*
X283965Y199832D01*
X283964Y199833D01*
X283962Y199837D01*
X268741Y215058D01*
X268676Y215098D01*
X268614Y215142D01*
X268602Y215144D01*
X268593Y215149D01*
X268556Y215153D01*
X268472Y215169D01*
X246608Y215169D01*
X246534Y215152D01*
X246459Y215139D01*
X246449Y215132D01*
X246439Y215130D01*
X246411Y215106D01*
X246339Y215058D01*
X245935Y214653D01*
X241745Y214653D01*
X241341Y215058D01*
X241276Y215098D01*
X241214Y215142D01*
X241202Y215144D01*
X241194Y215149D01*
X241157Y215153D01*
X241072Y215169D01*
X239572Y215169D01*
X239547Y215163D01*
X239522Y215166D01*
X239464Y215144D01*
X239404Y215130D01*
X239384Y215113D01*
X239360Y215104D01*
X239318Y215059D01*
X239270Y215020D01*
X239259Y214996D01*
X239242Y214977D01*
X239224Y214918D01*
X239199Y214861D01*
X239200Y214836D01*
X239193Y214811D01*
X239203Y214750D01*
X239206Y214688D01*
X239218Y214666D01*
X239222Y214640D01*
X239271Y214569D01*
X239288Y214536D01*
X239297Y214530D01*
X239304Y214520D01*
X242916Y210908D01*
X242980Y210868D01*
X243042Y210824D01*
X243054Y210822D01*
X243063Y210817D01*
X243100Y210813D01*
X243184Y210797D01*
X245935Y210797D01*
X248897Y207835D01*
X248897Y206166D01*
X248903Y206141D01*
X248900Y206115D01*
X248922Y206057D01*
X248936Y205997D01*
X248953Y205977D01*
X248962Y205953D01*
X249007Y205911D01*
X249046Y205864D01*
X249070Y205853D01*
X249089Y205836D01*
X249148Y205818D01*
X249205Y205793D01*
X249230Y205794D01*
X249255Y205786D01*
X249316Y205797D01*
X249378Y205799D01*
X249400Y205812D01*
X249426Y205816D01*
X249497Y205864D01*
X249530Y205882D01*
X249536Y205890D01*
X249546Y205897D01*
X251905Y208257D01*
X256095Y208257D01*
X259057Y205295D01*
X259057Y201105D01*
X256095Y198143D01*
X254614Y198143D01*
X254540Y198126D01*
X254466Y198113D01*
X254456Y198106D01*
X254446Y198104D01*
X254417Y198080D01*
X254346Y198032D01*
X251433Y195119D01*
X228730Y195119D01*
X228656Y195102D01*
X228582Y195089D01*
X228572Y195082D01*
X228562Y195080D01*
X228533Y195056D01*
X228462Y195008D01*
X222822Y189368D01*
X222782Y189304D01*
X222738Y189242D01*
X222736Y189230D01*
X222731Y189221D01*
X222727Y189184D01*
X222711Y189100D01*
X222711Y178298D01*
X222728Y178224D01*
X222741Y178149D01*
X222748Y178139D01*
X222750Y178129D01*
X222774Y178101D01*
X222819Y178033D01*
X222820Y178032D01*
X222822Y178029D01*
X224767Y176085D01*
X224767Y171895D01*
X223905Y171034D01*
X223892Y171012D01*
X223872Y170996D01*
X223846Y170939D01*
X223814Y170887D01*
X223811Y170861D01*
X223801Y170837D01*
X223803Y170776D01*
X223797Y170714D01*
X223806Y170690D01*
X223807Y170664D01*
X223837Y170610D01*
X223859Y170552D01*
X223878Y170535D01*
X223890Y170512D01*
X223941Y170477D01*
X223986Y170435D01*
X224011Y170427D01*
X224032Y170412D01*
X224116Y170396D01*
X224152Y170385D01*
X224162Y170387D01*
X224174Y170385D01*
X232462Y170385D01*
X233411Y169435D01*
X233454Y169408D01*
X233492Y169374D01*
X233527Y169363D01*
X233558Y169344D01*
X233609Y169339D01*
X233658Y169324D01*
X233694Y169331D01*
X233731Y169327D01*
X233778Y169345D01*
X233829Y169354D01*
X233864Y169378D01*
X233893Y169389D01*
X233914Y169411D01*
X233949Y169435D01*
X234898Y170385D01*
X245162Y170385D01*
X246111Y169435D01*
X246154Y169408D01*
X246192Y169374D01*
X246227Y169363D01*
X246258Y169344D01*
X246309Y169339D01*
X246358Y169324D01*
X246394Y169331D01*
X246431Y169327D01*
X246478Y169345D01*
X246529Y169354D01*
X246564Y169378D01*
X246593Y169389D01*
X246614Y169411D01*
X246649Y169435D01*
X247598Y170385D01*
X257862Y170385D01*
X258811Y169435D01*
X258854Y169408D01*
X258892Y169374D01*
X258927Y169363D01*
X258958Y169344D01*
X259009Y169339D01*
X259058Y169324D01*
X259094Y169331D01*
X259131Y169327D01*
X259178Y169345D01*
X259229Y169354D01*
X259264Y169378D01*
X259293Y169389D01*
X259314Y169411D01*
X259349Y169435D01*
X260298Y170385D01*
X270562Y170385D01*
X271511Y169435D01*
X271554Y169408D01*
X271592Y169374D01*
X271627Y169363D01*
X271658Y169344D01*
X271709Y169339D01*
X271758Y169324D01*
X271794Y169331D01*
G37*
G36*
X294018Y25788D02*
X294018Y25788D01*
X294149Y25805D01*
X295486Y26247D01*
X295504Y26258D01*
X295530Y26265D01*
X323098Y39392D01*
X323114Y39405D01*
X323139Y39415D01*
X343105Y52207D01*
X343126Y52229D01*
X343153Y52243D01*
X343186Y52290D01*
X343226Y52332D01*
X343235Y52360D01*
X343253Y52385D01*
X343267Y52459D01*
X343279Y52496D01*
X343277Y52510D01*
X343280Y52527D01*
X343280Y141883D01*
X343269Y141933D01*
X343267Y141984D01*
X343249Y142016D01*
X343241Y142052D01*
X343208Y142091D01*
X343184Y142136D01*
X343154Y142157D01*
X343131Y142185D01*
X343084Y142206D01*
X343042Y142236D01*
X343000Y142244D01*
X342972Y142256D01*
X342942Y142255D01*
X342900Y142263D01*
X339535Y142263D01*
X338061Y143737D01*
X338018Y143764D01*
X337981Y143799D01*
X337945Y143809D01*
X337914Y143829D01*
X337863Y143834D01*
X337814Y143848D01*
X337778Y143842D01*
X337742Y143845D01*
X337694Y143827D01*
X337644Y143818D01*
X337608Y143795D01*
X337580Y143784D01*
X337559Y143761D01*
X337524Y143737D01*
X336582Y142795D01*
X329918Y142795D01*
X329199Y143515D01*
X329156Y143542D01*
X329118Y143576D01*
X329083Y143587D01*
X329052Y143606D01*
X329001Y143611D01*
X328952Y143626D01*
X328916Y143619D01*
X328879Y143623D01*
X328832Y143605D01*
X328781Y143596D01*
X328746Y143572D01*
X328717Y143561D01*
X328696Y143539D01*
X328661Y143515D01*
X327942Y142795D01*
X327753Y142795D01*
X327703Y142784D01*
X327652Y142782D01*
X327620Y142764D01*
X327584Y142756D01*
X327545Y142723D01*
X327500Y142699D01*
X327479Y142669D01*
X327451Y142646D01*
X327430Y142599D01*
X327400Y142557D01*
X327392Y142515D01*
X327380Y142487D01*
X327381Y142457D01*
X327373Y142415D01*
X327373Y140242D01*
X327385Y140189D01*
X327386Y140160D01*
X327394Y140145D01*
X327403Y140093D01*
X327410Y140083D01*
X327412Y140073D01*
X327436Y140044D01*
X327484Y139973D01*
X330423Y137034D01*
X330423Y111886D01*
X324041Y105504D01*
X324027Y105482D01*
X324007Y105466D01*
X323982Y105409D01*
X323950Y105357D01*
X323947Y105331D01*
X323937Y105307D01*
X323939Y105246D01*
X323933Y105184D01*
X323942Y105160D01*
X323943Y105134D01*
X323973Y105080D01*
X323995Y105022D01*
X324014Y105005D01*
X324026Y104982D01*
X324076Y104947D01*
X324122Y104905D01*
X324147Y104897D01*
X324168Y104882D01*
X324252Y104866D01*
X324288Y104855D01*
X324298Y104857D01*
X324310Y104855D01*
X330482Y104855D01*
X330483Y104853D01*
X330496Y104845D01*
X330504Y104833D01*
X330542Y104814D01*
X330565Y104793D01*
X330594Y104784D01*
X330630Y104762D01*
X330645Y104760D01*
X330658Y104754D01*
X330701Y104753D01*
X330731Y104744D01*
X330762Y104749D01*
X330803Y104745D01*
X330817Y104751D01*
X330831Y104750D01*
X330869Y104768D01*
X330901Y104774D01*
X330933Y104795D01*
X330965Y104807D01*
X330975Y104818D01*
X330988Y104824D01*
X331004Y104843D01*
X331022Y104855D01*
X331530Y105363D01*
X332109Y105698D01*
X332755Y105871D01*
X335029Y105871D01*
X335029Y100711D01*
X335040Y100661D01*
X335042Y100610D01*
X335060Y100578D01*
X335068Y100542D01*
X335101Y100503D01*
X335125Y100458D01*
X335155Y100437D01*
X335178Y100409D01*
X335225Y100388D01*
X335267Y100358D01*
X335309Y100350D01*
X335337Y100338D01*
X335367Y100339D01*
X335409Y100331D01*
X335791Y100331D01*
X335791Y100329D01*
X335409Y100329D01*
X335359Y100318D01*
X335308Y100316D01*
X335276Y100298D01*
X335240Y100290D01*
X335201Y100257D01*
X335156Y100233D01*
X335135Y100203D01*
X335107Y100179D01*
X335086Y100133D01*
X335056Y100091D01*
X335048Y100049D01*
X335036Y100021D01*
X335037Y99991D01*
X335029Y99949D01*
X335029Y94789D01*
X332755Y94789D01*
X332109Y94962D01*
X331690Y95205D01*
X331654Y95216D01*
X331621Y95236D01*
X331572Y95240D01*
X331524Y95255D01*
X331487Y95249D01*
X331449Y95252D01*
X331402Y95234D01*
X331353Y95226D01*
X331322Y95204D01*
X331287Y95190D01*
X331253Y95154D01*
X331213Y95125D01*
X331195Y95091D01*
X331169Y95063D01*
X331155Y95016D01*
X331132Y94971D01*
X331131Y94934D01*
X331120Y94897D01*
X331129Y94848D01*
X331127Y94798D01*
X331143Y94764D01*
X331150Y94727D01*
X331184Y94675D01*
X331200Y94641D01*
X331218Y94626D01*
X331231Y94606D01*
X331275Y94563D01*
X331275Y81534D01*
X331281Y81509D01*
X331278Y81483D01*
X331300Y81425D01*
X331314Y81365D01*
X331331Y81345D01*
X331340Y81321D01*
X331385Y81279D01*
X331424Y81232D01*
X331448Y81221D01*
X331467Y81204D01*
X331526Y81186D01*
X331583Y81161D01*
X331608Y81162D01*
X331633Y81154D01*
X331694Y81165D01*
X331756Y81167D01*
X331778Y81180D01*
X331804Y81184D01*
X331875Y81232D01*
X331908Y81250D01*
X331914Y81258D01*
X331924Y81265D01*
X333185Y82527D01*
X337375Y82527D01*
X340337Y79565D01*
X340337Y75375D01*
X338392Y73431D01*
X338352Y73366D01*
X338308Y73304D01*
X338306Y73292D01*
X338301Y73284D01*
X338297Y73247D01*
X338281Y73162D01*
X338281Y64797D01*
X332412Y58928D01*
X331655Y58928D01*
X331605Y58917D01*
X331554Y58915D01*
X331522Y58897D01*
X331486Y58889D01*
X331447Y58856D01*
X331402Y58832D01*
X331381Y58802D01*
X331353Y58779D01*
X331332Y58732D01*
X331302Y58690D01*
X331294Y58648D01*
X331282Y58620D01*
X331283Y58590D01*
X331275Y58548D01*
X331275Y55297D01*
X330382Y54404D01*
X323618Y54404D01*
X323135Y54888D01*
X323124Y54895D01*
X323116Y54906D01*
X323050Y54940D01*
X322988Y54979D01*
X322974Y54980D01*
X322962Y54987D01*
X322889Y54988D01*
X322816Y54996D01*
X322803Y54991D01*
X322789Y54991D01*
X322722Y54960D01*
X322654Y54934D01*
X322644Y54924D01*
X322632Y54918D01*
X322537Y54809D01*
X322283Y54369D01*
X321810Y53896D01*
X321231Y53561D01*
X320585Y53388D01*
X318261Y53388D01*
X318261Y61548D01*
X318250Y61598D01*
X318248Y61649D01*
X318230Y61681D01*
X318222Y61717D01*
X318189Y61756D01*
X318165Y61801D01*
X318135Y61822D01*
X318111Y61850D01*
X318065Y61871D01*
X318023Y61901D01*
X317981Y61909D01*
X317953Y61921D01*
X317923Y61920D01*
X317881Y61928D01*
X317119Y61928D01*
X317069Y61917D01*
X317018Y61915D01*
X316986Y61897D01*
X316950Y61889D01*
X316911Y61856D01*
X316866Y61832D01*
X316845Y61802D01*
X316817Y61778D01*
X316796Y61732D01*
X316766Y61690D01*
X316758Y61648D01*
X316746Y61620D01*
X316747Y61590D01*
X316739Y61548D01*
X316739Y53388D01*
X314415Y53388D01*
X313769Y53561D01*
X313190Y53896D01*
X312717Y54369D01*
X312463Y54809D01*
X312454Y54819D01*
X312449Y54831D01*
X312395Y54882D01*
X312344Y54935D01*
X312332Y54940D01*
X312322Y54949D01*
X312251Y54970D01*
X312182Y54996D01*
X312169Y54994D01*
X312156Y54998D01*
X312083Y54986D01*
X312010Y54978D01*
X311998Y54971D01*
X311985Y54969D01*
X311865Y54888D01*
X311382Y54404D01*
X304618Y54404D01*
X303725Y55297D01*
X303725Y57231D01*
X303714Y57281D01*
X303712Y57332D01*
X303694Y57364D01*
X303686Y57400D01*
X303653Y57439D01*
X303629Y57484D01*
X303599Y57505D01*
X303576Y57533D01*
X303529Y57554D01*
X303487Y57584D01*
X303445Y57592D01*
X303417Y57604D01*
X303387Y57603D01*
X303345Y57611D01*
X292655Y57611D01*
X292605Y57600D01*
X292554Y57598D01*
X292522Y57580D01*
X292486Y57572D01*
X292447Y57539D01*
X292402Y57515D01*
X292381Y57485D01*
X292353Y57462D01*
X292332Y57415D01*
X292302Y57373D01*
X292294Y57331D01*
X292282Y57303D01*
X292283Y57273D01*
X292275Y57231D01*
X292275Y55028D01*
X291382Y54135D01*
X291179Y54135D01*
X291129Y54124D01*
X291078Y54122D01*
X291046Y54104D01*
X291010Y54096D01*
X290971Y54063D01*
X290926Y54039D01*
X290905Y54009D01*
X290877Y53986D01*
X290856Y53939D01*
X290826Y53897D01*
X290818Y53855D01*
X290806Y53827D01*
X290807Y53797D01*
X290799Y53755D01*
X290799Y53049D01*
X290816Y52975D01*
X290829Y52900D01*
X290836Y52890D01*
X290838Y52880D01*
X290862Y52851D01*
X290910Y52780D01*
X291532Y52158D01*
X291562Y52140D01*
X294705Y48997D01*
X294728Y48962D01*
X297882Y45808D01*
X297912Y45790D01*
X300967Y42735D01*
X300967Y38545D01*
X297917Y35495D01*
X297882Y35472D01*
X295656Y33246D01*
X295616Y33182D01*
X295572Y33119D01*
X295570Y33107D01*
X295565Y33099D01*
X295561Y33062D01*
X295545Y32977D01*
X295545Y30054D01*
X294247Y26921D01*
X293761Y26435D01*
X293752Y26420D01*
X293746Y26416D01*
X293740Y26401D01*
X293715Y26361D01*
X293670Y26290D01*
X293670Y26289D01*
X293670Y26288D01*
X293661Y26203D01*
X293653Y26118D01*
X293653Y26117D01*
X293653Y26115D01*
X293683Y26036D01*
X293713Y25956D01*
X293714Y25955D01*
X293715Y25954D01*
X293778Y25895D01*
X293840Y25837D01*
X293841Y25837D01*
X293842Y25836D01*
X293923Y25812D01*
X294005Y25787D01*
X294007Y25787D01*
X294008Y25787D01*
X294018Y25788D01*
G37*
G36*
X195594Y169331D02*
X195594Y169331D01*
X195631Y169327D01*
X195678Y169345D01*
X195729Y169354D01*
X195764Y169378D01*
X195793Y169389D01*
X195814Y169411D01*
X195849Y169435D01*
X196798Y170385D01*
X200006Y170385D01*
X200031Y170391D01*
X200057Y170388D01*
X200115Y170410D01*
X200175Y170424D01*
X200195Y170441D01*
X200219Y170450D01*
X200261Y170495D01*
X200308Y170534D01*
X200319Y170558D01*
X200336Y170577D01*
X200354Y170636D01*
X200379Y170693D01*
X200378Y170718D01*
X200386Y170743D01*
X200375Y170804D01*
X200373Y170866D01*
X200360Y170888D01*
X200356Y170914D01*
X200308Y170985D01*
X200290Y171018D01*
X200282Y171024D01*
X200275Y171034D01*
X199413Y171895D01*
X199413Y176085D01*
X201358Y178029D01*
X201369Y178046D01*
X201379Y178055D01*
X201391Y178083D01*
X201398Y178094D01*
X201442Y178156D01*
X201444Y178168D01*
X201449Y178176D01*
X201453Y178213D01*
X201469Y178298D01*
X201469Y200162D01*
X201452Y200236D01*
X201439Y200311D01*
X201432Y200321D01*
X201430Y200331D01*
X201406Y200359D01*
X201358Y200431D01*
X199413Y202375D01*
X199413Y206565D01*
X202099Y209250D01*
X202112Y209272D01*
X202132Y209288D01*
X202158Y209345D01*
X202190Y209397D01*
X202193Y209423D01*
X202203Y209447D01*
X202201Y209508D01*
X202207Y209570D01*
X202198Y209594D01*
X202197Y209620D01*
X202167Y209674D01*
X202145Y209732D01*
X202126Y209749D01*
X202114Y209772D01*
X202063Y209807D01*
X202018Y209849D01*
X201993Y209857D01*
X201972Y209872D01*
X201888Y209888D01*
X201852Y209899D01*
X201842Y209897D01*
X201830Y209899D01*
X175390Y209899D01*
X175316Y209882D01*
X175242Y209869D01*
X175232Y209862D01*
X175222Y209860D01*
X175193Y209836D01*
X175122Y209788D01*
X166942Y201608D01*
X166902Y201544D01*
X166858Y201482D01*
X166856Y201470D01*
X166851Y201461D01*
X166847Y201424D01*
X166831Y201340D01*
X166831Y178298D01*
X166848Y178224D01*
X166861Y178149D01*
X166868Y178139D01*
X166870Y178129D01*
X166894Y178101D01*
X166940Y178033D01*
X166940Y178032D01*
X166942Y178029D01*
X168887Y176085D01*
X168887Y171895D01*
X168025Y171034D01*
X168012Y171012D01*
X167992Y170996D01*
X167966Y170939D01*
X167934Y170887D01*
X167931Y170861D01*
X167921Y170837D01*
X167923Y170776D01*
X167917Y170714D01*
X167926Y170690D01*
X167927Y170664D01*
X167957Y170610D01*
X167979Y170552D01*
X167998Y170535D01*
X168010Y170512D01*
X168061Y170477D01*
X168106Y170435D01*
X168131Y170427D01*
X168152Y170412D01*
X168236Y170396D01*
X168272Y170385D01*
X168282Y170387D01*
X168294Y170385D01*
X168962Y170385D01*
X169911Y169435D01*
X169954Y169408D01*
X169992Y169374D01*
X170027Y169363D01*
X170058Y169344D01*
X170109Y169339D01*
X170158Y169324D01*
X170194Y169331D01*
X170231Y169327D01*
X170278Y169345D01*
X170329Y169354D01*
X170364Y169378D01*
X170393Y169389D01*
X170414Y169411D01*
X170449Y169435D01*
X171398Y170385D01*
X181662Y170385D01*
X182611Y169435D01*
X182654Y169408D01*
X182692Y169374D01*
X182727Y169363D01*
X182758Y169344D01*
X182809Y169339D01*
X182858Y169324D01*
X182894Y169331D01*
X182931Y169327D01*
X182978Y169345D01*
X183029Y169354D01*
X183064Y169378D01*
X183093Y169389D01*
X183114Y169411D01*
X183149Y169435D01*
X184098Y170385D01*
X194362Y170385D01*
X195311Y169435D01*
X195354Y169408D01*
X195392Y169374D01*
X195427Y169363D01*
X195458Y169344D01*
X195509Y169339D01*
X195558Y169324D01*
X195594Y169331D01*
G37*
G36*
X317931Y61941D02*
X317931Y61941D01*
X317982Y61943D01*
X318014Y61961D01*
X318050Y61969D01*
X318089Y62002D01*
X318134Y62026D01*
X318155Y62056D01*
X318183Y62080D01*
X318204Y62126D01*
X318234Y62168D01*
X318242Y62210D01*
X318254Y62238D01*
X318253Y62268D01*
X318261Y62310D01*
X318261Y70470D01*
X320585Y70470D01*
X321231Y70297D01*
X321810Y69962D01*
X322283Y69489D01*
X322537Y69049D01*
X322546Y69039D01*
X322551Y69027D01*
X322605Y68976D01*
X322656Y68923D01*
X322668Y68918D01*
X322678Y68909D01*
X322749Y68888D01*
X322818Y68862D01*
X322831Y68864D01*
X322844Y68860D01*
X322917Y68872D01*
X322990Y68880D01*
X323002Y68887D01*
X323015Y68889D01*
X323135Y68970D01*
X323618Y69454D01*
X330382Y69454D01*
X331275Y68561D01*
X331275Y67196D01*
X331281Y67171D01*
X331278Y67146D01*
X331300Y67088D01*
X331314Y67028D01*
X331331Y67008D01*
X331340Y66984D01*
X331385Y66942D01*
X331424Y66894D01*
X331448Y66883D01*
X331467Y66866D01*
X331526Y66848D01*
X331583Y66823D01*
X331608Y66824D01*
X331633Y66817D01*
X331694Y66827D01*
X331756Y66830D01*
X331778Y66842D01*
X331804Y66846D01*
X331875Y66895D01*
X331908Y66912D01*
X331914Y66921D01*
X331924Y66928D01*
X332168Y67172D01*
X332208Y67237D01*
X332252Y67298D01*
X332254Y67310D01*
X332259Y67319D01*
X332263Y67356D01*
X332279Y67440D01*
X332279Y73162D01*
X332262Y73236D01*
X332249Y73311D01*
X332242Y73321D01*
X332240Y73331D01*
X332216Y73359D01*
X332168Y73431D01*
X330223Y75375D01*
X330223Y79565D01*
X330416Y79757D01*
X330429Y79779D01*
X330449Y79795D01*
X330475Y79852D01*
X330507Y79904D01*
X330510Y79930D01*
X330520Y79954D01*
X330518Y80015D01*
X330524Y80077D01*
X330515Y80101D01*
X330514Y80127D01*
X330484Y80181D01*
X330462Y80239D01*
X330443Y80256D01*
X330431Y80279D01*
X330380Y80314D01*
X330335Y80356D01*
X330310Y80364D01*
X330289Y80379D01*
X330205Y80395D01*
X330169Y80406D01*
X330159Y80404D01*
X330147Y80406D01*
X323618Y80406D01*
X322725Y81299D01*
X322725Y94563D01*
X322856Y94693D01*
X322896Y94758D01*
X322940Y94820D01*
X322942Y94832D01*
X322947Y94840D01*
X322951Y94877D01*
X322967Y94962D01*
X322967Y96499D01*
X322950Y96573D01*
X322937Y96648D01*
X322930Y96658D01*
X322928Y96668D01*
X322925Y96671D01*
X322925Y103470D01*
X322919Y103495D01*
X322922Y103521D01*
X322900Y103579D01*
X322886Y103639D01*
X322869Y103659D01*
X322860Y103683D01*
X322815Y103725D01*
X322776Y103773D01*
X322752Y103783D01*
X322733Y103801D01*
X322674Y103818D01*
X322617Y103843D01*
X322592Y103842D01*
X322567Y103850D01*
X322506Y103839D01*
X322444Y103837D01*
X322422Y103825D01*
X322396Y103820D01*
X322325Y103772D01*
X322292Y103754D01*
X322286Y103746D01*
X322276Y103739D01*
X319104Y100567D01*
X319064Y100502D01*
X319020Y100440D01*
X319018Y100428D01*
X319013Y100420D01*
X319009Y100383D01*
X318993Y100298D01*
X318993Y93446D01*
X319010Y93372D01*
X319023Y93297D01*
X319030Y93287D01*
X319032Y93277D01*
X319056Y93249D01*
X319104Y93177D01*
X321287Y90995D01*
X321287Y86805D01*
X318325Y83843D01*
X314135Y83843D01*
X313223Y84756D01*
X313158Y84796D01*
X313096Y84840D01*
X313084Y84842D01*
X313076Y84847D01*
X313039Y84851D01*
X312954Y84867D01*
X312655Y84867D01*
X312605Y84856D01*
X312554Y84854D01*
X312522Y84836D01*
X312486Y84828D01*
X312447Y84795D01*
X312402Y84771D01*
X312381Y84741D01*
X312353Y84718D01*
X312332Y84671D01*
X312302Y84629D01*
X312294Y84587D01*
X312282Y84559D01*
X312283Y84529D01*
X312275Y84487D01*
X312275Y81299D01*
X311382Y80406D01*
X304618Y80406D01*
X303725Y81299D01*
X303725Y94563D01*
X304618Y95456D01*
X311382Y95456D01*
X312275Y94563D01*
X312275Y93313D01*
X312286Y93263D01*
X312288Y93212D01*
X312306Y93180D01*
X312314Y93144D01*
X312347Y93105D01*
X312371Y93060D01*
X312401Y93039D01*
X312424Y93011D01*
X312471Y92990D01*
X312513Y92960D01*
X312555Y92952D01*
X312583Y92940D01*
X312613Y92941D01*
X312655Y92933D01*
X312954Y92933D01*
X313028Y92950D01*
X313103Y92963D01*
X313113Y92970D01*
X313123Y92972D01*
X313151Y92996D01*
X313223Y93044D01*
X313356Y93177D01*
X313396Y93242D01*
X313440Y93304D01*
X313442Y93316D01*
X313447Y93324D01*
X313451Y93361D01*
X313467Y93446D01*
X313467Y102744D01*
X320009Y109286D01*
X320023Y109308D01*
X320043Y109324D01*
X320068Y109381D01*
X320100Y109433D01*
X320103Y109459D01*
X320113Y109483D01*
X320111Y109544D01*
X320117Y109606D01*
X320108Y109630D01*
X320107Y109656D01*
X320077Y109710D01*
X320055Y109768D01*
X320036Y109785D01*
X320024Y109808D01*
X319974Y109843D01*
X319928Y109885D01*
X319903Y109893D01*
X319882Y109908D01*
X319798Y109924D01*
X319762Y109935D01*
X319752Y109933D01*
X319740Y109935D01*
X308328Y109935D01*
X307435Y110828D01*
X307435Y111055D01*
X307424Y111105D01*
X307422Y111156D01*
X307404Y111188D01*
X307396Y111224D01*
X307363Y111263D01*
X307339Y111308D01*
X307309Y111329D01*
X307286Y111357D01*
X307239Y111378D01*
X307197Y111408D01*
X307155Y111416D01*
X307127Y111428D01*
X307097Y111427D01*
X307055Y111435D01*
X306290Y111435D01*
X306216Y111418D01*
X306141Y111405D01*
X306131Y111398D01*
X306121Y111396D01*
X306093Y111372D01*
X306021Y111324D01*
X305383Y110685D01*
X301055Y110685D01*
X300981Y110668D01*
X300907Y110655D01*
X300896Y110648D01*
X300887Y110646D01*
X300858Y110622D01*
X300786Y110574D01*
X300632Y110419D01*
X288613Y110419D01*
X286845Y112188D01*
X286844Y112188D01*
X286724Y112309D01*
X286702Y112322D01*
X286686Y112342D01*
X286629Y112367D01*
X286577Y112400D01*
X286551Y112402D01*
X286527Y112413D01*
X286466Y112411D01*
X286404Y112417D01*
X286380Y112407D01*
X286354Y112406D01*
X286300Y112377D01*
X286242Y112355D01*
X286225Y112336D01*
X286202Y112324D01*
X286167Y112273D01*
X286125Y112228D01*
X286117Y112203D01*
X286102Y112182D01*
X286086Y112098D01*
X286075Y112062D01*
X286077Y112052D01*
X286075Y112040D01*
X286075Y106418D01*
X286086Y106368D01*
X286088Y106317D01*
X286101Y106295D01*
X286105Y106269D01*
X286112Y106259D01*
X286114Y106249D01*
X286138Y106220D01*
X286155Y106195D01*
X286171Y106165D01*
X286179Y106160D01*
X286186Y106149D01*
X287099Y105236D01*
X287163Y105196D01*
X287225Y105152D01*
X287237Y105150D01*
X287246Y105145D01*
X287283Y105141D01*
X287368Y105125D01*
X289075Y105125D01*
X289125Y105136D01*
X289176Y105138D01*
X289208Y105156D01*
X289244Y105164D01*
X289283Y105197D01*
X289328Y105221D01*
X289349Y105251D01*
X289377Y105274D01*
X289398Y105321D01*
X289428Y105363D01*
X289436Y105405D01*
X289448Y105433D01*
X289447Y105463D01*
X289455Y105505D01*
X289455Y106232D01*
X290348Y107125D01*
X301612Y107125D01*
X302505Y106232D01*
X302505Y96968D01*
X301612Y96075D01*
X299155Y96075D01*
X299105Y96064D01*
X299054Y96062D01*
X299022Y96044D01*
X298986Y96036D01*
X298947Y96003D01*
X298902Y95979D01*
X298881Y95949D01*
X298853Y95926D01*
X298832Y95879D01*
X298802Y95837D01*
X298794Y95795D01*
X298782Y95767D01*
X298783Y95737D01*
X298775Y95695D01*
X298775Y93565D01*
X298786Y93515D01*
X298788Y93464D01*
X298806Y93432D01*
X298814Y93396D01*
X298847Y93357D01*
X298871Y93312D01*
X298901Y93291D01*
X298924Y93263D01*
X298971Y93242D01*
X299013Y93212D01*
X299055Y93204D01*
X299083Y93192D01*
X299113Y93193D01*
X299155Y93185D01*
X300882Y93185D01*
X301775Y92292D01*
X301775Y77028D01*
X300882Y76135D01*
X289618Y76135D01*
X288725Y77028D01*
X288725Y92292D01*
X289618Y93185D01*
X291345Y93185D01*
X291395Y93196D01*
X291446Y93198D01*
X291478Y93216D01*
X291514Y93224D01*
X291553Y93257D01*
X291598Y93281D01*
X291619Y93311D01*
X291647Y93334D01*
X291668Y93381D01*
X291698Y93423D01*
X291706Y93465D01*
X291718Y93493D01*
X291717Y93523D01*
X291725Y93565D01*
X291725Y95695D01*
X291714Y95745D01*
X291712Y95796D01*
X291694Y95828D01*
X291686Y95864D01*
X291653Y95903D01*
X291629Y95948D01*
X291599Y95969D01*
X291576Y95997D01*
X291529Y96018D01*
X291487Y96048D01*
X291445Y96056D01*
X291417Y96068D01*
X291387Y96067D01*
X291345Y96075D01*
X290348Y96075D01*
X289455Y96968D01*
X289455Y97695D01*
X289444Y97745D01*
X289442Y97796D01*
X289424Y97828D01*
X289416Y97864D01*
X289383Y97903D01*
X289359Y97948D01*
X289329Y97969D01*
X289306Y97997D01*
X289259Y98018D01*
X289217Y98048D01*
X289175Y98056D01*
X289147Y98068D01*
X289117Y98067D01*
X289075Y98075D01*
X284290Y98075D01*
X281201Y101164D01*
X280154Y102211D01*
X280132Y102225D01*
X280116Y102245D01*
X280059Y102270D01*
X280007Y102303D01*
X279981Y102305D01*
X279957Y102316D01*
X279896Y102313D01*
X279834Y102319D01*
X279810Y102310D01*
X279784Y102309D01*
X279730Y102280D01*
X279672Y102258D01*
X279655Y102239D01*
X279632Y102226D01*
X279597Y102176D01*
X279555Y102131D01*
X279547Y102106D01*
X279532Y102085D01*
X279516Y102000D01*
X279505Y101964D01*
X279507Y101955D01*
X279505Y101943D01*
X279505Y96968D01*
X278616Y96080D01*
X278576Y96015D01*
X278532Y95953D01*
X278530Y95941D01*
X278525Y95933D01*
X278521Y95896D01*
X278505Y95811D01*
X278505Y93565D01*
X278516Y93515D01*
X278518Y93464D01*
X278536Y93432D01*
X278544Y93396D01*
X278577Y93357D01*
X278601Y93312D01*
X278631Y93291D01*
X278654Y93263D01*
X278701Y93242D01*
X278743Y93212D01*
X278785Y93204D01*
X278813Y93192D01*
X278843Y93193D01*
X278885Y93185D01*
X281882Y93185D01*
X282775Y92292D01*
X282775Y77028D01*
X281882Y76135D01*
X270618Y76135D01*
X270604Y76150D01*
X270582Y76163D01*
X270566Y76183D01*
X270509Y76209D01*
X270457Y76241D01*
X270431Y76244D01*
X270407Y76254D01*
X270346Y76252D01*
X270284Y76258D01*
X270260Y76249D01*
X270234Y76248D01*
X270180Y76218D01*
X270122Y76196D01*
X270105Y76177D01*
X270082Y76165D01*
X270047Y76114D01*
X270005Y76069D01*
X269997Y76044D01*
X269982Y76023D01*
X269966Y75939D01*
X269955Y75903D01*
X269957Y75893D01*
X269955Y75881D01*
X269955Y73378D01*
X269953Y73377D01*
X269945Y73364D01*
X269933Y73356D01*
X269914Y73318D01*
X269893Y73295D01*
X269884Y73266D01*
X269862Y73230D01*
X269860Y73215D01*
X269854Y73202D01*
X269853Y73159D01*
X269844Y73129D01*
X269849Y73098D01*
X269845Y73057D01*
X269851Y73043D01*
X269850Y73029D01*
X269868Y72991D01*
X269874Y72959D01*
X269895Y72927D01*
X269907Y72895D01*
X269918Y72885D01*
X269924Y72872D01*
X269943Y72856D01*
X269955Y72838D01*
X270463Y72330D01*
X270798Y71751D01*
X270971Y71105D01*
X270971Y68831D01*
X265811Y68831D01*
X265761Y68820D01*
X265710Y68818D01*
X265678Y68800D01*
X265642Y68792D01*
X265603Y68759D01*
X265558Y68735D01*
X265537Y68705D01*
X265509Y68681D01*
X265488Y68635D01*
X265458Y68593D01*
X265450Y68551D01*
X265438Y68523D01*
X265439Y68493D01*
X265431Y68451D01*
X265431Y67689D01*
X265442Y67639D01*
X265444Y67588D01*
X265462Y67556D01*
X265470Y67520D01*
X265503Y67481D01*
X265527Y67436D01*
X265557Y67415D01*
X265581Y67387D01*
X265627Y67366D01*
X265669Y67336D01*
X265711Y67328D01*
X265739Y67316D01*
X265769Y67317D01*
X265811Y67309D01*
X270971Y67309D01*
X270971Y66227D01*
X270982Y66177D01*
X270984Y66126D01*
X271002Y66094D01*
X271010Y66058D01*
X271043Y66019D01*
X271067Y65974D01*
X271097Y65953D01*
X271120Y65925D01*
X271167Y65904D01*
X271209Y65874D01*
X271251Y65866D01*
X271278Y65854D01*
X271309Y65855D01*
X271351Y65847D01*
X278845Y65847D01*
X278895Y65858D01*
X278946Y65860D01*
X278978Y65878D01*
X279014Y65886D01*
X279053Y65919D01*
X279098Y65943D01*
X279119Y65973D01*
X279147Y65996D01*
X279168Y66043D01*
X279198Y66085D01*
X279206Y66127D01*
X279218Y66155D01*
X279217Y66185D01*
X279225Y66227D01*
X279225Y70292D01*
X280118Y71185D01*
X291382Y71185D01*
X292275Y70292D01*
X292275Y68089D01*
X292286Y68039D01*
X292288Y67988D01*
X292306Y67956D01*
X292314Y67920D01*
X292347Y67881D01*
X292371Y67836D01*
X292401Y67815D01*
X292424Y67787D01*
X292471Y67766D01*
X292513Y67736D01*
X292555Y67728D01*
X292583Y67716D01*
X292613Y67717D01*
X292655Y67709D01*
X303345Y67709D01*
X303395Y67720D01*
X303446Y67722D01*
X303478Y67740D01*
X303514Y67748D01*
X303553Y67781D01*
X303598Y67805D01*
X303619Y67835D01*
X303647Y67858D01*
X303668Y67905D01*
X303698Y67947D01*
X303706Y67989D01*
X303718Y68017D01*
X303717Y68047D01*
X303725Y68089D01*
X303725Y68561D01*
X304618Y69454D01*
X311382Y69454D01*
X311865Y68970D01*
X311876Y68963D01*
X311884Y68952D01*
X311950Y68918D01*
X312012Y68879D01*
X312026Y68878D01*
X312038Y68871D01*
X312111Y68870D01*
X312184Y68863D01*
X312197Y68867D01*
X312211Y68867D01*
X312277Y68898D01*
X312346Y68924D01*
X312356Y68934D01*
X312368Y68940D01*
X312463Y69049D01*
X312717Y69489D01*
X313190Y69962D01*
X313769Y70297D01*
X314415Y70470D01*
X316739Y70470D01*
X316739Y62310D01*
X316750Y62260D01*
X316752Y62209D01*
X316770Y62177D01*
X316778Y62141D01*
X316811Y62102D01*
X316835Y62057D01*
X316865Y62036D01*
X316888Y62008D01*
X316935Y61987D01*
X316977Y61957D01*
X317019Y61949D01*
X317047Y61937D01*
X317077Y61938D01*
X317119Y61930D01*
X317881Y61930D01*
X317931Y61941D01*
G37*
%LPC*%
G36*
X128191Y264921D02*
X128191Y264921D01*
X128191Y289201D01*
X150265Y289201D01*
X150911Y289028D01*
X151490Y288693D01*
X151963Y288220D01*
X152298Y287641D01*
X152471Y286995D01*
X152471Y264921D01*
X128191Y264921D01*
G37*
%LPD*%
%LPC*%
G36*
X102389Y264921D02*
X102389Y264921D01*
X102389Y286995D01*
X102562Y287641D01*
X102897Y288220D01*
X103370Y288693D01*
X103949Y289028D01*
X104595Y289201D01*
X126669Y289201D01*
X126669Y264921D01*
X102389Y264921D01*
G37*
%LPD*%
%LPC*%
G36*
X128191Y263399D02*
X128191Y263399D01*
X152471Y263399D01*
X152471Y241325D01*
X152298Y240679D01*
X151963Y240100D01*
X151490Y239627D01*
X150911Y239292D01*
X150265Y239119D01*
X128191Y239119D01*
X128191Y263399D01*
G37*
%LPD*%
%LPC*%
G36*
X104595Y239119D02*
X104595Y239119D01*
X103949Y239292D01*
X103370Y239627D01*
X102897Y240100D01*
X102562Y240679D01*
X102389Y241325D01*
X102389Y263399D01*
X126669Y263399D01*
X126669Y239119D01*
X104595Y239119D01*
G37*
%LPD*%
%LPC*%
G36*
X221639Y58959D02*
X221639Y58959D01*
X218979Y61619D01*
X218979Y62002D01*
X218962Y62076D01*
X218949Y62151D01*
X218942Y62161D01*
X218940Y62171D01*
X218916Y62199D01*
X218868Y62271D01*
X218463Y62675D01*
X218463Y66865D01*
X221425Y69827D01*
X225615Y69827D01*
X227220Y68221D01*
X227242Y68208D01*
X227258Y68188D01*
X227315Y68162D01*
X227367Y68130D01*
X227393Y68127D01*
X227417Y68117D01*
X227478Y68119D01*
X227540Y68113D01*
X227564Y68122D01*
X227590Y68123D01*
X227644Y68153D01*
X227702Y68175D01*
X227719Y68194D01*
X227742Y68206D01*
X227777Y68257D01*
X227819Y68302D01*
X227827Y68327D01*
X227842Y68348D01*
X227858Y68432D01*
X227869Y68468D01*
X227867Y68478D01*
X227869Y68490D01*
X227869Y71798D01*
X231092Y75021D01*
X235648Y75021D01*
X238690Y71979D01*
X238712Y71965D01*
X238728Y71946D01*
X238785Y71920D01*
X238837Y71888D01*
X238863Y71885D01*
X238887Y71875D01*
X238948Y71877D01*
X239010Y71871D01*
X239034Y71880D01*
X239060Y71881D01*
X239114Y71911D01*
X239172Y71933D01*
X239189Y71952D01*
X239212Y71964D01*
X239247Y72014D01*
X239289Y72060D01*
X239297Y72085D01*
X239312Y72106D01*
X239328Y72190D01*
X239339Y72226D01*
X239337Y72236D01*
X239339Y72248D01*
X239339Y74059D01*
X246909Y74059D01*
X246909Y60699D01*
X246849Y60699D01*
X245240Y61019D01*
X243724Y61647D01*
X242360Y62559D01*
X241199Y63720D01*
X240287Y65084D01*
X239659Y66600D01*
X239561Y67095D01*
X239530Y67163D01*
X239503Y67234D01*
X239494Y67242D01*
X239489Y67253D01*
X239431Y67300D01*
X239376Y67351D01*
X239364Y67355D01*
X239355Y67363D01*
X239282Y67379D01*
X239210Y67401D01*
X239198Y67399D01*
X239186Y67401D01*
X239113Y67384D01*
X239039Y67371D01*
X239028Y67364D01*
X239018Y67361D01*
X238989Y67337D01*
X238919Y67290D01*
X235648Y64019D01*
X231092Y64019D01*
X229226Y65885D01*
X229204Y65899D01*
X229188Y65918D01*
X229131Y65944D01*
X229079Y65976D01*
X229053Y65979D01*
X229029Y65989D01*
X228968Y65987D01*
X228906Y65993D01*
X228882Y65984D01*
X228856Y65983D01*
X228802Y65953D01*
X228744Y65931D01*
X228727Y65912D01*
X228704Y65900D01*
X228669Y65850D01*
X228627Y65804D01*
X228619Y65779D01*
X228604Y65758D01*
X228588Y65674D01*
X228577Y65638D01*
X228579Y65628D01*
X228577Y65616D01*
X228577Y62675D01*
X228172Y62271D01*
X228132Y62206D01*
X228088Y62144D01*
X228086Y62132D01*
X228081Y62124D01*
X228077Y62087D01*
X228061Y62002D01*
X228061Y61619D01*
X225401Y58959D01*
X221639Y58959D01*
G37*
%LPD*%
G36*
X192603Y41027D02*
X192603Y41027D01*
X192628Y41024D01*
X192686Y41046D01*
X192746Y41060D01*
X192766Y41077D01*
X192790Y41086D01*
X192832Y41131D01*
X192880Y41170D01*
X192891Y41194D01*
X192908Y41213D01*
X192926Y41272D01*
X192951Y41329D01*
X192950Y41354D01*
X192957Y41379D01*
X192947Y41440D01*
X192944Y41502D01*
X192932Y41524D01*
X192928Y41550D01*
X192879Y41621D01*
X192862Y41654D01*
X192853Y41660D01*
X192846Y41670D01*
X192579Y41937D01*
X192579Y49495D01*
X192568Y49545D01*
X192566Y49596D01*
X192548Y49628D01*
X192540Y49664D01*
X192507Y49703D01*
X192483Y49748D01*
X192453Y49769D01*
X192430Y49797D01*
X192383Y49818D01*
X192341Y49848D01*
X192299Y49856D01*
X192271Y49868D01*
X192241Y49867D01*
X192199Y49875D01*
X191948Y49875D01*
X191055Y50768D01*
X191055Y57432D01*
X191775Y58151D01*
X191802Y58194D01*
X191836Y58232D01*
X191847Y58267D01*
X191866Y58298D01*
X191871Y58349D01*
X191886Y58398D01*
X191879Y58434D01*
X191883Y58471D01*
X191865Y58518D01*
X191856Y58569D01*
X191832Y58604D01*
X191821Y58633D01*
X191799Y58654D01*
X191775Y58689D01*
X191055Y59408D01*
X191055Y63606D01*
X191049Y63631D01*
X191052Y63657D01*
X191030Y63715D01*
X191016Y63775D01*
X190999Y63795D01*
X190990Y63819D01*
X190945Y63861D01*
X190906Y63908D01*
X190882Y63919D01*
X190863Y63936D01*
X190804Y63954D01*
X190747Y63979D01*
X190722Y63978D01*
X190697Y63986D01*
X190636Y63975D01*
X190574Y63973D01*
X190552Y63960D01*
X190526Y63956D01*
X190455Y63908D01*
X190422Y63890D01*
X190416Y63882D01*
X190406Y63875D01*
X187515Y60983D01*
X184764Y60983D01*
X184690Y60966D01*
X184616Y60953D01*
X184606Y60946D01*
X184596Y60944D01*
X184567Y60920D01*
X184496Y60872D01*
X174562Y50938D01*
X174522Y50874D01*
X174478Y50812D01*
X174476Y50800D01*
X174471Y50791D01*
X174467Y50754D01*
X174451Y50670D01*
X174451Y46345D01*
X174457Y46320D01*
X174454Y46294D01*
X174476Y46236D01*
X174490Y46176D01*
X174507Y46156D01*
X174516Y46132D01*
X174561Y46090D01*
X174600Y46043D01*
X174624Y46032D01*
X174643Y46015D01*
X174702Y45997D01*
X174759Y45972D01*
X174784Y45973D01*
X174809Y45965D01*
X174870Y45976D01*
X174932Y45978D01*
X174954Y45991D01*
X174980Y45995D01*
X175051Y46043D01*
X175054Y46045D01*
X186332Y46045D01*
X187225Y45152D01*
X187225Y41401D01*
X187236Y41351D01*
X187238Y41300D01*
X187256Y41268D01*
X187264Y41232D01*
X187297Y41193D01*
X187321Y41148D01*
X187351Y41127D01*
X187374Y41099D01*
X187421Y41078D01*
X187463Y41048D01*
X187505Y41040D01*
X187533Y41028D01*
X187563Y41029D01*
X187605Y41021D01*
X192578Y41021D01*
X192603Y41027D01*
G37*
%LPC*%
G36*
X220068Y19995D02*
X220068Y19995D01*
X219175Y20888D01*
X219175Y25152D01*
X219275Y25251D01*
X219302Y25294D01*
X219336Y25332D01*
X219347Y25367D01*
X219366Y25398D01*
X219371Y25449D01*
X219386Y25498D01*
X219379Y25534D01*
X219383Y25571D01*
X219365Y25618D01*
X219356Y25669D01*
X219332Y25704D01*
X219321Y25733D01*
X219299Y25754D01*
X219275Y25789D01*
X219175Y25888D01*
X219175Y29294D01*
X219158Y29368D01*
X219145Y29443D01*
X219138Y29453D01*
X219136Y29463D01*
X219112Y29492D01*
X219064Y29563D01*
X218667Y29960D01*
X218332Y30539D01*
X218249Y30849D01*
X218159Y31185D01*
X218159Y32271D01*
X225331Y32271D01*
X225380Y32282D01*
X225431Y32284D01*
X225464Y32302D01*
X225500Y32310D01*
X225539Y32343D01*
X225584Y32367D01*
X225605Y32397D01*
X225633Y32420D01*
X225654Y32467D01*
X225683Y32509D01*
X225692Y32551D01*
X225702Y32573D01*
X225703Y32550D01*
X225720Y32518D01*
X225728Y32482D01*
X225761Y32443D01*
X225785Y32398D01*
X225815Y32377D01*
X225839Y32349D01*
X225885Y32328D01*
X225927Y32298D01*
X225969Y32290D01*
X225997Y32278D01*
X226027Y32279D01*
X226069Y32271D01*
X233241Y32271D01*
X233241Y31185D01*
X233068Y30539D01*
X232733Y29960D01*
X232336Y29563D01*
X232296Y29498D01*
X232252Y29436D01*
X232250Y29424D01*
X232245Y29416D01*
X232241Y29379D01*
X232225Y29294D01*
X232225Y25888D01*
X232125Y25789D01*
X232098Y25746D01*
X232064Y25708D01*
X232053Y25673D01*
X232034Y25642D01*
X232029Y25591D01*
X232014Y25542D01*
X232021Y25506D01*
X232017Y25469D01*
X232035Y25422D01*
X232044Y25371D01*
X232068Y25336D01*
X232079Y25307D01*
X232101Y25287D01*
X232125Y25251D01*
X232225Y25152D01*
X232225Y20888D01*
X231332Y19995D01*
X220068Y19995D01*
G37*
%LPD*%
G36*
X210383Y41027D02*
X210383Y41027D01*
X210408Y41024D01*
X210466Y41046D01*
X210526Y41060D01*
X210546Y41077D01*
X210570Y41086D01*
X210612Y41131D01*
X210660Y41170D01*
X210671Y41194D01*
X210688Y41213D01*
X210706Y41272D01*
X210731Y41329D01*
X210730Y41354D01*
X210737Y41379D01*
X210727Y41440D01*
X210724Y41502D01*
X210712Y41524D01*
X210708Y41550D01*
X210659Y41621D01*
X210642Y41654D01*
X210633Y41660D01*
X210626Y41670D01*
X208418Y43878D01*
X206549Y45747D01*
X206549Y49495D01*
X206538Y49545D01*
X206536Y49596D01*
X206518Y49628D01*
X206510Y49664D01*
X206477Y49703D01*
X206453Y49748D01*
X206423Y49769D01*
X206400Y49797D01*
X206353Y49818D01*
X206311Y49848D01*
X206269Y49856D01*
X206241Y49868D01*
X206211Y49867D01*
X206169Y49875D01*
X205918Y49875D01*
X205025Y50768D01*
X205025Y57432D01*
X205745Y58151D01*
X205772Y58194D01*
X205806Y58232D01*
X205817Y58267D01*
X205836Y58298D01*
X205841Y58349D01*
X205856Y58398D01*
X205849Y58434D01*
X205853Y58471D01*
X205835Y58518D01*
X205826Y58569D01*
X205802Y58604D01*
X205791Y58633D01*
X205769Y58654D01*
X205745Y58689D01*
X205025Y59408D01*
X205025Y64876D01*
X205019Y64901D01*
X205022Y64927D01*
X205000Y64985D01*
X204986Y65045D01*
X204969Y65065D01*
X204960Y65089D01*
X204915Y65131D01*
X204876Y65178D01*
X204852Y65189D01*
X204833Y65206D01*
X204774Y65224D01*
X204717Y65249D01*
X204692Y65248D01*
X204667Y65256D01*
X204606Y65245D01*
X204544Y65243D01*
X204522Y65230D01*
X204496Y65226D01*
X204425Y65178D01*
X204392Y65160D01*
X204386Y65152D01*
X204376Y65145D01*
X204025Y64793D01*
X200485Y64793D01*
X200435Y64782D01*
X200384Y64780D01*
X200352Y64762D01*
X200316Y64754D01*
X200277Y64721D01*
X200232Y64697D01*
X200211Y64667D01*
X200183Y64644D01*
X200162Y64597D01*
X200132Y64555D01*
X200124Y64513D01*
X200112Y64485D01*
X200113Y64455D01*
X200105Y64413D01*
X200105Y59408D01*
X199385Y58689D01*
X199358Y58646D01*
X199324Y58608D01*
X199313Y58573D01*
X199294Y58542D01*
X199289Y58491D01*
X199274Y58442D01*
X199281Y58406D01*
X199277Y58369D01*
X199295Y58322D01*
X199304Y58271D01*
X199328Y58236D01*
X199339Y58207D01*
X199361Y58186D01*
X199385Y58151D01*
X200105Y57432D01*
X200105Y50768D01*
X199212Y49875D01*
X198961Y49875D01*
X198911Y49864D01*
X198860Y49862D01*
X198828Y49844D01*
X198792Y49836D01*
X198753Y49803D01*
X198708Y49779D01*
X198687Y49749D01*
X198659Y49726D01*
X198638Y49679D01*
X198608Y49637D01*
X198600Y49595D01*
X198588Y49567D01*
X198589Y49537D01*
X198581Y49495D01*
X198581Y44580D01*
X198598Y44506D01*
X198611Y44432D01*
X198618Y44422D01*
X198620Y44412D01*
X198644Y44383D01*
X198692Y44312D01*
X201872Y41132D01*
X201936Y41092D01*
X201998Y41048D01*
X202010Y41046D01*
X202019Y41041D01*
X202056Y41037D01*
X202140Y41021D01*
X210358Y41021D01*
X210383Y41027D01*
G37*
%LPC*%
G36*
X162031Y75581D02*
X162031Y75581D01*
X162031Y88941D01*
X162091Y88941D01*
X163700Y88621D01*
X165216Y87993D01*
X166580Y87081D01*
X167741Y85920D01*
X168653Y84556D01*
X169281Y83040D01*
X169601Y81431D01*
X169601Y75581D01*
X162031Y75581D01*
G37*
%LPD*%
%LPC*%
G36*
X248431Y33781D02*
X248431Y33781D01*
X248431Y47141D01*
X248491Y47141D01*
X250100Y46821D01*
X251616Y46193D01*
X252980Y45281D01*
X254141Y44120D01*
X255053Y42756D01*
X255681Y41240D01*
X256001Y39631D01*
X256001Y33781D01*
X248431Y33781D01*
G37*
%LPD*%
%LPC*%
G36*
X248431Y18899D02*
X248431Y18899D01*
X248431Y32259D01*
X256001Y32259D01*
X256001Y26409D01*
X255895Y25878D01*
X255895Y25877D01*
X255819Y25497D01*
X255681Y24800D01*
X255053Y23284D01*
X254141Y21920D01*
X252980Y20759D01*
X251616Y19847D01*
X250100Y19219D01*
X248491Y18899D01*
X248431Y18899D01*
G37*
%LPD*%
%LPC*%
G36*
X239339Y75581D02*
X239339Y75581D01*
X239339Y81431D01*
X239454Y82009D01*
X239454Y82010D01*
X239530Y82390D01*
X239659Y83040D01*
X240287Y84556D01*
X241199Y85920D01*
X242360Y87081D01*
X243724Y87993D01*
X245240Y88621D01*
X246849Y88941D01*
X246909Y88941D01*
X246909Y75581D01*
X239339Y75581D01*
G37*
%LPD*%
%LPC*%
G36*
X152939Y75581D02*
X152939Y75581D01*
X152939Y81431D01*
X153054Y82009D01*
X153054Y82010D01*
X153130Y82390D01*
X153259Y83040D01*
X153887Y84556D01*
X154799Y85920D01*
X155960Y87081D01*
X157324Y87993D01*
X158840Y88621D01*
X160449Y88941D01*
X160509Y88941D01*
X160509Y75581D01*
X152939Y75581D01*
G37*
%LPD*%
%LPC*%
G36*
X152939Y33781D02*
X152939Y33781D01*
X152939Y39631D01*
X153049Y40182D01*
X153125Y40562D01*
X153259Y41240D01*
X153887Y42756D01*
X154799Y44120D01*
X155960Y45281D01*
X157324Y46193D01*
X158840Y46821D01*
X160449Y47141D01*
X160509Y47141D01*
X160509Y33781D01*
X152939Y33781D01*
G37*
%LPD*%
%LPC*%
G36*
X239339Y33781D02*
X239339Y33781D01*
X239339Y39631D01*
X239449Y40182D01*
X239525Y40562D01*
X239659Y41240D01*
X240287Y42756D01*
X241199Y44120D01*
X242360Y45281D01*
X243724Y46193D01*
X245240Y46821D01*
X246849Y47141D01*
X246909Y47141D01*
X246909Y33781D01*
X239339Y33781D01*
G37*
%LPD*%
%LPC*%
G36*
X160449Y60699D02*
X160449Y60699D01*
X158840Y61019D01*
X157324Y61647D01*
X155960Y62559D01*
X154799Y63720D01*
X153887Y65084D01*
X153259Y66600D01*
X152939Y68209D01*
X152939Y74059D01*
X160509Y74059D01*
X160509Y60699D01*
X160449Y60699D01*
G37*
%LPD*%
%LPC*%
G36*
X246849Y18899D02*
X246849Y18899D01*
X245240Y19219D01*
X243724Y19847D01*
X242360Y20759D01*
X241199Y21920D01*
X240287Y23284D01*
X239659Y24800D01*
X239339Y26409D01*
X239339Y32259D01*
X246909Y32259D01*
X246909Y18899D01*
X246849Y18899D01*
G37*
%LPD*%
%LPC*%
G36*
X160449Y18899D02*
X160449Y18899D01*
X158840Y19219D01*
X157324Y19847D01*
X155960Y20759D01*
X154799Y21920D01*
X153887Y23284D01*
X153259Y24800D01*
X152939Y26409D01*
X152939Y32259D01*
X160509Y32259D01*
X160509Y18899D01*
X160449Y18899D01*
G37*
%LPD*%
%LPC*%
G36*
X268731Y26161D02*
X268731Y26161D01*
X268731Y34941D01*
X268910Y34941D01*
X270753Y34574D01*
X272489Y33855D01*
X274052Y32811D01*
X275381Y31482D01*
X276425Y29919D01*
X277144Y28183D01*
X277511Y26340D01*
X277511Y26161D01*
X268731Y26161D01*
G37*
%LPD*%
%LPC*%
G36*
X258429Y26161D02*
X258429Y26161D01*
X258429Y26340D01*
X258535Y26873D01*
X258611Y27253D01*
X258611Y27254D01*
X258762Y28014D01*
X258796Y28183D01*
X259515Y29919D01*
X260559Y31482D01*
X261888Y32811D01*
X263451Y33855D01*
X265187Y34574D01*
X267030Y34941D01*
X267209Y34941D01*
X267209Y26161D01*
X258429Y26161D01*
G37*
%LPD*%
%LPC*%
G36*
X140851Y99821D02*
X140851Y99821D01*
X140851Y106601D01*
X145925Y106601D01*
X146571Y106428D01*
X147150Y106093D01*
X147623Y105620D01*
X147958Y105041D01*
X148131Y104395D01*
X148131Y99821D01*
X140851Y99821D01*
G37*
%LPD*%
%LPC*%
G36*
X132049Y99821D02*
X132049Y99821D01*
X132049Y104395D01*
X132222Y105041D01*
X132557Y105620D01*
X133030Y106093D01*
X133609Y106428D01*
X134255Y106601D01*
X139329Y106601D01*
X139329Y99821D01*
X132049Y99821D01*
G37*
%LPD*%
%LPC*%
G36*
X140851Y91519D02*
X140851Y91519D01*
X140851Y98299D01*
X148131Y98299D01*
X148131Y93725D01*
X147958Y93079D01*
X147623Y92500D01*
X147150Y92027D01*
X146571Y91692D01*
X145925Y91519D01*
X140851Y91519D01*
G37*
%LPD*%
%LPC*%
G36*
X140851Y108029D02*
X140851Y108029D01*
X140851Y114809D01*
X148131Y114809D01*
X148131Y110235D01*
X147958Y109589D01*
X147623Y109010D01*
X147150Y108537D01*
X146571Y108202D01*
X145925Y108029D01*
X140851Y108029D01*
G37*
%LPD*%
%LPC*%
G36*
X134255Y91519D02*
X134255Y91519D01*
X133609Y91692D01*
X133030Y92027D01*
X132557Y92500D01*
X132222Y93079D01*
X132049Y93725D01*
X132049Y98299D01*
X139329Y98299D01*
X139329Y91519D01*
X134255Y91519D01*
G37*
%LPD*%
%LPC*%
G36*
X134255Y108029D02*
X134255Y108029D01*
X133609Y108202D01*
X133030Y108537D01*
X132557Y109010D01*
X132222Y109589D01*
X132049Y110235D01*
X132049Y114809D01*
X139329Y114809D01*
X139329Y108029D01*
X134255Y108029D01*
G37*
%LPD*%
%LPC*%
G36*
X247999Y134221D02*
X247999Y134221D01*
X247999Y137795D01*
X248172Y138441D01*
X248507Y139020D01*
X248980Y139493D01*
X249559Y139828D01*
X250205Y140001D01*
X255779Y140001D01*
X255779Y134221D01*
X247999Y134221D01*
G37*
%LPD*%
%LPC*%
G36*
X315721Y126919D02*
X315721Y126919D01*
X315721Y132699D01*
X323501Y132699D01*
X323501Y129125D01*
X323328Y128479D01*
X322993Y127900D01*
X322520Y127427D01*
X321941Y127092D01*
X321295Y126919D01*
X315721Y126919D01*
G37*
%LPD*%
%LPC*%
G36*
X250205Y126919D02*
X250205Y126919D01*
X249559Y127092D01*
X248980Y127427D01*
X248507Y127900D01*
X248172Y128479D01*
X247999Y129125D01*
X247999Y132699D01*
X255779Y132699D01*
X255779Y126919D01*
X250205Y126919D01*
G37*
%LPD*%
%LPC*%
G36*
X336551Y101091D02*
X336551Y101091D01*
X336551Y105871D01*
X338825Y105871D01*
X339471Y105698D01*
X340050Y105363D01*
X340523Y104890D01*
X340858Y104311D01*
X341031Y103665D01*
X341031Y101091D01*
X336551Y101091D01*
G37*
%LPD*%
%LPC*%
G36*
X336551Y94789D02*
X336551Y94789D01*
X336551Y99569D01*
X341031Y99569D01*
X341031Y96995D01*
X340858Y96349D01*
X340523Y95770D01*
X340050Y95297D01*
X339471Y94962D01*
X338825Y94789D01*
X336551Y94789D01*
G37*
%LPD*%
%LPC*%
G36*
X161269Y74819D02*
X161269Y74819D01*
X161269Y74821D01*
X161271Y74821D01*
X161271Y74819D01*
X161269Y74819D01*
G37*
%LPD*%
%LPC*%
G36*
X247669Y33019D02*
X247669Y33019D01*
X247669Y33021D01*
X247671Y33021D01*
X247671Y33019D01*
X247669Y33019D01*
G37*
%LPD*%
%LPC*%
G36*
X127429Y264159D02*
X127429Y264159D01*
X127429Y264161D01*
X127431Y264161D01*
X127431Y264159D01*
X127429Y264159D01*
G37*
%LPD*%
%LPC*%
G36*
X140089Y99059D02*
X140089Y99059D01*
X140089Y99061D01*
X140091Y99061D01*
X140091Y99059D01*
X140089Y99059D01*
G37*
%LPD*%
%LPC*%
G36*
X267969Y25399D02*
X267969Y25399D01*
X267969Y25401D01*
X267971Y25401D01*
X267971Y25399D01*
X267969Y25399D01*
G37*
%LPD*%
D10*
X161270Y69030D02*
X161270Y80610D01*
X247670Y80610D02*
X247670Y69030D01*
X161270Y38810D02*
X161270Y27230D01*
X247670Y27230D02*
X247670Y38810D01*
D11*
X209550Y54100D03*
X209550Y62740D03*
X195580Y54100D03*
X195580Y62740D03*
D12*
X278130Y160360D03*
X278130Y340360D03*
X74930Y340360D03*
X49530Y340360D03*
D13*
X127430Y264160D03*
D12*
X49530Y160360D03*
X227330Y340360D03*
X214630Y160360D03*
X227330Y160360D03*
X201930Y160360D03*
X163830Y160360D03*
X214630Y340360D03*
X240030Y340360D03*
X201930Y340360D03*
X240030Y160360D03*
X151130Y160360D03*
X138430Y160360D03*
X113030Y160360D03*
X74930Y160360D03*
X62230Y160360D03*
X163830Y340360D03*
X176530Y340360D03*
X189230Y340360D03*
X138430Y340360D03*
X151130Y340360D03*
X113030Y340360D03*
X125730Y340360D03*
X125730Y160360D03*
X189230Y160360D03*
X176530Y160360D03*
X100330Y160360D03*
X265430Y160360D03*
X252730Y160360D03*
X252730Y340360D03*
X265430Y340360D03*
X100330Y340360D03*
X87630Y340360D03*
X87630Y160360D03*
X62230Y340360D03*
D14*
X225700Y43020D03*
X225700Y38020D03*
X225700Y33020D03*
X225700Y28020D03*
X225700Y23020D03*
X180700Y23020D03*
X180700Y28020D03*
X180700Y33020D03*
X180700Y38020D03*
X180700Y43020D03*
D15*
X272749Y114960D03*
X272749Y124460D03*
X272749Y133960D03*
X298751Y133960D03*
X298751Y114960D03*
D16*
X314960Y115460D03*
X314960Y133460D03*
X256540Y115460D03*
X256540Y133460D03*
D17*
X157090Y99060D03*
X140090Y99060D03*
X157090Y115570D03*
X140090Y115570D03*
D18*
X272980Y101600D03*
X295980Y101600D03*
D19*
X285750Y62660D03*
X295250Y84660D03*
X276250Y84660D03*
D20*
X327000Y61929D03*
X317500Y61929D03*
X308000Y61929D03*
X308000Y87931D03*
X327000Y87931D03*
D21*
X335790Y100330D03*
X327150Y100330D03*
X333250Y147320D03*
X324610Y147320D03*
D11*
X265430Y68070D03*
X265430Y76710D03*
D22*
X287020Y31750D03*
X267970Y25400D03*
D23*
X215900Y199390D03*
X71120Y134620D03*
D24*
X210820Y134620D01*
X215900Y139700D01*
X215900Y159090D01*
X214630Y160360D01*
D25*
X227330Y160360D01*
D24*
X214630Y160360D02*
X213360Y161630D01*
X213360Y196850D01*
X215900Y199390D01*
X74930Y340360D02*
X74930Y394970D01*
X69850Y400050D01*
X67310Y400050D01*
D23*
X67310Y400050D03*
X207010Y96520D03*
D24*
X209550Y93980D01*
X209550Y62740D01*
D23*
X201930Y69850D03*
D24*
X200660Y68580D01*
X196850Y68580D01*
X195580Y67310D01*
X195580Y62740D01*
X100330Y160360D02*
X100330Y175260D01*
D23*
X100330Y175260D03*
D24*
X87630Y175260D02*
X87630Y160360D01*
D23*
X87630Y175260D03*
X121920Y173990D03*
D24*
X247670Y43200D02*
X247670Y33020D01*
X256540Y133460D02*
X255380Y134620D01*
D23*
X124460Y356870D03*
X336550Y336550D03*
X336550Y326390D03*
X336550Y314960D03*
X336550Y303530D03*
X336550Y292100D03*
X336550Y280670D03*
X336550Y270510D03*
X336550Y259080D03*
X336550Y247650D03*
X336550Y236220D03*
X336550Y224790D03*
X336550Y213360D03*
X336550Y200660D03*
X336550Y189230D03*
X336550Y176530D03*
X336550Y163830D03*
X50800Y322580D03*
X50800Y311150D03*
X50800Y299720D03*
X50800Y287020D03*
X50800Y274320D03*
X50800Y260350D03*
X50800Y247650D03*
X266700Y187960D03*
X158750Y486410D03*
X168910Y488950D03*
X180340Y490220D03*
X191770Y491490D03*
X204470Y491490D03*
X215900Y491490D03*
X228600Y490220D03*
X241300Y488950D03*
X254000Y486410D03*
X267970Y482600D03*
X281940Y477520D03*
X297180Y471170D03*
X323850Y458470D03*
X148590Y19050D03*
X134620Y24130D03*
X120650Y29210D03*
X184150Y205740D03*
X243840Y144780D03*
X45720Y74930D03*
X54610Y67310D03*
X63500Y59690D03*
X73660Y52070D03*
X109220Y34290D03*
X191770Y459740D03*
X191770Y438150D03*
X193040Y412750D03*
X194310Y389890D03*
X218440Y461010D03*
X219710Y439420D03*
X219710Y410210D03*
X220980Y387350D03*
X251460Y386080D03*
X254000Y412750D03*
X251460Y436880D03*
X250190Y458470D03*
X276860Y458470D03*
X187960Y297180D03*
X187960Y267970D03*
X189230Y237490D03*
X205740Y236220D03*
X205740Y265430D03*
X207010Y294640D03*
X259080Y299720D03*
X261620Y278130D03*
X261620Y251460D03*
X261620Y232410D03*
X292100Y232410D03*
X292100Y254000D03*
X294640Y274320D03*
X295910Y290830D03*
X295910Y307340D03*
X318770Y306070D03*
X316230Y285750D03*
X318770Y259080D03*
X318770Y237490D03*
X314960Y212090D03*
X321310Y190500D03*
X116840Y295910D03*
X134620Y207010D03*
X149860Y203200D03*
X158750Y365760D03*
X320040Y353060D03*
X194310Y372110D03*
X222250Y368300D03*
X267970Y377190D03*
D26*
X317500Y73660D02*
X317500Y61929D01*
D23*
X317500Y73660D03*
X57150Y226060D03*
X57150Y210820D03*
X71120Y191770D03*
X115570Y207010D03*
X308610Y38100D03*
X300990Y190500D03*
X302260Y168910D03*
X298450Y215900D03*
X182880Y250190D03*
X191770Y280670D03*
X270510Y200660D03*
X278130Y275590D03*
X276860Y306070D03*
X309880Y73660D03*
X135890Y48260D03*
X144780Y38100D03*
X144780Y62230D03*
X92710Y74930D03*
X73660Y78740D03*
X50800Y95250D03*
X58420Y83820D03*
X85090Y63500D03*
X124460Y77470D03*
X104140Y323850D03*
X133350Y323850D03*
X179070Y308610D03*
X173990Y276860D03*
X127000Y222250D03*
X303530Y242570D03*
X147320Y482600D03*
X105410Y468630D03*
X95250Y463550D03*
X85090Y457200D03*
X73660Y450850D03*
X63500Y443230D03*
X336550Y449580D03*
X161290Y464820D03*
X175260Y438150D03*
X158750Y405130D03*
X153670Y417830D03*
X153670Y449580D03*
X177800Y476250D03*
X214630Y474980D03*
X271780Y440690D03*
X275590Y233680D03*
X182880Y52070D03*
X203200Y45720D03*
X45720Y138430D03*
X49530Y110490D03*
X267970Y25400D03*
D26*
X157090Y99060D02*
X157090Y115570D01*
D23*
X185420Y66040D03*
D26*
X183102Y68358D01*
X183102Y72640D01*
X177800Y77942D01*
X168910Y99060D02*
X157090Y99060D01*
X177800Y90170D02*
X177800Y77942D01*
X177800Y90170D02*
X168910Y99060D01*
D24*
X173910Y28020D02*
X180700Y28020D01*
X173910Y28020D02*
X171450Y30480D01*
X171450Y52070D01*
X185420Y66040D01*
D23*
X223520Y64770D03*
D27*
X223520Y63500D01*
D23*
X262890Y101600D03*
D28*
X272980Y101600D01*
X274980Y99600D01*
X274980Y85930D01*
X276250Y84660D01*
D26*
X274550Y86360D01*
X265430Y86360D01*
X308000Y87931D02*
X308969Y88900D01*
X316230Y88900D01*
D23*
X265430Y86360D03*
X316230Y88900D03*
D26*
X265430Y86360D02*
X265430Y76710D01*
D25*
X324610Y138940D02*
X324610Y147320D01*
X324610Y138940D02*
X327660Y135890D01*
X327660Y113030D01*
X316230Y101600D02*
X316230Y88900D01*
X316230Y101600D02*
X327660Y113030D01*
D23*
X62230Y325120D03*
X162560Y219710D03*
D29*
X162560Y295910D01*
X74930Y312420D02*
X62230Y325120D01*
X146050Y312420D02*
X162560Y295910D01*
X146050Y312420D02*
X74930Y312420D01*
D23*
X173990Y140970D03*
D24*
X171260Y140970D01*
X168910Y138620D01*
X105220Y138620D01*
X101600Y142240D01*
D23*
X101600Y142240D03*
D24*
X100330Y140970D01*
X67310Y140970D01*
X62230Y135890D01*
X62230Y100330D01*
D23*
X62230Y100330D03*
D29*
X62230Y325120D02*
X62230Y340360D01*
D23*
X243840Y219710D03*
D28*
X298751Y114960D02*
X314460Y114960D01*
X314960Y115460D01*
D27*
X298751Y114960D02*
X290494Y114960D01*
X288614Y116840D01*
X243840Y219710D02*
X162560Y219710D01*
X243840Y219710D02*
X270510Y219710D01*
X288614Y201606D01*
X288614Y116840D01*
D24*
X74930Y160360D02*
X74930Y175260D01*
D23*
X74930Y175260D03*
D24*
X62230Y175260D02*
X62230Y160360D01*
D23*
X62230Y175260D03*
X201930Y140970D03*
D24*
X151130Y149860D02*
X151130Y160360D01*
X151130Y149860D02*
X153670Y147320D01*
X195580Y147320D02*
X201930Y140970D01*
X195580Y147320D02*
X153670Y147320D01*
D23*
X104140Y400050D03*
D24*
X151130Y389890D02*
X151130Y340360D01*
X151130Y389890D02*
X140970Y400050D01*
X104140Y400050D01*
D23*
X109220Y110490D03*
D24*
X104140Y105410D01*
X96520Y106680D01*
X82550Y119380D01*
X83820Y128270D01*
X86170Y130620D01*
X219900Y142430D02*
X223520Y146050D01*
X212477Y130620D02*
X86170Y130620D01*
X212477Y130620D02*
X219900Y138043D01*
X219900Y142430D01*
X236220Y146050D02*
X240030Y149860D01*
X240030Y160360D01*
X236220Y146050D02*
X223520Y146050D01*
D23*
X91440Y123190D03*
X204470Y204470D03*
X203200Y314960D03*
D24*
X201930Y316230D02*
X201930Y340360D01*
X201930Y316230D02*
X203200Y314960D01*
X227330Y139700D02*
X214250Y126620D01*
X94870Y126620D01*
D23*
X227330Y139700D03*
X204470Y173990D03*
D24*
X204470Y204470D01*
X94870Y126620D02*
X91440Y123190D01*
D23*
X219710Y173990D03*
D24*
X240030Y237490D02*
X240030Y340360D01*
X240030Y237490D02*
X247650Y229870D01*
D23*
X247650Y229870D03*
D24*
X219710Y190500D02*
X219710Y173990D01*
X227330Y198120D02*
X250190Y198120D01*
X227330Y198120D02*
X219710Y190500D01*
D23*
X254000Y203200D03*
D24*
X254000Y201930D02*
X250190Y198120D01*
X254000Y201930D02*
X254000Y203200D01*
X225700Y43020D02*
X213520Y43020D01*
X209550Y46990D01*
X209550Y54100D01*
X200740Y38020D02*
X225700Y38020D01*
X200740Y38020D02*
X195580Y43180D01*
X195580Y54100D01*
X190500Y33020D02*
X180700Y33020D01*
X190500Y33020D02*
X201930Y21590D01*
D23*
X201930Y21590D03*
D24*
X194390Y38020D02*
X180700Y38020D01*
X194390Y38020D02*
X201930Y30480D01*
D23*
X201930Y30480D03*
X114300Y100330D03*
D24*
X189230Y340360D02*
X189230Y355600D01*
X190500Y356870D01*
D23*
X190500Y356870D03*
D24*
X163830Y173990D02*
X163830Y160360D01*
D23*
X163830Y173990D03*
X243840Y205740D03*
D24*
X163830Y202740D02*
X163830Y173990D01*
X163830Y202740D02*
X173990Y212900D01*
X236680Y212900D01*
X243840Y205740D01*
X113030Y190500D02*
X113030Y160360D01*
D23*
X92710Y289560D03*
D24*
X92710Y210820D01*
X113030Y190500D01*
D28*
X272749Y114960D02*
X273359Y115570D01*
X272249Y115460D02*
X256540Y115460D01*
X272249Y115460D02*
X272749Y114960D01*
X285750Y101600D02*
X295980Y101600D01*
X285750Y101600D02*
X282550Y104800D01*
X295250Y100870D02*
X295980Y101600D01*
X295250Y100870D02*
X295250Y84660D01*
X281330Y133960D02*
X272749Y133960D01*
X281330Y133960D02*
X282550Y132740D01*
X282550Y114300D01*
X282550Y104800D01*
X281890Y114960D02*
X272749Y114960D01*
X281890Y114960D02*
X282550Y114300D01*
D24*
X333250Y147320D02*
X341630Y147320D01*
D23*
X341630Y147320D03*
D24*
X331169Y61929D02*
X327000Y61929D01*
X335280Y66040D02*
X335280Y77470D01*
X335280Y66040D02*
X331169Y61929D01*
D23*
X335280Y77470D03*
D26*
X308000Y61929D02*
X307269Y62660D01*
D29*
X295910Y40640D02*
X287020Y31750D01*
D23*
X295910Y40640D03*
D29*
X285750Y50800D02*
X285750Y62660D01*
X289560Y46990D02*
X295910Y40640D01*
X289560Y46990D02*
X285750Y50800D01*
D23*
X289560Y46990D03*
D29*
X285750Y62660D02*
X307269Y62660D01*
D23*
X247650Y104140D03*
D24*
X250190Y104140D01*
X256834Y97496D02*
X256834Y66127D01*
X260115Y62846D01*
X285564Y62846D02*
X285750Y62660D01*
X285564Y62846D02*
X260115Y62846D01*
X256834Y97496D02*
X250190Y104140D01*
D23*
X287020Y31750D03*
D24*
X327000Y99060D02*
X327000Y100180D01*
X327150Y100330D01*
D26*
X327000Y99060D02*
X327000Y87931D01*
M02*
