G04 EAGLE Gerber RS-274X export*
G75*
%MOMM*%
%FSLAX34Y34*%
%LPD*%
%INTop Copper*%
%IPPOS*%
%AMOC8*
5,1,8,0,0,1.08239X$1,22.5*%
G01*
%ADD10R,1.100000X1.000000*%
%ADD11R,0.600000X1.450000*%
%ADD12R,0.300000X1.450000*%
%ADD13C,1.158000*%
%ADD14R,0.600000X0.540000*%
%ADD15R,0.711200X1.422400*%
%ADD16R,1.422400X0.711200*%
%ADD17R,0.609600X1.244600*%
%ADD18R,1.193800X3.784600*%
%ADD19R,1.447800X1.397000*%
%ADD20R,0.990600X0.609600*%
%ADD21R,0.939800X0.838200*%
%ADD22C,0.147500*%
%ADD23R,2.500000X0.750000*%
%ADD24R,1.000000X0.900000*%
%ADD25R,0.540000X0.600000*%
%ADD26R,0.760000X1.270000*%
%ADD27R,0.900000X1.000000*%
%ADD28R,1.000000X1.651000*%
%ADD29C,0.300000*%
%ADD30C,0.706400*%
%ADD31C,0.200000*%
%ADD32C,0.406400*%
%ADD33C,0.152400*%
%ADD34C,0.304800*%
%ADD35C,0.508000*%

G36*
X104084Y168118D02*
X104084Y168118D01*
X104158Y168131D01*
X104168Y168138D01*
X104178Y168140D01*
X104207Y168164D01*
X104278Y168212D01*
X107378Y171312D01*
X107418Y171376D01*
X107462Y171438D01*
X107464Y171450D01*
X107469Y171459D01*
X107473Y171496D01*
X107489Y171580D01*
X107489Y177773D01*
X111296Y181580D01*
X111310Y181602D01*
X111330Y181618D01*
X111355Y181675D01*
X111388Y181727D01*
X111390Y181753D01*
X111401Y181777D01*
X111399Y181838D01*
X111404Y181900D01*
X111395Y181924D01*
X111394Y181950D01*
X111365Y182004D01*
X111343Y182062D01*
X111324Y182079D01*
X111312Y182102D01*
X111261Y182137D01*
X111216Y182179D01*
X111191Y182187D01*
X111170Y182202D01*
X111085Y182218D01*
X111050Y182229D01*
X111040Y182227D01*
X111028Y182229D01*
X106810Y182229D01*
X106736Y182212D01*
X106662Y182199D01*
X106652Y182192D01*
X106642Y182190D01*
X106613Y182166D01*
X106542Y182118D01*
X103851Y179428D01*
X103824Y179384D01*
X103790Y179347D01*
X103779Y179312D01*
X103760Y179280D01*
X103755Y179230D01*
X103741Y179181D01*
X103747Y179145D01*
X103743Y179108D01*
X103762Y179060D01*
X103770Y179010D01*
X103794Y178975D01*
X103805Y178946D01*
X103828Y178925D01*
X103851Y178890D01*
X105387Y177355D01*
X105387Y173165D01*
X102425Y170203D01*
X98235Y170203D01*
X95273Y173165D01*
X95273Y177355D01*
X97218Y179299D01*
X97258Y179364D01*
X97302Y179426D01*
X97304Y179438D01*
X97309Y179446D01*
X97313Y179483D01*
X97329Y179568D01*
X97329Y181393D01*
X101516Y185580D01*
X101530Y185602D01*
X101550Y185618D01*
X101575Y185675D01*
X101608Y185727D01*
X101610Y185753D01*
X101621Y185777D01*
X101619Y185838D01*
X101624Y185900D01*
X101615Y185924D01*
X101614Y185950D01*
X101585Y186004D01*
X101563Y186062D01*
X101544Y186079D01*
X101532Y186102D01*
X101481Y186137D01*
X101436Y186179D01*
X101411Y186187D01*
X101390Y186202D01*
X101305Y186218D01*
X101270Y186229D01*
X101260Y186227D01*
X101248Y186229D01*
X96650Y186229D01*
X96576Y186212D01*
X96502Y186199D01*
X96492Y186192D01*
X96482Y186190D01*
X96453Y186166D01*
X96382Y186118D01*
X90742Y180478D01*
X90702Y180414D01*
X90658Y180352D01*
X90656Y180340D01*
X90651Y180331D01*
X90647Y180294D01*
X90642Y180269D01*
X90638Y180259D01*
X90638Y180248D01*
X90631Y180210D01*
X90631Y179568D01*
X90648Y179494D01*
X90661Y179419D01*
X90668Y179409D01*
X90670Y179399D01*
X90694Y179371D01*
X90742Y179299D01*
X92687Y177355D01*
X92687Y173165D01*
X89725Y170203D01*
X85535Y170203D01*
X82573Y173165D01*
X82573Y177355D01*
X84518Y179299D01*
X84558Y179364D01*
X84602Y179426D01*
X84604Y179438D01*
X84609Y179446D01*
X84613Y179483D01*
X84629Y179568D01*
X84629Y182853D01*
X86498Y184722D01*
X91356Y189580D01*
X91370Y189602D01*
X91390Y189618D01*
X91415Y189675D01*
X91448Y189727D01*
X91450Y189753D01*
X91461Y189777D01*
X91459Y189838D01*
X91464Y189900D01*
X91455Y189924D01*
X91454Y189950D01*
X91425Y190004D01*
X91403Y190062D01*
X91384Y190079D01*
X91372Y190102D01*
X91321Y190137D01*
X91276Y190179D01*
X91251Y190187D01*
X91230Y190202D01*
X91145Y190218D01*
X91110Y190229D01*
X91100Y190227D01*
X91088Y190229D01*
X89220Y190229D01*
X89146Y190212D01*
X89072Y190199D01*
X89062Y190192D01*
X89052Y190190D01*
X89023Y190166D01*
X88952Y190118D01*
X78356Y179523D01*
X78329Y179479D01*
X78295Y179442D01*
X78284Y179407D01*
X78265Y179375D01*
X78260Y179325D01*
X78246Y179276D01*
X78252Y179240D01*
X78248Y179203D01*
X78267Y179155D01*
X78275Y179105D01*
X78299Y179070D01*
X78310Y179041D01*
X78333Y179020D01*
X78356Y178985D01*
X79987Y177355D01*
X79987Y173165D01*
X77025Y170203D01*
X72835Y170203D01*
X69873Y173165D01*
X69873Y177355D01*
X71818Y179299D01*
X71858Y179364D01*
X71902Y179426D01*
X71904Y179438D01*
X71909Y179446D01*
X71913Y179483D01*
X71929Y179568D01*
X71929Y181583D01*
X86577Y196231D01*
X210990Y196231D01*
X211015Y196237D01*
X211041Y196234D01*
X211099Y196256D01*
X211159Y196270D01*
X211179Y196287D01*
X211203Y196296D01*
X211245Y196341D01*
X211292Y196380D01*
X211303Y196404D01*
X211320Y196423D01*
X211338Y196482D01*
X211363Y196539D01*
X211362Y196564D01*
X211370Y196589D01*
X211359Y196650D01*
X211357Y196712D01*
X211344Y196734D01*
X211340Y196760D01*
X211292Y196831D01*
X211274Y196864D01*
X211266Y196870D01*
X211259Y196880D01*
X210843Y197295D01*
X210843Y201485D01*
X212719Y203360D01*
X212732Y203382D01*
X212752Y203398D01*
X212778Y203455D01*
X212810Y203507D01*
X212813Y203533D01*
X212823Y203557D01*
X212821Y203618D01*
X212827Y203680D01*
X212818Y203704D01*
X212817Y203730D01*
X212787Y203784D01*
X212765Y203842D01*
X212746Y203859D01*
X212734Y203882D01*
X212683Y203917D01*
X212638Y203959D01*
X212613Y203967D01*
X212592Y203982D01*
X212508Y203998D01*
X212472Y204009D01*
X212462Y204007D01*
X212450Y204009D01*
X209907Y204009D01*
X209857Y203998D01*
X209806Y203996D01*
X209774Y203978D01*
X209738Y203970D01*
X209699Y203937D01*
X209654Y203913D01*
X209633Y203883D01*
X209605Y203860D01*
X209584Y203813D01*
X209554Y203771D01*
X209546Y203729D01*
X209534Y203701D01*
X209535Y203671D01*
X209527Y203629D01*
X209527Y202375D01*
X206565Y199413D01*
X202375Y199413D01*
X199413Y202375D01*
X199413Y206565D01*
X202375Y209527D01*
X205126Y209527D01*
X205200Y209544D01*
X205274Y209557D01*
X205284Y209564D01*
X205294Y209566D01*
X205323Y209590D01*
X205394Y209638D01*
X205767Y210011D01*
X216463Y210011D01*
X216537Y210028D01*
X216611Y210041D01*
X216622Y210048D01*
X216631Y210050D01*
X216660Y210074D01*
X216732Y210122D01*
X217021Y210411D01*
X217061Y210476D01*
X217104Y210538D01*
X217107Y210550D01*
X217112Y210558D01*
X217115Y210595D01*
X217132Y210680D01*
X217132Y308480D01*
X217115Y308554D01*
X217102Y308628D01*
X217095Y308638D01*
X217092Y308648D01*
X217069Y308677D01*
X217021Y308748D01*
X213921Y311848D01*
X213856Y311888D01*
X213794Y311932D01*
X213782Y311934D01*
X213774Y311939D01*
X213737Y311943D01*
X213652Y311959D01*
X207508Y311959D01*
X207434Y311942D01*
X207359Y311929D01*
X207349Y311922D01*
X207339Y311920D01*
X207311Y311896D01*
X207239Y311848D01*
X205295Y309903D01*
X201105Y309903D01*
X198143Y312865D01*
X198143Y317055D01*
X201105Y320017D01*
X205295Y320017D01*
X207239Y318072D01*
X207304Y318032D01*
X207366Y317988D01*
X207378Y317986D01*
X207386Y317981D01*
X207423Y317977D01*
X207508Y317961D01*
X212818Y317961D01*
X212843Y317967D01*
X212868Y317964D01*
X212926Y317986D01*
X212986Y318000D01*
X213006Y318017D01*
X213030Y318026D01*
X213072Y318071D01*
X213120Y318110D01*
X213131Y318134D01*
X213148Y318153D01*
X213166Y318212D01*
X213191Y318269D01*
X213190Y318294D01*
X213197Y318319D01*
X213187Y318380D01*
X213184Y318442D01*
X213172Y318464D01*
X213168Y318490D01*
X213119Y318561D01*
X213102Y318594D01*
X213093Y318600D01*
X213086Y318610D01*
X210958Y320738D01*
X210894Y320778D01*
X210832Y320822D01*
X210820Y320824D01*
X210811Y320829D01*
X210774Y320833D01*
X210690Y320849D01*
X168937Y320849D01*
X165238Y324548D01*
X163369Y326417D01*
X163369Y370710D01*
X163357Y370763D01*
X163356Y370792D01*
X163348Y370807D01*
X163339Y370858D01*
X163332Y370868D01*
X163330Y370878D01*
X163306Y370907D01*
X163258Y370978D01*
X157798Y376438D01*
X157734Y376478D01*
X157672Y376522D01*
X157660Y376524D01*
X157651Y376529D01*
X157614Y376533D01*
X157530Y376549D01*
X144445Y376549D01*
X144395Y376538D01*
X144344Y376536D01*
X144312Y376518D01*
X144276Y376510D01*
X144237Y376477D01*
X144192Y376453D01*
X144171Y376423D01*
X144143Y376400D01*
X144122Y376353D01*
X144092Y376311D01*
X144084Y376269D01*
X144072Y376241D01*
X144073Y376211D01*
X144065Y376169D01*
X144065Y374418D01*
X143172Y373525D01*
X131908Y373525D01*
X131015Y374418D01*
X131015Y384682D01*
X131908Y385575D01*
X134159Y385575D01*
X134209Y385586D01*
X134260Y385588D01*
X134292Y385606D01*
X134328Y385614D01*
X134367Y385647D01*
X134412Y385671D01*
X134433Y385701D01*
X134461Y385724D01*
X134482Y385771D01*
X134512Y385813D01*
X134520Y385855D01*
X134532Y385883D01*
X134531Y385913D01*
X134539Y385955D01*
X134539Y414145D01*
X134528Y414195D01*
X134526Y414246D01*
X134508Y414278D01*
X134500Y414314D01*
X134467Y414353D01*
X134443Y414398D01*
X134413Y414419D01*
X134390Y414447D01*
X134343Y414468D01*
X134301Y414498D01*
X134259Y414506D01*
X134231Y414518D01*
X134201Y414517D01*
X134159Y414525D01*
X131908Y414525D01*
X131015Y415418D01*
X131015Y425682D01*
X131735Y426401D01*
X131761Y426444D01*
X131796Y426481D01*
X131806Y426517D01*
X131826Y426548D01*
X131831Y426598D01*
X131845Y426647D01*
X131839Y426684D01*
X131843Y426721D01*
X131825Y426768D01*
X131816Y426818D01*
X131792Y426854D01*
X131781Y426883D01*
X131759Y426903D01*
X131736Y426938D01*
X130926Y427753D01*
X130962Y438017D01*
X131858Y438907D01*
X134229Y438898D01*
X134280Y438910D01*
X134331Y438912D01*
X134363Y438929D01*
X134398Y438937D01*
X134438Y438970D01*
X134483Y438995D01*
X134504Y439024D01*
X134532Y439047D01*
X134553Y439094D01*
X134583Y439136D01*
X134591Y439177D01*
X134604Y439205D01*
X134602Y439236D01*
X134611Y439278D01*
X134611Y467469D01*
X134599Y467518D01*
X134598Y467568D01*
X134580Y467601D01*
X134571Y467637D01*
X134539Y467676D01*
X134515Y467721D01*
X134485Y467742D01*
X134461Y467771D01*
X134415Y467792D01*
X134374Y467821D01*
X134331Y467829D01*
X134303Y467842D01*
X134273Y467841D01*
X134232Y467849D01*
X131959Y467857D01*
X131069Y468753D01*
X131105Y479016D01*
X132001Y479906D01*
X143264Y479867D01*
X144154Y478971D01*
X144118Y468708D01*
X143222Y467818D01*
X140994Y467825D01*
X140943Y467814D01*
X140892Y467812D01*
X140860Y467795D01*
X140825Y467787D01*
X140785Y467754D01*
X140740Y467729D01*
X140719Y467700D01*
X140691Y467677D01*
X140670Y467630D01*
X140640Y467587D01*
X140632Y467546D01*
X140619Y467519D01*
X140621Y467488D01*
X140612Y467445D01*
X140612Y439255D01*
X140624Y439206D01*
X140625Y439155D01*
X140643Y439123D01*
X140652Y439086D01*
X140684Y439047D01*
X140708Y439003D01*
X140738Y438981D01*
X140762Y438952D01*
X140808Y438932D01*
X140849Y438903D01*
X140892Y438894D01*
X140920Y438882D01*
X140950Y438883D01*
X140991Y438875D01*
X143121Y438867D01*
X144011Y437971D01*
X144005Y436245D01*
X144017Y436194D01*
X144018Y436142D01*
X144036Y436111D01*
X144044Y436076D01*
X144077Y436036D01*
X144101Y435990D01*
X144131Y435970D01*
X144154Y435942D01*
X144201Y435920D01*
X144243Y435891D01*
X144284Y435883D01*
X144311Y435870D01*
X144342Y435871D01*
X144385Y435863D01*
X159508Y435863D01*
X173371Y422000D01*
X173371Y348943D01*
X173385Y348882D01*
X173391Y348819D01*
X173405Y348798D01*
X173410Y348774D01*
X173450Y348725D01*
X173484Y348672D01*
X173505Y348659D01*
X173520Y348640D01*
X173578Y348615D01*
X173632Y348582D01*
X173656Y348580D01*
X173679Y348569D01*
X173741Y348572D01*
X173804Y348566D01*
X173830Y348575D01*
X173852Y348576D01*
X173885Y348594D01*
X173941Y348613D01*
X174066Y348686D01*
X174712Y348859D01*
X177841Y348859D01*
X177841Y339587D01*
X177853Y339537D01*
X177855Y339486D01*
X177873Y339454D01*
X177881Y339418D01*
X177913Y339379D01*
X177938Y339334D01*
X177968Y339313D01*
X177991Y339285D01*
X178038Y339264D01*
X178079Y339234D01*
X178121Y339226D01*
X178149Y339214D01*
X178180Y339215D01*
X178222Y339207D01*
X178603Y339207D01*
X178603Y338825D01*
X178615Y338775D01*
X178617Y338724D01*
X178635Y338692D01*
X178643Y338656D01*
X178675Y338617D01*
X178700Y338572D01*
X178730Y338551D01*
X178753Y338523D01*
X178800Y338502D01*
X178841Y338472D01*
X178883Y338464D01*
X178911Y338452D01*
X178942Y338453D01*
X178984Y338445D01*
X190922Y338445D01*
X190971Y338456D01*
X191022Y338458D01*
X191054Y338476D01*
X191090Y338484D01*
X191130Y338517D01*
X191174Y338541D01*
X191196Y338571D01*
X191224Y338594D01*
X191245Y338641D01*
X191274Y338683D01*
X191282Y338725D01*
X191295Y338753D01*
X191294Y338783D01*
X191302Y338825D01*
X191302Y339207D01*
X191303Y339207D01*
X191303Y338825D01*
X191315Y338775D01*
X191317Y338724D01*
X191335Y338692D01*
X191343Y338656D01*
X191375Y338617D01*
X191400Y338572D01*
X191430Y338551D01*
X191453Y338523D01*
X191500Y338502D01*
X191541Y338472D01*
X191583Y338464D01*
X191611Y338452D01*
X191642Y338453D01*
X191684Y338445D01*
X197399Y338445D01*
X197399Y331759D01*
X197284Y331329D01*
X197284Y331316D01*
X197278Y331303D01*
X197281Y331230D01*
X197279Y331156D01*
X197284Y331144D01*
X197285Y331130D01*
X197320Y331066D01*
X197350Y330999D01*
X197361Y330990D01*
X197367Y330978D01*
X197427Y330936D01*
X197485Y330889D01*
X197498Y330886D01*
X197509Y330878D01*
X197651Y330851D01*
X198616Y330851D01*
X198641Y330857D01*
X198666Y330854D01*
X198724Y330876D01*
X198784Y330890D01*
X198804Y330907D01*
X198828Y330916D01*
X198870Y330961D01*
X198918Y331000D01*
X198929Y331024D01*
X198946Y331043D01*
X198964Y331102D01*
X198989Y331159D01*
X198988Y331184D01*
X198995Y331209D01*
X198985Y331270D01*
X198982Y331332D01*
X198970Y331354D01*
X198965Y331380D01*
X198922Y331444D01*
X198922Y346950D01*
X199815Y347843D01*
X208190Y347843D01*
X209083Y346950D01*
X209083Y331462D01*
X208190Y330569D01*
X207384Y330569D01*
X207334Y330558D01*
X207283Y330556D01*
X207251Y330538D01*
X207215Y330530D01*
X207175Y330497D01*
X207131Y330473D01*
X207110Y330443D01*
X207081Y330420D01*
X207060Y330373D01*
X207031Y330331D01*
X207023Y330289D01*
X207010Y330261D01*
X207011Y330231D01*
X207003Y330189D01*
X207003Y328680D01*
X205824Y327500D01*
X205810Y327478D01*
X205790Y327462D01*
X205765Y327405D01*
X205732Y327353D01*
X205730Y327327D01*
X205719Y327303D01*
X205721Y327242D01*
X205716Y327180D01*
X205725Y327156D01*
X205726Y327130D01*
X205755Y327076D01*
X205777Y327018D01*
X205796Y327001D01*
X205808Y326978D01*
X205859Y326943D01*
X205904Y326901D01*
X205929Y326893D01*
X205950Y326878D01*
X206035Y326862D01*
X206070Y326851D01*
X206080Y326853D01*
X206092Y326851D01*
X213333Y326851D01*
X224483Y315701D01*
X224505Y315687D01*
X224521Y315667D01*
X224577Y315642D01*
X224630Y315610D01*
X224656Y315607D01*
X224679Y315596D01*
X224741Y315599D01*
X224802Y315593D01*
X224827Y315602D01*
X224852Y315603D01*
X224907Y315633D01*
X224964Y315655D01*
X224982Y315674D01*
X225005Y315686D01*
X225040Y315736D01*
X225082Y315782D01*
X225089Y315806D01*
X225104Y315828D01*
X225121Y315912D01*
X225131Y315948D01*
X225130Y315958D01*
X225132Y315970D01*
X225132Y330495D01*
X225115Y330569D01*
X225102Y330644D01*
X225095Y330654D01*
X225092Y330664D01*
X225069Y330692D01*
X225021Y330764D01*
X224322Y331462D01*
X224322Y346950D01*
X225215Y347843D01*
X233590Y347843D01*
X234483Y346950D01*
X234483Y331462D01*
X233590Y330569D01*
X231514Y330569D01*
X231464Y330558D01*
X231413Y330556D01*
X231381Y330538D01*
X231345Y330530D01*
X231305Y330497D01*
X231261Y330473D01*
X231240Y330443D01*
X231211Y330420D01*
X231190Y330373D01*
X231161Y330331D01*
X231153Y330289D01*
X231140Y330261D01*
X231141Y330231D01*
X231133Y330189D01*
X231133Y322655D01*
X231139Y322630D01*
X231137Y322604D01*
X231159Y322547D01*
X231173Y322486D01*
X231189Y322466D01*
X231198Y322442D01*
X231244Y322400D01*
X231283Y322353D01*
X231307Y322342D01*
X231326Y322325D01*
X231385Y322307D01*
X231441Y322282D01*
X231467Y322283D01*
X231492Y322275D01*
X231553Y322286D01*
X231614Y322288D01*
X231637Y322301D01*
X231662Y322305D01*
X231734Y322353D01*
X231767Y322371D01*
X231772Y322379D01*
X231782Y322386D01*
X238991Y329594D01*
X239031Y329659D01*
X239074Y329721D01*
X239077Y329733D01*
X239082Y329741D01*
X239085Y329778D01*
X239102Y329863D01*
X239102Y330189D01*
X239090Y330239D01*
X239088Y330290D01*
X239071Y330322D01*
X239062Y330358D01*
X239030Y330397D01*
X239006Y330442D01*
X238976Y330463D01*
X238952Y330491D01*
X238906Y330512D01*
X238864Y330542D01*
X238822Y330550D01*
X238794Y330562D01*
X238764Y330561D01*
X238722Y330569D01*
X237915Y330569D01*
X237022Y331462D01*
X237022Y346950D01*
X237915Y347843D01*
X246290Y347843D01*
X247183Y346950D01*
X247183Y332355D01*
X247189Y332330D01*
X247187Y332304D01*
X247209Y332246D01*
X247223Y332186D01*
X247239Y332166D01*
X247248Y332142D01*
X247294Y332100D01*
X247333Y332053D01*
X247357Y332042D01*
X247376Y332025D01*
X247435Y332007D01*
X247491Y331982D01*
X247517Y331983D01*
X247542Y331975D01*
X247603Y331986D01*
X247664Y331988D01*
X247687Y332001D01*
X247712Y332005D01*
X247784Y332053D01*
X247817Y332071D01*
X247822Y332079D01*
X247832Y332086D01*
X250888Y335142D01*
X250928Y335206D01*
X250972Y335268D01*
X250974Y335280D01*
X250979Y335289D01*
X250983Y335326D01*
X250999Y335410D01*
X250999Y353489D01*
X250988Y353539D01*
X250986Y353590D01*
X250968Y353622D01*
X250960Y353658D01*
X250927Y353697D01*
X250903Y353742D01*
X250873Y353763D01*
X250850Y353791D01*
X250803Y353812D01*
X250761Y353842D01*
X250719Y353850D01*
X250691Y353862D01*
X250661Y353861D01*
X250619Y353869D01*
X194808Y353869D01*
X194734Y353852D01*
X194659Y353839D01*
X194649Y353832D01*
X194639Y353830D01*
X194611Y353806D01*
X194539Y353758D01*
X192595Y351813D01*
X188405Y351813D01*
X185443Y354775D01*
X185443Y358965D01*
X188405Y361927D01*
X192595Y361927D01*
X194539Y359982D01*
X194604Y359942D01*
X194666Y359898D01*
X194678Y359896D01*
X194686Y359891D01*
X194723Y359887D01*
X194808Y359871D01*
X248790Y359871D01*
X248864Y359888D01*
X248938Y359901D01*
X248948Y359908D01*
X248958Y359910D01*
X248987Y359934D01*
X249058Y359982D01*
X257061Y367985D01*
X283573Y367985D01*
X283647Y368002D01*
X283722Y368015D01*
X283732Y368022D01*
X283742Y368024D01*
X283771Y368048D01*
X283842Y368096D01*
X292430Y376684D01*
X293660Y376684D01*
X293707Y376695D01*
X293756Y376696D01*
X293790Y376714D01*
X293828Y376723D01*
X293866Y376754D01*
X293909Y376777D01*
X293932Y376808D01*
X293962Y376833D01*
X293982Y376878D01*
X294011Y376917D01*
X294017Y376950D01*
X295380Y378280D01*
X315478Y378034D01*
X316800Y376679D01*
X316801Y376660D01*
X316817Y376630D01*
X316825Y376597D01*
X316858Y376555D01*
X316884Y376508D01*
X316912Y376488D01*
X316933Y376462D01*
X316982Y376439D01*
X317025Y376408D01*
X317064Y376401D01*
X317091Y376389D01*
X317123Y376389D01*
X317168Y376381D01*
X318640Y376381D01*
X318714Y376398D01*
X318788Y376411D01*
X318798Y376418D01*
X318808Y376420D01*
X318837Y376444D01*
X318908Y376492D01*
X319468Y377052D01*
X319508Y377116D01*
X319552Y377178D01*
X319554Y377190D01*
X319559Y377199D01*
X319563Y377236D01*
X319579Y377320D01*
X319579Y417422D01*
X327242Y425085D01*
X328849Y425085D01*
X328899Y425096D01*
X328950Y425098D01*
X328982Y425116D01*
X329018Y425124D01*
X329057Y425157D01*
X329102Y425181D01*
X329123Y425211D01*
X329151Y425234D01*
X329172Y425281D01*
X329202Y425323D01*
X329210Y425365D01*
X329222Y425393D01*
X329221Y425423D01*
X329229Y425465D01*
X329229Y425625D01*
X329218Y425675D01*
X329216Y425726D01*
X329198Y425758D01*
X329190Y425794D01*
X329157Y425833D01*
X329133Y425878D01*
X329103Y425899D01*
X329080Y425927D01*
X329033Y425948D01*
X328991Y425978D01*
X328949Y425986D01*
X328921Y425998D01*
X328906Y425998D01*
X328005Y426898D01*
X328005Y434162D01*
X328898Y435055D01*
X335562Y435055D01*
X336281Y434335D01*
X336324Y434308D01*
X336362Y434274D01*
X336397Y434263D01*
X336428Y434244D01*
X336479Y434239D01*
X336528Y434224D01*
X336564Y434231D01*
X336601Y434227D01*
X336648Y434245D01*
X336699Y434254D01*
X336734Y434278D01*
X336763Y434289D01*
X336784Y434311D01*
X336819Y434335D01*
X337538Y435055D01*
X344170Y435055D01*
X344220Y435066D01*
X344271Y435068D01*
X344303Y435086D01*
X344339Y435094D01*
X344378Y435127D01*
X344423Y435151D01*
X344444Y435181D01*
X344472Y435204D01*
X344493Y435251D01*
X344523Y435293D01*
X344531Y435335D01*
X344543Y435363D01*
X344542Y435393D01*
X344550Y435435D01*
X344550Y450696D01*
X344545Y450719D01*
X344547Y450743D01*
X344525Y450802D01*
X344511Y450865D01*
X344496Y450883D01*
X344487Y450905D01*
X344423Y450971D01*
X344401Y450998D01*
X344393Y451002D01*
X344386Y451009D01*
X330633Y460507D01*
X330614Y460514D01*
X330594Y460530D01*
X317217Y467564D01*
X317204Y467567D01*
X317194Y467575D01*
X317121Y467589D01*
X317049Y467607D01*
X317037Y467605D01*
X317024Y467607D01*
X316952Y467587D01*
X316880Y467572D01*
X316869Y467564D01*
X316857Y467561D01*
X316802Y467511D01*
X316743Y467465D01*
X316738Y467454D01*
X316728Y467445D01*
X316701Y467376D01*
X316669Y467309D01*
X316669Y467296D01*
X316664Y467284D01*
X316670Y467139D01*
X317273Y464608D01*
X303382Y461298D01*
X302101Y466677D01*
X312678Y469197D01*
X312713Y469214D01*
X312750Y469222D01*
X312789Y469253D01*
X312833Y469275D01*
X312857Y469305D01*
X312887Y469329D01*
X312908Y469374D01*
X312938Y469413D01*
X312945Y469451D01*
X312962Y469486D01*
X312961Y469535D01*
X312970Y469583D01*
X312960Y469620D01*
X312959Y469659D01*
X312937Y469703D01*
X312924Y469750D01*
X312898Y469779D01*
X312880Y469813D01*
X312833Y469851D01*
X312808Y469879D01*
X312788Y469887D01*
X312767Y469904D01*
X304783Y474101D01*
X304764Y474106D01*
X304742Y474120D01*
X277489Y484495D01*
X277469Y484498D01*
X277445Y484509D01*
X249144Y491537D01*
X249123Y491537D01*
X249099Y491546D01*
X220158Y495126D01*
X220138Y495124D01*
X220113Y495129D01*
X190952Y495210D01*
X190932Y495205D01*
X190906Y495207D01*
X161946Y491787D01*
X161927Y491780D01*
X161901Y491779D01*
X133561Y484907D01*
X133543Y484898D01*
X133517Y484894D01*
X124940Y481683D01*
X124924Y481672D01*
X124906Y481668D01*
X124853Y481625D01*
X124796Y481587D01*
X124786Y481570D01*
X124772Y481558D01*
X124743Y481496D01*
X124709Y481437D01*
X124708Y481418D01*
X124700Y481400D01*
X124703Y481332D01*
X124698Y481264D01*
X124706Y481246D01*
X124706Y481227D01*
X124739Y481167D01*
X124765Y481104D01*
X124779Y481091D01*
X124788Y481075D01*
X124844Y481035D01*
X124896Y480990D01*
X124914Y480985D01*
X124930Y480975D01*
X125040Y480953D01*
X125064Y480947D01*
X125068Y480947D01*
X125072Y480946D01*
X126971Y480940D01*
X127616Y480764D01*
X128194Y480428D01*
X128666Y479953D01*
X128998Y479373D01*
X129169Y478726D01*
X129155Y474653D01*
X121995Y474678D01*
X121946Y474666D01*
X121895Y474664D01*
X121862Y474647D01*
X121826Y474639D01*
X121787Y474606D01*
X121742Y474582D01*
X121721Y474552D01*
X121692Y474529D01*
X121671Y474482D01*
X121642Y474441D01*
X121634Y474399D01*
X121621Y474371D01*
X121622Y474341D01*
X121614Y474299D01*
X121612Y473917D01*
X121611Y473917D01*
X121612Y474299D01*
X121601Y474348D01*
X121599Y474399D01*
X121581Y474432D01*
X121573Y474468D01*
X121541Y474507D01*
X121517Y474552D01*
X121487Y474573D01*
X121463Y474602D01*
X121417Y474623D01*
X121375Y474652D01*
X121333Y474660D01*
X121306Y474673D01*
X121275Y474672D01*
X121233Y474680D01*
X114074Y474705D01*
X114082Y477068D01*
X114075Y477100D01*
X114077Y477133D01*
X114055Y477183D01*
X114043Y477237D01*
X114022Y477262D01*
X114010Y477292D01*
X113968Y477329D01*
X113933Y477371D01*
X113904Y477385D01*
X113879Y477406D01*
X113826Y477420D01*
X113775Y477443D01*
X113743Y477442D01*
X113711Y477450D01*
X113641Y477438D01*
X113602Y477437D01*
X113588Y477429D01*
X113568Y477426D01*
X106207Y474670D01*
X106190Y474659D01*
X106166Y474652D01*
X80280Y461224D01*
X80265Y461210D01*
X80241Y461200D01*
X56154Y444762D01*
X56141Y444747D01*
X56118Y444734D01*
X40390Y430962D01*
X40389Y430960D01*
X40387Y430960D01*
X40339Y430892D01*
X40289Y430821D01*
X40288Y430819D01*
X40287Y430818D01*
X40260Y430676D01*
X40260Y344773D01*
X40271Y344723D01*
X40273Y344672D01*
X40291Y344640D01*
X40299Y344604D01*
X40332Y344565D01*
X40356Y344520D01*
X40386Y344499D01*
X40409Y344471D01*
X40456Y344450D01*
X40498Y344420D01*
X40540Y344412D01*
X40568Y344400D01*
X40598Y344401D01*
X40640Y344393D01*
X43054Y344393D01*
X44673Y342774D01*
X44673Y232714D01*
X44679Y232689D01*
X44676Y232664D01*
X44698Y232606D01*
X44712Y232546D01*
X44729Y232526D01*
X44738Y232502D01*
X44783Y232460D01*
X44822Y232412D01*
X44846Y232401D01*
X44865Y232384D01*
X44924Y232366D01*
X44981Y232341D01*
X45006Y232342D01*
X45031Y232335D01*
X45092Y232345D01*
X45154Y232348D01*
X45176Y232360D01*
X45202Y232364D01*
X45273Y232413D01*
X45306Y232430D01*
X45312Y232439D01*
X45322Y232446D01*
X64198Y251322D01*
X64238Y251386D01*
X64282Y251448D01*
X64284Y251460D01*
X64289Y251469D01*
X64293Y251506D01*
X64309Y251590D01*
X64309Y318640D01*
X64296Y318697D01*
X64296Y318698D01*
X64295Y318699D01*
X64292Y318714D01*
X64279Y318788D01*
X64272Y318798D01*
X64270Y318808D01*
X64246Y318837D01*
X64198Y318908D01*
X63154Y319952D01*
X63090Y319992D01*
X63028Y320036D01*
X63016Y320038D01*
X63007Y320043D01*
X62970Y320047D01*
X62886Y320063D01*
X60135Y320063D01*
X57173Y323025D01*
X57173Y327215D01*
X59118Y329159D01*
X59158Y329224D01*
X59202Y329286D01*
X59204Y329298D01*
X59209Y329306D01*
X59213Y329343D01*
X59229Y329428D01*
X59229Y344143D01*
X67337Y352251D01*
X83690Y352251D01*
X83764Y352268D01*
X83838Y352281D01*
X83848Y352288D01*
X83858Y352290D01*
X83887Y352314D01*
X83958Y352362D01*
X84352Y352756D01*
X84366Y352778D01*
X84386Y352794D01*
X84411Y352851D01*
X84444Y352903D01*
X84446Y352929D01*
X84457Y352953D01*
X84455Y353014D01*
X84460Y353076D01*
X84451Y353100D01*
X84450Y353126D01*
X84421Y353180D01*
X84399Y353238D01*
X84380Y353255D01*
X84368Y353278D01*
X84317Y353313D01*
X84272Y353355D01*
X84247Y353363D01*
X84226Y353378D01*
X84141Y353394D01*
X84106Y353405D01*
X84096Y353403D01*
X84084Y353405D01*
X83998Y353405D01*
X83105Y354298D01*
X83105Y360962D01*
X83825Y361681D01*
X83838Y361702D01*
X83854Y361715D01*
X83865Y361738D01*
X83886Y361762D01*
X83897Y361797D01*
X83916Y361828D01*
X83919Y361860D01*
X83925Y361874D01*
X83925Y361891D01*
X83936Y361928D01*
X83929Y361964D01*
X83933Y362001D01*
X83919Y362037D01*
X83919Y362047D01*
X83913Y362057D01*
X83906Y362099D01*
X83882Y362134D01*
X83871Y362163D01*
X83849Y362184D01*
X83825Y362219D01*
X83093Y362950D01*
X83092Y362990D01*
X83074Y363022D01*
X83066Y363058D01*
X83033Y363097D01*
X83009Y363142D01*
X82979Y363163D01*
X82956Y363191D01*
X82909Y363212D01*
X82867Y363242D01*
X82825Y363250D01*
X82797Y363262D01*
X82767Y363261D01*
X82725Y363269D01*
X81920Y363269D01*
X81846Y363252D01*
X81772Y363239D01*
X81762Y363232D01*
X81752Y363230D01*
X81723Y363206D01*
X81652Y363158D01*
X77443Y358949D01*
X75595Y358949D01*
X75545Y358938D01*
X75494Y358936D01*
X75462Y358918D01*
X75426Y358910D01*
X75387Y358877D01*
X75342Y358853D01*
X75321Y358823D01*
X75293Y358800D01*
X75272Y358753D01*
X75242Y358711D01*
X75234Y358669D01*
X75222Y358641D01*
X75223Y358611D01*
X75215Y358569D01*
X75215Y356318D01*
X74322Y355425D01*
X62058Y355425D01*
X61165Y356318D01*
X61165Y367582D01*
X62058Y368475D01*
X64809Y368475D01*
X64859Y368486D01*
X64910Y368488D01*
X64942Y368506D01*
X64978Y368514D01*
X65017Y368547D01*
X65062Y368571D01*
X65083Y368601D01*
X65111Y368624D01*
X65132Y368671D01*
X65162Y368713D01*
X65170Y368755D01*
X65182Y368783D01*
X65181Y368813D01*
X65189Y368855D01*
X65189Y373145D01*
X65178Y373195D01*
X65176Y373246D01*
X65158Y373278D01*
X65150Y373314D01*
X65117Y373353D01*
X65093Y373398D01*
X65063Y373419D01*
X65040Y373447D01*
X64993Y373468D01*
X64951Y373498D01*
X64909Y373506D01*
X64881Y373518D01*
X64851Y373517D01*
X64809Y373525D01*
X62058Y373525D01*
X61165Y374418D01*
X61165Y384682D01*
X62058Y385575D01*
X64309Y385575D01*
X64359Y385586D01*
X64410Y385588D01*
X64442Y385606D01*
X64478Y385614D01*
X64517Y385647D01*
X64562Y385671D01*
X64583Y385701D01*
X64611Y385724D01*
X64632Y385771D01*
X64662Y385813D01*
X64670Y385855D01*
X64682Y385883D01*
X64681Y385913D01*
X64689Y385955D01*
X64689Y395362D01*
X64672Y395436D01*
X64659Y395511D01*
X64652Y395521D01*
X64650Y395531D01*
X64626Y395559D01*
X64578Y395631D01*
X62253Y397955D01*
X62253Y402145D01*
X64578Y404469D01*
X64618Y404534D01*
X64662Y404596D01*
X64664Y404608D01*
X64669Y404616D01*
X64673Y404653D01*
X64689Y404738D01*
X64689Y414145D01*
X64678Y414195D01*
X64676Y414246D01*
X64658Y414278D01*
X64650Y414314D01*
X64617Y414353D01*
X64593Y414398D01*
X64563Y414419D01*
X64540Y414447D01*
X64493Y414468D01*
X64451Y414498D01*
X64409Y414506D01*
X64381Y414518D01*
X64351Y414517D01*
X64309Y414525D01*
X62058Y414525D01*
X61165Y415418D01*
X61165Y425682D01*
X62058Y426575D01*
X73322Y426575D01*
X74215Y425682D01*
X74215Y415418D01*
X73322Y414525D01*
X71071Y414525D01*
X71021Y414514D01*
X70970Y414512D01*
X70938Y414494D01*
X70902Y414486D01*
X70863Y414453D01*
X70818Y414429D01*
X70797Y414399D01*
X70769Y414376D01*
X70748Y414329D01*
X70718Y414287D01*
X70710Y414245D01*
X70698Y414217D01*
X70699Y414187D01*
X70691Y414145D01*
X70691Y403978D01*
X70708Y403904D01*
X70721Y403829D01*
X70728Y403819D01*
X70730Y403809D01*
X70754Y403781D01*
X70802Y403709D01*
X72367Y402145D01*
X72367Y397955D01*
X70802Y396391D01*
X70762Y396326D01*
X70718Y396264D01*
X70716Y396252D01*
X70711Y396244D01*
X70707Y396207D01*
X70691Y396122D01*
X70691Y385955D01*
X70702Y385905D01*
X70704Y385854D01*
X70722Y385822D01*
X70730Y385786D01*
X70763Y385747D01*
X70787Y385702D01*
X70817Y385681D01*
X70840Y385653D01*
X70887Y385632D01*
X70929Y385602D01*
X70971Y385594D01*
X70999Y385582D01*
X71029Y385583D01*
X71071Y385575D01*
X73322Y385575D01*
X74215Y384682D01*
X74215Y374418D01*
X73322Y373525D01*
X71571Y373525D01*
X71521Y373514D01*
X71470Y373512D01*
X71438Y373494D01*
X71402Y373486D01*
X71363Y373453D01*
X71318Y373429D01*
X71297Y373399D01*
X71269Y373376D01*
X71248Y373329D01*
X71218Y373287D01*
X71210Y373245D01*
X71198Y373217D01*
X71199Y373187D01*
X71191Y373145D01*
X71191Y368855D01*
X71202Y368805D01*
X71204Y368754D01*
X71222Y368722D01*
X71230Y368686D01*
X71263Y368647D01*
X71287Y368602D01*
X71317Y368581D01*
X71340Y368553D01*
X71387Y368532D01*
X71429Y368502D01*
X71471Y368494D01*
X71499Y368482D01*
X71529Y368483D01*
X71571Y368475D01*
X74322Y368475D01*
X75215Y367582D01*
X75215Y366126D01*
X75221Y366101D01*
X75218Y366076D01*
X75227Y366051D01*
X75228Y366028D01*
X75245Y365998D01*
X75254Y365958D01*
X75271Y365938D01*
X75280Y365914D01*
X75301Y365894D01*
X75311Y365876D01*
X75336Y365858D01*
X75364Y365824D01*
X75388Y365813D01*
X75407Y365796D01*
X75437Y365787D01*
X75453Y365776D01*
X75485Y365770D01*
X75523Y365753D01*
X75548Y365754D01*
X75573Y365747D01*
X75589Y365750D01*
X75595Y365748D01*
X75597Y365748D01*
X75635Y365757D01*
X75696Y365760D01*
X75718Y365772D01*
X75744Y365776D01*
X75758Y365786D01*
X75766Y365788D01*
X75790Y365808D01*
X75815Y365825D01*
X75848Y365842D01*
X75854Y365851D01*
X75864Y365858D01*
X79277Y369271D01*
X82725Y369271D01*
X82775Y369282D01*
X82826Y369284D01*
X82858Y369302D01*
X82894Y369310D01*
X82933Y369343D01*
X82978Y369367D01*
X82999Y369397D01*
X83027Y369420D01*
X83048Y369467D01*
X83078Y369509D01*
X83086Y369551D01*
X83098Y369579D01*
X83098Y369594D01*
X83998Y370495D01*
X91262Y370495D01*
X92155Y369602D01*
X92155Y362938D01*
X91435Y362219D01*
X91412Y362182D01*
X91406Y362177D01*
X91402Y362169D01*
X91374Y362138D01*
X91363Y362103D01*
X91344Y362072D01*
X91340Y362029D01*
X91335Y362018D01*
X91335Y362008D01*
X91324Y361972D01*
X91331Y361936D01*
X91327Y361899D01*
X91341Y361864D01*
X91341Y361845D01*
X91349Y361832D01*
X91354Y361801D01*
X91378Y361766D01*
X91389Y361737D01*
X91411Y361716D01*
X91412Y361716D01*
X91424Y361693D01*
X91430Y361689D01*
X91435Y361681D01*
X92167Y360950D01*
X92168Y360910D01*
X92186Y360878D01*
X92194Y360842D01*
X92227Y360803D01*
X92251Y360758D01*
X92281Y360737D01*
X92304Y360709D01*
X92351Y360688D01*
X92393Y360658D01*
X92435Y360650D01*
X92463Y360638D01*
X92493Y360639D01*
X92535Y360631D01*
X97965Y360631D01*
X98015Y360642D01*
X98066Y360644D01*
X98098Y360662D01*
X98134Y360670D01*
X98173Y360703D01*
X98218Y360727D01*
X98239Y360757D01*
X98267Y360780D01*
X98288Y360827D01*
X98318Y360869D01*
X98326Y360911D01*
X98338Y360939D01*
X98338Y360954D01*
X99065Y361681D01*
X99078Y361702D01*
X99094Y361715D01*
X99105Y361738D01*
X99126Y361762D01*
X99137Y361797D01*
X99156Y361828D01*
X99159Y361860D01*
X99165Y361874D01*
X99165Y361891D01*
X99176Y361928D01*
X99169Y361964D01*
X99173Y362001D01*
X99159Y362037D01*
X99159Y362047D01*
X99153Y362057D01*
X99146Y362099D01*
X99122Y362134D01*
X99111Y362163D01*
X99089Y362184D01*
X99065Y362219D01*
X98345Y362938D01*
X98345Y369602D01*
X99238Y370495D01*
X99869Y370495D01*
X99919Y370506D01*
X99970Y370508D01*
X100002Y370526D01*
X100038Y370534D01*
X100077Y370567D01*
X100122Y370591D01*
X100143Y370621D01*
X100171Y370644D01*
X100192Y370691D01*
X100222Y370733D01*
X100230Y370775D01*
X100242Y370803D01*
X100241Y370833D01*
X100249Y370875D01*
X100249Y373145D01*
X100238Y373195D01*
X100236Y373246D01*
X100218Y373278D01*
X100210Y373314D01*
X100177Y373353D01*
X100153Y373398D01*
X100123Y373419D01*
X100100Y373447D01*
X100053Y373468D01*
X100011Y373498D01*
X99969Y373506D01*
X99941Y373518D01*
X99911Y373517D01*
X99869Y373525D01*
X97618Y373525D01*
X96725Y374418D01*
X96725Y384682D01*
X97618Y385575D01*
X99869Y385575D01*
X99919Y385586D01*
X99970Y385588D01*
X100002Y385606D01*
X100038Y385614D01*
X100077Y385647D01*
X100122Y385671D01*
X100143Y385701D01*
X100171Y385724D01*
X100192Y385771D01*
X100222Y385813D01*
X100230Y385855D01*
X100242Y385883D01*
X100241Y385913D01*
X100249Y385955D01*
X100249Y396632D01*
X100232Y396706D01*
X100219Y396781D01*
X100212Y396791D01*
X100210Y396801D01*
X100186Y396829D01*
X100138Y396901D01*
X99083Y397955D01*
X99083Y402145D01*
X100138Y403199D01*
X100178Y403264D01*
X100222Y403326D01*
X100224Y403338D01*
X100229Y403346D01*
X100233Y403383D01*
X100249Y403468D01*
X100249Y414145D01*
X100238Y414195D01*
X100236Y414246D01*
X100218Y414278D01*
X100210Y414314D01*
X100177Y414353D01*
X100153Y414398D01*
X100123Y414419D01*
X100100Y414447D01*
X100053Y414468D01*
X100011Y414498D01*
X99969Y414506D01*
X99941Y414518D01*
X99911Y414517D01*
X99869Y414525D01*
X97618Y414525D01*
X96725Y415418D01*
X96725Y425682D01*
X97618Y426575D01*
X108882Y426575D01*
X109775Y425682D01*
X109775Y415418D01*
X108882Y414525D01*
X106631Y414525D01*
X106581Y414514D01*
X106530Y414512D01*
X106498Y414494D01*
X106462Y414486D01*
X106423Y414453D01*
X106378Y414429D01*
X106357Y414399D01*
X106329Y414376D01*
X106308Y414329D01*
X106278Y414287D01*
X106270Y414245D01*
X106258Y414217D01*
X106259Y414187D01*
X106251Y414145D01*
X106251Y405248D01*
X106268Y405174D01*
X106281Y405099D01*
X106288Y405089D01*
X106290Y405079D01*
X106314Y405051D01*
X106362Y404979D01*
X109197Y402145D01*
X109197Y397955D01*
X106362Y395121D01*
X106322Y395056D01*
X106278Y394994D01*
X106276Y394982D01*
X106271Y394974D01*
X106267Y394937D01*
X106251Y394852D01*
X106251Y385955D01*
X106262Y385905D01*
X106264Y385854D01*
X106282Y385822D01*
X106290Y385786D01*
X106323Y385747D01*
X106347Y385702D01*
X106377Y385681D01*
X106400Y385653D01*
X106447Y385632D01*
X106489Y385602D01*
X106531Y385594D01*
X106559Y385582D01*
X106589Y385583D01*
X106631Y385575D01*
X108882Y385575D01*
X109775Y384682D01*
X109775Y374418D01*
X108882Y373525D01*
X106631Y373525D01*
X106581Y373514D01*
X106530Y373512D01*
X106498Y373494D01*
X106462Y373486D01*
X106423Y373453D01*
X106378Y373429D01*
X106357Y373399D01*
X106329Y373376D01*
X106308Y373329D01*
X106278Y373287D01*
X106270Y373245D01*
X106258Y373217D01*
X106259Y373187D01*
X106251Y373145D01*
X106251Y370875D01*
X106262Y370825D01*
X106264Y370774D01*
X106282Y370742D01*
X106290Y370706D01*
X106323Y370667D01*
X106347Y370622D01*
X106377Y370601D01*
X106400Y370573D01*
X106443Y370554D01*
X107395Y369602D01*
X107395Y362938D01*
X106675Y362219D01*
X106652Y362182D01*
X106646Y362177D01*
X106642Y362169D01*
X106614Y362138D01*
X106603Y362103D01*
X106584Y362072D01*
X106580Y362029D01*
X106575Y362018D01*
X106575Y362008D01*
X106564Y361972D01*
X106571Y361936D01*
X106567Y361899D01*
X106581Y361864D01*
X106581Y361845D01*
X106589Y361832D01*
X106594Y361801D01*
X106618Y361766D01*
X106629Y361737D01*
X106651Y361716D01*
X106652Y361716D01*
X106664Y361693D01*
X106670Y361689D01*
X106675Y361681D01*
X107395Y360962D01*
X107395Y354298D01*
X106502Y353405D01*
X99238Y353405D01*
X98333Y354310D01*
X98332Y354350D01*
X98314Y354382D01*
X98306Y354418D01*
X98273Y354457D01*
X98249Y354502D01*
X98219Y354523D01*
X98196Y354551D01*
X98149Y354572D01*
X98107Y354602D01*
X98065Y354610D01*
X98037Y354622D01*
X98007Y354621D01*
X97965Y354629D01*
X92535Y354629D01*
X92485Y354618D01*
X92434Y354616D01*
X92402Y354598D01*
X92366Y354590D01*
X92327Y354557D01*
X92282Y354533D01*
X92261Y354503D01*
X92233Y354480D01*
X92212Y354433D01*
X92182Y354391D01*
X92174Y354349D01*
X92162Y354321D01*
X92162Y354306D01*
X91262Y353405D01*
X91011Y353405D01*
X90961Y353394D01*
X90910Y353392D01*
X90878Y353374D01*
X90842Y353366D01*
X90803Y353333D01*
X90758Y353309D01*
X90737Y353279D01*
X90709Y353256D01*
X90688Y353209D01*
X90658Y353167D01*
X90650Y353125D01*
X90638Y353097D01*
X90639Y353067D01*
X90631Y353025D01*
X90631Y350547D01*
X86333Y346249D01*
X69980Y346249D01*
X69906Y346232D01*
X69832Y346219D01*
X69822Y346212D01*
X69812Y346210D01*
X69783Y346186D01*
X69712Y346138D01*
X65342Y341768D01*
X65302Y341704D01*
X65258Y341642D01*
X65256Y341630D01*
X65251Y341621D01*
X65247Y341584D01*
X65231Y341500D01*
X65231Y329428D01*
X65248Y329354D01*
X65261Y329279D01*
X65268Y329269D01*
X65270Y329259D01*
X65294Y329231D01*
X65342Y329159D01*
X67287Y327215D01*
X67287Y324464D01*
X67304Y324390D01*
X67317Y324316D01*
X67324Y324306D01*
X67326Y324296D01*
X67350Y324267D01*
X67398Y324196D01*
X70311Y321283D01*
X70311Y248947D01*
X50102Y228738D01*
X50090Y228720D01*
X50077Y228709D01*
X50061Y228672D01*
X50018Y228612D01*
X50016Y228600D01*
X50011Y228591D01*
X50007Y228554D01*
X50007Y228551D01*
X50006Y228551D01*
X50006Y228550D01*
X49991Y228470D01*
X49991Y192502D01*
X49997Y192477D01*
X49994Y192451D01*
X50016Y192393D01*
X50030Y192333D01*
X50047Y192313D01*
X50056Y192289D01*
X50101Y192247D01*
X50140Y192199D01*
X50164Y192189D01*
X50183Y192171D01*
X50242Y192154D01*
X50299Y192129D01*
X50324Y192130D01*
X50349Y192122D01*
X50410Y192133D01*
X50472Y192135D01*
X50494Y192148D01*
X50520Y192152D01*
X50591Y192200D01*
X50624Y192218D01*
X50630Y192226D01*
X50640Y192233D01*
X53051Y194644D01*
X73836Y215429D01*
X73876Y215494D01*
X73920Y215556D01*
X73922Y215568D01*
X73927Y215576D01*
X73931Y215613D01*
X73947Y215698D01*
X73947Y220610D01*
X73936Y220660D01*
X73934Y220711D01*
X73916Y220743D01*
X73908Y220779D01*
X73875Y220818D01*
X73851Y220863D01*
X73821Y220884D01*
X73798Y220912D01*
X73751Y220933D01*
X73709Y220963D01*
X73667Y220971D01*
X73639Y220983D01*
X73609Y220982D01*
X73567Y220990D01*
X72348Y220990D01*
X71455Y221883D01*
X71455Y239657D01*
X72348Y240550D01*
X83612Y240550D01*
X84505Y239657D01*
X84505Y221883D01*
X83612Y220990D01*
X82393Y220990D01*
X82343Y220979D01*
X82292Y220977D01*
X82260Y220959D01*
X82224Y220951D01*
X82185Y220918D01*
X82140Y220894D01*
X82119Y220864D01*
X82091Y220841D01*
X82070Y220794D01*
X82040Y220752D01*
X82032Y220710D01*
X82020Y220682D01*
X82021Y220652D01*
X82013Y220610D01*
X82013Y212200D01*
X58754Y188941D01*
X58714Y188876D01*
X58670Y188814D01*
X58668Y188802D01*
X58663Y188794D01*
X58659Y188757D01*
X58643Y188672D01*
X58643Y179742D01*
X58649Y179717D01*
X58646Y179691D01*
X58668Y179633D01*
X58682Y179573D01*
X58699Y179553D01*
X58708Y179529D01*
X58753Y179487D01*
X58792Y179440D01*
X58816Y179429D01*
X58835Y179412D01*
X58894Y179394D01*
X58951Y179369D01*
X58976Y179370D01*
X59001Y179362D01*
X59062Y179373D01*
X59124Y179375D01*
X59146Y179388D01*
X59172Y179392D01*
X59243Y179440D01*
X59276Y179458D01*
X59282Y179466D01*
X59292Y179473D01*
X60135Y180317D01*
X64325Y180317D01*
X67287Y177355D01*
X67287Y173165D01*
X65656Y171535D01*
X65629Y171492D01*
X65595Y171454D01*
X65584Y171419D01*
X65565Y171388D01*
X65560Y171337D01*
X65546Y171288D01*
X65552Y171252D01*
X65548Y171215D01*
X65567Y171168D01*
X65575Y171117D01*
X65599Y171082D01*
X65610Y171053D01*
X65633Y171033D01*
X65656Y170997D01*
X68442Y168212D01*
X68506Y168172D01*
X68568Y168128D01*
X68580Y168126D01*
X68589Y168121D01*
X68626Y168117D01*
X68710Y168101D01*
X104010Y168101D01*
X104084Y168118D01*
G37*
G36*
X306354Y61430D02*
X306354Y61430D01*
X306394Y61429D01*
X306449Y61452D01*
X306485Y61460D01*
X306502Y61474D01*
X306527Y61485D01*
X325995Y74463D01*
X326024Y74494D01*
X326059Y74516D01*
X326089Y74563D01*
X326113Y74589D01*
X326120Y74612D01*
X326137Y74638D01*
X326209Y74817D01*
X327066Y75185D01*
X327089Y75202D01*
X327127Y75218D01*
X327903Y75735D01*
X328092Y75697D01*
X328134Y75699D01*
X328175Y75690D01*
X328229Y75702D01*
X328265Y75703D01*
X328286Y75714D01*
X328316Y75721D01*
X328494Y75796D01*
X329359Y75450D01*
X329388Y75446D01*
X329426Y75430D01*
X329768Y75362D01*
X329770Y75362D01*
X329771Y75361D01*
X329855Y75365D01*
X329942Y75367D01*
X329943Y75368D01*
X329944Y75368D01*
X330018Y75409D01*
X330094Y75449D01*
X330095Y75450D01*
X330096Y75451D01*
X330144Y75519D01*
X330195Y75590D01*
X330195Y75592D01*
X330196Y75592D01*
X330223Y75735D01*
X330223Y79565D01*
X332168Y81509D01*
X332208Y81574D01*
X332252Y81636D01*
X332254Y81648D01*
X332259Y81656D01*
X332263Y81693D01*
X332279Y81778D01*
X332279Y125703D01*
X339237Y132661D01*
X344170Y132661D01*
X344220Y132672D01*
X344271Y132674D01*
X344303Y132692D01*
X344339Y132700D01*
X344378Y132733D01*
X344423Y132757D01*
X344444Y132787D01*
X344472Y132810D01*
X344493Y132857D01*
X344523Y132899D01*
X344531Y132941D01*
X344543Y132969D01*
X344542Y132999D01*
X344550Y133041D01*
X344550Y142171D01*
X344544Y142196D01*
X344547Y142222D01*
X344537Y142247D01*
X344537Y142262D01*
X344523Y142287D01*
X344511Y142340D01*
X344494Y142360D01*
X344485Y142384D01*
X344456Y142411D01*
X344454Y142414D01*
X344446Y142420D01*
X344440Y142426D01*
X344401Y142473D01*
X344377Y142484D01*
X344358Y142501D01*
X344299Y142519D01*
X344242Y142544D01*
X344217Y142543D01*
X344192Y142551D01*
X344131Y142540D01*
X344069Y142538D01*
X344047Y142525D01*
X344021Y142521D01*
X343995Y142503D01*
X343992Y142502D01*
X343984Y142495D01*
X343950Y142473D01*
X343917Y142455D01*
X343911Y142447D01*
X343901Y142440D01*
X343725Y142263D01*
X339535Y142263D01*
X336573Y145225D01*
X336573Y149415D01*
X339535Y152377D01*
X343725Y152377D01*
X343901Y152200D01*
X343923Y152187D01*
X343939Y152167D01*
X343996Y152141D01*
X344048Y152109D01*
X344074Y152106D01*
X344098Y152096D01*
X344159Y152098D01*
X344221Y152092D01*
X344245Y152101D01*
X344271Y152102D01*
X344325Y152132D01*
X344383Y152154D01*
X344400Y152173D01*
X344423Y152185D01*
X344458Y152236D01*
X344500Y152281D01*
X344508Y152306D01*
X344523Y152327D01*
X344539Y152411D01*
X344550Y152447D01*
X344548Y152457D01*
X344550Y152469D01*
X344550Y159417D01*
X344539Y159467D01*
X344537Y159518D01*
X344519Y159550D01*
X344511Y159586D01*
X344478Y159625D01*
X344454Y159670D01*
X344424Y159691D01*
X344401Y159719D01*
X344354Y159740D01*
X344349Y159744D01*
X342677Y161416D01*
X342677Y341504D01*
X344334Y343161D01*
X344339Y343162D01*
X344378Y343195D01*
X344423Y343219D01*
X344444Y343249D01*
X344472Y343272D01*
X344493Y343319D01*
X344523Y343361D01*
X344531Y343403D01*
X344543Y343431D01*
X344542Y343461D01*
X344550Y343503D01*
X344550Y355936D01*
X344533Y356008D01*
X344522Y356080D01*
X344514Y356093D01*
X344511Y356105D01*
X344486Y356134D01*
X344442Y356201D01*
X343303Y357369D01*
X343380Y363667D01*
X344436Y364697D01*
X344478Y364764D01*
X344523Y364827D01*
X344524Y364837D01*
X344529Y364843D01*
X344533Y364878D01*
X344537Y364902D01*
X344543Y364916D01*
X344543Y364931D01*
X344550Y364970D01*
X344550Y368794D01*
X344538Y368844D01*
X344537Y368891D01*
X344526Y368910D01*
X344522Y368938D01*
X344514Y368951D01*
X344511Y368963D01*
X344486Y368992D01*
X344460Y369033D01*
X344454Y369043D01*
X344452Y369045D01*
X344442Y369060D01*
X344072Y369439D01*
X344006Y369481D01*
X343942Y369526D01*
X343933Y369528D01*
X343926Y369532D01*
X343891Y369536D01*
X343800Y369553D01*
X342946Y369553D01*
X342872Y369536D01*
X342797Y369523D01*
X342787Y369516D01*
X342777Y369514D01*
X342748Y369490D01*
X342677Y369442D01*
X332566Y359331D01*
X332526Y359267D01*
X332482Y359205D01*
X332480Y359193D01*
X332475Y359184D01*
X332471Y359147D01*
X332455Y359062D01*
X332455Y326200D01*
X322770Y316515D01*
X253078Y316515D01*
X253004Y316498D01*
X252929Y316485D01*
X252919Y316478D01*
X252909Y316476D01*
X252880Y316452D01*
X252809Y316404D01*
X244293Y307888D01*
X244253Y307823D01*
X244209Y307761D01*
X244207Y307749D01*
X244201Y307741D01*
X244198Y307704D01*
X244181Y307619D01*
X244181Y234471D01*
X244187Y234446D01*
X244185Y234420D01*
X244207Y234362D01*
X244221Y234302D01*
X244237Y234282D01*
X244246Y234258D01*
X244292Y234216D01*
X244331Y234168D01*
X244355Y234158D01*
X244374Y234140D01*
X244433Y234123D01*
X244489Y234097D01*
X244515Y234098D01*
X244540Y234091D01*
X244601Y234102D01*
X244662Y234104D01*
X244685Y234116D01*
X244710Y234121D01*
X244782Y234169D01*
X244815Y234187D01*
X244820Y234195D01*
X244830Y234202D01*
X245555Y234927D01*
X249745Y234927D01*
X252707Y231965D01*
X252707Y229214D01*
X252719Y229160D01*
X252720Y229138D01*
X252726Y229127D01*
X252737Y229066D01*
X252744Y229056D01*
X252746Y229046D01*
X252770Y229017D01*
X252818Y228946D01*
X257001Y224763D01*
X257001Y207508D01*
X257018Y207434D01*
X257031Y207359D01*
X257038Y207349D01*
X257040Y207339D01*
X257064Y207311D01*
X257112Y207239D01*
X259057Y205295D01*
X259057Y201105D01*
X256095Y198143D01*
X251905Y198143D01*
X248943Y201105D01*
X248943Y202774D01*
X248937Y202799D01*
X248940Y202825D01*
X248918Y202883D01*
X248904Y202943D01*
X248887Y202963D01*
X248878Y202987D01*
X248833Y203029D01*
X248794Y203076D01*
X248770Y203087D01*
X248751Y203104D01*
X248692Y203122D01*
X248635Y203147D01*
X248610Y203146D01*
X248585Y203154D01*
X248524Y203143D01*
X248462Y203141D01*
X248440Y203128D01*
X248414Y203124D01*
X248343Y203076D01*
X248310Y203058D01*
X248304Y203050D01*
X248294Y203043D01*
X245935Y200683D01*
X241745Y200683D01*
X238783Y203645D01*
X238783Y206396D01*
X238766Y206470D01*
X238753Y206544D01*
X238746Y206554D01*
X238744Y206564D01*
X238720Y206593D01*
X238672Y206664D01*
X235782Y209554D01*
X235761Y209567D01*
X235744Y209587D01*
X235688Y209613D01*
X235635Y209645D01*
X235610Y209648D01*
X235586Y209658D01*
X235524Y209656D01*
X235463Y209662D01*
X235439Y209653D01*
X235413Y209652D01*
X235359Y209622D01*
X235301Y209600D01*
X235283Y209581D01*
X235261Y209569D01*
X235225Y209518D01*
X235183Y209473D01*
X235176Y209448D01*
X235161Y209427D01*
X235145Y209343D01*
X235134Y209307D01*
X235136Y209297D01*
X235133Y209285D01*
X235133Y196565D01*
X235151Y196491D01*
X235164Y196416D01*
X235171Y196406D01*
X235173Y196396D01*
X235197Y196367D01*
X235245Y196296D01*
X278568Y152972D01*
X278633Y152932D01*
X278695Y152888D01*
X278707Y152886D01*
X278716Y152881D01*
X278753Y152877D01*
X278837Y152861D01*
X308583Y152861D01*
X310452Y150992D01*
X324311Y137133D01*
X324311Y130575D01*
X324320Y130536D01*
X324319Y130496D01*
X324342Y130442D01*
X324350Y130406D01*
X324364Y130389D01*
X324376Y130362D01*
X324492Y130190D01*
X324395Y129686D01*
X324321Y129306D01*
X324321Y129305D01*
X324318Y129288D01*
X324319Y129258D01*
X324311Y129216D01*
X324311Y128297D01*
X324164Y128150D01*
X324142Y128116D01*
X324113Y128088D01*
X324092Y128034D01*
X324072Y128003D01*
X324070Y127981D01*
X324059Y127954D01*
X324027Y127785D01*
X324027Y127784D01*
X324020Y127749D01*
X323259Y127235D01*
X323238Y127213D01*
X323203Y127189D01*
X322553Y126539D01*
X322345Y126539D01*
X322306Y126530D01*
X322266Y126531D01*
X322212Y126508D01*
X322176Y126500D01*
X322159Y126486D01*
X322132Y126474D01*
X296140Y108911D01*
X296139Y108911D01*
X296123Y108900D01*
X296083Y108857D01*
X294967Y108119D01*
X294966Y108118D01*
X294964Y108117D01*
X294283Y107657D01*
X293819Y107343D01*
X281907Y99295D01*
X281887Y99273D01*
X281851Y99249D01*
X281264Y98662D01*
X281251Y98640D01*
X281231Y98624D01*
X281205Y98567D01*
X281173Y98515D01*
X281170Y98489D01*
X281160Y98465D01*
X281162Y98404D01*
X281156Y98342D01*
X281166Y98318D01*
X281166Y98292D01*
X281196Y98238D01*
X281218Y98180D01*
X281237Y98163D01*
X281249Y98140D01*
X281300Y98105D01*
X281345Y98063D01*
X281370Y98055D01*
X281391Y98040D01*
X281475Y98024D01*
X281511Y98013D01*
X281521Y98015D01*
X281533Y98013D01*
X312820Y98013D01*
X316765Y94068D01*
X316830Y94028D01*
X316892Y93984D01*
X316904Y93982D01*
X316912Y93977D01*
X316949Y93973D01*
X317034Y93957D01*
X318325Y93957D01*
X321287Y90995D01*
X321287Y86805D01*
X318325Y83843D01*
X314135Y83843D01*
X311173Y86805D01*
X311173Y88096D01*
X311156Y88170D01*
X311143Y88245D01*
X311136Y88255D01*
X311134Y88265D01*
X311110Y88294D01*
X311062Y88365D01*
X309591Y89836D01*
X309526Y89876D01*
X309464Y89920D01*
X309452Y89922D01*
X309444Y89927D01*
X309407Y89931D01*
X309322Y89947D01*
X274878Y89947D01*
X274804Y89930D01*
X274729Y89917D01*
X274719Y89910D01*
X274709Y89908D01*
X274680Y89884D01*
X274609Y89836D01*
X270598Y85825D01*
X270558Y85760D01*
X270514Y85698D01*
X270512Y85686D01*
X270507Y85678D01*
X270503Y85641D01*
X270487Y85556D01*
X270487Y84265D01*
X267525Y81303D01*
X263335Y81303D01*
X260373Y84265D01*
X260373Y88455D01*
X263335Y91417D01*
X264626Y91417D01*
X264700Y91434D01*
X264775Y91447D01*
X264785Y91454D01*
X264795Y91456D01*
X264824Y91480D01*
X264895Y91528D01*
X271380Y98013D01*
X273063Y98013D01*
X273088Y98019D01*
X273114Y98016D01*
X273172Y98038D01*
X273232Y98052D01*
X273252Y98069D01*
X273276Y98078D01*
X273318Y98123D01*
X273365Y98162D01*
X273376Y98186D01*
X273394Y98205D01*
X273411Y98264D01*
X273436Y98321D01*
X273435Y98346D01*
X273443Y98371D01*
X273432Y98432D01*
X273430Y98494D01*
X273417Y98516D01*
X273413Y98542D01*
X273365Y98613D01*
X273362Y98618D01*
X273361Y98623D01*
X273359Y98624D01*
X273347Y98646D01*
X273339Y98652D01*
X273332Y98662D01*
X273313Y98681D01*
X273271Y98707D01*
X273234Y98741D01*
X273192Y98756D01*
X273165Y98773D01*
X273136Y98775D01*
X273097Y98789D01*
X272983Y98805D01*
X272381Y99607D01*
X272363Y99623D01*
X272346Y99648D01*
X271637Y100357D01*
X271637Y100473D01*
X271625Y100521D01*
X271624Y100571D01*
X271605Y100611D01*
X271597Y100642D01*
X271578Y100665D01*
X271561Y100701D01*
X259694Y116523D01*
X259692Y116525D01*
X259690Y116529D01*
X258922Y117510D01*
X259098Y118741D01*
X259097Y118745D01*
X259099Y118749D01*
X261387Y137562D01*
X261386Y137575D01*
X261389Y137586D01*
X261377Y137659D01*
X261375Y137699D01*
X261371Y137706D01*
X261368Y137735D01*
X261362Y137745D01*
X261360Y137757D01*
X261278Y137877D01*
X225416Y173740D01*
X225394Y173753D01*
X225378Y173773D01*
X225321Y173799D01*
X225269Y173831D01*
X225243Y173834D01*
X225219Y173844D01*
X225158Y173842D01*
X225096Y173848D01*
X225072Y173839D01*
X225046Y173838D01*
X224992Y173808D01*
X224934Y173786D01*
X224917Y173767D01*
X224894Y173755D01*
X224859Y173704D01*
X224817Y173659D01*
X224809Y173634D01*
X224794Y173613D01*
X224778Y173529D01*
X224767Y173493D01*
X224769Y173483D01*
X224767Y173471D01*
X224767Y173334D01*
X224779Y173283D01*
X224780Y173241D01*
X224791Y173222D01*
X224797Y173186D01*
X224804Y173175D01*
X224806Y173166D01*
X224830Y173137D01*
X224878Y173066D01*
X236082Y161862D01*
X237951Y159993D01*
X237951Y125765D01*
X237962Y125715D01*
X237964Y125664D01*
X237982Y125632D01*
X237990Y125596D01*
X238023Y125557D01*
X238047Y125512D01*
X238077Y125491D01*
X238100Y125463D01*
X238147Y125442D01*
X238189Y125412D01*
X238231Y125404D01*
X238259Y125392D01*
X238289Y125393D01*
X238331Y125385D01*
X238582Y125385D01*
X239487Y124480D01*
X239488Y124440D01*
X239506Y124408D01*
X239514Y124372D01*
X239547Y124333D01*
X239571Y124288D01*
X239601Y124267D01*
X239624Y124239D01*
X239671Y124218D01*
X239713Y124188D01*
X239755Y124180D01*
X239783Y124168D01*
X239813Y124169D01*
X239855Y124161D01*
X242745Y124161D01*
X242795Y124172D01*
X242846Y124174D01*
X242878Y124192D01*
X242914Y124200D01*
X242953Y124233D01*
X242998Y124257D01*
X243019Y124287D01*
X243047Y124310D01*
X243068Y124357D01*
X243098Y124399D01*
X243106Y124441D01*
X243118Y124469D01*
X243118Y124484D01*
X244018Y125385D01*
X251282Y125385D01*
X252175Y124492D01*
X252175Y117828D01*
X251455Y117109D01*
X251428Y117066D01*
X251394Y117028D01*
X251383Y116993D01*
X251364Y116962D01*
X251359Y116911D01*
X251344Y116862D01*
X251351Y116826D01*
X251347Y116789D01*
X251365Y116742D01*
X251374Y116691D01*
X251398Y116656D01*
X251409Y116627D01*
X251431Y116606D01*
X251455Y116571D01*
X252175Y115852D01*
X252175Y109188D01*
X251233Y108246D01*
X251206Y108203D01*
X251171Y108166D01*
X251161Y108130D01*
X251141Y108099D01*
X251136Y108048D01*
X251122Y107999D01*
X251128Y107963D01*
X251125Y107927D01*
X251143Y107879D01*
X251152Y107829D01*
X251175Y107793D01*
X251186Y107765D01*
X251209Y107744D01*
X251233Y107709D01*
X252707Y106235D01*
X252707Y102045D01*
X251355Y100694D01*
X251342Y100672D01*
X251322Y100656D01*
X251296Y100599D01*
X251264Y100547D01*
X251261Y100521D01*
X251251Y100497D01*
X251253Y100436D01*
X251247Y100374D01*
X251256Y100350D01*
X251257Y100324D01*
X251287Y100270D01*
X251309Y100212D01*
X251328Y100195D01*
X251340Y100172D01*
X251391Y100137D01*
X251436Y100095D01*
X251461Y100087D01*
X251482Y100072D01*
X251566Y100056D01*
X251602Y100045D01*
X251612Y100047D01*
X251624Y100045D01*
X256192Y100045D01*
X256266Y100062D01*
X256341Y100075D01*
X256351Y100082D01*
X256361Y100084D01*
X256390Y100108D01*
X256461Y100156D01*
X257722Y101417D01*
X257762Y101481D01*
X257806Y101543D01*
X257808Y101555D01*
X257813Y101564D01*
X257817Y101601D01*
X257833Y101686D01*
X257833Y103695D01*
X260795Y106657D01*
X264985Y106657D01*
X267947Y103695D01*
X267947Y99505D01*
X264985Y96543D01*
X262976Y96543D01*
X262902Y96526D01*
X262827Y96513D01*
X262817Y96506D01*
X262807Y96504D01*
X262778Y96480D01*
X262707Y96432D01*
X259270Y92995D01*
X242537Y92995D01*
X242476Y92981D01*
X242414Y92975D01*
X242393Y92961D01*
X242369Y92956D01*
X242320Y92916D01*
X242267Y92882D01*
X242254Y92861D01*
X242235Y92846D01*
X242209Y92788D01*
X242176Y92734D01*
X242174Y92710D01*
X242164Y92687D01*
X242167Y92625D01*
X242161Y92562D01*
X242170Y92536D01*
X242171Y92514D01*
X242189Y92481D01*
X242208Y92425D01*
X242338Y92201D01*
X242511Y91555D01*
X242511Y87893D01*
X242528Y87820D01*
X242540Y87746D01*
X242547Y87736D01*
X242550Y87725D01*
X242598Y87667D01*
X242642Y87606D01*
X242653Y87600D01*
X242660Y87591D01*
X242729Y87560D01*
X242795Y87525D01*
X242807Y87525D01*
X242819Y87520D01*
X242894Y87523D01*
X242969Y87521D01*
X242981Y87526D01*
X242992Y87527D01*
X243025Y87545D01*
X243102Y87577D01*
X243724Y87993D01*
X245240Y88621D01*
X246849Y88941D01*
X246909Y88941D01*
X246909Y75201D01*
X246920Y75151D01*
X246922Y75100D01*
X246940Y75068D01*
X246948Y75032D01*
X246981Y74993D01*
X247005Y74948D01*
X247035Y74927D01*
X247058Y74899D01*
X247105Y74878D01*
X247147Y74849D01*
X247189Y74840D01*
X247217Y74828D01*
X247247Y74829D01*
X247289Y74821D01*
X247671Y74821D01*
X247671Y74439D01*
X247683Y74389D01*
X247684Y74338D01*
X247702Y74306D01*
X247710Y74270D01*
X247743Y74231D01*
X247767Y74186D01*
X247797Y74165D01*
X247821Y74137D01*
X247867Y74116D01*
X247909Y74086D01*
X247951Y74078D01*
X247979Y74066D01*
X248009Y74067D01*
X248051Y74059D01*
X256001Y74059D01*
X256001Y68209D01*
X255900Y67705D01*
X255825Y67325D01*
X255681Y66600D01*
X255053Y65084D01*
X254141Y63720D01*
X252981Y62559D01*
X252319Y62117D01*
X252276Y62071D01*
X252228Y62032D01*
X252218Y62009D01*
X252201Y61991D01*
X252183Y61931D01*
X252157Y61873D01*
X252158Y61849D01*
X252151Y61825D01*
X252161Y61763D01*
X252164Y61700D01*
X252176Y61678D01*
X252180Y61654D01*
X252216Y61603D01*
X252246Y61548D01*
X252267Y61534D01*
X252281Y61514D01*
X252337Y61484D01*
X252388Y61448D01*
X252416Y61443D01*
X252435Y61433D01*
X252472Y61432D01*
X252530Y61421D01*
X306316Y61421D01*
X306354Y61430D01*
G37*
G36*
X205947Y8698D02*
X205947Y8698D01*
X205974Y8695D01*
X236437Y10776D01*
X236457Y10783D01*
X236484Y10783D01*
X266447Y16658D01*
X266466Y16667D01*
X266493Y16670D01*
X295486Y26247D01*
X295504Y26258D01*
X295530Y26265D01*
X323098Y39392D01*
X323114Y39405D01*
X323139Y39415D01*
X344375Y53021D01*
X344396Y53043D01*
X344423Y53057D01*
X344456Y53104D01*
X344496Y53145D01*
X344505Y53174D01*
X344523Y53199D01*
X344537Y53273D01*
X344549Y53310D01*
X344547Y53324D01*
X344550Y53341D01*
X344550Y56037D01*
X344533Y56110D01*
X344521Y56184D01*
X344514Y56194D01*
X344511Y56206D01*
X344463Y56264D01*
X344420Y56324D01*
X344409Y56330D01*
X344401Y56340D01*
X344332Y56370D01*
X344267Y56405D01*
X344254Y56406D01*
X344242Y56411D01*
X344168Y56408D01*
X344093Y56410D01*
X344081Y56405D01*
X344069Y56404D01*
X344036Y56386D01*
X343960Y56354D01*
X340730Y54208D01*
X339492Y54458D01*
X331765Y66088D01*
X332019Y67347D01*
X332026Y67356D01*
X332082Y67410D01*
X332085Y67418D01*
X332092Y67425D01*
X332114Y67500D01*
X332140Y67573D01*
X332139Y67582D01*
X332142Y67591D01*
X332129Y67668D01*
X332120Y67745D01*
X332115Y67753D01*
X332114Y67762D01*
X332068Y67825D01*
X332026Y67890D01*
X332017Y67896D01*
X332012Y67902D01*
X331981Y67919D01*
X331904Y67969D01*
X329070Y69102D01*
X329046Y69106D01*
X329025Y69117D01*
X328961Y69119D01*
X328899Y69128D01*
X328876Y69121D01*
X328852Y69121D01*
X328768Y69086D01*
X328734Y69075D01*
X328727Y69069D01*
X328718Y69065D01*
X309283Y56109D01*
X309262Y56086D01*
X309225Y56061D01*
X308583Y55419D01*
X308364Y55419D01*
X308326Y55410D01*
X308286Y55411D01*
X308232Y55388D01*
X308195Y55380D01*
X308178Y55366D01*
X308153Y55355D01*
X307970Y55234D01*
X307080Y55412D01*
X307048Y55411D01*
X307005Y55419D01*
X302802Y55419D01*
X302777Y55413D01*
X302752Y55416D01*
X302694Y55394D01*
X302634Y55380D01*
X302614Y55363D01*
X302590Y55354D01*
X302548Y55309D01*
X302500Y55270D01*
X302489Y55246D01*
X302472Y55227D01*
X302454Y55168D01*
X302429Y55111D01*
X302430Y55086D01*
X302423Y55061D01*
X302433Y55000D01*
X302436Y54938D01*
X302448Y54916D01*
X302452Y54890D01*
X302501Y54819D01*
X302518Y54786D01*
X302527Y54780D01*
X302534Y54770D01*
X308472Y48832D01*
X308536Y48792D01*
X308598Y48748D01*
X308610Y48746D01*
X308619Y48741D01*
X308656Y48737D01*
X308740Y48721D01*
X311449Y48721D01*
X311468Y48725D01*
X311488Y48723D01*
X311591Y48754D01*
X311618Y48760D01*
X311621Y48763D01*
X311626Y48765D01*
X312108Y49019D01*
X312161Y49065D01*
X312217Y49105D01*
X312225Y49121D01*
X312239Y49132D01*
X312266Y49197D01*
X312298Y49259D01*
X312299Y49276D01*
X312306Y49292D01*
X312301Y49362D01*
X312303Y49432D01*
X312295Y49450D01*
X312294Y49465D01*
X312275Y49499D01*
X312247Y49566D01*
X310608Y52032D01*
X310826Y53110D01*
X310826Y53111D01*
X310858Y53270D01*
X318240Y58175D01*
X319479Y57925D01*
X321471Y54926D01*
X321508Y54891D01*
X321538Y54850D01*
X321571Y54833D01*
X321597Y54808D01*
X321646Y54793D01*
X321691Y54769D01*
X321728Y54768D01*
X321763Y54757D01*
X321813Y54766D01*
X321865Y54764D01*
X321904Y54781D01*
X321934Y54786D01*
X321959Y54804D01*
X321998Y54820D01*
X323073Y55534D01*
X323108Y55571D01*
X323149Y55601D01*
X323166Y55633D01*
X323191Y55660D01*
X323206Y55709D01*
X323230Y55754D01*
X323231Y55791D01*
X323242Y55826D01*
X323233Y55876D01*
X323235Y55927D01*
X323218Y55967D01*
X323213Y55997D01*
X323196Y56022D01*
X323179Y56061D01*
X321187Y59060D01*
X321436Y60298D01*
X328819Y65203D01*
X330057Y64953D01*
X337784Y53323D01*
X337534Y52085D01*
X330152Y47180D01*
X328914Y47430D01*
X326921Y50429D01*
X326884Y50464D01*
X326854Y50505D01*
X326822Y50522D01*
X326795Y50548D01*
X326746Y50562D01*
X326701Y50586D01*
X326664Y50587D01*
X326629Y50598D01*
X326579Y50590D01*
X326528Y50591D01*
X326488Y50574D01*
X326458Y50569D01*
X326433Y50552D01*
X326394Y50535D01*
X325319Y49821D01*
X325284Y49784D01*
X325243Y49754D01*
X325226Y49722D01*
X325201Y49695D01*
X325186Y49646D01*
X325162Y49601D01*
X325161Y49564D01*
X325150Y49529D01*
X325159Y49479D01*
X325157Y49428D01*
X325174Y49388D01*
X325179Y49358D01*
X325197Y49334D01*
X325213Y49294D01*
X327206Y46295D01*
X326956Y45057D01*
X319574Y40152D01*
X318335Y40402D01*
X316008Y43905D01*
X315993Y43919D01*
X315987Y43930D01*
X315980Y43934D01*
X315969Y43954D01*
X315923Y43985D01*
X315882Y44023D01*
X315851Y44033D01*
X315825Y44050D01*
X315769Y44057D01*
X315716Y44074D01*
X315685Y44068D01*
X315653Y44072D01*
X315584Y44052D01*
X315545Y44045D01*
X315533Y44036D01*
X315514Y44030D01*
X314139Y43304D01*
X314109Y43279D01*
X314047Y43237D01*
X313529Y42719D01*
X313124Y42719D01*
X313105Y42715D01*
X313085Y42717D01*
X312982Y42686D01*
X312955Y42680D01*
X312952Y42677D01*
X312946Y42675D01*
X312588Y42486D01*
X311888Y42702D01*
X311849Y42705D01*
X311776Y42719D01*
X306097Y42719D01*
X297508Y51308D01*
X297444Y51348D01*
X297382Y51392D01*
X297370Y51394D01*
X297361Y51399D01*
X297324Y51403D01*
X297240Y51419D01*
X293200Y51419D01*
X293175Y51413D01*
X293149Y51416D01*
X293091Y51394D01*
X293031Y51380D01*
X293011Y51363D01*
X292987Y51354D01*
X292945Y51309D01*
X292898Y51270D01*
X292887Y51246D01*
X292870Y51227D01*
X292852Y51168D01*
X292827Y51111D01*
X292828Y51086D01*
X292820Y51061D01*
X292831Y51000D01*
X292833Y50938D01*
X292846Y50916D01*
X292850Y50890D01*
X292898Y50819D01*
X292916Y50786D01*
X292924Y50780D01*
X292931Y50770D01*
X294617Y49085D01*
X294617Y46077D01*
X294628Y46027D01*
X294630Y45976D01*
X294648Y45944D01*
X294656Y45908D01*
X294689Y45869D01*
X294713Y45824D01*
X294743Y45803D01*
X294766Y45775D01*
X294813Y45754D01*
X294855Y45724D01*
X294897Y45716D01*
X294925Y45704D01*
X294955Y45705D01*
X294997Y45697D01*
X298005Y45697D01*
X300967Y42735D01*
X300967Y38545D01*
X298005Y35583D01*
X293815Y35583D01*
X290853Y38545D01*
X290853Y41553D01*
X290842Y41603D01*
X290840Y41654D01*
X290822Y41686D01*
X290814Y41722D01*
X290781Y41761D01*
X290757Y41806D01*
X290727Y41827D01*
X290704Y41855D01*
X290657Y41876D01*
X290615Y41906D01*
X290573Y41914D01*
X290545Y41926D01*
X290515Y41925D01*
X290473Y41933D01*
X287465Y41933D01*
X284503Y44895D01*
X284503Y49085D01*
X286189Y50770D01*
X286202Y50792D01*
X286222Y50808D01*
X286248Y50865D01*
X286280Y50917D01*
X286283Y50943D01*
X286293Y50967D01*
X286291Y51028D01*
X286297Y51090D01*
X286288Y51114D01*
X286287Y51140D01*
X286257Y51194D01*
X286235Y51252D01*
X286216Y51269D01*
X286204Y51292D01*
X286153Y51327D01*
X286108Y51369D01*
X286083Y51377D01*
X286062Y51392D01*
X285978Y51408D01*
X285942Y51419D01*
X285932Y51417D01*
X285920Y51419D01*
X247590Y51419D01*
X247516Y51402D01*
X247442Y51389D01*
X247432Y51382D01*
X247422Y51380D01*
X247393Y51356D01*
X247322Y51308D01*
X241880Y45866D01*
X241854Y45824D01*
X241819Y45787D01*
X241809Y45751D01*
X241789Y45719D01*
X241784Y45669D01*
X241769Y45621D01*
X241776Y45584D01*
X241772Y45547D01*
X241790Y45500D01*
X241798Y45450D01*
X241820Y45420D01*
X241834Y45385D01*
X241871Y45351D01*
X241900Y45310D01*
X241933Y45293D01*
X241961Y45267D01*
X242009Y45253D01*
X242053Y45230D01*
X242091Y45229D01*
X242127Y45218D01*
X242176Y45227D01*
X242227Y45225D01*
X242267Y45242D01*
X242298Y45248D01*
X242327Y45268D01*
X242360Y45281D01*
X243724Y46193D01*
X245240Y46821D01*
X246849Y47141D01*
X246909Y47141D01*
X246909Y33781D01*
X239339Y33781D01*
X239339Y39631D01*
X239449Y40182D01*
X239525Y40562D01*
X239659Y41240D01*
X240287Y42756D01*
X241199Y44120D01*
X241216Y44167D01*
X241243Y44209D01*
X241246Y44247D01*
X241259Y44282D01*
X241254Y44332D01*
X241259Y44382D01*
X241246Y44417D01*
X241242Y44454D01*
X241215Y44497D01*
X241198Y44544D01*
X241170Y44569D01*
X241150Y44601D01*
X241107Y44627D01*
X241071Y44661D01*
X241034Y44672D01*
X241002Y44692D01*
X240953Y44696D01*
X240904Y44711D01*
X240867Y44704D01*
X240830Y44708D01*
X240783Y44690D01*
X240734Y44681D01*
X240697Y44656D01*
X240668Y44645D01*
X240643Y44620D01*
X240614Y44600D01*
X214603Y18589D01*
X206238Y18589D01*
X206164Y18572D01*
X206089Y18559D01*
X206079Y18552D01*
X206069Y18550D01*
X206041Y18526D01*
X205969Y18478D01*
X204025Y16533D01*
X199835Y16533D01*
X196873Y19495D01*
X196873Y23685D01*
X198955Y25766D01*
X198982Y25809D01*
X199016Y25847D01*
X199027Y25882D01*
X199046Y25913D01*
X199051Y25964D01*
X199066Y26013D01*
X199059Y26049D01*
X199063Y26086D01*
X199045Y26133D01*
X199036Y26184D01*
X199012Y26219D01*
X199001Y26248D01*
X198979Y26269D01*
X198955Y26304D01*
X196873Y28385D01*
X196873Y32575D01*
X199835Y35537D01*
X204025Y35537D01*
X205969Y33592D01*
X206034Y33552D01*
X206096Y33508D01*
X206108Y33506D01*
X206116Y33501D01*
X206153Y33497D01*
X206238Y33481D01*
X214500Y33481D01*
X214574Y33498D01*
X214648Y33511D01*
X214658Y33518D01*
X214668Y33520D01*
X214697Y33544D01*
X214768Y33592D01*
X242597Y61421D01*
X242810Y61421D01*
X242871Y61435D01*
X242933Y61441D01*
X242954Y61455D01*
X242978Y61460D01*
X243027Y61500D01*
X243080Y61533D01*
X243093Y61555D01*
X243112Y61570D01*
X243138Y61628D01*
X243170Y61681D01*
X243173Y61706D01*
X243183Y61729D01*
X243181Y61791D01*
X243186Y61854D01*
X243177Y61877D01*
X243176Y61902D01*
X243146Y61957D01*
X243124Y62015D01*
X243104Y62035D01*
X243094Y62054D01*
X243063Y62075D01*
X243021Y62117D01*
X242359Y62559D01*
X241199Y63720D01*
X240287Y65084D01*
X239659Y66600D01*
X239561Y67095D01*
X239530Y67163D01*
X239503Y67234D01*
X239494Y67242D01*
X239489Y67253D01*
X239431Y67300D01*
X239376Y67351D01*
X239364Y67355D01*
X239355Y67363D01*
X239282Y67379D01*
X239210Y67401D01*
X239198Y67399D01*
X239186Y67401D01*
X239113Y67384D01*
X239039Y67371D01*
X239028Y67364D01*
X239018Y67361D01*
X238989Y67337D01*
X238919Y67290D01*
X235648Y64019D01*
X231092Y64019D01*
X230051Y65060D01*
X230008Y65087D01*
X229970Y65122D01*
X229935Y65132D01*
X229904Y65151D01*
X229853Y65156D01*
X229804Y65171D01*
X229768Y65164D01*
X229731Y65168D01*
X229683Y65150D01*
X229633Y65141D01*
X229598Y65117D01*
X229569Y65106D01*
X229548Y65084D01*
X229513Y65060D01*
X228688Y64235D01*
X228648Y64170D01*
X228604Y64108D01*
X228602Y64096D01*
X228597Y64088D01*
X228593Y64051D01*
X228577Y63966D01*
X228577Y62675D01*
X225615Y59713D01*
X224324Y59713D01*
X224250Y59696D01*
X224175Y59683D01*
X224165Y59676D01*
X224155Y59674D01*
X224126Y59650D01*
X224055Y59602D01*
X222650Y58197D01*
X187560Y58197D01*
X184885Y60872D01*
X184820Y60912D01*
X184758Y60956D01*
X184746Y60958D01*
X184738Y60963D01*
X184701Y60967D01*
X184616Y60983D01*
X183325Y60983D01*
X180363Y63945D01*
X180363Y65236D01*
X180346Y65310D01*
X180333Y65385D01*
X180326Y65395D01*
X180324Y65405D01*
X180300Y65434D01*
X180252Y65505D01*
X180062Y65695D01*
X180019Y65722D01*
X179981Y65757D01*
X179946Y65767D01*
X179915Y65786D01*
X179864Y65791D01*
X179815Y65806D01*
X179779Y65799D01*
X179742Y65803D01*
X179695Y65785D01*
X179644Y65776D01*
X179609Y65752D01*
X179580Y65741D01*
X179559Y65719D01*
X179524Y65695D01*
X177848Y64019D01*
X173292Y64019D01*
X170021Y67290D01*
X169957Y67329D01*
X169896Y67373D01*
X169884Y67375D01*
X169874Y67381D01*
X169799Y67388D01*
X169725Y67400D01*
X169713Y67397D01*
X169701Y67398D01*
X169631Y67371D01*
X169559Y67349D01*
X169551Y67341D01*
X169539Y67336D01*
X169488Y67281D01*
X169434Y67229D01*
X169429Y67217D01*
X169422Y67209D01*
X169411Y67173D01*
X169379Y67095D01*
X169349Y66945D01*
X169349Y66944D01*
X169281Y66600D01*
X168653Y65084D01*
X167741Y63720D01*
X166580Y62559D01*
X165216Y61647D01*
X163700Y61019D01*
X162091Y60699D01*
X162031Y60699D01*
X162031Y74439D01*
X162020Y74489D01*
X162018Y74540D01*
X162000Y74572D01*
X161992Y74608D01*
X161959Y74647D01*
X161935Y74692D01*
X161905Y74713D01*
X161882Y74741D01*
X161835Y74762D01*
X161793Y74791D01*
X161751Y74800D01*
X161723Y74812D01*
X161693Y74811D01*
X161651Y74819D01*
X161269Y74819D01*
X161269Y74821D01*
X161651Y74821D01*
X161701Y74833D01*
X161752Y74834D01*
X161784Y74852D01*
X161820Y74860D01*
X161859Y74893D01*
X161904Y74917D01*
X161925Y74947D01*
X161953Y74971D01*
X161974Y75017D01*
X162004Y75059D01*
X162012Y75101D01*
X162024Y75129D01*
X162023Y75159D01*
X162024Y75165D01*
X162031Y75201D01*
X162031Y88941D01*
X162091Y88941D01*
X163700Y88621D01*
X165216Y87993D01*
X165838Y87577D01*
X165908Y87551D01*
X165977Y87520D01*
X165989Y87521D01*
X166000Y87516D01*
X166074Y87524D01*
X166150Y87527D01*
X166160Y87532D01*
X166172Y87534D01*
X166236Y87574D01*
X166302Y87609D01*
X166309Y87619D01*
X166319Y87626D01*
X166359Y87690D01*
X166402Y87751D01*
X166404Y87764D01*
X166410Y87773D01*
X166413Y87811D01*
X166429Y87893D01*
X166429Y91555D01*
X166602Y92201D01*
X166937Y92780D01*
X167410Y93253D01*
X167989Y93588D01*
X168635Y93761D01*
X171209Y93761D01*
X171209Y84351D01*
X171220Y84301D01*
X171222Y84250D01*
X171240Y84218D01*
X171248Y84182D01*
X171281Y84143D01*
X171305Y84098D01*
X171335Y84077D01*
X171358Y84049D01*
X171405Y84028D01*
X171447Y83998D01*
X171489Y83990D01*
X171517Y83978D01*
X171547Y83979D01*
X171589Y83971D01*
X172351Y83971D01*
X172401Y83982D01*
X172452Y83984D01*
X172484Y84002D01*
X172520Y84010D01*
X172559Y84043D01*
X172604Y84067D01*
X172625Y84097D01*
X172653Y84121D01*
X172674Y84167D01*
X172704Y84209D01*
X172712Y84251D01*
X172724Y84279D01*
X172724Y84290D01*
X172724Y84291D01*
X172723Y84311D01*
X172731Y84351D01*
X172731Y93761D01*
X175305Y93761D01*
X175459Y93719D01*
X175472Y93719D01*
X175485Y93713D01*
X175558Y93716D01*
X175632Y93714D01*
X175644Y93720D01*
X175658Y93720D01*
X175722Y93755D01*
X175789Y93786D01*
X175798Y93796D01*
X175810Y93803D01*
X175852Y93863D01*
X175899Y93920D01*
X175902Y93933D01*
X175910Y93944D01*
X175937Y94087D01*
X175937Y121732D01*
X175920Y121806D01*
X175907Y121881D01*
X175900Y121891D01*
X175898Y121901D01*
X175874Y121930D01*
X175826Y122001D01*
X143221Y154606D01*
X143156Y154646D01*
X143094Y154690D01*
X143082Y154692D01*
X143074Y154697D01*
X143037Y154701D01*
X142952Y154717D01*
X61830Y154717D01*
X53051Y163496D01*
X50640Y165907D01*
X50618Y165921D01*
X50602Y165941D01*
X50545Y165966D01*
X50493Y165998D01*
X50467Y166001D01*
X50443Y166011D01*
X50382Y166009D01*
X50320Y166015D01*
X50296Y166006D01*
X50270Y166005D01*
X50216Y165975D01*
X50158Y165953D01*
X50141Y165934D01*
X50118Y165922D01*
X50083Y165872D01*
X50041Y165826D01*
X50033Y165801D01*
X50018Y165780D01*
X50002Y165696D01*
X49991Y165660D01*
X49993Y165650D01*
X49991Y165638D01*
X49991Y152530D01*
X50008Y152456D01*
X50021Y152382D01*
X50028Y152372D01*
X50030Y152362D01*
X50054Y152333D01*
X50102Y152262D01*
X55742Y146622D01*
X55806Y146582D01*
X55868Y146538D01*
X55880Y146536D01*
X55889Y146531D01*
X55926Y146527D01*
X56010Y146511D01*
X98562Y146511D01*
X98636Y146528D01*
X98711Y146541D01*
X98721Y146548D01*
X98731Y146550D01*
X98759Y146574D01*
X98831Y146622D01*
X99505Y147297D01*
X103695Y147297D01*
X106657Y144335D01*
X106657Y140145D01*
X103695Y137183D01*
X99505Y137183D01*
X96790Y139898D01*
X96766Y139913D01*
X96748Y139935D01*
X96693Y139959D01*
X96643Y139990D01*
X96615Y139993D01*
X96589Y140004D01*
X96529Y140001D01*
X96471Y140006D01*
X96444Y139996D01*
X96416Y139995D01*
X96364Y139966D01*
X96309Y139945D01*
X96289Y139924D01*
X96265Y139910D01*
X96231Y139861D01*
X96191Y139818D01*
X96183Y139790D01*
X96167Y139767D01*
X96153Y139689D01*
X96142Y139652D01*
X96144Y139639D01*
X96141Y139624D01*
X96211Y134630D01*
X96223Y134583D01*
X96224Y134534D01*
X96243Y134500D01*
X96253Y134462D01*
X96284Y134425D01*
X96307Y134382D01*
X96339Y134359D01*
X96365Y134329D01*
X96409Y134310D01*
X96449Y134282D01*
X96494Y134274D01*
X96524Y134261D01*
X96553Y134262D01*
X96591Y134255D01*
X111289Y134255D01*
X114001Y131543D01*
X114001Y130635D01*
X114012Y130585D01*
X114014Y130534D01*
X114032Y130502D01*
X114040Y130466D01*
X114073Y130427D01*
X114097Y130382D01*
X114127Y130361D01*
X114150Y130333D01*
X114197Y130312D01*
X114239Y130282D01*
X114281Y130274D01*
X114309Y130262D01*
X114324Y130262D01*
X115225Y129362D01*
X115225Y122761D01*
X115236Y122711D01*
X115238Y122660D01*
X115256Y122628D01*
X115264Y122592D01*
X115297Y122553D01*
X115321Y122508D01*
X115351Y122487D01*
X115374Y122459D01*
X115421Y122438D01*
X115463Y122408D01*
X115505Y122400D01*
X115533Y122388D01*
X115563Y122389D01*
X115605Y122381D01*
X129513Y122381D01*
X133051Y118843D01*
X133051Y117989D01*
X133063Y117938D01*
X133065Y117886D01*
X133082Y117855D01*
X133090Y117820D01*
X133123Y117780D01*
X133149Y117734D01*
X133178Y117714D01*
X133200Y117686D01*
X133248Y117665D01*
X133291Y117635D01*
X133329Y117628D01*
X134249Y116721D01*
X134293Y110502D01*
X134304Y110454D01*
X134306Y110404D01*
X134324Y110371D01*
X134333Y110334D01*
X134365Y110296D01*
X134389Y110252D01*
X134420Y110230D01*
X134444Y110201D01*
X134490Y110181D01*
X134531Y110152D01*
X134574Y110144D01*
X134603Y110131D01*
X134633Y110133D01*
X134673Y110125D01*
X150659Y110125D01*
X151502Y109282D01*
X153371Y107413D01*
X153371Y106505D01*
X153382Y106455D01*
X153384Y106404D01*
X153402Y106372D01*
X153410Y106336D01*
X153443Y106297D01*
X153467Y106252D01*
X153497Y106231D01*
X153520Y106203D01*
X153567Y106182D01*
X153609Y106152D01*
X153651Y106144D01*
X153679Y106132D01*
X153694Y106132D01*
X154595Y105232D01*
X154595Y97968D01*
X153702Y97075D01*
X147038Y97075D01*
X146319Y97795D01*
X146276Y97822D01*
X146238Y97856D01*
X146203Y97867D01*
X146172Y97886D01*
X146121Y97891D01*
X146072Y97906D01*
X146036Y97899D01*
X145999Y97903D01*
X145952Y97885D01*
X145901Y97876D01*
X145866Y97852D01*
X145837Y97841D01*
X145816Y97819D01*
X145781Y97795D01*
X145062Y97075D01*
X138398Y97075D01*
X137505Y97968D01*
X137505Y98219D01*
X137494Y98269D01*
X137492Y98320D01*
X137474Y98352D01*
X137466Y98388D01*
X137433Y98427D01*
X137409Y98472D01*
X137379Y98493D01*
X137356Y98521D01*
X137309Y98542D01*
X137267Y98572D01*
X137225Y98580D01*
X137197Y98592D01*
X137167Y98591D01*
X137125Y98599D01*
X119737Y98599D01*
X119687Y98588D01*
X119636Y98586D01*
X119604Y98568D01*
X119568Y98560D01*
X119529Y98527D01*
X119484Y98503D01*
X119463Y98473D01*
X119435Y98450D01*
X119414Y98403D01*
X119384Y98361D01*
X119376Y98319D01*
X119364Y98291D01*
X119365Y98261D01*
X119361Y98239D01*
X116395Y95273D01*
X113644Y95273D01*
X113570Y95256D01*
X113496Y95243D01*
X113485Y95236D01*
X113476Y95234D01*
X113447Y95210D01*
X113376Y95162D01*
X112724Y94511D01*
X112716Y94497D01*
X112700Y94484D01*
X112292Y93991D01*
X112266Y93939D01*
X112233Y93893D01*
X112228Y93863D01*
X112215Y93836D01*
X112215Y93778D01*
X112206Y93722D01*
X112215Y93693D01*
X112215Y93662D01*
X112240Y93611D01*
X112257Y93556D01*
X112280Y93530D01*
X112291Y93507D01*
X112319Y93486D01*
X112352Y93448D01*
X112373Y93432D01*
X112533Y92179D01*
X104150Y81332D01*
X102897Y81171D01*
X97074Y85672D01*
X96914Y86924D01*
X105297Y97771D01*
X106550Y97932D01*
X106910Y97654D01*
X106935Y97642D01*
X106955Y97624D01*
X107013Y97607D01*
X107068Y97582D01*
X107095Y97582D01*
X107121Y97575D01*
X107181Y97585D01*
X107241Y97587D01*
X107265Y97600D01*
X107292Y97604D01*
X107360Y97651D01*
X107394Y97669D01*
X107400Y97678D01*
X107412Y97685D01*
X108256Y98529D01*
X108264Y98543D01*
X108280Y98556D01*
X108984Y99407D01*
X109011Y99422D01*
X109063Y99439D01*
X109087Y99463D01*
X109116Y99478D01*
X109147Y99523D01*
X109186Y99561D01*
X109196Y99593D01*
X109216Y99620D01*
X109229Y99688D01*
X109241Y99725D01*
X109239Y99742D01*
X109243Y99762D01*
X109243Y102425D01*
X111603Y104784D01*
X111616Y104806D01*
X111636Y104822D01*
X111662Y104879D01*
X111694Y104931D01*
X111697Y104957D01*
X111707Y104981D01*
X111705Y105042D01*
X111711Y105104D01*
X111702Y105128D01*
X111701Y105154D01*
X111671Y105208D01*
X111649Y105266D01*
X111630Y105283D01*
X111618Y105306D01*
X111567Y105341D01*
X111522Y105383D01*
X111497Y105391D01*
X111476Y105406D01*
X111392Y105422D01*
X111356Y105433D01*
X111346Y105431D01*
X111334Y105433D01*
X108564Y105433D01*
X108490Y105416D01*
X108416Y105403D01*
X108406Y105396D01*
X108396Y105394D01*
X108367Y105370D01*
X108296Y105322D01*
X103821Y100848D01*
X103814Y100835D01*
X103800Y100824D01*
X103664Y100664D01*
X103637Y100611D01*
X103603Y100563D01*
X103598Y100535D01*
X103586Y100510D01*
X103585Y100451D01*
X103575Y100392D01*
X103584Y100365D01*
X103583Y100337D01*
X103609Y100283D01*
X103626Y100227D01*
X103648Y100202D01*
X103658Y100180D01*
X103668Y100173D01*
X103830Y98906D01*
X95446Y88059D01*
X94194Y87898D01*
X88371Y92398D01*
X88210Y93651D01*
X96594Y104498D01*
X97847Y104659D01*
X98314Y104297D01*
X98339Y104286D01*
X98359Y104268D01*
X98417Y104251D01*
X98472Y104225D01*
X98499Y104226D01*
X98525Y104219D01*
X98585Y104229D01*
X98645Y104231D01*
X98669Y104244D01*
X98696Y104248D01*
X98764Y104295D01*
X98798Y104313D01*
X98804Y104322D01*
X98816Y104329D01*
X99379Y104892D01*
X99386Y104905D01*
X99400Y104916D01*
X100113Y105757D01*
X100117Y105758D01*
X100174Y105776D01*
X100234Y105787D01*
X100259Y105804D01*
X100282Y105811D01*
X100308Y105837D01*
X100354Y105868D01*
X104052Y109566D01*
X104073Y109599D01*
X104085Y109610D01*
X104099Y109640D01*
X104136Y109692D01*
X104138Y109704D01*
X104143Y109713D01*
X104146Y109746D01*
X104156Y109768D01*
X104155Y109794D01*
X104163Y109834D01*
X104163Y112585D01*
X107125Y115547D01*
X109876Y115547D01*
X109950Y115564D01*
X110024Y115577D01*
X110034Y115584D01*
X110044Y115586D01*
X110073Y115610D01*
X110144Y115658D01*
X110422Y115936D01*
X110449Y115979D01*
X110484Y116017D01*
X110494Y116052D01*
X110514Y116083D01*
X110519Y116134D01*
X110533Y116183D01*
X110527Y116219D01*
X110530Y116256D01*
X110512Y116303D01*
X110504Y116354D01*
X110480Y116389D01*
X110469Y116418D01*
X110446Y116438D01*
X110422Y116474D01*
X107999Y118897D01*
X107999Y120825D01*
X107988Y120875D01*
X107986Y120926D01*
X107968Y120958D01*
X107960Y120994D01*
X107927Y121033D01*
X107903Y121078D01*
X107873Y121099D01*
X107850Y121127D01*
X107803Y121148D01*
X107761Y121178D01*
X107719Y121186D01*
X107691Y121198D01*
X107676Y121198D01*
X106949Y121925D01*
X106906Y121952D01*
X106868Y121986D01*
X106833Y121997D01*
X106802Y122016D01*
X106751Y122021D01*
X106702Y122036D01*
X106666Y122029D01*
X106629Y122033D01*
X106582Y122015D01*
X106531Y122006D01*
X106496Y121982D01*
X106467Y121971D01*
X106446Y121949D01*
X106411Y121925D01*
X105692Y121205D01*
X99028Y121205D01*
X98135Y122098D01*
X98135Y122349D01*
X98124Y122399D01*
X98122Y122450D01*
X98104Y122482D01*
X98096Y122518D01*
X98063Y122557D01*
X98039Y122602D01*
X98009Y122623D01*
X97986Y122651D01*
X97939Y122672D01*
X97897Y122702D01*
X97855Y122710D01*
X97827Y122722D01*
X97797Y122721D01*
X97755Y122729D01*
X96877Y122729D01*
X96827Y122718D01*
X96776Y122716D01*
X96744Y122698D01*
X96708Y122690D01*
X96669Y122657D01*
X96624Y122633D01*
X96603Y122603D01*
X96575Y122580D01*
X96554Y122533D01*
X96524Y122491D01*
X96516Y122449D01*
X96504Y122421D01*
X96505Y122391D01*
X96497Y122349D01*
X96497Y121095D01*
X93535Y118133D01*
X90784Y118133D01*
X90710Y118116D01*
X90636Y118103D01*
X90626Y118096D01*
X90616Y118094D01*
X90587Y118070D01*
X90516Y118022D01*
X86377Y113883D01*
X86370Y113872D01*
X86359Y113864D01*
X86324Y113799D01*
X86285Y113736D01*
X86284Y113722D01*
X86278Y113711D01*
X86268Y113566D01*
X86423Y112359D01*
X78040Y101512D01*
X76787Y101352D01*
X70964Y105852D01*
X70803Y107105D01*
X79187Y117952D01*
X80440Y118112D01*
X81122Y117585D01*
X81147Y117574D01*
X81166Y117555D01*
X81225Y117538D01*
X81280Y117513D01*
X81307Y117514D01*
X81333Y117506D01*
X81392Y117517D01*
X81453Y117519D01*
X81477Y117531D01*
X81503Y117536D01*
X81524Y117550D01*
X81529Y117551D01*
X81555Y117571D01*
X81572Y117582D01*
X81606Y117600D01*
X81612Y117609D01*
X81623Y117617D01*
X81630Y117623D01*
X81635Y117632D01*
X81645Y117639D01*
X82421Y118510D01*
X82425Y118511D01*
X82489Y118522D01*
X82510Y118536D01*
X82528Y118541D01*
X82557Y118567D01*
X82609Y118603D01*
X86272Y122266D01*
X86312Y122330D01*
X86356Y122392D01*
X86358Y122404D01*
X86363Y122413D01*
X86367Y122450D01*
X86383Y122534D01*
X86383Y125285D01*
X89345Y128247D01*
X91382Y128247D01*
X91407Y128253D01*
X91432Y128250D01*
X91490Y128272D01*
X91550Y128286D01*
X91570Y128303D01*
X91594Y128312D01*
X91636Y128357D01*
X91684Y128396D01*
X91695Y128420D01*
X91712Y128439D01*
X91730Y128498D01*
X91755Y128555D01*
X91754Y128580D01*
X91761Y128605D01*
X91751Y128666D01*
X91748Y128728D01*
X91736Y128750D01*
X91732Y128776D01*
X91683Y128847D01*
X91666Y128880D01*
X91657Y128886D01*
X91650Y128896D01*
X90424Y130122D01*
X89709Y130837D01*
X89709Y132278D01*
X89697Y132329D01*
X89696Y132376D01*
X89695Y132378D01*
X89694Y132384D01*
X89678Y132414D01*
X89670Y132447D01*
X89636Y132488D01*
X89609Y132535D01*
X89581Y132554D01*
X89560Y132581D01*
X89511Y132603D01*
X89466Y132633D01*
X89428Y132640D01*
X89401Y132652D01*
X89369Y132650D01*
X89324Y132659D01*
X88681Y132650D01*
X87952Y133359D01*
X87908Y133385D01*
X87870Y133419D01*
X87835Y133429D01*
X87803Y133448D01*
X87753Y133452D01*
X87703Y133466D01*
X87667Y133459D01*
X87631Y133462D01*
X87583Y133444D01*
X87533Y133434D01*
X87498Y133410D01*
X87470Y133399D01*
X87449Y133376D01*
X87414Y133351D01*
X86705Y132622D01*
X80042Y132529D01*
X79137Y133409D01*
X79132Y133724D01*
X79121Y133771D01*
X79119Y133819D01*
X79100Y133854D01*
X79091Y133892D01*
X79059Y133929D01*
X79036Y133972D01*
X79004Y133994D01*
X78979Y134024D01*
X78934Y134043D01*
X78894Y134071D01*
X78849Y134080D01*
X78819Y134093D01*
X78791Y134091D01*
X78752Y134099D01*
X76557Y134099D01*
X76507Y134087D01*
X76456Y134085D01*
X76424Y134068D01*
X76388Y134059D01*
X76349Y134027D01*
X76304Y134003D01*
X76283Y133973D01*
X76255Y133949D01*
X76234Y133903D01*
X76204Y133861D01*
X76196Y133819D01*
X76184Y133791D01*
X76185Y133761D01*
X76177Y133719D01*
X76177Y132525D01*
X73215Y129563D01*
X70464Y129563D01*
X70390Y129546D01*
X70316Y129533D01*
X70306Y129526D01*
X70296Y129524D01*
X70267Y129500D01*
X70196Y129452D01*
X69564Y128820D01*
X69554Y128804D01*
X69536Y128789D01*
X68665Y127702D01*
X68642Y127653D01*
X68610Y127608D01*
X68605Y127575D01*
X68591Y127545D01*
X68591Y127491D01*
X68583Y127437D01*
X68593Y127405D01*
X68593Y127372D01*
X68618Y127324D01*
X68634Y127272D01*
X68659Y127243D01*
X68672Y127218D01*
X68699Y127198D01*
X68730Y127163D01*
X68856Y127066D01*
X69016Y125813D01*
X60633Y114966D01*
X59380Y114805D01*
X53557Y119306D01*
X53397Y120558D01*
X61780Y131405D01*
X63033Y131566D01*
X63379Y131299D01*
X63422Y131279D01*
X63461Y131250D01*
X63500Y131243D01*
X63536Y131227D01*
X63584Y131228D01*
X63631Y131220D01*
X63669Y131231D01*
X63709Y131232D01*
X63752Y131255D01*
X63798Y131268D01*
X63833Y131299D01*
X63862Y131314D01*
X63879Y131337D01*
X63908Y131362D01*
X64226Y131759D01*
X64250Y131809D01*
X64282Y131854D01*
X64289Y131891D01*
X64300Y131915D01*
X64300Y131949D01*
X64309Y131997D01*
X64309Y132053D01*
X65056Y132800D01*
X65066Y132816D01*
X65084Y132831D01*
X65749Y133662D01*
X65753Y133664D01*
X65784Y133665D01*
X65834Y133692D01*
X65888Y133711D01*
X65909Y133733D01*
X65936Y133747D01*
X65969Y133794D01*
X66009Y133836D01*
X66018Y133864D01*
X66036Y133889D01*
X66050Y133963D01*
X66062Y134000D01*
X66060Y134014D01*
X66063Y134031D01*
X66063Y136715D01*
X69025Y139677D01*
X71776Y139677D01*
X71849Y139694D01*
X71924Y139707D01*
X71934Y139714D01*
X71944Y139716D01*
X71973Y139740D01*
X72044Y139788D01*
X72116Y139860D01*
X72130Y139882D01*
X72150Y139898D01*
X72175Y139955D01*
X72208Y140007D01*
X72210Y140033D01*
X72221Y140057D01*
X72219Y140118D01*
X72224Y140180D01*
X72215Y140204D01*
X72214Y140230D01*
X72185Y140284D01*
X72163Y140342D01*
X72144Y140359D01*
X72132Y140382D01*
X72081Y140417D01*
X72036Y140459D01*
X72011Y140467D01*
X71990Y140482D01*
X71905Y140498D01*
X71870Y140509D01*
X71860Y140507D01*
X71848Y140509D01*
X53367Y140509D01*
X43989Y149887D01*
X43989Y157274D01*
X43983Y157299D01*
X43986Y157325D01*
X43964Y157383D01*
X43950Y157443D01*
X43933Y157463D01*
X43924Y157487D01*
X43879Y157529D01*
X43840Y157577D01*
X43816Y157587D01*
X43797Y157605D01*
X43738Y157622D01*
X43681Y157647D01*
X43656Y157646D01*
X43631Y157654D01*
X43570Y157643D01*
X43508Y157641D01*
X43486Y157629D01*
X43460Y157624D01*
X43389Y157576D01*
X43356Y157558D01*
X43350Y157550D01*
X43340Y157543D01*
X43054Y157257D01*
X40640Y157257D01*
X40590Y157246D01*
X40539Y157244D01*
X40507Y157226D01*
X40471Y157218D01*
X40432Y157185D01*
X40387Y157161D01*
X40366Y157131D01*
X40338Y157108D01*
X40317Y157061D01*
X40287Y157019D01*
X40279Y156977D01*
X40267Y156949D01*
X40268Y156919D01*
X40260Y156877D01*
X40260Y135345D01*
X40263Y135332D01*
X40261Y135319D01*
X40282Y135248D01*
X40299Y135176D01*
X40308Y135166D01*
X40312Y135153D01*
X40407Y135044D01*
X40761Y134771D01*
X40339Y134224D01*
X40317Y134177D01*
X40287Y134134D01*
X40280Y134094D01*
X40267Y134067D01*
X40268Y134035D01*
X40260Y133992D01*
X40260Y132746D01*
X40271Y132698D01*
X40273Y132648D01*
X40291Y132614D01*
X40299Y132577D01*
X40331Y132539D01*
X40354Y132495D01*
X40385Y132473D01*
X40409Y132444D01*
X40455Y132423D01*
X40495Y132394D01*
X40533Y132388D01*
X40568Y132373D01*
X40617Y132375D01*
X40666Y132367D01*
X40703Y132378D01*
X40741Y132379D01*
X40785Y132403D01*
X40832Y132418D01*
X40865Y132447D01*
X40893Y132462D01*
X40910Y132486D01*
X40941Y132514D01*
X41966Y133840D01*
X46351Y130450D01*
X46442Y130331D01*
X46453Y130322D01*
X46459Y130310D01*
X46519Y130268D01*
X46576Y130221D01*
X46589Y130218D01*
X46600Y130210D01*
X46673Y130198D01*
X46744Y130181D01*
X46758Y130184D01*
X46771Y130182D01*
X46841Y130204D01*
X46913Y130221D01*
X46924Y130229D01*
X46937Y130233D01*
X47045Y130329D01*
X53077Y138132D01*
X54329Y138293D01*
X60152Y133792D01*
X60313Y132540D01*
X51929Y121693D01*
X50676Y121532D01*
X45700Y125378D01*
X45653Y125400D01*
X45612Y125429D01*
X45576Y125435D01*
X45542Y125450D01*
X45491Y125449D01*
X45441Y125457D01*
X45406Y125446D01*
X45369Y125445D01*
X45324Y125421D01*
X45275Y125406D01*
X45243Y125377D01*
X45216Y125363D01*
X45199Y125338D01*
X45166Y125310D01*
X40339Y119064D01*
X40317Y119017D01*
X40287Y118974D01*
X40280Y118934D01*
X40267Y118907D01*
X40268Y118875D01*
X40260Y118832D01*
X40260Y72646D01*
X40262Y72638D01*
X40260Y72629D01*
X40281Y72554D01*
X40299Y72477D01*
X40305Y72471D01*
X40307Y72462D01*
X40400Y72351D01*
X62499Y54329D01*
X62518Y54319D01*
X62538Y54301D01*
X88428Y38115D01*
X88448Y38108D01*
X88470Y38092D01*
X116182Y25271D01*
X116202Y25267D01*
X116226Y25254D01*
X145323Y15999D01*
X145344Y15997D01*
X145369Y15987D01*
X175396Y10444D01*
X175417Y10445D01*
X175443Y10439D01*
X205927Y8694D01*
X205947Y8698D01*
G37*
G36*
X194484Y92541D02*
X194484Y92541D01*
X194521Y92537D01*
X194568Y92555D01*
X194619Y92564D01*
X194654Y92588D01*
X194683Y92599D01*
X194704Y92621D01*
X194739Y92645D01*
X194838Y92745D01*
X198589Y92745D01*
X198639Y92756D01*
X198690Y92758D01*
X198722Y92776D01*
X198758Y92784D01*
X198797Y92817D01*
X198842Y92841D01*
X198863Y92871D01*
X198891Y92894D01*
X198912Y92941D01*
X198942Y92983D01*
X198950Y93025D01*
X198962Y93053D01*
X198961Y93083D01*
X198969Y93125D01*
X198969Y96533D01*
X201957Y99521D01*
X202702Y99521D01*
X202776Y99538D01*
X202851Y99551D01*
X202861Y99558D01*
X202871Y99560D01*
X202899Y99584D01*
X202971Y99632D01*
X204915Y101577D01*
X209105Y101577D01*
X211049Y99632D01*
X211114Y99592D01*
X211176Y99548D01*
X211188Y99546D01*
X211196Y99541D01*
X211233Y99537D01*
X211318Y99521D01*
X212063Y99521D01*
X215091Y96493D01*
X215091Y93125D01*
X215102Y93075D01*
X215104Y93024D01*
X215122Y92992D01*
X215130Y92956D01*
X215163Y92917D01*
X215187Y92872D01*
X215217Y92851D01*
X215240Y92823D01*
X215287Y92802D01*
X215329Y92772D01*
X215371Y92764D01*
X215399Y92752D01*
X215429Y92753D01*
X215471Y92745D01*
X218589Y92745D01*
X218639Y92756D01*
X218690Y92758D01*
X218722Y92776D01*
X218758Y92784D01*
X218797Y92817D01*
X218842Y92841D01*
X218863Y92871D01*
X218891Y92894D01*
X218912Y92941D01*
X218942Y92983D01*
X218950Y93025D01*
X218962Y93053D01*
X218961Y93083D01*
X218969Y93125D01*
X218969Y96485D01*
X218958Y96535D01*
X218956Y96586D01*
X218938Y96618D01*
X218930Y96654D01*
X218897Y96693D01*
X218873Y96738D01*
X218843Y96759D01*
X218820Y96787D01*
X218773Y96808D01*
X218731Y96838D01*
X218689Y96846D01*
X218661Y96858D01*
X218631Y96857D01*
X218626Y96858D01*
X217725Y97758D01*
X217725Y104422D01*
X217727Y104423D01*
X217735Y104436D01*
X217747Y104444D01*
X217766Y104482D01*
X217787Y104505D01*
X217796Y104534D01*
X217818Y104570D01*
X217820Y104585D01*
X217826Y104598D01*
X217827Y104641D01*
X217836Y104671D01*
X217831Y104702D01*
X217835Y104743D01*
X217829Y104757D01*
X217830Y104771D01*
X217812Y104809D01*
X217806Y104841D01*
X217785Y104873D01*
X217773Y104905D01*
X217762Y104915D01*
X217756Y104928D01*
X217737Y104944D01*
X217725Y104962D01*
X217217Y105470D01*
X216882Y106049D01*
X216709Y106695D01*
X216709Y108969D01*
X221869Y108969D01*
X221919Y108980D01*
X221970Y108982D01*
X222002Y109000D01*
X222038Y109008D01*
X222077Y109041D01*
X222122Y109065D01*
X222143Y109095D01*
X222171Y109118D01*
X222192Y109165D01*
X222222Y109207D01*
X222230Y109249D01*
X222242Y109277D01*
X222241Y109307D01*
X222249Y109349D01*
X222249Y109731D01*
X222251Y109731D01*
X222251Y109349D01*
X222262Y109299D01*
X222264Y109248D01*
X222282Y109216D01*
X222290Y109180D01*
X222323Y109141D01*
X222347Y109096D01*
X222377Y109075D01*
X222401Y109047D01*
X222447Y109026D01*
X222489Y108996D01*
X222531Y108988D01*
X222559Y108976D01*
X222589Y108977D01*
X222631Y108969D01*
X227791Y108969D01*
X227791Y106695D01*
X227618Y106049D01*
X227283Y105470D01*
X226775Y104962D01*
X226756Y104932D01*
X226727Y104905D01*
X226722Y104891D01*
X226712Y104880D01*
X226700Y104842D01*
X226683Y104814D01*
X226680Y104782D01*
X226665Y104743D01*
X226667Y104728D01*
X226663Y104714D01*
X226670Y104673D01*
X226667Y104642D01*
X226678Y104613D01*
X226682Y104570D01*
X226690Y104558D01*
X226692Y104543D01*
X226720Y104502D01*
X226728Y104480D01*
X226746Y104464D01*
X226772Y104424D01*
X226773Y104423D01*
X226775Y104422D01*
X226775Y97758D01*
X225882Y96865D01*
X225351Y96865D01*
X225301Y96854D01*
X225250Y96852D01*
X225218Y96834D01*
X225182Y96826D01*
X225143Y96793D01*
X225098Y96769D01*
X225077Y96739D01*
X225049Y96716D01*
X225028Y96669D01*
X224998Y96627D01*
X224990Y96585D01*
X224978Y96557D01*
X224979Y96527D01*
X224971Y96485D01*
X224971Y93713D01*
X224977Y93688D01*
X224974Y93663D01*
X224996Y93605D01*
X225010Y93545D01*
X225027Y93525D01*
X225036Y93501D01*
X225081Y93459D01*
X225120Y93411D01*
X225144Y93401D01*
X225163Y93383D01*
X225222Y93365D01*
X225279Y93340D01*
X225304Y93341D01*
X225329Y93334D01*
X225390Y93344D01*
X225452Y93347D01*
X225474Y93359D01*
X225500Y93364D01*
X225571Y93412D01*
X225604Y93430D01*
X225610Y93438D01*
X225620Y93445D01*
X230044Y97869D01*
X232220Y100045D01*
X243676Y100045D01*
X243701Y100051D01*
X243727Y100048D01*
X243785Y100070D01*
X243845Y100084D01*
X243865Y100101D01*
X243889Y100110D01*
X243931Y100155D01*
X243978Y100194D01*
X243989Y100218D01*
X244006Y100237D01*
X244024Y100296D01*
X244049Y100353D01*
X244048Y100378D01*
X244056Y100403D01*
X244045Y100464D01*
X244043Y100526D01*
X244030Y100548D01*
X244026Y100574D01*
X243978Y100645D01*
X243960Y100678D01*
X243952Y100684D01*
X243945Y100694D01*
X242593Y102045D01*
X242593Y106235D01*
X244067Y107709D01*
X244094Y107752D01*
X244129Y107789D01*
X244139Y107825D01*
X244159Y107856D01*
X244164Y107907D01*
X244178Y107956D01*
X244172Y107992D01*
X244175Y108028D01*
X244157Y108076D01*
X244148Y108126D01*
X244125Y108162D01*
X244114Y108190D01*
X244091Y108211D01*
X244067Y108246D01*
X243125Y109188D01*
X243125Y115852D01*
X243845Y116571D01*
X243872Y116614D01*
X243906Y116652D01*
X243917Y116687D01*
X243936Y116718D01*
X243941Y116769D01*
X243956Y116818D01*
X243949Y116854D01*
X243953Y116891D01*
X243935Y116938D01*
X243926Y116989D01*
X243902Y117024D01*
X243891Y117053D01*
X243869Y117074D01*
X243845Y117109D01*
X243113Y117840D01*
X243112Y117880D01*
X243094Y117912D01*
X243086Y117948D01*
X243053Y117987D01*
X243029Y118032D01*
X242999Y118053D01*
X242976Y118081D01*
X242929Y118102D01*
X242887Y118132D01*
X242845Y118140D01*
X242817Y118152D01*
X242787Y118151D01*
X242745Y118159D01*
X239855Y118159D01*
X239805Y118148D01*
X239754Y118146D01*
X239722Y118128D01*
X239686Y118120D01*
X239647Y118087D01*
X239602Y118063D01*
X239581Y118033D01*
X239553Y118010D01*
X239532Y117963D01*
X239502Y117921D01*
X239494Y117879D01*
X239482Y117851D01*
X239482Y117836D01*
X239473Y117827D01*
X239465Y117814D01*
X239453Y117806D01*
X239434Y117768D01*
X239413Y117745D01*
X239404Y117716D01*
X239382Y117680D01*
X239380Y117665D01*
X239374Y117652D01*
X239373Y117609D01*
X239364Y117579D01*
X239369Y117548D01*
X239365Y117507D01*
X239371Y117493D01*
X239370Y117479D01*
X239388Y117441D01*
X239394Y117409D01*
X239415Y117377D01*
X239427Y117345D01*
X239438Y117335D01*
X239444Y117322D01*
X239463Y117306D01*
X239475Y117288D01*
X239983Y116780D01*
X240318Y116201D01*
X240491Y115555D01*
X240491Y113281D01*
X235331Y113281D01*
X235281Y113270D01*
X235230Y113268D01*
X235198Y113250D01*
X235162Y113242D01*
X235123Y113209D01*
X235078Y113185D01*
X235057Y113155D01*
X235029Y113131D01*
X235008Y113085D01*
X234978Y113043D01*
X234970Y113001D01*
X234958Y112973D01*
X234958Y112956D01*
X234958Y112955D01*
X234958Y112940D01*
X234951Y112901D01*
X234951Y112519D01*
X234949Y112519D01*
X234949Y112901D01*
X234938Y112951D01*
X234936Y113002D01*
X234918Y113034D01*
X234910Y113070D01*
X234877Y113109D01*
X234853Y113154D01*
X234823Y113175D01*
X234799Y113203D01*
X234753Y113224D01*
X234711Y113254D01*
X234669Y113262D01*
X234641Y113274D01*
X234611Y113273D01*
X234569Y113281D01*
X229409Y113281D01*
X229409Y115555D01*
X229582Y116201D01*
X229917Y116780D01*
X230425Y117288D01*
X230444Y117318D01*
X230473Y117345D01*
X230478Y117359D01*
X230488Y117370D01*
X230500Y117408D01*
X230517Y117436D01*
X230520Y117468D01*
X230535Y117507D01*
X230533Y117522D01*
X230537Y117536D01*
X230530Y117577D01*
X230533Y117608D01*
X230522Y117637D01*
X230518Y117680D01*
X230510Y117692D01*
X230508Y117707D01*
X230480Y117748D01*
X230472Y117770D01*
X230454Y117786D01*
X230428Y117825D01*
X230427Y117827D01*
X230425Y117828D01*
X230425Y124492D01*
X231318Y125385D01*
X231569Y125385D01*
X231619Y125396D01*
X231670Y125398D01*
X231702Y125416D01*
X231738Y125424D01*
X231777Y125457D01*
X231822Y125481D01*
X231843Y125511D01*
X231871Y125534D01*
X231892Y125581D01*
X231922Y125623D01*
X231930Y125665D01*
X231942Y125693D01*
X231941Y125723D01*
X231949Y125765D01*
X231949Y136250D01*
X231943Y136275D01*
X231946Y136301D01*
X231924Y136359D01*
X231910Y136419D01*
X231893Y136439D01*
X231884Y136463D01*
X231839Y136505D01*
X231800Y136552D01*
X231776Y136563D01*
X231757Y136580D01*
X231698Y136598D01*
X231641Y136623D01*
X231616Y136622D01*
X231591Y136630D01*
X231530Y136619D01*
X231468Y136617D01*
X231446Y136604D01*
X231420Y136600D01*
X231349Y136552D01*
X231316Y136534D01*
X231310Y136526D01*
X231300Y136519D01*
X229425Y134643D01*
X225235Y134643D01*
X222273Y137605D01*
X222273Y141795D01*
X224218Y143739D01*
X224258Y143804D01*
X224302Y143866D01*
X224304Y143878D01*
X224309Y143886D01*
X224313Y143923D01*
X224329Y144008D01*
X224329Y149730D01*
X224312Y149804D01*
X224299Y149878D01*
X224292Y149888D01*
X224290Y149898D01*
X224266Y149927D01*
X224218Y149998D01*
X205394Y168822D01*
X205330Y168862D01*
X205268Y168906D01*
X205256Y168908D01*
X205247Y168913D01*
X205210Y168917D01*
X205126Y168933D01*
X202375Y168933D01*
X199413Y171895D01*
X199413Y176085D01*
X200909Y177580D01*
X200922Y177602D01*
X200942Y177618D01*
X200968Y177675D01*
X201000Y177727D01*
X201003Y177753D01*
X201013Y177777D01*
X201011Y177838D01*
X201017Y177900D01*
X201008Y177924D01*
X201007Y177950D01*
X200977Y178004D01*
X200955Y178062D01*
X200936Y178079D01*
X200924Y178102D01*
X200873Y178137D01*
X200828Y178179D01*
X200803Y178187D01*
X200782Y178202D01*
X200698Y178218D01*
X200662Y178229D01*
X200652Y178227D01*
X200640Y178229D01*
X167660Y178229D01*
X167635Y178223D01*
X167609Y178226D01*
X167551Y178204D01*
X167491Y178190D01*
X167471Y178173D01*
X167447Y178164D01*
X167405Y178119D01*
X167358Y178080D01*
X167347Y178056D01*
X167330Y178037D01*
X167312Y177978D01*
X167287Y177921D01*
X167288Y177896D01*
X167280Y177871D01*
X167291Y177810D01*
X167293Y177748D01*
X167306Y177726D01*
X167310Y177700D01*
X167358Y177629D01*
X167376Y177596D01*
X167384Y177590D01*
X167391Y177580D01*
X168887Y176085D01*
X168887Y171895D01*
X165925Y168933D01*
X161735Y168933D01*
X158773Y171895D01*
X158773Y176085D01*
X160269Y177580D01*
X160282Y177602D01*
X160302Y177618D01*
X160328Y177675D01*
X160360Y177727D01*
X160363Y177753D01*
X160373Y177777D01*
X160371Y177838D01*
X160377Y177900D01*
X160368Y177924D01*
X160367Y177950D01*
X160337Y178004D01*
X160315Y178062D01*
X160296Y178079D01*
X160284Y178102D01*
X160233Y178137D01*
X160188Y178179D01*
X160163Y178187D01*
X160142Y178202D01*
X160058Y178218D01*
X160022Y178229D01*
X160012Y178227D01*
X160000Y178229D01*
X116590Y178229D01*
X116516Y178212D01*
X116442Y178199D01*
X116432Y178192D01*
X116422Y178190D01*
X116393Y178166D01*
X116322Y178118D01*
X113602Y175398D01*
X113562Y175334D01*
X113518Y175272D01*
X113516Y175260D01*
X113511Y175251D01*
X113507Y175214D01*
X113491Y175130D01*
X113491Y168937D01*
X107986Y163432D01*
X107972Y163410D01*
X107952Y163394D01*
X107927Y163337D01*
X107894Y163285D01*
X107892Y163259D01*
X107881Y163235D01*
X107883Y163174D01*
X107878Y163112D01*
X107887Y163088D01*
X107888Y163062D01*
X107917Y163008D01*
X107939Y162950D01*
X107958Y162933D01*
X107970Y162910D01*
X108021Y162875D01*
X108066Y162833D01*
X108091Y162825D01*
X108112Y162810D01*
X108197Y162794D01*
X108232Y162783D01*
X108242Y162785D01*
X108254Y162783D01*
X146450Y162783D01*
X148924Y160309D01*
X168284Y140949D01*
X168306Y140935D01*
X168322Y140915D01*
X168379Y140890D01*
X168431Y140858D01*
X168457Y140855D01*
X168481Y140845D01*
X168542Y140847D01*
X168604Y140841D01*
X168628Y140850D01*
X168654Y140851D01*
X168708Y140881D01*
X168766Y140903D01*
X168783Y140922D01*
X168806Y140934D01*
X168841Y140984D01*
X168883Y141030D01*
X168891Y141055D01*
X168906Y141076D01*
X168922Y141160D01*
X168933Y141196D01*
X168931Y141206D01*
X168933Y141218D01*
X168933Y143065D01*
X171895Y146027D01*
X176085Y146027D01*
X177559Y144553D01*
X177602Y144526D01*
X177639Y144491D01*
X177665Y144483D01*
X177684Y144471D01*
X177694Y144469D01*
X177706Y144461D01*
X177757Y144456D01*
X177806Y144442D01*
X177819Y144444D01*
X177826Y144443D01*
X177829Y144443D01*
X177849Y144448D01*
X177878Y144445D01*
X177926Y144463D01*
X177976Y144472D01*
X177989Y144480D01*
X177998Y144482D01*
X178015Y144497D01*
X178040Y144506D01*
X178061Y144529D01*
X178096Y144553D01*
X179038Y145495D01*
X185702Y145495D01*
X186421Y144775D01*
X186464Y144748D01*
X186502Y144714D01*
X186537Y144703D01*
X186568Y144684D01*
X186619Y144679D01*
X186668Y144664D01*
X186704Y144671D01*
X186741Y144667D01*
X186788Y144685D01*
X186839Y144694D01*
X186874Y144718D01*
X186903Y144729D01*
X186924Y144751D01*
X186959Y144775D01*
X187690Y145507D01*
X187730Y145508D01*
X187762Y145526D01*
X187798Y145534D01*
X187837Y145567D01*
X187882Y145591D01*
X187903Y145621D01*
X187931Y145644D01*
X187952Y145691D01*
X187982Y145733D01*
X187990Y145775D01*
X188002Y145803D01*
X188001Y145833D01*
X188009Y145875D01*
X188009Y154973D01*
X187998Y155022D01*
X187996Y155073D01*
X187978Y155105D01*
X187970Y155141D01*
X187937Y155181D01*
X187913Y155225D01*
X187883Y155247D01*
X187860Y155275D01*
X187813Y155296D01*
X187771Y155325D01*
X187729Y155333D01*
X187701Y155346D01*
X187671Y155345D01*
X187629Y155353D01*
X186986Y155353D01*
X186093Y156246D01*
X186093Y171733D01*
X186986Y172626D01*
X195361Y172626D01*
X196254Y171733D01*
X196254Y156246D01*
X195361Y155353D01*
X194391Y155353D01*
X194341Y155341D01*
X194290Y155339D01*
X194258Y155322D01*
X194222Y155313D01*
X194183Y155281D01*
X194138Y155256D01*
X194117Y155227D01*
X194089Y155203D01*
X194068Y155156D01*
X194038Y155115D01*
X194030Y155073D01*
X194018Y155045D01*
X194019Y155014D01*
X194011Y154973D01*
X194011Y145875D01*
X194022Y145825D01*
X194024Y145774D01*
X194042Y145742D01*
X194050Y145706D01*
X194083Y145667D01*
X194107Y145622D01*
X194137Y145601D01*
X194160Y145573D01*
X194207Y145552D01*
X194249Y145522D01*
X194291Y145514D01*
X194319Y145502D01*
X194334Y145502D01*
X195235Y144602D01*
X195235Y144351D01*
X195246Y144301D01*
X195248Y144250D01*
X195266Y144218D01*
X195274Y144182D01*
X195307Y144143D01*
X195331Y144098D01*
X195361Y144077D01*
X195384Y144049D01*
X195431Y144028D01*
X195473Y143998D01*
X195515Y143990D01*
X195543Y143978D01*
X195573Y143979D01*
X195615Y143971D01*
X197622Y143971D01*
X197696Y143988D01*
X197771Y144001D01*
X197781Y144008D01*
X197791Y144010D01*
X197819Y144034D01*
X197891Y144082D01*
X199835Y146027D01*
X204025Y146027D01*
X206987Y143065D01*
X206987Y138875D01*
X204025Y135913D01*
X199835Y135913D01*
X197891Y137858D01*
X197826Y137898D01*
X197764Y137942D01*
X197752Y137944D01*
X197744Y137949D01*
X197707Y137953D01*
X197622Y137969D01*
X195615Y137969D01*
X195565Y137958D01*
X195514Y137956D01*
X195482Y137938D01*
X195446Y137930D01*
X195407Y137897D01*
X195362Y137873D01*
X195341Y137843D01*
X195313Y137820D01*
X195292Y137773D01*
X195262Y137731D01*
X195254Y137689D01*
X195242Y137661D01*
X195243Y137631D01*
X195235Y137589D01*
X195235Y137338D01*
X194342Y136445D01*
X187678Y136445D01*
X186959Y137165D01*
X186916Y137192D01*
X186878Y137226D01*
X186843Y137237D01*
X186812Y137256D01*
X186761Y137261D01*
X186712Y137276D01*
X186676Y137269D01*
X186639Y137273D01*
X186592Y137255D01*
X186541Y137246D01*
X186506Y137222D01*
X186477Y137211D01*
X186456Y137189D01*
X186421Y137165D01*
X185702Y136445D01*
X179038Y136445D01*
X178096Y137387D01*
X178053Y137414D01*
X178016Y137449D01*
X177980Y137459D01*
X177949Y137479D01*
X177898Y137484D01*
X177849Y137498D01*
X177813Y137492D01*
X177777Y137495D01*
X177729Y137477D01*
X177679Y137468D01*
X177643Y137445D01*
X177615Y137434D01*
X177594Y137411D01*
X177559Y137387D01*
X176085Y135913D01*
X174238Y135913D01*
X174213Y135907D01*
X174187Y135910D01*
X174129Y135888D01*
X174069Y135874D01*
X174049Y135857D01*
X174025Y135848D01*
X173983Y135803D01*
X173935Y135764D01*
X173925Y135740D01*
X173907Y135721D01*
X173890Y135662D01*
X173865Y135605D01*
X173866Y135580D01*
X173858Y135555D01*
X173869Y135494D01*
X173871Y135432D01*
X173884Y135410D01*
X173888Y135384D01*
X173936Y135313D01*
X173954Y135280D01*
X173962Y135274D01*
X173969Y135264D01*
X181529Y127704D01*
X184003Y125230D01*
X184003Y115351D01*
X184014Y115301D01*
X184016Y115250D01*
X184034Y115218D01*
X184042Y115182D01*
X184075Y115143D01*
X184099Y115098D01*
X184129Y115077D01*
X184152Y115049D01*
X184199Y115028D01*
X184241Y114998D01*
X184283Y114990D01*
X184311Y114978D01*
X184341Y114979D01*
X184383Y114971D01*
X185929Y114971D01*
X185929Y110111D01*
X185940Y110061D01*
X185942Y110010D01*
X185960Y109978D01*
X185968Y109942D01*
X186001Y109903D01*
X186025Y109858D01*
X186055Y109837D01*
X186078Y109809D01*
X186125Y109788D01*
X186167Y109758D01*
X186209Y109750D01*
X186237Y109738D01*
X186267Y109739D01*
X186309Y109731D01*
X186691Y109731D01*
X186691Y109349D01*
X186702Y109299D01*
X186704Y109248D01*
X186722Y109216D01*
X186730Y109180D01*
X186763Y109141D01*
X186787Y109096D01*
X186817Y109075D01*
X186841Y109047D01*
X186887Y109026D01*
X186929Y108996D01*
X186971Y108988D01*
X186999Y108976D01*
X187029Y108977D01*
X187071Y108969D01*
X192231Y108969D01*
X192231Y106695D01*
X192058Y106049D01*
X191723Y105470D01*
X191215Y104962D01*
X191196Y104932D01*
X191167Y104905D01*
X191162Y104891D01*
X191152Y104880D01*
X191140Y104842D01*
X191123Y104814D01*
X191120Y104782D01*
X191105Y104743D01*
X191107Y104728D01*
X191103Y104714D01*
X191110Y104673D01*
X191107Y104642D01*
X191118Y104613D01*
X191122Y104570D01*
X191130Y104558D01*
X191132Y104543D01*
X191160Y104502D01*
X191168Y104480D01*
X191186Y104464D01*
X191212Y104424D01*
X191213Y104423D01*
X191215Y104422D01*
X191215Y97758D01*
X190322Y96865D01*
X190071Y96865D01*
X190021Y96854D01*
X189970Y96852D01*
X189938Y96834D01*
X189902Y96826D01*
X189863Y96793D01*
X189818Y96769D01*
X189797Y96739D01*
X189769Y96716D01*
X189748Y96669D01*
X189718Y96627D01*
X189710Y96585D01*
X189698Y96557D01*
X189699Y96527D01*
X189691Y96485D01*
X189691Y93125D01*
X189702Y93075D01*
X189704Y93024D01*
X189722Y92992D01*
X189730Y92956D01*
X189763Y92917D01*
X189787Y92872D01*
X189817Y92851D01*
X189840Y92823D01*
X189887Y92802D01*
X189929Y92772D01*
X189971Y92764D01*
X189999Y92752D01*
X190029Y92753D01*
X190071Y92745D01*
X194102Y92745D01*
X194201Y92645D01*
X194244Y92618D01*
X194282Y92584D01*
X194317Y92573D01*
X194348Y92554D01*
X194399Y92549D01*
X194448Y92534D01*
X194484Y92541D01*
G37*
G36*
X239553Y313247D02*
X239553Y313247D01*
X239614Y313249D01*
X239637Y313262D01*
X239662Y313266D01*
X239734Y313314D01*
X239767Y313332D01*
X239772Y313340D01*
X239782Y313347D01*
X250000Y323565D01*
X319692Y323565D01*
X319766Y323582D01*
X319841Y323595D01*
X319851Y323602D01*
X319861Y323604D01*
X319890Y323628D01*
X319961Y323676D01*
X325294Y329009D01*
X325334Y329073D01*
X325378Y329135D01*
X325380Y329147D01*
X325385Y329156D01*
X325389Y329193D01*
X325405Y329278D01*
X325405Y362140D01*
X337234Y373969D01*
X337274Y374033D01*
X337318Y374095D01*
X337320Y374107D01*
X337325Y374116D01*
X337329Y374153D01*
X337345Y374238D01*
X337345Y412071D01*
X337328Y412145D01*
X337315Y412220D01*
X337308Y412230D01*
X337306Y412240D01*
X337282Y412268D01*
X337234Y412340D01*
X336819Y412755D01*
X336776Y412782D01*
X336738Y412816D01*
X336703Y412827D01*
X336672Y412846D01*
X336621Y412851D01*
X336572Y412866D01*
X336536Y412859D01*
X336499Y412863D01*
X336452Y412845D01*
X336401Y412836D01*
X336366Y412812D01*
X336337Y412801D01*
X336316Y412779D01*
X336281Y412755D01*
X335562Y412035D01*
X329961Y412035D01*
X329911Y412024D01*
X329860Y412022D01*
X329828Y412004D01*
X329792Y411996D01*
X329753Y411963D01*
X329708Y411939D01*
X329687Y411909D01*
X329659Y411886D01*
X329638Y411839D01*
X329608Y411797D01*
X329600Y411755D01*
X329588Y411727D01*
X329589Y411697D01*
X329581Y411655D01*
X329581Y368517D01*
X327712Y366648D01*
X320612Y359548D01*
X318743Y357679D01*
X316693Y357679D01*
X316621Y357662D01*
X316548Y357651D01*
X316536Y357643D01*
X316524Y357640D01*
X316494Y357615D01*
X316427Y357571D01*
X315213Y356387D01*
X295116Y356632D01*
X293909Y357868D01*
X293843Y357911D01*
X293779Y357955D01*
X293770Y357957D01*
X293763Y357962D01*
X293728Y357965D01*
X293637Y357983D01*
X262054Y357983D01*
X261980Y357966D01*
X261905Y357953D01*
X261895Y357946D01*
X261886Y357944D01*
X261857Y357920D01*
X261785Y357872D01*
X257112Y353198D01*
X257072Y353134D01*
X257028Y353072D01*
X257026Y353060D01*
X257021Y353051D01*
X257017Y353014D01*
X257001Y352930D01*
X257001Y332767D01*
X239245Y315011D01*
X239205Y314946D01*
X239161Y314884D01*
X239159Y314872D01*
X239153Y314864D01*
X239150Y314827D01*
X239133Y314742D01*
X239133Y313616D01*
X239139Y313591D01*
X239137Y313565D01*
X239159Y313508D01*
X239173Y313447D01*
X239189Y313427D01*
X239198Y313403D01*
X239244Y313361D01*
X239283Y313314D01*
X239307Y313303D01*
X239326Y313286D01*
X239385Y313268D01*
X239441Y313243D01*
X239467Y313244D01*
X239492Y313236D01*
X239553Y313247D01*
G37*
G36*
X167064Y375905D02*
X167064Y375905D01*
X167090Y375906D01*
X167144Y375935D01*
X167202Y375957D01*
X167219Y375976D01*
X167242Y375988D01*
X167277Y376039D01*
X167319Y376084D01*
X167327Y376109D01*
X167342Y376130D01*
X167358Y376215D01*
X167369Y376250D01*
X167367Y376260D01*
X167369Y376272D01*
X167369Y419356D01*
X167352Y419430D01*
X167349Y419447D01*
X167348Y419464D01*
X167345Y419471D01*
X167339Y419505D01*
X167332Y419515D01*
X167330Y419525D01*
X167306Y419554D01*
X167274Y419602D01*
X167266Y419617D01*
X167262Y419619D01*
X167258Y419625D01*
X157133Y429750D01*
X157069Y429790D01*
X157006Y429834D01*
X156994Y429836D01*
X156986Y429841D01*
X156949Y429845D01*
X156864Y429861D01*
X144362Y429861D01*
X144313Y429850D01*
X144262Y429848D01*
X144229Y429831D01*
X144193Y429822D01*
X144154Y429790D01*
X144110Y429766D01*
X144088Y429736D01*
X144059Y429712D01*
X144039Y429666D01*
X144009Y429625D01*
X144001Y429582D01*
X143988Y429554D01*
X143989Y429524D01*
X143981Y429483D01*
X143975Y427708D01*
X143274Y427012D01*
X143247Y426968D01*
X143212Y426930D01*
X143201Y426896D01*
X143182Y426865D01*
X143177Y426813D01*
X143162Y426764D01*
X143169Y426728D01*
X143165Y426693D01*
X143183Y426644D01*
X143192Y426593D01*
X143216Y426559D01*
X143226Y426530D01*
X143249Y426509D01*
X143273Y426473D01*
X144065Y425682D01*
X144065Y415418D01*
X143172Y414525D01*
X140921Y414525D01*
X140871Y414514D01*
X140820Y414512D01*
X140788Y414494D01*
X140752Y414486D01*
X140713Y414453D01*
X140668Y414429D01*
X140647Y414399D01*
X140619Y414376D01*
X140598Y414329D01*
X140568Y414287D01*
X140560Y414245D01*
X140548Y414217D01*
X140549Y414187D01*
X140541Y414145D01*
X140541Y385955D01*
X140552Y385905D01*
X140554Y385854D01*
X140572Y385822D01*
X140580Y385786D01*
X140613Y385747D01*
X140637Y385702D01*
X140667Y385681D01*
X140690Y385653D01*
X140737Y385632D01*
X140779Y385602D01*
X140821Y385594D01*
X140849Y385582D01*
X140879Y385583D01*
X140921Y385575D01*
X143172Y385575D01*
X144065Y384682D01*
X144065Y382931D01*
X144076Y382881D01*
X144078Y382830D01*
X144096Y382798D01*
X144104Y382762D01*
X144137Y382723D01*
X144161Y382678D01*
X144191Y382657D01*
X144214Y382629D01*
X144261Y382608D01*
X144303Y382578D01*
X144345Y382570D01*
X144373Y382558D01*
X144403Y382559D01*
X144445Y382551D01*
X160173Y382551D01*
X162042Y380682D01*
X166720Y376004D01*
X166742Y375990D01*
X166758Y375970D01*
X166815Y375945D01*
X166867Y375912D01*
X166893Y375910D01*
X166917Y375899D01*
X166978Y375901D01*
X167040Y375896D01*
X167064Y375905D01*
G37*
%LPC*%
G36*
X295426Y382030D02*
X295426Y382030D01*
X294731Y382742D01*
X294665Y382785D01*
X294601Y382830D01*
X294592Y382831D01*
X294585Y382836D01*
X294550Y382839D01*
X294459Y382857D01*
X285258Y382857D01*
X279685Y388430D01*
X279685Y419290D01*
X281861Y421466D01*
X285437Y425042D01*
X285457Y425074D01*
X285497Y425120D01*
X285974Y425942D01*
X286370Y426047D01*
X286394Y426060D01*
X286421Y426065D01*
X286489Y426110D01*
X286523Y426128D01*
X286529Y426138D01*
X286541Y426146D01*
X286830Y426435D01*
X287781Y426435D01*
X287817Y426443D01*
X287878Y426447D01*
X295615Y428501D01*
X295653Y428521D01*
X295686Y428529D01*
X295690Y428533D01*
X295700Y428536D01*
X295731Y428563D01*
X295768Y428583D01*
X295793Y428617D01*
X295820Y428639D01*
X295822Y428645D01*
X295829Y428651D01*
X295845Y428690D01*
X295869Y428724D01*
X295876Y428764D01*
X295891Y428798D01*
X295890Y428804D01*
X295894Y428812D01*
X295892Y428861D01*
X295897Y428895D01*
X295889Y428920D01*
X295887Y428957D01*
X295692Y429778D01*
X296354Y430854D01*
X321902Y436941D01*
X322978Y436279D01*
X325008Y427754D01*
X324347Y426678D01*
X298798Y420592D01*
X297723Y421254D01*
X297698Y421357D01*
X297696Y421361D01*
X297696Y421366D01*
X297673Y421408D01*
X297657Y421460D01*
X297635Y421484D01*
X297621Y421512D01*
X297613Y421518D01*
X297612Y421519D01*
X297576Y421546D01*
X297538Y421586D01*
X297508Y421597D01*
X297482Y421617D01*
X297428Y421627D01*
X297375Y421646D01*
X297339Y421644D01*
X297312Y421649D01*
X297280Y421640D01*
X297231Y421637D01*
X290210Y419773D01*
X290186Y419760D01*
X290159Y419755D01*
X290091Y419710D01*
X290057Y419692D01*
X290051Y419682D01*
X290039Y419674D01*
X286846Y416481D01*
X286806Y416417D01*
X286762Y416355D01*
X286760Y416343D01*
X286755Y416334D01*
X286751Y416297D01*
X286735Y416212D01*
X286735Y391508D01*
X286752Y391434D01*
X286765Y391359D01*
X286772Y391349D01*
X286774Y391339D01*
X286798Y391310D01*
X286846Y391239D01*
X288067Y390018D01*
X288131Y389978D01*
X288193Y389934D01*
X288205Y389932D01*
X288214Y389927D01*
X288251Y389923D01*
X288336Y389907D01*
X294282Y389907D01*
X294353Y389923D01*
X294426Y389935D01*
X294438Y389943D01*
X294450Y389946D01*
X294480Y389971D01*
X294547Y390015D01*
X295535Y390979D01*
X315633Y390734D01*
X316942Y389392D01*
X316865Y383094D01*
X315524Y381785D01*
X295426Y382030D01*
G37*
%LPD*%
%LPC*%
G36*
X72348Y272530D02*
X72348Y272530D01*
X71455Y273423D01*
X71455Y291197D01*
X72348Y292090D01*
X74599Y292090D01*
X74649Y292101D01*
X74700Y292103D01*
X74732Y292121D01*
X74768Y292129D01*
X74807Y292162D01*
X74852Y292186D01*
X74873Y292216D01*
X74901Y292239D01*
X74922Y292286D01*
X74952Y292328D01*
X74960Y292370D01*
X74972Y292398D01*
X74971Y292428D01*
X74979Y292470D01*
X74979Y297497D01*
X74962Y297571D01*
X74949Y297646D01*
X74942Y297656D01*
X74940Y297666D01*
X74916Y297694D01*
X74868Y297766D01*
X74005Y298628D01*
X74005Y305892D01*
X74898Y306785D01*
X81562Y306785D01*
X82281Y306065D01*
X82324Y306038D01*
X82362Y306004D01*
X82397Y305993D01*
X82428Y305974D01*
X82479Y305969D01*
X82528Y305954D01*
X82564Y305961D01*
X82601Y305957D01*
X82648Y305975D01*
X82699Y305984D01*
X82734Y306008D01*
X82763Y306019D01*
X82784Y306041D01*
X82819Y306065D01*
X83538Y306785D01*
X90202Y306785D01*
X91095Y305892D01*
X91095Y298628D01*
X90190Y297723D01*
X90150Y297722D01*
X90118Y297704D01*
X90082Y297696D01*
X90043Y297663D01*
X89998Y297639D01*
X89977Y297609D01*
X89949Y297586D01*
X89928Y297539D01*
X89898Y297497D01*
X89890Y297455D01*
X89878Y297427D01*
X89879Y297397D01*
X89871Y297355D01*
X89871Y296800D01*
X89888Y296726D01*
X89901Y296652D01*
X89908Y296642D01*
X89910Y296632D01*
X89934Y296603D01*
X89982Y296532D01*
X91786Y294728D01*
X91850Y294688D01*
X91912Y294644D01*
X91924Y294642D01*
X91933Y294637D01*
X91970Y294633D01*
X92054Y294617D01*
X94805Y294617D01*
X97767Y291655D01*
X97767Y287465D01*
X94805Y284503D01*
X90615Y284503D01*
X87653Y287465D01*
X87653Y290216D01*
X87636Y290290D01*
X87623Y290364D01*
X87616Y290374D01*
X87614Y290384D01*
X87590Y290413D01*
X87542Y290484D01*
X83869Y294157D01*
X83869Y297355D01*
X83858Y297405D01*
X83856Y297456D01*
X83838Y297488D01*
X83830Y297524D01*
X83797Y297563D01*
X83773Y297608D01*
X83743Y297629D01*
X83720Y297657D01*
X83673Y297678D01*
X83631Y297708D01*
X83589Y297716D01*
X83561Y297728D01*
X83546Y297728D01*
X82819Y298455D01*
X82776Y298482D01*
X82738Y298516D01*
X82703Y298527D01*
X82672Y298546D01*
X82621Y298551D01*
X82572Y298566D01*
X82536Y298559D01*
X82499Y298563D01*
X82452Y298545D01*
X82401Y298536D01*
X82366Y298512D01*
X82337Y298501D01*
X82316Y298479D01*
X82281Y298455D01*
X81562Y297735D01*
X81361Y297735D01*
X81311Y297724D01*
X81260Y297722D01*
X81228Y297704D01*
X81192Y297696D01*
X81153Y297663D01*
X81108Y297639D01*
X81087Y297609D01*
X81059Y297586D01*
X81038Y297539D01*
X81008Y297497D01*
X81000Y297455D01*
X80988Y297427D01*
X80989Y297397D01*
X80981Y297355D01*
X80981Y292470D01*
X80992Y292420D01*
X80994Y292369D01*
X81012Y292337D01*
X81020Y292301D01*
X81053Y292262D01*
X81077Y292217D01*
X81107Y292196D01*
X81130Y292168D01*
X81177Y292147D01*
X81219Y292117D01*
X81261Y292109D01*
X81289Y292097D01*
X81319Y292098D01*
X81361Y292090D01*
X83612Y292090D01*
X84505Y291197D01*
X84505Y273423D01*
X83612Y272530D01*
X72348Y272530D01*
G37*
%LPD*%
%LPC*%
G36*
X66067Y92249D02*
X66067Y92249D01*
X63154Y95162D01*
X63090Y95202D01*
X63028Y95246D01*
X63016Y95248D01*
X63007Y95253D01*
X62970Y95257D01*
X62886Y95273D01*
X60135Y95273D01*
X57173Y98235D01*
X57173Y102425D01*
X60135Y105387D01*
X64325Y105387D01*
X67287Y102425D01*
X67287Y99674D01*
X67304Y99600D01*
X67317Y99526D01*
X67324Y99516D01*
X67326Y99506D01*
X67350Y99477D01*
X67398Y99406D01*
X68442Y98362D01*
X68506Y98322D01*
X68568Y98278D01*
X68580Y98276D01*
X68589Y98271D01*
X68626Y98267D01*
X68710Y98251D01*
X78161Y98251D01*
X78235Y98268D01*
X78310Y98281D01*
X78320Y98288D01*
X78330Y98290D01*
X78359Y98314D01*
X78430Y98362D01*
X79482Y99414D01*
X79489Y99425D01*
X79500Y99433D01*
X79534Y99498D01*
X79573Y99561D01*
X79574Y99574D01*
X79581Y99586D01*
X79590Y99731D01*
X79507Y100378D01*
X87890Y111225D01*
X89143Y111386D01*
X94966Y106885D01*
X95127Y105632D01*
X86743Y94785D01*
X85490Y94625D01*
X84452Y95427D01*
X84427Y95439D01*
X84407Y95457D01*
X84349Y95474D01*
X84294Y95499D01*
X84267Y95498D01*
X84241Y95506D01*
X84182Y95496D01*
X84121Y95494D01*
X84097Y95481D01*
X84071Y95476D01*
X84002Y95430D01*
X83968Y95412D01*
X83962Y95403D01*
X83951Y95395D01*
X82674Y94118D01*
X80804Y92249D01*
X66067Y92249D01*
G37*
%LPD*%
%LPC*%
G36*
X140768Y214559D02*
X140768Y214559D01*
X139875Y215452D01*
X139875Y223828D01*
X140768Y224721D01*
X156255Y224721D01*
X156683Y224292D01*
X156748Y224252D01*
X156810Y224208D01*
X156822Y224206D01*
X156831Y224201D01*
X156868Y224197D01*
X156952Y224181D01*
X159722Y224181D01*
X159796Y224198D01*
X159871Y224211D01*
X159881Y224218D01*
X159891Y224220D01*
X159919Y224244D01*
X159991Y224292D01*
X160465Y224767D01*
X164655Y224767D01*
X167617Y221805D01*
X167617Y217615D01*
X164655Y214653D01*
X160465Y214653D01*
X160131Y214988D01*
X160066Y215028D01*
X160004Y215072D01*
X159992Y215074D01*
X159984Y215079D01*
X159947Y215083D01*
X159862Y215099D01*
X156952Y215099D01*
X156878Y215082D01*
X156804Y215069D01*
X156793Y215062D01*
X156784Y215060D01*
X156755Y215036D01*
X156683Y214988D01*
X156255Y214559D01*
X140768Y214559D01*
G37*
%LPD*%
%LPC*%
G36*
X102657Y47770D02*
X102657Y47770D01*
X102496Y49023D01*
X106333Y53986D01*
X106354Y54033D01*
X106384Y54074D01*
X106389Y54111D01*
X106405Y54144D01*
X106403Y54195D01*
X106411Y54245D01*
X106400Y54280D01*
X106399Y54317D01*
X106375Y54362D01*
X106360Y54411D01*
X106332Y54443D01*
X106318Y54470D01*
X106293Y54488D01*
X106264Y54520D01*
X103918Y56333D01*
X103513Y56865D01*
X103259Y57484D01*
X103174Y58148D01*
X103263Y58811D01*
X103522Y59428D01*
X107532Y64617D01*
X114969Y58870D01*
X115015Y58848D01*
X115057Y58819D01*
X115093Y58813D01*
X115126Y58798D01*
X115177Y58799D01*
X115228Y58791D01*
X115263Y58802D01*
X115299Y58803D01*
X115344Y58827D01*
X115393Y58842D01*
X115425Y58871D01*
X115452Y58885D01*
X115470Y58910D01*
X115502Y58938D01*
X115578Y59036D01*
X115578Y59037D01*
X115735Y59240D01*
X115737Y59239D01*
X115643Y59117D01*
X115503Y58937D01*
X115482Y58891D01*
X115452Y58849D01*
X115447Y58813D01*
X115431Y58779D01*
X115433Y58728D01*
X115425Y58678D01*
X115436Y58643D01*
X115437Y58606D01*
X115461Y58561D01*
X115476Y58512D01*
X115504Y58480D01*
X115519Y58453D01*
X115543Y58436D01*
X115572Y58404D01*
X123008Y52656D01*
X118997Y47467D01*
X118465Y47062D01*
X117846Y46808D01*
X117239Y46730D01*
X117168Y46703D01*
X117095Y46681D01*
X117086Y46673D01*
X117077Y46669D01*
X117051Y46642D01*
X116986Y46585D01*
X112747Y41100D01*
X111494Y40939D01*
X102657Y47770D01*
G37*
%LPD*%
%LPC*%
G36*
X104348Y220990D02*
X104348Y220990D01*
X103455Y221883D01*
X103455Y239657D01*
X104348Y240550D01*
X115612Y240550D01*
X116505Y239657D01*
X116505Y221883D01*
X115612Y220990D01*
X104348Y220990D01*
G37*
%LPD*%
%LPC*%
G36*
X140768Y290759D02*
X140768Y290759D01*
X139875Y291652D01*
X139875Y300028D01*
X140768Y300921D01*
X156255Y300921D01*
X157148Y300028D01*
X157148Y291652D01*
X156255Y290759D01*
X140768Y290759D01*
G37*
%LPD*%
%LPC*%
G36*
X212515Y330569D02*
X212515Y330569D01*
X211622Y331462D01*
X211622Y346950D01*
X212515Y347843D01*
X220890Y347843D01*
X221783Y346950D01*
X221783Y331462D01*
X220890Y330569D01*
X212515Y330569D01*
G37*
%LPD*%
%LPC*%
G36*
X301415Y330569D02*
X301415Y330569D01*
X300522Y331462D01*
X300522Y346950D01*
X301415Y347843D01*
X309790Y347843D01*
X310683Y346950D01*
X310683Y331462D01*
X309790Y330569D01*
X301415Y330569D01*
G37*
%LPD*%
%LPC*%
G36*
X140768Y278059D02*
X140768Y278059D01*
X139875Y278952D01*
X139875Y287328D01*
X140768Y288221D01*
X156255Y288221D01*
X157148Y287328D01*
X157148Y278952D01*
X156255Y278059D01*
X140768Y278059D01*
G37*
%LPD*%
%LPC*%
G36*
X288715Y330569D02*
X288715Y330569D01*
X287822Y331462D01*
X287822Y346950D01*
X288715Y347843D01*
X297090Y347843D01*
X297983Y346950D01*
X297983Y331462D01*
X297090Y330569D01*
X288715Y330569D01*
G37*
%LPD*%
%LPC*%
G36*
X140768Y265359D02*
X140768Y265359D01*
X139875Y266252D01*
X139875Y274628D01*
X140768Y275521D01*
X156255Y275521D01*
X157148Y274628D01*
X157148Y266252D01*
X156255Y265359D01*
X140768Y265359D01*
G37*
%LPD*%
%LPC*%
G36*
X140768Y303459D02*
X140768Y303459D01*
X139875Y304352D01*
X139875Y312728D01*
X140768Y313621D01*
X156255Y313621D01*
X157148Y312728D01*
X157148Y304352D01*
X156255Y303459D01*
X140768Y303459D01*
G37*
%LPD*%
%LPC*%
G36*
X85119Y47557D02*
X85119Y47557D01*
X84959Y48810D01*
X90857Y56441D01*
X92110Y56602D01*
X100545Y50082D01*
X100706Y48829D01*
X94807Y41198D01*
X93555Y41037D01*
X85119Y47557D01*
G37*
%LPD*%
%LPC*%
G36*
X105778Y78945D02*
X105778Y78945D01*
X105617Y80198D01*
X114001Y91045D01*
X115254Y91205D01*
X121076Y86705D01*
X121237Y85452D01*
X112853Y74605D01*
X111601Y74444D01*
X105778Y78945D01*
G37*
%LPD*%
%LPC*%
G36*
X179364Y339967D02*
X179364Y339967D01*
X179364Y348859D01*
X182493Y348859D01*
X183139Y348686D01*
X183719Y348351D01*
X184192Y347878D01*
X184526Y347299D01*
X184585Y347078D01*
X184621Y347012D01*
X184652Y346944D01*
X184661Y346936D01*
X184667Y346925D01*
X184728Y346882D01*
X184786Y346835D01*
X184798Y346832D01*
X184808Y346825D01*
X184882Y346813D01*
X184955Y346796D01*
X184967Y346799D01*
X184979Y346797D01*
X185051Y346819D01*
X185123Y346837D01*
X185133Y346845D01*
X185145Y346848D01*
X185199Y346900D01*
X185256Y346948D01*
X185262Y346960D01*
X185270Y346968D01*
X185283Y347003D01*
X185320Y347078D01*
X185379Y347299D01*
X185714Y347878D01*
X186187Y348351D01*
X186766Y348686D01*
X187412Y348859D01*
X190541Y348859D01*
X190541Y339967D01*
X179364Y339967D01*
G37*
%LPD*%
%LPC*%
G36*
X248431Y75581D02*
X248431Y75581D01*
X248431Y88941D01*
X248491Y88941D01*
X250100Y88621D01*
X251616Y87993D01*
X252980Y87081D01*
X254141Y85920D01*
X255053Y84556D01*
X255681Y83040D01*
X256001Y81431D01*
X256001Y75581D01*
X248431Y75581D01*
G37*
%LPD*%
%LPC*%
G36*
X248431Y33781D02*
X248431Y33781D01*
X248431Y47141D01*
X248491Y47141D01*
X250100Y46821D01*
X251616Y46193D01*
X252980Y45281D01*
X254141Y44120D01*
X255053Y42756D01*
X255681Y41240D01*
X256001Y39631D01*
X256001Y33781D01*
X248431Y33781D01*
G37*
%LPD*%
%LPC*%
G36*
X162031Y33781D02*
X162031Y33781D01*
X162031Y47141D01*
X162091Y47141D01*
X163700Y46821D01*
X165216Y46193D01*
X166580Y45281D01*
X167741Y44120D01*
X168653Y42756D01*
X169281Y41240D01*
X169601Y39631D01*
X169601Y33781D01*
X162031Y33781D01*
G37*
%LPD*%
%LPC*%
G36*
X248431Y18899D02*
X248431Y18899D01*
X248431Y32259D01*
X256001Y32259D01*
X256001Y26409D01*
X255895Y25878D01*
X255895Y25877D01*
X255819Y25497D01*
X255681Y24800D01*
X255053Y23284D01*
X254141Y21920D01*
X252980Y20759D01*
X251616Y19847D01*
X250100Y19219D01*
X248491Y18899D01*
X248431Y18899D01*
G37*
%LPD*%
%LPC*%
G36*
X162031Y18899D02*
X162031Y18899D01*
X162031Y32259D01*
X169601Y32259D01*
X169601Y26409D01*
X169495Y25878D01*
X169495Y25877D01*
X169419Y25497D01*
X169281Y24800D01*
X168653Y23284D01*
X167741Y21920D01*
X166580Y20759D01*
X165216Y19847D01*
X163700Y19219D01*
X162091Y18899D01*
X162031Y18899D01*
G37*
%LPD*%
%LPC*%
G36*
X152939Y75581D02*
X152939Y75581D01*
X152939Y81431D01*
X153054Y82009D01*
X153054Y82010D01*
X153130Y82390D01*
X153259Y83040D01*
X153887Y84556D01*
X154799Y85920D01*
X155960Y87081D01*
X157324Y87993D01*
X158840Y88621D01*
X160449Y88941D01*
X160509Y88941D01*
X160509Y75581D01*
X152939Y75581D01*
G37*
%LPD*%
%LPC*%
G36*
X152939Y33781D02*
X152939Y33781D01*
X152939Y39631D01*
X153049Y40182D01*
X153125Y40562D01*
X153259Y41240D01*
X153887Y42756D01*
X154799Y44120D01*
X155960Y45281D01*
X157324Y46193D01*
X158840Y46821D01*
X160449Y47141D01*
X160509Y47141D01*
X160509Y33781D01*
X152939Y33781D01*
G37*
%LPD*%
%LPC*%
G36*
X160449Y18899D02*
X160449Y18899D01*
X158840Y19219D01*
X157324Y19847D01*
X155960Y20759D01*
X154799Y21920D01*
X153887Y23284D01*
X153259Y24800D01*
X152939Y26409D01*
X152939Y32259D01*
X160509Y32259D01*
X160509Y18899D01*
X160449Y18899D01*
G37*
%LPD*%
%LPC*%
G36*
X160449Y60699D02*
X160449Y60699D01*
X158840Y61019D01*
X157324Y61647D01*
X155960Y62559D01*
X154799Y63720D01*
X153887Y65084D01*
X153259Y66600D01*
X152939Y68209D01*
X152939Y74059D01*
X160509Y74059D01*
X160509Y60699D01*
X160449Y60699D01*
G37*
%LPD*%
%LPC*%
G36*
X246849Y18899D02*
X246849Y18899D01*
X245240Y19219D01*
X243724Y19847D01*
X242360Y20759D01*
X241199Y21920D01*
X240287Y23284D01*
X239659Y24800D01*
X239339Y26409D01*
X239339Y32259D01*
X246909Y32259D01*
X246909Y18899D01*
X246849Y18899D01*
G37*
%LPD*%
%LPC*%
G36*
X284925Y26693D02*
X284925Y26693D01*
X281963Y29655D01*
X281963Y33845D01*
X284925Y36807D01*
X289115Y36807D01*
X292077Y33845D01*
X292077Y29655D01*
X289115Y26693D01*
X284925Y26693D01*
G37*
%LPD*%
%LPC*%
G36*
X108463Y65822D02*
X108463Y65822D01*
X112474Y71011D01*
X113006Y71416D01*
X113625Y71670D01*
X114288Y71755D01*
X114951Y71665D01*
X115569Y71407D01*
X120959Y67241D01*
X115599Y60307D01*
X108463Y65822D01*
G37*
%LPD*%
%LPC*%
G36*
X116803Y59376D02*
X116803Y59376D01*
X122163Y66310D01*
X127553Y62144D01*
X127959Y61612D01*
X128212Y60993D01*
X128297Y60330D01*
X128208Y59667D01*
X127950Y59050D01*
X123939Y53861D01*
X116803Y59376D01*
G37*
%LPD*%
%LPC*%
G36*
X287241Y460869D02*
X287241Y460869D01*
X287259Y461538D01*
X287450Y462179D01*
X287801Y462749D01*
X288287Y463208D01*
X288875Y463526D01*
X300620Y466324D01*
X301901Y460945D01*
X288011Y457636D01*
X287241Y460869D01*
G37*
%LPD*%
%LPC*%
G36*
X303735Y459817D02*
X303735Y459817D01*
X317626Y463127D01*
X318396Y459894D01*
X318378Y459225D01*
X318186Y458584D01*
X317836Y458014D01*
X317350Y457555D01*
X316761Y457236D01*
X305017Y454438D01*
X303735Y459817D01*
G37*
%LPD*%
%LPC*%
G36*
X291122Y451306D02*
X291122Y451306D01*
X290481Y451497D01*
X289911Y451848D01*
X289452Y452334D01*
X289134Y452922D01*
X288363Y456155D01*
X302254Y459465D01*
X303536Y454086D01*
X291791Y451288D01*
X291122Y451306D01*
G37*
%LPD*%
%LPC*%
G36*
X113999Y421311D02*
X113999Y421311D01*
X113999Y425385D01*
X114172Y426031D01*
X114429Y426476D01*
X114441Y426513D01*
X114461Y426545D01*
X114465Y426594D01*
X114480Y426642D01*
X114473Y426680D01*
X114477Y426718D01*
X114457Y426775D01*
X114451Y426813D01*
X114439Y426829D01*
X114430Y426855D01*
X114082Y427463D01*
X113911Y428110D01*
X113925Y432183D01*
X120705Y432159D01*
X120690Y427972D01*
X120702Y427922D01*
X120704Y427870D01*
X120721Y427839D01*
X120729Y427803D01*
X120762Y427763D01*
X120779Y427732D01*
X120779Y421311D01*
X113999Y421311D01*
G37*
%LPD*%
%LPC*%
G36*
X122301Y421311D02*
X122301Y421311D01*
X122301Y425495D01*
X122290Y425544D01*
X122288Y425595D01*
X122270Y425628D01*
X122262Y425664D01*
X122230Y425703D01*
X122206Y425747D01*
X122205Y425748D01*
X122227Y432154D01*
X129006Y432131D01*
X128992Y428057D01*
X128817Y427412D01*
X128573Y426993D01*
X128561Y426955D01*
X128541Y426921D01*
X128536Y426873D01*
X128522Y426827D01*
X128529Y426788D01*
X128525Y426748D01*
X128544Y426693D01*
X128550Y426656D01*
X128563Y426638D01*
X128572Y426611D01*
X128908Y426031D01*
X129081Y425385D01*
X129081Y421311D01*
X122301Y421311D01*
G37*
%LPD*%
%LPC*%
G36*
X110741Y283071D02*
X110741Y283071D01*
X110741Y293106D01*
X115315Y293106D01*
X115961Y292933D01*
X116540Y292598D01*
X117013Y292125D01*
X117348Y291546D01*
X117521Y290900D01*
X117521Y283071D01*
X110741Y283071D01*
G37*
%LPD*%
%LPC*%
G36*
X102439Y283071D02*
X102439Y283071D01*
X102439Y290900D01*
X102612Y291546D01*
X102947Y292125D01*
X103420Y292598D01*
X103999Y292933D01*
X104645Y293106D01*
X109219Y293106D01*
X109219Y283071D01*
X102439Y283071D01*
G37*
%LPD*%
%LPC*%
G36*
X110741Y271514D02*
X110741Y271514D01*
X110741Y281549D01*
X117521Y281549D01*
X117521Y273720D01*
X117348Y273074D01*
X117013Y272495D01*
X116540Y272022D01*
X115961Y271687D01*
X115315Y271514D01*
X110741Y271514D01*
G37*
%LPD*%
%LPC*%
G36*
X104645Y271514D02*
X104645Y271514D01*
X103999Y271687D01*
X103420Y272022D01*
X102947Y272495D01*
X102612Y273074D01*
X102439Y273720D01*
X102439Y281549D01*
X109219Y281549D01*
X109219Y271514D01*
X104645Y271514D01*
G37*
%LPD*%
%LPC*%
G36*
X306455Y399833D02*
X306455Y399833D01*
X306513Y404562D01*
X315295Y404455D01*
X316126Y404221D01*
X316868Y403780D01*
X317471Y403163D01*
X317893Y402410D01*
X318107Y401573D01*
X318084Y399691D01*
X306455Y399833D01*
G37*
%LPD*%
%LPC*%
G36*
X296074Y393707D02*
X296074Y393707D01*
X295243Y393941D01*
X294501Y394381D01*
X293898Y394999D01*
X293476Y395752D01*
X293262Y396588D01*
X293285Y398471D01*
X304914Y398329D01*
X304856Y393600D01*
X296074Y393707D01*
G37*
%LPD*%
%LPC*%
G36*
X293304Y399993D02*
X293304Y399993D01*
X293327Y401876D01*
X293561Y402707D01*
X294001Y403449D01*
X294619Y404052D01*
X295372Y404475D01*
X296208Y404688D01*
X304990Y404581D01*
X304933Y399851D01*
X293304Y399993D01*
G37*
%LPD*%
%LPC*%
G36*
X306379Y393581D02*
X306379Y393581D01*
X306436Y398310D01*
X318065Y398168D01*
X318042Y396286D01*
X317808Y395455D01*
X317368Y394713D01*
X316750Y394110D01*
X315997Y393687D01*
X315161Y393474D01*
X306379Y393581D01*
G37*
%LPD*%
%LPC*%
G36*
X51951Y362711D02*
X51951Y362711D01*
X51951Y369491D01*
X57025Y369491D01*
X57671Y369318D01*
X58250Y368983D01*
X58723Y368510D01*
X59058Y367931D01*
X59231Y367285D01*
X59231Y362711D01*
X51951Y362711D01*
G37*
%LPD*%
%LPC*%
G36*
X43149Y362711D02*
X43149Y362711D01*
X43149Y367285D01*
X43322Y367931D01*
X43657Y368510D01*
X44130Y368983D01*
X44709Y369318D01*
X45355Y369491D01*
X50429Y369491D01*
X50429Y362711D01*
X43149Y362711D01*
G37*
%LPD*%
%LPC*%
G36*
X51951Y354409D02*
X51951Y354409D01*
X51951Y361189D01*
X59231Y361189D01*
X59231Y356615D01*
X59058Y355969D01*
X58723Y355390D01*
X58250Y354917D01*
X57671Y354582D01*
X57025Y354409D01*
X51951Y354409D01*
G37*
%LPD*%
%LPC*%
G36*
X45355Y354409D02*
X45355Y354409D01*
X44709Y354582D01*
X44130Y354917D01*
X43657Y355390D01*
X43322Y355969D01*
X43149Y356615D01*
X43149Y361189D01*
X50429Y361189D01*
X50429Y354409D01*
X45355Y354409D01*
G37*
%LPD*%
%LPC*%
G36*
X319064Y339967D02*
X319064Y339967D01*
X319064Y348859D01*
X322193Y348859D01*
X322839Y348686D01*
X323419Y348351D01*
X323892Y347878D01*
X324226Y347299D01*
X324399Y346653D01*
X324399Y339967D01*
X319064Y339967D01*
G37*
%LPD*%
%LPC*%
G36*
X192064Y339967D02*
X192064Y339967D01*
X192064Y348859D01*
X195193Y348859D01*
X195839Y348686D01*
X196419Y348351D01*
X196892Y347878D01*
X197226Y347299D01*
X197399Y346653D01*
X197399Y339967D01*
X192064Y339967D01*
G37*
%LPD*%
%LPC*%
G36*
X179235Y164751D02*
X179235Y164751D01*
X179235Y173642D01*
X182364Y173642D01*
X183010Y173469D01*
X183590Y173135D01*
X184063Y172662D01*
X184397Y172082D01*
X184570Y171436D01*
X184570Y164751D01*
X179235Y164751D01*
G37*
%LPD*%
%LPC*%
G36*
X149272Y233101D02*
X149272Y233101D01*
X149272Y238437D01*
X155958Y238437D01*
X156604Y238264D01*
X157183Y237929D01*
X157656Y237456D01*
X157991Y236877D01*
X158164Y236231D01*
X158164Y233101D01*
X149272Y233101D01*
G37*
%LPD*%
%LPC*%
G36*
X318935Y164751D02*
X318935Y164751D01*
X318935Y173642D01*
X322064Y173642D01*
X322710Y173469D01*
X323290Y173135D01*
X323763Y172662D01*
X324097Y172082D01*
X324270Y171436D01*
X324270Y164751D01*
X318935Y164751D01*
G37*
%LPD*%
%LPC*%
G36*
X319064Y329553D02*
X319064Y329553D01*
X319064Y338445D01*
X324399Y338445D01*
X324399Y331759D01*
X324226Y331113D01*
X323892Y330534D01*
X323419Y330061D01*
X322839Y329726D01*
X322193Y329553D01*
X319064Y329553D01*
G37*
%LPD*%
%LPC*%
G36*
X179235Y154337D02*
X179235Y154337D01*
X179235Y163228D01*
X184570Y163228D01*
X184570Y156543D01*
X184397Y155897D01*
X184063Y155317D01*
X183590Y154844D01*
X183010Y154510D01*
X182364Y154337D01*
X179235Y154337D01*
G37*
%LPD*%
%LPC*%
G36*
X318935Y154337D02*
X318935Y154337D01*
X318935Y163228D01*
X324270Y163228D01*
X324270Y156543D01*
X324097Y155897D01*
X323763Y155317D01*
X323290Y154844D01*
X322710Y154510D01*
X322064Y154337D01*
X318935Y154337D01*
G37*
%LPD*%
%LPC*%
G36*
X138859Y233101D02*
X138859Y233101D01*
X138859Y236231D01*
X139032Y236877D01*
X139366Y237456D01*
X139839Y237929D01*
X140419Y238264D01*
X141065Y238437D01*
X147750Y238437D01*
X147750Y233101D01*
X138859Y233101D01*
G37*
%LPD*%
%LPC*%
G36*
X312077Y164751D02*
X312077Y164751D01*
X312077Y171436D01*
X312250Y172082D01*
X312584Y172662D01*
X313057Y173135D01*
X313637Y173469D01*
X314283Y173642D01*
X317412Y173642D01*
X317412Y164751D01*
X312077Y164751D01*
G37*
%LPD*%
%LPC*%
G36*
X172377Y164751D02*
X172377Y164751D01*
X172377Y171436D01*
X172550Y172082D01*
X172884Y172662D01*
X173357Y173135D01*
X173937Y173469D01*
X174583Y173642D01*
X177712Y173642D01*
X177712Y164751D01*
X172377Y164751D01*
G37*
%LPD*%
%LPC*%
G36*
X149272Y226243D02*
X149272Y226243D01*
X149272Y231579D01*
X158164Y231579D01*
X158164Y228449D01*
X157991Y227803D01*
X157656Y227224D01*
X157183Y226751D01*
X156604Y226416D01*
X155958Y226243D01*
X149272Y226243D01*
G37*
%LPD*%
%LPC*%
G36*
X312206Y339967D02*
X312206Y339967D01*
X312206Y346653D01*
X312379Y347299D01*
X312714Y347878D01*
X313187Y348351D01*
X313766Y348686D01*
X314412Y348859D01*
X317541Y348859D01*
X317541Y339967D01*
X312206Y339967D01*
G37*
%LPD*%
%LPC*%
G36*
X314283Y154337D02*
X314283Y154337D01*
X313637Y154510D01*
X313057Y154844D01*
X312584Y155317D01*
X312250Y155897D01*
X312235Y155951D01*
X312077Y156543D01*
X312077Y163228D01*
X317412Y163228D01*
X317412Y154337D01*
X314283Y154337D01*
G37*
%LPD*%
%LPC*%
G36*
X174583Y154337D02*
X174583Y154337D01*
X173937Y154510D01*
X173357Y154844D01*
X172884Y155317D01*
X172550Y155897D01*
X172535Y155951D01*
X172377Y156543D01*
X172377Y163228D01*
X177712Y163228D01*
X177712Y154337D01*
X174583Y154337D01*
G37*
%LPD*%
%LPC*%
G36*
X314412Y329553D02*
X314412Y329553D01*
X313766Y329726D01*
X313187Y330061D01*
X312714Y330534D01*
X312379Y331113D01*
X312206Y331759D01*
X312206Y338445D01*
X317541Y338445D01*
X317541Y329553D01*
X314412Y329553D01*
G37*
%LPD*%
%LPC*%
G36*
X141065Y226243D02*
X141065Y226243D01*
X140419Y226416D01*
X139839Y226751D01*
X139366Y227224D01*
X139032Y227803D01*
X138859Y228449D01*
X138859Y231579D01*
X147750Y231579D01*
X147750Y226243D01*
X141065Y226243D01*
G37*
%LPD*%
%LPC*%
G36*
X52451Y421311D02*
X52451Y421311D01*
X52451Y427591D01*
X57025Y427591D01*
X57671Y427418D01*
X58250Y427083D01*
X58723Y426610D01*
X59058Y426031D01*
X59231Y425385D01*
X59231Y421311D01*
X52451Y421311D01*
G37*
%LPD*%
%LPC*%
G36*
X88011Y421311D02*
X88011Y421311D01*
X88011Y427591D01*
X92585Y427591D01*
X93231Y427418D01*
X93810Y427083D01*
X94283Y426610D01*
X94618Y426031D01*
X94791Y425385D01*
X94791Y421311D01*
X88011Y421311D01*
G37*
%LPD*%
%LPC*%
G36*
X122301Y380311D02*
X122301Y380311D01*
X122301Y386591D01*
X126875Y386591D01*
X127521Y386418D01*
X128100Y386083D01*
X128573Y385610D01*
X128908Y385031D01*
X129081Y384385D01*
X129081Y380311D01*
X122301Y380311D01*
G37*
%LPD*%
%LPC*%
G36*
X52451Y380311D02*
X52451Y380311D01*
X52451Y386591D01*
X57025Y386591D01*
X57671Y386418D01*
X58250Y386083D01*
X58723Y385610D01*
X59058Y385031D01*
X59231Y384385D01*
X59231Y380311D01*
X52451Y380311D01*
G37*
%LPD*%
%LPC*%
G36*
X88011Y380311D02*
X88011Y380311D01*
X88011Y386591D01*
X92585Y386591D01*
X93231Y386418D01*
X93810Y386083D01*
X94283Y385610D01*
X94618Y385031D01*
X94791Y384385D01*
X94791Y380311D01*
X88011Y380311D01*
G37*
%LPD*%
%LPC*%
G36*
X113999Y380311D02*
X113999Y380311D01*
X113999Y384385D01*
X114172Y385031D01*
X114507Y385610D01*
X114980Y386083D01*
X115559Y386418D01*
X116205Y386591D01*
X120779Y386591D01*
X120779Y380311D01*
X113999Y380311D01*
G37*
%LPD*%
%LPC*%
G36*
X79709Y380311D02*
X79709Y380311D01*
X79709Y384385D01*
X79882Y385031D01*
X80217Y385610D01*
X80690Y386083D01*
X81269Y386418D01*
X81915Y386591D01*
X86489Y386591D01*
X86489Y380311D01*
X79709Y380311D01*
G37*
%LPD*%
%LPC*%
G36*
X79709Y421311D02*
X79709Y421311D01*
X79709Y425385D01*
X79882Y426031D01*
X80217Y426610D01*
X80690Y427083D01*
X81269Y427418D01*
X81915Y427591D01*
X86489Y427591D01*
X86489Y421311D01*
X79709Y421311D01*
G37*
%LPD*%
%LPC*%
G36*
X44149Y421311D02*
X44149Y421311D01*
X44149Y425385D01*
X44322Y426031D01*
X44657Y426610D01*
X45130Y427083D01*
X45709Y427418D01*
X46355Y427591D01*
X50929Y427591D01*
X50929Y421311D01*
X44149Y421311D01*
G37*
%LPD*%
%LPC*%
G36*
X44149Y380311D02*
X44149Y380311D01*
X44149Y384385D01*
X44322Y385031D01*
X44657Y385610D01*
X45130Y386083D01*
X45709Y386418D01*
X46355Y386591D01*
X50929Y386591D01*
X50929Y380311D01*
X44149Y380311D01*
G37*
%LPD*%
%LPC*%
G36*
X122232Y433677D02*
X122232Y433677D01*
X122254Y439956D01*
X126828Y439940D01*
X127473Y439765D01*
X128051Y439428D01*
X128523Y438953D01*
X128855Y438373D01*
X129026Y437726D01*
X129012Y433653D01*
X122232Y433677D01*
G37*
%LPD*%
%LPC*%
G36*
X88011Y413509D02*
X88011Y413509D01*
X88011Y419789D01*
X94791Y419789D01*
X94791Y415715D01*
X94618Y415069D01*
X94283Y414490D01*
X93810Y414017D01*
X93231Y413682D01*
X92585Y413509D01*
X88011Y413509D01*
G37*
%LPD*%
%LPC*%
G36*
X122301Y372509D02*
X122301Y372509D01*
X122301Y378789D01*
X129081Y378789D01*
X129081Y374715D01*
X128908Y374069D01*
X128573Y373490D01*
X128100Y373017D01*
X127521Y372682D01*
X126875Y372509D01*
X122301Y372509D01*
G37*
%LPD*%
%LPC*%
G36*
X88011Y372509D02*
X88011Y372509D01*
X88011Y378789D01*
X94791Y378789D01*
X94791Y374715D01*
X94618Y374069D01*
X94283Y373490D01*
X93810Y373017D01*
X93231Y372682D01*
X92585Y372509D01*
X88011Y372509D01*
G37*
%LPD*%
%LPC*%
G36*
X52451Y372509D02*
X52451Y372509D01*
X52451Y378789D01*
X59231Y378789D01*
X59231Y374715D01*
X59058Y374069D01*
X58723Y373490D01*
X58250Y373017D01*
X57671Y372682D01*
X57025Y372509D01*
X52451Y372509D01*
G37*
%LPD*%
%LPC*%
G36*
X52451Y413509D02*
X52451Y413509D01*
X52451Y419789D01*
X59231Y419789D01*
X59231Y415715D01*
X59058Y415069D01*
X58723Y414490D01*
X58250Y414017D01*
X57671Y413682D01*
X57025Y413509D01*
X52451Y413509D01*
G37*
%LPD*%
%LPC*%
G36*
X122301Y413509D02*
X122301Y413509D01*
X122301Y419789D01*
X129081Y419789D01*
X129081Y415715D01*
X128908Y415069D01*
X128573Y414490D01*
X128100Y414017D01*
X127521Y413682D01*
X126875Y413509D01*
X122301Y413509D01*
G37*
%LPD*%
%LPC*%
G36*
X113930Y433706D02*
X113930Y433706D01*
X113945Y437779D01*
X114120Y438424D01*
X114457Y439003D01*
X114931Y439474D01*
X115512Y439806D01*
X116159Y439977D01*
X120732Y439961D01*
X120710Y433682D01*
X113930Y433706D01*
G37*
%LPD*%
%LPC*%
G36*
X122348Y466874D02*
X122348Y466874D01*
X122370Y473154D01*
X129150Y473130D01*
X129135Y469057D01*
X128960Y468411D01*
X128624Y467833D01*
X128149Y467362D01*
X127568Y467029D01*
X126922Y466859D01*
X122348Y466874D01*
G37*
%LPD*%
%LPC*%
G36*
X81915Y413509D02*
X81915Y413509D01*
X81269Y413682D01*
X80690Y414017D01*
X80217Y414490D01*
X79882Y415069D01*
X79709Y415715D01*
X79709Y419789D01*
X86489Y419789D01*
X86489Y413509D01*
X81915Y413509D01*
G37*
%LPD*%
%LPC*%
G36*
X46355Y372509D02*
X46355Y372509D01*
X45709Y372682D01*
X45130Y373017D01*
X44657Y373490D01*
X44322Y374069D01*
X44149Y374715D01*
X44149Y378789D01*
X50929Y378789D01*
X50929Y372509D01*
X46355Y372509D01*
G37*
%LPD*%
%LPC*%
G36*
X116205Y372509D02*
X116205Y372509D01*
X115559Y372682D01*
X114980Y373017D01*
X114507Y373490D01*
X114172Y374069D01*
X113999Y374715D01*
X113999Y378789D01*
X120779Y378789D01*
X120779Y372509D01*
X116205Y372509D01*
G37*
%LPD*%
%LPC*%
G36*
X81915Y372509D02*
X81915Y372509D01*
X81269Y372682D01*
X80690Y373017D01*
X80217Y373490D01*
X79882Y374069D01*
X79709Y374715D01*
X79709Y378789D01*
X86489Y378789D01*
X86489Y372509D01*
X81915Y372509D01*
G37*
%LPD*%
%LPC*%
G36*
X46355Y413509D02*
X46355Y413509D01*
X45709Y413682D01*
X45130Y414017D01*
X44657Y414490D01*
X44322Y415069D01*
X44149Y415715D01*
X44149Y419789D01*
X50929Y419789D01*
X50929Y413509D01*
X46355Y413509D01*
G37*
%LPD*%
%LPC*%
G36*
X116205Y413509D02*
X116205Y413509D01*
X115559Y413682D01*
X114980Y414017D01*
X114507Y414490D01*
X114172Y415069D01*
X113999Y415715D01*
X113999Y419789D01*
X120779Y419789D01*
X120779Y413509D01*
X116205Y413509D01*
G37*
%LPD*%
%LPC*%
G36*
X116252Y466896D02*
X116252Y466896D01*
X115607Y467071D01*
X115029Y467408D01*
X114557Y467882D01*
X114225Y468463D01*
X114054Y469110D01*
X114068Y473183D01*
X120848Y473159D01*
X120826Y466880D01*
X116252Y466896D01*
G37*
%LPD*%
%LPC*%
G36*
X70978Y116596D02*
X70978Y116596D01*
X75871Y122927D01*
X77945Y121324D01*
X78351Y120792D01*
X78605Y120173D01*
X78690Y119510D01*
X78600Y118847D01*
X78342Y118230D01*
X74797Y113643D01*
X70978Y116596D01*
G37*
%LPD*%
%LPC*%
G36*
X65953Y120479D02*
X65953Y120479D01*
X69498Y125065D01*
X70030Y125470D01*
X70649Y125724D01*
X71313Y125809D01*
X71976Y125720D01*
X72593Y125461D01*
X74667Y123858D01*
X69773Y117527D01*
X65953Y120479D01*
G37*
%LPD*%
%LPC*%
G36*
X61874Y111593D02*
X61874Y111593D01*
X61469Y112125D01*
X61215Y112744D01*
X61130Y113408D01*
X61220Y114071D01*
X61478Y114688D01*
X65022Y119274D01*
X68842Y116322D01*
X63948Y109990D01*
X61874Y111593D01*
G37*
%LPD*%
%LPC*%
G36*
X67844Y107198D02*
X67844Y107198D01*
X67227Y107456D01*
X65153Y109059D01*
X70047Y115391D01*
X73866Y112439D01*
X70322Y107853D01*
X69789Y107447D01*
X69171Y107193D01*
X68507Y107108D01*
X67844Y107198D01*
G37*
%LPD*%
%LPC*%
G36*
X223011Y110491D02*
X223011Y110491D01*
X223011Y114971D01*
X225585Y114971D01*
X226231Y114798D01*
X226810Y114463D01*
X227283Y113990D01*
X227618Y113411D01*
X227791Y112765D01*
X227791Y110491D01*
X223011Y110491D01*
G37*
%LPD*%
%LPC*%
G36*
X187451Y110491D02*
X187451Y110491D01*
X187451Y114971D01*
X190025Y114971D01*
X190671Y114798D01*
X191250Y114463D01*
X191723Y113990D01*
X192058Y113411D01*
X192231Y112765D01*
X192231Y110491D01*
X187451Y110491D01*
G37*
%LPD*%
%LPC*%
G36*
X216709Y110491D02*
X216709Y110491D01*
X216709Y112765D01*
X216882Y113411D01*
X217217Y113990D01*
X217690Y114463D01*
X218269Y114798D01*
X218915Y114971D01*
X221489Y114971D01*
X221489Y110491D01*
X216709Y110491D01*
G37*
%LPD*%
%LPC*%
G36*
X235711Y107279D02*
X235711Y107279D01*
X235711Y111759D01*
X240491Y111759D01*
X240491Y109485D01*
X240318Y108839D01*
X239983Y108260D01*
X239510Y107787D01*
X238931Y107452D01*
X238285Y107279D01*
X235711Y107279D01*
G37*
%LPD*%
%LPC*%
G36*
X231615Y107279D02*
X231615Y107279D01*
X230969Y107452D01*
X230390Y107787D01*
X229917Y108260D01*
X229582Y108839D01*
X229409Y109485D01*
X229409Y111759D01*
X234189Y111759D01*
X234189Y107279D01*
X231615Y107279D01*
G37*
%LPD*%
%LPC*%
G36*
X161269Y33019D02*
X161269Y33019D01*
X161269Y33021D01*
X161271Y33021D01*
X161271Y33019D01*
X161269Y33019D01*
G37*
%LPD*%
%LPC*%
G36*
X247669Y33019D02*
X247669Y33019D01*
X247669Y33021D01*
X247671Y33021D01*
X247671Y33019D01*
X247669Y33019D01*
G37*
%LPD*%
%LPC*%
G36*
X121539Y420549D02*
X121539Y420549D01*
X121539Y420551D01*
X121541Y420551D01*
X121541Y420549D01*
X121539Y420549D01*
G37*
%LPD*%
%LPC*%
G36*
X87249Y420549D02*
X87249Y420549D01*
X87249Y420551D01*
X87251Y420551D01*
X87251Y420549D01*
X87249Y420549D01*
G37*
%LPD*%
%LPC*%
G36*
X51689Y420549D02*
X51689Y420549D01*
X51689Y420551D01*
X51691Y420551D01*
X51691Y420549D01*
X51689Y420549D01*
G37*
%LPD*%
%LPC*%
G36*
X87249Y379549D02*
X87249Y379549D01*
X87249Y379551D01*
X87251Y379551D01*
X87251Y379549D01*
X87249Y379549D01*
G37*
%LPD*%
%LPC*%
G36*
X121539Y379549D02*
X121539Y379549D01*
X121539Y379551D01*
X121541Y379551D01*
X121541Y379549D01*
X121539Y379549D01*
G37*
%LPD*%
%LPC*%
G36*
X51689Y379549D02*
X51689Y379549D01*
X51689Y379551D01*
X51691Y379551D01*
X51691Y379549D01*
X51689Y379549D01*
G37*
%LPD*%
%LPC*%
G36*
X305684Y399080D02*
X305684Y399080D01*
X305684Y399082D01*
X305685Y399082D01*
X305685Y399080D01*
X305684Y399080D01*
G37*
%LPD*%
%LPC*%
G36*
X51189Y361949D02*
X51189Y361949D01*
X51189Y361951D01*
X51191Y361951D01*
X51191Y361949D01*
X51189Y361949D01*
G37*
%LPD*%
%LPC*%
G36*
X318173Y163989D02*
X318173Y163989D01*
X318173Y163990D01*
X318174Y163990D01*
X318174Y163989D01*
X318173Y163989D01*
G37*
%LPD*%
%LPC*%
G36*
X178473Y163989D02*
X178473Y163989D01*
X178473Y163990D01*
X178474Y163990D01*
X178474Y163989D01*
X178473Y163989D01*
G37*
%LPD*%
%LPC*%
G36*
X318302Y339205D02*
X318302Y339205D01*
X318302Y339207D01*
X318303Y339207D01*
X318303Y339205D01*
X318302Y339205D01*
G37*
%LPD*%
%LPC*%
G36*
X148510Y232339D02*
X148510Y232339D01*
X148510Y232341D01*
X148512Y232341D01*
X148512Y232339D01*
X148510Y232339D01*
G37*
%LPD*%
%LPC*%
G36*
X109979Y282309D02*
X109979Y282309D01*
X109979Y282311D01*
X109981Y282311D01*
X109981Y282309D01*
X109979Y282309D01*
G37*
%LPD*%
%LPC*%
G36*
X121468Y432917D02*
X121468Y432917D01*
X121468Y432919D01*
X121469Y432919D01*
X121469Y432917D01*
X121468Y432917D01*
G37*
%LPD*%
%LPC*%
G36*
X302817Y460382D02*
X302817Y460382D01*
X302819Y460382D01*
X302819Y460381D01*
X302818Y460380D01*
X302817Y460382D01*
G37*
%LPD*%
%LPC*%
G36*
X69909Y116459D02*
X69909Y116459D01*
X69910Y116460D01*
X69911Y116459D01*
X69910Y116458D01*
X69909Y116459D01*
G37*
%LPD*%
D10*
X68190Y361950D03*
X51190Y361950D03*
D11*
X171970Y83970D03*
X179970Y83970D03*
D12*
X201970Y83970D03*
X196970Y83970D03*
X191970Y83970D03*
X186970Y83970D03*
X206970Y83970D03*
X211970Y83970D03*
X216970Y83970D03*
X221970Y83970D03*
D11*
X228970Y83970D03*
X236970Y83970D03*
D13*
X161270Y80610D02*
X161270Y69030D01*
X247670Y69030D02*
X247670Y80610D01*
X161270Y38810D02*
X161270Y27230D01*
X247670Y27230D02*
X247670Y38810D01*
D14*
X102870Y366270D03*
X102870Y357630D03*
X186690Y109730D03*
X186690Y101090D03*
X222250Y109730D03*
X222250Y101090D03*
X87630Y366270D03*
X87630Y357630D03*
D15*
X178474Y163990D03*
X191174Y163990D03*
X318174Y163990D03*
X178603Y339206D03*
X191303Y339206D03*
X216703Y339206D03*
X229403Y339206D03*
X242103Y339206D03*
X318303Y339206D03*
D16*
X148511Y219640D03*
X148511Y232340D03*
X148511Y270440D03*
X148511Y283140D03*
X148511Y295840D03*
X148511Y308540D03*
D15*
X204003Y339206D03*
X305603Y339206D03*
X292903Y339206D03*
D17*
G36*
X112034Y76038D02*
X107210Y79766D01*
X114820Y89612D01*
X119644Y85884D01*
X112034Y76038D01*
G37*
G36*
X103331Y82765D02*
X98507Y86493D01*
X106117Y96339D01*
X110941Y92611D01*
X103331Y82765D01*
G37*
G36*
X94627Y89491D02*
X89803Y93219D01*
X97413Y103065D01*
X102237Y99337D01*
X94627Y89491D01*
G37*
G36*
X85924Y96218D02*
X81100Y99946D01*
X88710Y109792D01*
X93534Y106064D01*
X85924Y96218D01*
G37*
G36*
X77220Y102945D02*
X72396Y106673D01*
X80006Y116519D01*
X84830Y112791D01*
X77220Y102945D01*
G37*
G36*
X68517Y109672D02*
X63693Y113400D01*
X71303Y123246D01*
X76127Y119518D01*
X68517Y109672D01*
G37*
G36*
X59813Y116399D02*
X54989Y120127D01*
X62599Y129973D01*
X67423Y126245D01*
X59813Y116399D01*
G37*
G36*
X51110Y123125D02*
X46286Y126853D01*
X53896Y136699D01*
X58720Y132971D01*
X51110Y123125D01*
G37*
D18*
G36*
X21389Y98701D02*
X11944Y106001D01*
X35087Y135945D01*
X44532Y128645D01*
X21389Y98701D01*
G37*
D19*
G36*
X117192Y49286D02*
X105737Y58140D01*
X114280Y69192D01*
X125735Y60338D01*
X117192Y49286D01*
G37*
D20*
G36*
X111926Y42533D02*
X104090Y48590D01*
X107818Y53413D01*
X115654Y47356D01*
X111926Y42533D01*
G37*
D21*
G36*
X93987Y42631D02*
X86552Y48378D01*
X91677Y55009D01*
X99112Y49262D01*
X93987Y42631D01*
G37*
D22*
X345630Y362703D02*
X363854Y362480D01*
X363800Y358055D01*
X345576Y358278D01*
X345630Y362703D01*
X345590Y359456D02*
X363817Y359456D01*
X363834Y360857D02*
X345607Y360857D01*
X345625Y362258D02*
X363851Y362258D01*
X364010Y375179D02*
X345786Y375402D01*
X364010Y375179D02*
X363956Y370754D01*
X345732Y370977D01*
X345786Y375402D01*
X345746Y372155D02*
X363973Y372155D01*
X363990Y373556D02*
X345763Y373556D01*
X345781Y374957D02*
X364007Y374957D01*
X364165Y387878D02*
X345941Y388101D01*
X364165Y387878D02*
X364111Y383453D01*
X345887Y383676D01*
X345941Y388101D01*
X345901Y384854D02*
X364128Y384854D01*
X364145Y386255D02*
X345918Y386255D01*
X345936Y387656D02*
X364162Y387656D01*
X364320Y400577D02*
X346096Y400800D01*
X364320Y400577D02*
X364266Y396152D01*
X346042Y396375D01*
X346096Y400800D01*
X346056Y397553D02*
X364283Y397553D01*
X364300Y398954D02*
X346073Y398954D01*
X346091Y400355D02*
X364317Y400355D01*
X314824Y401182D02*
X296600Y401405D01*
X314824Y401182D02*
X314770Y396757D01*
X296546Y396980D01*
X296600Y401405D01*
X296560Y398158D02*
X314787Y398158D01*
X314804Y399559D02*
X296577Y399559D01*
X296595Y400960D02*
X314821Y400960D01*
X314668Y388483D02*
X296444Y388706D01*
X314668Y388483D02*
X314614Y384058D01*
X296390Y384281D01*
X296444Y388706D01*
X296404Y385459D02*
X314631Y385459D01*
X314648Y386860D02*
X296421Y386860D01*
X296439Y388261D02*
X314665Y388261D01*
X314513Y375784D02*
X296289Y376007D01*
X314513Y375784D02*
X314459Y371359D01*
X296235Y371582D01*
X296289Y376007D01*
X296249Y372760D02*
X314476Y372760D01*
X314493Y374161D02*
X296266Y374161D01*
X296284Y375562D02*
X314510Y375562D01*
X314358Y363085D02*
X296134Y363308D01*
X314358Y363085D02*
X314304Y358660D01*
X296080Y358883D01*
X296134Y363308D01*
X296094Y360061D02*
X314321Y360061D01*
X314338Y361462D02*
X296111Y361462D01*
X296129Y362863D02*
X314355Y362863D01*
D23*
G36*
X315846Y459630D02*
X291528Y453837D01*
X289790Y461132D01*
X314108Y466925D01*
X315846Y459630D01*
G37*
G36*
X323378Y428015D02*
X299060Y422222D01*
X297322Y429517D01*
X321640Y435310D01*
X323378Y428015D01*
G37*
D24*
X51690Y420550D03*
X67690Y420550D03*
X67690Y379550D03*
X51690Y379550D03*
X121540Y420550D03*
X137540Y420550D03*
X137540Y379550D03*
X121540Y379550D03*
D25*
G36*
X86051Y134138D02*
X80653Y134063D01*
X80569Y140062D01*
X85967Y140137D01*
X86051Y134138D01*
G37*
G36*
X94691Y134258D02*
X89293Y134183D01*
X89209Y140182D01*
X94607Y140257D01*
X94691Y134258D01*
G37*
D26*
G36*
X325586Y45978D02*
X319255Y41773D01*
X312228Y52350D01*
X318559Y56555D01*
X325586Y45978D01*
G37*
G36*
X336164Y53006D02*
X329833Y48801D01*
X322806Y59378D01*
X329137Y63583D01*
X336164Y53006D01*
G37*
G36*
X283418Y109446D02*
X277087Y105241D01*
X270060Y115818D01*
X276391Y120023D01*
X283418Y109446D01*
G37*
G36*
X293996Y116474D02*
X287665Y112269D01*
X280638Y122846D01*
X286969Y127051D01*
X293996Y116474D01*
G37*
G36*
X346742Y60034D02*
X340411Y55829D01*
X333384Y66406D01*
X339715Y70611D01*
X346742Y60034D01*
G37*
G36*
X357320Y67062D02*
X350989Y62857D01*
X343962Y73434D01*
X350293Y77639D01*
X357320Y67062D01*
G37*
G36*
X304574Y123502D02*
X298243Y119297D01*
X291216Y129874D01*
X297547Y134079D01*
X304574Y123502D01*
G37*
G36*
X315152Y130530D02*
X308821Y126325D01*
X301794Y136902D01*
X308125Y141107D01*
X315152Y130530D01*
G37*
D27*
G36*
X132453Y428380D02*
X132484Y437379D01*
X142483Y437344D01*
X142452Y428345D01*
X132453Y428380D01*
G37*
G36*
X116453Y428436D02*
X116484Y437435D01*
X126483Y437400D01*
X126452Y428401D01*
X116453Y428436D01*
G37*
G36*
X116597Y469436D02*
X116628Y478435D01*
X126627Y478400D01*
X126596Y469401D01*
X116597Y469436D01*
G37*
G36*
X132597Y469380D02*
X132628Y478379D01*
X142627Y478344D01*
X142596Y469345D01*
X132597Y469380D01*
G37*
D25*
X102360Y125730D03*
X111000Y125730D03*
G36*
X124130Y110019D02*
X118732Y109982D01*
X118690Y115981D01*
X124088Y116018D01*
X124130Y110019D01*
G37*
G36*
X132770Y110079D02*
X127372Y110042D01*
X127330Y116041D01*
X132728Y116078D01*
X132770Y110079D01*
G37*
X141730Y101600D03*
X150370Y101600D03*
X78230Y302260D03*
X86870Y302260D03*
X191010Y140970D03*
X182370Y140970D03*
D28*
X77980Y230770D03*
X77980Y282310D03*
X109980Y282310D03*
X109980Y230770D03*
D29*
X349560Y133160D02*
X356560Y133160D01*
X356560Y126160D01*
X349560Y126160D01*
X349560Y133160D01*
X349560Y129010D02*
X356560Y129010D01*
X356560Y131860D02*
X349560Y131860D01*
X349560Y150700D02*
X356560Y150700D01*
X356560Y143700D01*
X349560Y143700D01*
X349560Y150700D01*
X349560Y146550D02*
X356560Y146550D01*
X356560Y149400D02*
X349560Y149400D01*
D14*
X247650Y121160D03*
X247650Y112520D03*
X234950Y112520D03*
X234950Y121160D03*
D24*
X103250Y379550D03*
X87250Y379550D03*
X87250Y420550D03*
X103250Y420550D03*
D25*
X332230Y416560D03*
X340870Y416560D03*
X332230Y430530D03*
X340870Y430530D03*
D30*
X215900Y199390D03*
D31*
X224133Y207623D01*
X224133Y311807D01*
X212090Y323850D02*
X170180Y323850D01*
X166370Y327660D01*
X212090Y323850D02*
X224133Y311807D01*
X67310Y130810D02*
X61206Y123186D01*
X67310Y130810D02*
X71120Y134620D01*
X73600Y137100D01*
X83310Y137100D01*
D30*
X71120Y134620D03*
D31*
X166370Y327660D02*
X166370Y372110D01*
X158930Y379550D01*
X137540Y379550D01*
X137540Y420550D01*
X87450Y366450D02*
X87630Y366270D01*
X68190Y361950D02*
X68190Y379050D01*
X67690Y379550D01*
X68190Y361950D02*
X76200Y361950D01*
X80520Y366270D02*
X87630Y366270D01*
X80520Y366270D02*
X76200Y361950D01*
X67690Y379550D02*
X67690Y420550D01*
D30*
X67310Y400050D03*
D31*
X67690Y400430D02*
X67690Y420550D01*
X67690Y400430D02*
X67310Y400050D01*
X201970Y95290D02*
X201970Y83970D01*
X201970Y95290D02*
X203200Y96520D01*
X210820Y96520D02*
X212090Y95250D01*
X212090Y84090D01*
X211970Y83970D01*
X207010Y96520D02*
X203200Y96520D01*
X207010Y96520D02*
X210820Y96520D01*
D30*
X207010Y96520D03*
D31*
X196970Y83970D02*
X196970Y71000D01*
X198120Y69850D01*
X205740Y69850D02*
X207010Y71120D01*
X207010Y83930D01*
X206970Y83970D01*
X201930Y69850D02*
X198120Y69850D01*
X201930Y69850D02*
X205740Y69850D01*
D30*
X201930Y69850D03*
D31*
X269933Y139123D02*
X223826Y185230D01*
D30*
X100330Y175260D03*
D31*
X100330Y180150D01*
X105410Y185230D01*
X223826Y185230D01*
X269933Y139123D02*
X269933Y139007D01*
X278130Y130810D01*
X278130Y128270D01*
X271780Y121920D01*
X271780Y119380D01*
X276739Y112632D01*
X225483Y189230D02*
X95250Y189230D01*
X225483Y189230D02*
X281363Y133350D01*
X292780Y133350D01*
X297895Y126688D01*
D30*
X87630Y175260D03*
D31*
X87630Y181610D02*
X95250Y189230D01*
X87630Y181610D02*
X87630Y175260D01*
X178603Y339206D02*
X191303Y339206D01*
X178474Y163990D02*
X131920Y163990D01*
X121920Y173990D01*
D30*
X121920Y173990D03*
X124460Y356870D03*
X336550Y336550D03*
X336550Y326390D03*
X336550Y314960D03*
X336550Y303530D03*
X336550Y292100D03*
X336550Y280670D03*
X336550Y270510D03*
X336550Y259080D03*
X336550Y247650D03*
X336550Y236220D03*
X336550Y224790D03*
X336550Y213360D03*
X336550Y200660D03*
X336550Y189230D03*
X336550Y176530D03*
X336550Y163830D03*
X50800Y322580D03*
X50800Y311150D03*
X50800Y299720D03*
X50800Y287020D03*
X50800Y274320D03*
X50800Y260350D03*
X50800Y247650D03*
X266700Y187960D03*
X158750Y486410D03*
X168910Y488950D03*
X180340Y490220D03*
X191770Y491490D03*
X204470Y491490D03*
X215900Y491490D03*
X228600Y490220D03*
X241300Y488950D03*
X254000Y486410D03*
X267970Y482600D03*
X281940Y477520D03*
X297180Y471170D03*
X323850Y458470D03*
X148590Y19050D03*
X134620Y24130D03*
X120650Y29210D03*
X184150Y205740D03*
X243840Y144780D03*
X45720Y74930D03*
X54610Y67310D03*
X63500Y59690D03*
X73660Y52070D03*
X109220Y34290D03*
X191770Y459740D03*
X191770Y438150D03*
X193040Y412750D03*
X194310Y389890D03*
X218440Y461010D03*
X219710Y439420D03*
X219710Y410210D03*
X220980Y387350D03*
X251460Y386080D03*
X254000Y412750D03*
X251460Y436880D03*
X250190Y458470D03*
X276860Y458470D03*
X187960Y297180D03*
X187960Y267970D03*
X189230Y237490D03*
X205740Y236220D03*
X205740Y265430D03*
X207010Y294640D03*
X259080Y299720D03*
X261620Y278130D03*
X261620Y251460D03*
X261620Y232410D03*
X292100Y232410D03*
X292100Y254000D03*
X294640Y274320D03*
X295910Y290830D03*
X295910Y307340D03*
X318770Y306070D03*
X316230Y285750D03*
X318770Y259080D03*
X318770Y237490D03*
X314960Y212090D03*
X321310Y190500D03*
X116840Y295910D03*
X134620Y207010D03*
X149860Y203200D03*
X158750Y365760D03*
X320040Y353060D03*
X194310Y372110D03*
X222250Y368300D03*
X267970Y377190D03*
X317500Y73660D03*
X57150Y226060D03*
X57150Y210820D03*
X71120Y191770D03*
X115570Y207010D03*
D31*
X236970Y83970D02*
X243690Y83970D01*
X247670Y79990D02*
X247670Y74820D01*
X247670Y79990D02*
X243690Y83970D01*
D30*
X308610Y38100D03*
X300990Y190500D03*
X302260Y168910D03*
X298450Y215900D03*
X182880Y250190D03*
X191770Y280670D03*
X270510Y200660D03*
X278130Y275590D03*
X276860Y306070D03*
D32*
X309880Y73660D02*
X317500Y73660D01*
D30*
X309880Y73660D03*
X135890Y48260D03*
X144780Y38100D03*
X144780Y62230D03*
X92710Y74930D03*
X73660Y78740D03*
X50800Y95250D03*
X58420Y83820D03*
X85090Y63500D03*
X124460Y77470D03*
X104140Y323850D03*
X133350Y323850D03*
X179070Y308610D03*
X173990Y276860D03*
X127000Y222250D03*
X303530Y242570D03*
X147320Y482600D03*
X105410Y468630D03*
X95250Y463550D03*
X85090Y457200D03*
X73660Y450850D03*
X63500Y443230D03*
X336550Y449580D03*
X161290Y464820D03*
X175260Y438150D03*
X158750Y405130D03*
X153670Y417830D03*
X153670Y449580D03*
X177800Y476250D03*
X214630Y474980D03*
X271780Y440690D03*
X275590Y233680D03*
D31*
X51190Y361950D02*
X51190Y379050D01*
X51690Y379550D01*
D30*
X182880Y52070D03*
X203200Y45720D03*
D33*
X28721Y116840D02*
X28238Y117323D01*
D30*
X45720Y138430D03*
X49530Y110490D03*
D33*
X28238Y117323D02*
X28238Y120948D01*
X45720Y138430D01*
D30*
X267970Y25400D03*
D32*
X179970Y75772D02*
X179970Y83970D01*
X179970Y75772D02*
X183102Y72640D01*
X183102Y68358D01*
X189230Y62230D02*
X220980Y62230D01*
X223520Y64770D01*
X225838Y67088D01*
X225838Y72640D01*
X228970Y75772D02*
X228970Y83970D01*
X185420Y66040D02*
X183102Y68358D01*
X185420Y66040D02*
X189230Y62230D01*
X225838Y72640D02*
X228970Y75772D01*
D30*
X185420Y66040D03*
D32*
X179970Y83970D02*
X179970Y123560D01*
X144780Y158750D01*
X63500Y158750D01*
X54610Y167640D01*
D30*
X223520Y64770D03*
D32*
X77980Y213870D02*
X77980Y230770D01*
X77980Y213870D02*
X54610Y190500D01*
X54610Y167640D01*
D34*
X228970Y91810D02*
X228970Y83970D01*
X228970Y91810D02*
X233680Y96520D01*
X257810Y96520D01*
X262890Y101600D01*
D30*
X262890Y101600D03*
X265430Y86360D03*
X316230Y88900D03*
D32*
X273050Y93980D02*
X265430Y86360D01*
X311150Y93980D02*
X316230Y88900D01*
X311150Y93980D02*
X273050Y93980D01*
D30*
X62230Y325120D03*
D35*
X148511Y219640D02*
X162490Y219640D01*
X162560Y219710D01*
D30*
X162560Y219710D03*
D34*
X341328Y373078D02*
X354871Y373078D01*
D31*
X92710Y136460D02*
X91950Y137220D01*
X92710Y136460D02*
X92710Y132080D01*
X93536Y131254D01*
X111000Y130300D02*
X111000Y125730D01*
X110046Y131254D02*
X93536Y131254D01*
X110046Y131254D02*
X111000Y130300D01*
X111000Y125730D02*
X111000Y120140D01*
X111760Y119380D01*
X128270Y119380D01*
X130050Y117600D01*
X130050Y113060D01*
X130050Y108710D01*
X150370Y106170D02*
X150370Y101600D01*
X131636Y107124D02*
X130050Y108710D01*
X131636Y107124D02*
X149416Y107124D01*
X150370Y106170D01*
X173990Y140970D02*
X182370Y140970D01*
D30*
X173990Y140970D03*
D31*
X91950Y142750D02*
X91950Y137220D01*
X91950Y142750D02*
X92710Y143510D01*
X100330Y143510D01*
X101600Y142240D01*
D30*
X101600Y142240D03*
X62230Y100330D03*
D31*
X79562Y95250D02*
X87317Y103005D01*
X79562Y95250D02*
X67310Y95250D01*
X62230Y100330D01*
D34*
X328930Y327660D02*
X328930Y360680D01*
X328930Y327660D02*
X321310Y320040D01*
X251460Y320040D01*
X240657Y309237D01*
X328930Y360680D02*
X341328Y373078D01*
X240657Y222893D02*
X243840Y219710D01*
X240657Y222893D02*
X240657Y309237D01*
D30*
X243840Y219710D03*
D31*
X340870Y416560D02*
X340870Y430530D01*
D34*
X340870Y373536D02*
X341328Y373078D01*
X340870Y373536D02*
X340870Y416560D01*
D31*
X92710Y143510D02*
X54610Y143510D01*
X46990Y151130D01*
X46990Y229870D01*
X67310Y250190D01*
X67310Y320040D01*
X62230Y325120D01*
X62230Y342900D01*
X68580Y349250D01*
X85090Y349250D02*
X87630Y351790D01*
X87630Y357630D01*
X85090Y349250D02*
X68580Y349250D01*
X87630Y357630D02*
X102870Y357630D01*
X228133Y337936D02*
X229403Y339206D01*
X228133Y337936D02*
X228133Y193040D01*
X299720Y144780D02*
X302260Y142240D01*
X276393Y144780D02*
X228133Y193040D01*
X276393Y144780D02*
X299720Y144780D01*
X302260Y142240D02*
X308473Y133716D01*
D30*
X74930Y175260D03*
D31*
X74930Y180340D01*
X227943Y193230D02*
X228133Y193040D01*
X87820Y193230D02*
X74930Y180340D01*
X87820Y193230D02*
X227943Y193230D01*
X321310Y135890D02*
X321310Y129540D01*
X321310Y135890D02*
X307340Y149860D01*
X232133Y195164D02*
X232133Y318493D01*
X242103Y328463D01*
X242103Y339206D01*
X232133Y195164D02*
X277437Y149860D01*
D30*
X62230Y175260D03*
D31*
X62230Y170180D01*
X67310Y165100D01*
X110490Y170180D02*
X110490Y176530D01*
X115190Y181230D01*
X105410Y165100D02*
X67310Y165100D01*
X105410Y165100D02*
X110490Y170180D01*
X115190Y181230D02*
X222169Y181230D01*
X293299Y110614D02*
X321310Y129540D01*
X293299Y110614D02*
X279959Y101600D01*
X274638Y101600D01*
X293299Y110614D02*
X287317Y119660D01*
X274638Y101600D02*
X262073Y118352D01*
X264565Y138835D02*
X222169Y181230D01*
X264565Y138835D02*
X262073Y118352D01*
X277437Y149860D02*
X307340Y149860D01*
X191010Y140970D02*
X191010Y163826D01*
X191174Y163990D01*
D30*
X201930Y140970D03*
D31*
X191010Y140970D01*
X103250Y379550D02*
X103250Y399160D01*
X104140Y400050D01*
D30*
X104140Y400050D03*
D31*
X103250Y400940D02*
X103250Y420550D01*
X103250Y400940D02*
X104140Y400050D01*
X103250Y366650D02*
X102870Y366270D01*
X103250Y366650D02*
X103250Y379550D01*
X101600Y102870D02*
X96020Y96278D01*
X101600Y102870D02*
X109220Y110490D01*
X111760Y113030D01*
X121380Y113030D01*
X121410Y113000D01*
D30*
X109220Y110490D03*
D31*
X83820Y115570D02*
X78613Y109732D01*
X93980Y125730D02*
X102360Y125730D01*
X91440Y123190D02*
X83820Y115570D01*
X91440Y123190D02*
X93980Y125730D01*
D30*
X91440Y123190D03*
X204470Y204470D03*
D31*
X207010Y207010D01*
X217863Y207010D01*
X220133Y209280D01*
X220133Y309880D01*
X215053Y314960D01*
X203200Y314960D01*
D30*
X203200Y314960D03*
X227330Y139700D03*
D31*
X227330Y151130D01*
X204470Y173990D01*
D30*
X204470Y173990D03*
X219710Y173990D03*
X247650Y229870D03*
D31*
X254000Y223520D01*
X254000Y203200D01*
D30*
X254000Y203200D03*
D31*
X247650Y121160D02*
X234950Y121160D01*
X234950Y158750D02*
X219710Y173990D01*
X234950Y158750D02*
X234950Y121160D01*
X186970Y83970D02*
X186690Y84250D01*
X186690Y101090D01*
X186970Y83970D02*
X191970Y83970D01*
X221970Y83970D02*
X221970Y100810D01*
X222250Y101090D01*
D34*
X288290Y422910D02*
X310350Y428766D01*
X288290Y422910D02*
X283210Y417830D01*
X283210Y389890D01*
X286718Y386382D01*
X305529Y386382D01*
D30*
X201930Y21590D03*
D31*
X318907Y49164D02*
X319277Y49409D01*
X329485Y56192D01*
X213360Y21590D02*
X201930Y21590D01*
X213360Y21590D02*
X246190Y54420D01*
X298640Y54420D02*
X307340Y45720D01*
X298640Y54420D02*
X246190Y54420D01*
X312286Y45720D02*
X319277Y49409D01*
X312286Y45720D02*
X307340Y45720D01*
D30*
X201930Y30480D03*
D31*
X340063Y63220D02*
X340103Y63246D01*
X350641Y70248D01*
X340103Y63757D02*
X340103Y63246D01*
X215900Y30480D02*
X201930Y30480D01*
X215900Y30480D02*
X243840Y58420D01*
X307340Y58420D01*
X328533Y72549D01*
X335280Y69850D01*
X340103Y63757D01*
X170370Y420757D02*
X158265Y432862D01*
X204003Y339206D02*
X204003Y329923D01*
X201930Y327850D01*
X174377Y327850D01*
X170370Y331857D01*
X170370Y420757D01*
X158265Y432862D02*
X137468Y432862D01*
X137612Y433005D02*
X137612Y473862D01*
X137612Y433005D02*
X137468Y432862D01*
X110490Y96520D02*
X104724Y89552D01*
X110490Y96520D02*
X114300Y100330D01*
X115570Y101600D01*
X141730Y101600D01*
D30*
X114300Y100330D03*
X190500Y356870D03*
D31*
X293673Y373683D02*
X305374Y373683D01*
X258304Y364984D02*
X250190Y356870D01*
X190500Y356870D01*
X284974Y364984D02*
X293673Y373683D01*
X284974Y364984D02*
X258304Y364984D01*
X332230Y423670D02*
X332230Y430530D01*
X332230Y423670D02*
X330644Y422084D01*
X328485Y422084D01*
X322580Y416180D01*
X322580Y375920D02*
X320040Y373380D01*
X305677Y373380D01*
X305374Y373683D01*
X322580Y375920D02*
X322580Y416180D01*
D30*
X163830Y173990D03*
D31*
X254000Y354330D02*
X260654Y360984D01*
X254000Y334010D02*
X236133Y316143D01*
X260654Y360984D02*
X305219Y360984D01*
X254000Y354330D02*
X254000Y334010D01*
X236133Y316143D02*
X236133Y213447D01*
X243840Y205740D01*
D30*
X243840Y205740D03*
D31*
X305523Y360680D02*
X317500Y360680D01*
X305523Y360680D02*
X305219Y360984D01*
X328617Y416560D02*
X332230Y416560D01*
X328617Y416560D02*
X326580Y414523D01*
X326580Y369760D02*
X317500Y360680D01*
X326580Y369760D02*
X326580Y414523D01*
X86870Y302260D02*
X86870Y295400D01*
X92710Y289560D01*
D30*
X92710Y289560D03*
D31*
X77980Y282310D02*
X77980Y302010D01*
X78230Y302260D01*
D30*
X341630Y147320D03*
D31*
X352940Y147320D01*
X353060Y147200D01*
D30*
X335280Y77470D03*
D31*
X335280Y124460D01*
X340480Y129660D02*
X353060Y129660D01*
X340480Y129660D02*
X335280Y124460D01*
D30*
X295910Y40640D03*
X289560Y46990D03*
D31*
X247650Y104140D02*
X247650Y112520D01*
D30*
X247650Y104140D03*
X287020Y31750D03*
M02*
