G04 EAGLE Gerber RS-274X export*
G75*
%MOMM*%
%FSLAX34Y34*%
%LPD*%
%IN*%
%IPPOS*%
%AMOC8*
5,1,8,0,0,1.08239X$1,22.5*%
G01*
%ADD10C,0.254000*%


D10*
X-24130Y160020D02*
X-21614Y154039D01*
X-12151Y134699D01*
X-1040Y116257D01*
X11637Y98854D01*
X25783Y82622D01*
X41289Y67684D01*
X58039Y54155D01*
X75903Y42137D01*
X94747Y31722D01*
X114428Y22989D01*
X134794Y16004D01*
X155692Y10821D01*
X176962Y7479D01*
X198442Y6004D01*
X219969Y6406D01*
X241379Y8683D01*
X262509Y12818D01*
X283199Y18778D01*
X303290Y26519D01*
X322630Y35981D01*
X341072Y47093D01*
X358475Y59770D01*
X374707Y73915D01*
X389645Y89422D01*
X403174Y106171D01*
X415192Y124036D01*
X425607Y142880D01*
X434340Y162560D01*
X345440Y162560D01*
X345440Y340360D01*
X434340Y340360D01*
X429643Y351789D01*
X420154Y371003D01*
X409027Y389317D01*
X396345Y406592D01*
X382207Y422695D01*
X366719Y437505D01*
X349998Y450909D01*
X332174Y462804D01*
X313380Y473101D01*
X293761Y481720D01*
X273464Y488597D01*
X252646Y493679D01*
X231464Y496927D01*
X210080Y498316D01*
X188656Y497837D01*
X167355Y495492D01*
X146340Y491299D01*
X125770Y485291D01*
X105802Y477513D01*
X86587Y468024D01*
X68273Y456896D01*
X50999Y444215D01*
X34895Y430076D01*
X20085Y414588D01*
X6682Y397868D01*
X-5214Y380043D01*
X-15510Y361250D01*
X-24130Y341630D01*
X41910Y341630D01*
X41910Y160020D01*
X-24130Y160020D01*
X244420Y30020D02*
X244432Y29737D01*
X244469Y29456D01*
X244531Y29179D01*
X244616Y28908D01*
X244725Y28647D01*
X244855Y28395D01*
X245008Y28156D01*
X245180Y27931D01*
X245372Y27722D01*
X245581Y27530D01*
X245806Y27358D01*
X246045Y27205D01*
X246297Y27075D01*
X246558Y26966D01*
X246829Y26881D01*
X247106Y26819D01*
X247387Y26782D01*
X247670Y26770D01*
X247953Y26782D01*
X248234Y26819D01*
X248511Y26881D01*
X248782Y26966D01*
X249044Y27075D01*
X249295Y27205D01*
X249534Y27358D01*
X249759Y27530D01*
X249968Y27722D01*
X250160Y27931D01*
X250332Y28156D01*
X250485Y28395D01*
X250616Y28647D01*
X250724Y28908D01*
X250809Y29179D01*
X250871Y29456D01*
X250908Y29737D01*
X250920Y30020D01*
X250920Y36020D01*
X250908Y36303D01*
X250871Y36584D01*
X250809Y36861D01*
X250724Y37132D01*
X250616Y37394D01*
X250485Y37645D01*
X250332Y37884D01*
X250160Y38109D01*
X249968Y38318D01*
X249759Y38510D01*
X249534Y38682D01*
X249295Y38835D01*
X249044Y38966D01*
X248782Y39074D01*
X248511Y39159D01*
X248234Y39221D01*
X247953Y39258D01*
X247670Y39270D01*
X247387Y39258D01*
X247106Y39221D01*
X246829Y39159D01*
X246558Y39074D01*
X246297Y38966D01*
X246045Y38835D01*
X245806Y38682D01*
X245581Y38510D01*
X245372Y38318D01*
X245180Y38109D01*
X245008Y37884D01*
X244855Y37645D01*
X244725Y37394D01*
X244616Y37132D01*
X244531Y36861D01*
X244469Y36584D01*
X244432Y36303D01*
X244420Y36020D01*
X244420Y30020D01*
X158020Y30020D02*
X158032Y29737D01*
X158069Y29456D01*
X158131Y29179D01*
X158216Y28908D01*
X158325Y28647D01*
X158455Y28395D01*
X158608Y28156D01*
X158780Y27931D01*
X158972Y27722D01*
X159181Y27530D01*
X159406Y27358D01*
X159645Y27205D01*
X159897Y27075D01*
X160158Y26966D01*
X160429Y26881D01*
X160706Y26819D01*
X160987Y26782D01*
X161270Y26770D01*
X161553Y26782D01*
X161834Y26819D01*
X162111Y26881D01*
X162382Y26966D01*
X162644Y27075D01*
X162895Y27205D01*
X163134Y27358D01*
X163359Y27530D01*
X163568Y27722D01*
X163760Y27931D01*
X163932Y28156D01*
X164085Y28395D01*
X164216Y28647D01*
X164324Y28908D01*
X164409Y29179D01*
X164471Y29456D01*
X164508Y29737D01*
X164520Y30020D01*
X164520Y36020D01*
X164508Y36303D01*
X164471Y36584D01*
X164409Y36861D01*
X164324Y37132D01*
X164216Y37394D01*
X164085Y37645D01*
X163932Y37884D01*
X163760Y38109D01*
X163568Y38318D01*
X163359Y38510D01*
X163134Y38682D01*
X162895Y38835D01*
X162644Y38966D01*
X162382Y39074D01*
X162111Y39159D01*
X161834Y39221D01*
X161553Y39258D01*
X161270Y39270D01*
X160987Y39258D01*
X160706Y39221D01*
X160429Y39159D01*
X160158Y39074D01*
X159897Y38966D01*
X159645Y38835D01*
X159406Y38682D01*
X159181Y38510D01*
X158972Y38318D01*
X158780Y38109D01*
X158608Y37884D01*
X158455Y37645D01*
X158325Y37394D01*
X158216Y37132D01*
X158131Y36861D01*
X158069Y36584D01*
X158032Y36303D01*
X158020Y36020D01*
X158020Y30020D01*
X244420Y69320D02*
X244432Y69037D01*
X244469Y68756D01*
X244531Y68479D01*
X244616Y68208D01*
X244725Y67947D01*
X244855Y67695D01*
X245008Y67456D01*
X245180Y67231D01*
X245372Y67022D01*
X245581Y66830D01*
X245806Y66658D01*
X246045Y66505D01*
X246297Y66375D01*
X246558Y66266D01*
X246829Y66181D01*
X247106Y66119D01*
X247387Y66082D01*
X247670Y66070D01*
X247953Y66082D01*
X248234Y66119D01*
X248511Y66181D01*
X248782Y66266D01*
X249044Y66375D01*
X249295Y66505D01*
X249534Y66658D01*
X249759Y66830D01*
X249968Y67022D01*
X250160Y67231D01*
X250332Y67456D01*
X250485Y67695D01*
X250616Y67947D01*
X250724Y68208D01*
X250809Y68479D01*
X250871Y68756D01*
X250908Y69037D01*
X250920Y69320D01*
X250920Y80320D01*
X250908Y80603D01*
X250871Y80884D01*
X250809Y81161D01*
X250724Y81432D01*
X250616Y81694D01*
X250485Y81945D01*
X250332Y82184D01*
X250160Y82409D01*
X249968Y82618D01*
X249759Y82810D01*
X249534Y82982D01*
X249295Y83135D01*
X249044Y83266D01*
X248782Y83374D01*
X248511Y83459D01*
X248234Y83521D01*
X247953Y83558D01*
X247670Y83570D01*
X247387Y83558D01*
X247106Y83521D01*
X246829Y83459D01*
X246558Y83374D01*
X246297Y83266D01*
X246045Y83135D01*
X245806Y82982D01*
X245581Y82810D01*
X245372Y82618D01*
X245180Y82409D01*
X245008Y82184D01*
X244855Y81945D01*
X244725Y81694D01*
X244616Y81432D01*
X244531Y81161D01*
X244469Y80884D01*
X244432Y80603D01*
X244420Y80320D01*
X244420Y69320D01*
X158020Y69320D02*
X158032Y69037D01*
X158069Y68756D01*
X158131Y68479D01*
X158216Y68208D01*
X158325Y67947D01*
X158455Y67695D01*
X158608Y67456D01*
X158780Y67231D01*
X158972Y67022D01*
X159181Y66830D01*
X159406Y66658D01*
X159645Y66505D01*
X159897Y66375D01*
X160158Y66266D01*
X160429Y66181D01*
X160706Y66119D01*
X160987Y66082D01*
X161270Y66070D01*
X161553Y66082D01*
X161834Y66119D01*
X162111Y66181D01*
X162382Y66266D01*
X162644Y66375D01*
X162895Y66505D01*
X163134Y66658D01*
X163359Y66830D01*
X163568Y67022D01*
X163760Y67231D01*
X163932Y67456D01*
X164085Y67695D01*
X164216Y67947D01*
X164324Y68208D01*
X164409Y68479D01*
X164471Y68756D01*
X164508Y69037D01*
X164520Y69320D01*
X164520Y80320D01*
X164508Y80603D01*
X164471Y80884D01*
X164409Y81161D01*
X164324Y81432D01*
X164216Y81694D01*
X164085Y81945D01*
X163932Y82184D01*
X163760Y82409D01*
X163568Y82618D01*
X163359Y82810D01*
X163134Y82982D01*
X162895Y83135D01*
X162644Y83266D01*
X162382Y83374D01*
X162111Y83459D01*
X161834Y83521D01*
X161553Y83558D01*
X161270Y83570D01*
X160987Y83558D01*
X160706Y83521D01*
X160429Y83459D01*
X160158Y83374D01*
X159897Y83266D01*
X159645Y83135D01*
X159406Y82982D01*
X159181Y82810D01*
X158972Y82618D01*
X158780Y82409D01*
X158608Y82184D01*
X158455Y81945D01*
X158325Y81694D01*
X158216Y81432D01*
X158131Y81161D01*
X158069Y80884D01*
X158032Y80603D01*
X158020Y80320D01*
X158020Y69320D01*
X179070Y69291D02*
X179010Y68836D01*
X178891Y68393D01*
X178716Y67969D01*
X178486Y67571D01*
X178207Y67207D01*
X177883Y66883D01*
X177519Y66604D01*
X177121Y66374D01*
X176697Y66199D01*
X176254Y66080D01*
X175799Y66020D01*
X175341Y66020D01*
X174886Y66080D01*
X174443Y66199D01*
X174019Y66374D01*
X173621Y66604D01*
X173257Y66883D01*
X172933Y67207D01*
X172654Y67571D01*
X172424Y67969D01*
X172249Y68393D01*
X172130Y68836D01*
X172070Y69291D01*
X172070Y69749D01*
X172130Y70204D01*
X172249Y70647D01*
X172424Y71071D01*
X172654Y71469D01*
X172933Y71833D01*
X173257Y72157D01*
X173621Y72436D01*
X174019Y72666D01*
X174443Y72841D01*
X174886Y72960D01*
X175341Y73020D01*
X175799Y73020D01*
X176254Y72960D01*
X176697Y72841D01*
X177121Y72666D01*
X177519Y72436D01*
X177883Y72157D01*
X178207Y71833D01*
X178486Y71469D01*
X178716Y71071D01*
X178891Y70647D01*
X179010Y70204D01*
X179070Y69749D01*
X179070Y69291D01*
X236870Y69291D02*
X236810Y68836D01*
X236691Y68393D01*
X236516Y67969D01*
X236286Y67571D01*
X236007Y67207D01*
X235683Y66883D01*
X235319Y66604D01*
X234921Y66374D01*
X234497Y66199D01*
X234054Y66080D01*
X233599Y66020D01*
X233141Y66020D01*
X232686Y66080D01*
X232243Y66199D01*
X231819Y66374D01*
X231421Y66604D01*
X231057Y66883D01*
X230733Y67207D01*
X230454Y67571D01*
X230224Y67969D01*
X230049Y68393D01*
X229930Y68836D01*
X229870Y69291D01*
X229870Y69749D01*
X229930Y70204D01*
X230049Y70647D01*
X230224Y71071D01*
X230454Y71469D01*
X230733Y71833D01*
X231057Y72157D01*
X231421Y72436D01*
X231819Y72666D01*
X232243Y72841D01*
X232686Y72960D01*
X233141Y73020D01*
X233599Y73020D01*
X234054Y72960D01*
X234497Y72841D01*
X234921Y72666D01*
X235319Y72436D01*
X235683Y72157D01*
X236007Y71833D01*
X236286Y71469D01*
X236516Y71071D01*
X236691Y70647D01*
X236810Y70204D01*
X236870Y69749D01*
X236870Y69291D01*
M02*
