G04 EAGLE Gerber RS-274X export*
G75*
%MOMM*%
%FSLAX34Y34*%
%LPD*%
%INSilkscreen Bottom*%
%IPPOS*%
%AMOC8*
5,1,8,0,0,1.08239X$1,22.5*%
G01*
%ADD10C,0.152400*%
%ADD11C,0.127000*%
%ADD12C,0.203200*%
%ADD13C,0.400000*%
%ADD14C,0.254000*%
%ADD15C,0.300000*%
%ADD16C,0.101600*%
%ADD17C,0.076200*%


D10*
X217543Y70612D02*
X217543Y77216D01*
X215708Y77216D01*
X215623Y77214D01*
X215539Y77208D01*
X215455Y77198D01*
X215371Y77185D01*
X215288Y77167D01*
X215206Y77146D01*
X215125Y77121D01*
X215045Y77092D01*
X214967Y77060D01*
X214891Y77024D01*
X214816Y76984D01*
X214743Y76941D01*
X214672Y76895D01*
X214603Y76846D01*
X214536Y76793D01*
X214472Y76737D01*
X214411Y76679D01*
X214353Y76618D01*
X214297Y76554D01*
X214244Y76487D01*
X214195Y76418D01*
X214149Y76347D01*
X214106Y76274D01*
X214066Y76199D01*
X214030Y76123D01*
X213998Y76045D01*
X213969Y75965D01*
X213944Y75884D01*
X213923Y75802D01*
X213905Y75719D01*
X213892Y75635D01*
X213882Y75551D01*
X213876Y75467D01*
X213874Y75382D01*
X213876Y75297D01*
X213882Y75213D01*
X213892Y75129D01*
X213905Y75045D01*
X213923Y74962D01*
X213944Y74880D01*
X213969Y74799D01*
X213998Y74719D01*
X214030Y74641D01*
X214066Y74565D01*
X214106Y74490D01*
X214149Y74417D01*
X214195Y74346D01*
X214244Y74277D01*
X214297Y74210D01*
X214353Y74146D01*
X214411Y74085D01*
X214472Y74027D01*
X214536Y73971D01*
X214603Y73918D01*
X214672Y73869D01*
X214743Y73823D01*
X214816Y73780D01*
X214891Y73740D01*
X214967Y73704D01*
X215045Y73672D01*
X215125Y73643D01*
X215206Y73618D01*
X215288Y73597D01*
X215371Y73579D01*
X215455Y73566D01*
X215539Y73556D01*
X215623Y73550D01*
X215708Y73548D01*
X215708Y73547D02*
X217543Y73547D01*
X215341Y73547D02*
X213874Y70612D01*
X210306Y75748D02*
X208472Y77216D01*
X208472Y70612D01*
X210306Y70612D02*
X206637Y70612D01*
X195953Y70612D02*
X195953Y77216D01*
X194118Y77216D01*
X194033Y77214D01*
X193949Y77208D01*
X193865Y77198D01*
X193781Y77185D01*
X193698Y77167D01*
X193616Y77146D01*
X193535Y77121D01*
X193455Y77092D01*
X193377Y77060D01*
X193301Y77024D01*
X193226Y76984D01*
X193153Y76941D01*
X193082Y76895D01*
X193013Y76846D01*
X192946Y76793D01*
X192882Y76737D01*
X192821Y76679D01*
X192763Y76618D01*
X192707Y76554D01*
X192654Y76487D01*
X192605Y76418D01*
X192559Y76347D01*
X192516Y76274D01*
X192476Y76199D01*
X192440Y76123D01*
X192408Y76045D01*
X192379Y75965D01*
X192354Y75884D01*
X192333Y75802D01*
X192315Y75719D01*
X192302Y75635D01*
X192292Y75551D01*
X192286Y75467D01*
X192284Y75382D01*
X192286Y75297D01*
X192292Y75213D01*
X192302Y75129D01*
X192315Y75045D01*
X192333Y74962D01*
X192354Y74880D01*
X192379Y74799D01*
X192408Y74719D01*
X192440Y74641D01*
X192476Y74565D01*
X192516Y74490D01*
X192559Y74417D01*
X192605Y74346D01*
X192654Y74277D01*
X192707Y74210D01*
X192763Y74146D01*
X192821Y74085D01*
X192882Y74027D01*
X192946Y73971D01*
X193013Y73918D01*
X193082Y73869D01*
X193153Y73823D01*
X193226Y73780D01*
X193301Y73740D01*
X193377Y73704D01*
X193455Y73672D01*
X193535Y73643D01*
X193616Y73618D01*
X193698Y73597D01*
X193781Y73579D01*
X193865Y73566D01*
X193949Y73556D01*
X194033Y73550D01*
X194118Y73548D01*
X194118Y73547D02*
X195953Y73547D01*
X193751Y73547D02*
X192284Y70612D01*
X186698Y77216D02*
X186619Y77214D01*
X186541Y77209D01*
X186463Y77199D01*
X186386Y77186D01*
X186309Y77169D01*
X186233Y77149D01*
X186158Y77125D01*
X186084Y77098D01*
X186012Y77067D01*
X185941Y77032D01*
X185873Y76995D01*
X185805Y76954D01*
X185740Y76910D01*
X185677Y76863D01*
X185617Y76813D01*
X185559Y76760D01*
X185503Y76704D01*
X185450Y76646D01*
X185400Y76586D01*
X185353Y76523D01*
X185309Y76458D01*
X185268Y76391D01*
X185231Y76322D01*
X185196Y76251D01*
X185165Y76179D01*
X185138Y76105D01*
X185114Y76030D01*
X185094Y75954D01*
X185077Y75877D01*
X185064Y75800D01*
X185054Y75722D01*
X185049Y75644D01*
X185047Y75565D01*
X186698Y77216D02*
X186787Y77214D01*
X186876Y77209D01*
X186964Y77199D01*
X187052Y77186D01*
X187139Y77170D01*
X187226Y77149D01*
X187311Y77125D01*
X187396Y77098D01*
X187479Y77067D01*
X187561Y77032D01*
X187642Y76994D01*
X187721Y76953D01*
X187797Y76909D01*
X187873Y76861D01*
X187946Y76810D01*
X188016Y76757D01*
X188085Y76700D01*
X188151Y76640D01*
X188214Y76578D01*
X188275Y76513D01*
X188333Y76446D01*
X188388Y76376D01*
X188441Y76304D01*
X188490Y76230D01*
X188536Y76154D01*
X188578Y76076D01*
X188618Y75996D01*
X188654Y75915D01*
X188687Y75832D01*
X188716Y75748D01*
X185598Y74281D02*
X185542Y74337D01*
X185488Y74396D01*
X185437Y74457D01*
X185388Y74521D01*
X185343Y74586D01*
X185300Y74654D01*
X185261Y74723D01*
X185224Y74794D01*
X185191Y74867D01*
X185162Y74941D01*
X185135Y75016D01*
X185112Y75092D01*
X185093Y75170D01*
X185077Y75248D01*
X185064Y75326D01*
X185055Y75406D01*
X185050Y75485D01*
X185048Y75565D01*
X185598Y74281D02*
X188716Y70612D01*
X185047Y70612D01*
D11*
X36830Y340360D02*
X-23170Y340360D01*
X-23170Y160360D01*
X36830Y160360D01*
X289130Y160360D02*
X289130Y340360D01*
X283830Y340360D01*
X283830Y160360D02*
X289130Y160360D01*
X36830Y314960D02*
X-1270Y314960D01*
X-1270Y289560D01*
X36830Y289560D01*
X36830Y264160D01*
X-1270Y264160D01*
X-1270Y238760D01*
X36830Y238760D01*
X36830Y213360D01*
X-1270Y213360D01*
X-1270Y187960D01*
X-1270Y175260D01*
X36830Y175260D01*
X36830Y187960D02*
X-1270Y187960D01*
D12*
X189200Y18770D02*
X217200Y18770D01*
X217200Y47270D02*
X189200Y47270D01*
D13*
X220700Y48520D03*
D12*
X281456Y137160D02*
X290044Y137160D01*
X290044Y111760D02*
X281456Y111760D01*
X292838Y121776D02*
X292838Y127144D01*
D14*
X275590Y108458D03*
D10*
X313115Y141732D02*
X314583Y141732D01*
X314657Y141734D01*
X314732Y141740D01*
X314805Y141749D01*
X314879Y141762D01*
X314951Y141779D01*
X315022Y141799D01*
X315093Y141823D01*
X315162Y141851D01*
X315230Y141882D01*
X315295Y141916D01*
X315360Y141954D01*
X315422Y141995D01*
X315482Y142039D01*
X315539Y142086D01*
X315594Y142136D01*
X315647Y142189D01*
X315697Y142244D01*
X315744Y142301D01*
X315788Y142361D01*
X315829Y142423D01*
X315867Y142488D01*
X315901Y142554D01*
X315932Y142621D01*
X315960Y142690D01*
X315984Y142761D01*
X316004Y142832D01*
X316021Y142905D01*
X316034Y142978D01*
X316043Y143052D01*
X316049Y143126D01*
X316051Y143200D01*
X316050Y143200D02*
X316050Y146868D01*
X316051Y146868D02*
X316049Y146942D01*
X316043Y147017D01*
X316034Y147090D01*
X316021Y147163D01*
X316004Y147236D01*
X315984Y147307D01*
X315960Y147378D01*
X315932Y147447D01*
X315901Y147514D01*
X315867Y147580D01*
X315829Y147645D01*
X315788Y147707D01*
X315744Y147767D01*
X315697Y147824D01*
X315647Y147879D01*
X315594Y147932D01*
X315539Y147982D01*
X315482Y148029D01*
X315422Y148073D01*
X315360Y148114D01*
X315295Y148152D01*
X315230Y148186D01*
X315162Y148217D01*
X315093Y148245D01*
X315023Y148269D01*
X314951Y148289D01*
X314879Y148306D01*
X314805Y148319D01*
X314732Y148328D01*
X314657Y148334D01*
X314583Y148336D01*
X313115Y148336D01*
X309919Y146868D02*
X308084Y148336D01*
X308084Y141732D01*
X306250Y141732D02*
X309919Y141732D01*
X259973Y140462D02*
X258505Y140462D01*
X259973Y140462D02*
X260047Y140464D01*
X260122Y140470D01*
X260195Y140479D01*
X260269Y140492D01*
X260341Y140509D01*
X260412Y140529D01*
X260483Y140553D01*
X260552Y140581D01*
X260620Y140612D01*
X260685Y140646D01*
X260750Y140684D01*
X260812Y140725D01*
X260872Y140769D01*
X260929Y140816D01*
X260984Y140866D01*
X261037Y140919D01*
X261087Y140974D01*
X261134Y141031D01*
X261178Y141091D01*
X261219Y141153D01*
X261257Y141218D01*
X261291Y141284D01*
X261322Y141351D01*
X261350Y141420D01*
X261374Y141491D01*
X261394Y141562D01*
X261411Y141635D01*
X261424Y141708D01*
X261433Y141782D01*
X261439Y141856D01*
X261441Y141930D01*
X261440Y141930D02*
X261440Y145598D01*
X261441Y145598D02*
X261439Y145672D01*
X261433Y145747D01*
X261424Y145820D01*
X261411Y145893D01*
X261394Y145966D01*
X261374Y146037D01*
X261350Y146108D01*
X261322Y146177D01*
X261291Y146244D01*
X261257Y146310D01*
X261219Y146375D01*
X261178Y146437D01*
X261134Y146497D01*
X261087Y146554D01*
X261037Y146609D01*
X260984Y146662D01*
X260929Y146712D01*
X260872Y146759D01*
X260812Y146803D01*
X260750Y146844D01*
X260685Y146882D01*
X260620Y146916D01*
X260552Y146947D01*
X260483Y146975D01*
X260413Y146999D01*
X260341Y147019D01*
X260269Y147036D01*
X260195Y147049D01*
X260122Y147058D01*
X260047Y147064D01*
X259973Y147066D01*
X258505Y147066D01*
X253291Y147066D02*
X253212Y147064D01*
X253134Y147059D01*
X253056Y147049D01*
X252979Y147036D01*
X252902Y147019D01*
X252826Y146999D01*
X252751Y146975D01*
X252677Y146948D01*
X252605Y146917D01*
X252534Y146882D01*
X252466Y146845D01*
X252398Y146804D01*
X252333Y146760D01*
X252270Y146713D01*
X252210Y146663D01*
X252152Y146610D01*
X252096Y146554D01*
X252043Y146496D01*
X251993Y146436D01*
X251946Y146373D01*
X251902Y146308D01*
X251861Y146241D01*
X251824Y146172D01*
X251789Y146101D01*
X251758Y146029D01*
X251731Y145955D01*
X251707Y145880D01*
X251687Y145804D01*
X251670Y145727D01*
X251657Y145650D01*
X251647Y145572D01*
X251642Y145494D01*
X251640Y145415D01*
X253291Y147066D02*
X253380Y147064D01*
X253469Y147059D01*
X253557Y147049D01*
X253645Y147036D01*
X253732Y147020D01*
X253819Y146999D01*
X253904Y146975D01*
X253989Y146948D01*
X254072Y146917D01*
X254154Y146882D01*
X254235Y146844D01*
X254314Y146803D01*
X254390Y146759D01*
X254466Y146711D01*
X254539Y146660D01*
X254609Y146607D01*
X254678Y146550D01*
X254744Y146490D01*
X254807Y146428D01*
X254868Y146363D01*
X254926Y146296D01*
X254981Y146226D01*
X255034Y146154D01*
X255083Y146080D01*
X255129Y146004D01*
X255171Y145926D01*
X255211Y145846D01*
X255247Y145765D01*
X255280Y145682D01*
X255309Y145598D01*
X252190Y144131D02*
X252134Y144187D01*
X252080Y144246D01*
X252029Y144307D01*
X251980Y144371D01*
X251935Y144436D01*
X251892Y144504D01*
X251853Y144573D01*
X251816Y144644D01*
X251783Y144717D01*
X251754Y144791D01*
X251727Y144866D01*
X251704Y144942D01*
X251685Y145020D01*
X251669Y145098D01*
X251656Y145176D01*
X251647Y145256D01*
X251642Y145335D01*
X251640Y145415D01*
X252190Y144131D02*
X255309Y140462D01*
X251640Y140462D01*
X174883Y96012D02*
X173415Y96012D01*
X174883Y96012D02*
X174957Y96014D01*
X175032Y96020D01*
X175105Y96029D01*
X175179Y96042D01*
X175251Y96059D01*
X175322Y96079D01*
X175393Y96103D01*
X175462Y96131D01*
X175530Y96162D01*
X175595Y96196D01*
X175660Y96234D01*
X175722Y96275D01*
X175782Y96319D01*
X175839Y96366D01*
X175894Y96416D01*
X175947Y96469D01*
X175997Y96524D01*
X176044Y96581D01*
X176088Y96641D01*
X176129Y96703D01*
X176167Y96768D01*
X176201Y96834D01*
X176232Y96901D01*
X176260Y96970D01*
X176284Y97041D01*
X176304Y97112D01*
X176321Y97185D01*
X176334Y97258D01*
X176343Y97332D01*
X176349Y97406D01*
X176351Y97480D01*
X176350Y97480D02*
X176350Y101148D01*
X176351Y101148D02*
X176349Y101222D01*
X176343Y101297D01*
X176334Y101370D01*
X176321Y101443D01*
X176304Y101516D01*
X176284Y101587D01*
X176260Y101658D01*
X176232Y101727D01*
X176201Y101794D01*
X176167Y101860D01*
X176129Y101925D01*
X176088Y101987D01*
X176044Y102047D01*
X175997Y102104D01*
X175947Y102159D01*
X175894Y102212D01*
X175839Y102262D01*
X175782Y102309D01*
X175722Y102353D01*
X175660Y102394D01*
X175595Y102432D01*
X175530Y102466D01*
X175462Y102497D01*
X175393Y102525D01*
X175323Y102549D01*
X175251Y102569D01*
X175179Y102586D01*
X175105Y102599D01*
X175032Y102608D01*
X174957Y102614D01*
X174883Y102616D01*
X173415Y102616D01*
X170219Y96012D02*
X168384Y96012D01*
X168299Y96014D01*
X168215Y96020D01*
X168131Y96030D01*
X168047Y96043D01*
X167964Y96061D01*
X167882Y96082D01*
X167801Y96107D01*
X167721Y96136D01*
X167643Y96168D01*
X167567Y96204D01*
X167492Y96244D01*
X167419Y96287D01*
X167348Y96333D01*
X167279Y96382D01*
X167212Y96435D01*
X167148Y96491D01*
X167087Y96549D01*
X167029Y96610D01*
X166973Y96674D01*
X166920Y96741D01*
X166871Y96810D01*
X166825Y96881D01*
X166782Y96954D01*
X166742Y97029D01*
X166706Y97105D01*
X166674Y97183D01*
X166645Y97263D01*
X166620Y97344D01*
X166599Y97426D01*
X166581Y97509D01*
X166568Y97593D01*
X166558Y97677D01*
X166552Y97761D01*
X166550Y97846D01*
X166552Y97931D01*
X166558Y98015D01*
X166568Y98099D01*
X166581Y98183D01*
X166599Y98266D01*
X166620Y98348D01*
X166645Y98429D01*
X166674Y98509D01*
X166706Y98587D01*
X166742Y98663D01*
X166782Y98738D01*
X166825Y98811D01*
X166871Y98882D01*
X166920Y98951D01*
X166973Y99018D01*
X167029Y99082D01*
X167087Y99143D01*
X167148Y99201D01*
X167212Y99257D01*
X167279Y99310D01*
X167348Y99359D01*
X167419Y99405D01*
X167492Y99448D01*
X167567Y99488D01*
X167643Y99524D01*
X167721Y99556D01*
X167801Y99585D01*
X167882Y99610D01*
X167964Y99631D01*
X168047Y99649D01*
X168131Y99662D01*
X168215Y99672D01*
X168299Y99678D01*
X168384Y99680D01*
X168017Y102616D02*
X170219Y102616D01*
X168017Y102616D02*
X167941Y102614D01*
X167866Y102608D01*
X167791Y102599D01*
X167717Y102585D01*
X167643Y102568D01*
X167571Y102546D01*
X167499Y102522D01*
X167429Y102493D01*
X167361Y102461D01*
X167294Y102426D01*
X167229Y102387D01*
X167166Y102344D01*
X167106Y102299D01*
X167048Y102251D01*
X166992Y102199D01*
X166940Y102145D01*
X166890Y102088D01*
X166843Y102029D01*
X166799Y101968D01*
X166758Y101904D01*
X166721Y101838D01*
X166687Y101770D01*
X166657Y101701D01*
X166630Y101630D01*
X166607Y101558D01*
X166588Y101485D01*
X166573Y101411D01*
X166561Y101336D01*
X166553Y101261D01*
X166549Y101186D01*
X166549Y101110D01*
X166553Y101035D01*
X166561Y100960D01*
X166573Y100885D01*
X166588Y100811D01*
X166607Y100738D01*
X166630Y100666D01*
X166657Y100595D01*
X166687Y100526D01*
X166721Y100458D01*
X166758Y100392D01*
X166799Y100328D01*
X166843Y100267D01*
X166890Y100208D01*
X166940Y100151D01*
X166992Y100097D01*
X167048Y100045D01*
X167106Y99997D01*
X167166Y99952D01*
X167229Y99909D01*
X167294Y99870D01*
X167361Y99835D01*
X167429Y99803D01*
X167499Y99774D01*
X167571Y99750D01*
X167643Y99728D01*
X167717Y99711D01*
X167791Y99697D01*
X167866Y99688D01*
X167941Y99682D01*
X168017Y99680D01*
X168017Y99681D02*
X169485Y99681D01*
X173415Y113792D02*
X174883Y113792D01*
X174957Y113794D01*
X175032Y113800D01*
X175105Y113809D01*
X175179Y113822D01*
X175251Y113839D01*
X175322Y113859D01*
X175393Y113883D01*
X175462Y113911D01*
X175530Y113942D01*
X175595Y113976D01*
X175660Y114014D01*
X175722Y114055D01*
X175782Y114099D01*
X175839Y114146D01*
X175894Y114196D01*
X175947Y114249D01*
X175997Y114304D01*
X176044Y114361D01*
X176088Y114421D01*
X176129Y114483D01*
X176167Y114548D01*
X176201Y114614D01*
X176232Y114681D01*
X176260Y114750D01*
X176284Y114821D01*
X176304Y114892D01*
X176321Y114965D01*
X176334Y115038D01*
X176343Y115112D01*
X176349Y115186D01*
X176351Y115260D01*
X176350Y115260D02*
X176350Y118928D01*
X176351Y118928D02*
X176349Y119002D01*
X176343Y119077D01*
X176334Y119150D01*
X176321Y119223D01*
X176304Y119296D01*
X176284Y119367D01*
X176260Y119438D01*
X176232Y119507D01*
X176201Y119574D01*
X176167Y119640D01*
X176129Y119705D01*
X176088Y119767D01*
X176044Y119827D01*
X175997Y119884D01*
X175947Y119939D01*
X175894Y119992D01*
X175839Y120042D01*
X175782Y120089D01*
X175722Y120133D01*
X175660Y120174D01*
X175595Y120212D01*
X175530Y120246D01*
X175462Y120277D01*
X175393Y120305D01*
X175323Y120329D01*
X175251Y120349D01*
X175179Y120366D01*
X175105Y120379D01*
X175032Y120388D01*
X174957Y120394D01*
X174883Y120396D01*
X173415Y120396D01*
X168751Y120396D02*
X170219Y115260D01*
X166550Y115260D01*
X167650Y116727D02*
X167650Y113792D01*
D15*
X286480Y103600D02*
X286480Y99600D01*
D16*
X304038Y95845D02*
X311150Y95845D01*
X311150Y97820D01*
X311148Y97906D01*
X311142Y97992D01*
X311133Y98078D01*
X311120Y98163D01*
X311103Y98248D01*
X311083Y98331D01*
X311059Y98414D01*
X311031Y98496D01*
X311000Y98576D01*
X310965Y98655D01*
X310927Y98732D01*
X310885Y98808D01*
X310841Y98882D01*
X310793Y98953D01*
X310742Y99023D01*
X310688Y99090D01*
X310631Y99155D01*
X310571Y99217D01*
X310509Y99277D01*
X310444Y99334D01*
X310377Y99388D01*
X310307Y99439D01*
X310236Y99487D01*
X310162Y99531D01*
X310086Y99573D01*
X310009Y99611D01*
X309930Y99646D01*
X309850Y99677D01*
X309768Y99705D01*
X309685Y99729D01*
X309602Y99749D01*
X309517Y99766D01*
X309432Y99779D01*
X309346Y99788D01*
X309260Y99794D01*
X309174Y99796D01*
X306014Y99796D01*
X305928Y99794D01*
X305842Y99788D01*
X305756Y99779D01*
X305671Y99766D01*
X305586Y99749D01*
X305503Y99729D01*
X305420Y99705D01*
X305338Y99677D01*
X305258Y99646D01*
X305179Y99611D01*
X305102Y99573D01*
X305026Y99531D01*
X304952Y99487D01*
X304881Y99439D01*
X304811Y99388D01*
X304744Y99334D01*
X304679Y99277D01*
X304617Y99217D01*
X304557Y99155D01*
X304500Y99090D01*
X304446Y99023D01*
X304395Y98953D01*
X304347Y98882D01*
X304303Y98808D01*
X304261Y98732D01*
X304223Y98655D01*
X304188Y98576D01*
X304157Y98496D01*
X304129Y98414D01*
X304105Y98331D01*
X304085Y98248D01*
X304068Y98163D01*
X304055Y98078D01*
X304046Y97992D01*
X304040Y97906D01*
X304038Y97820D01*
X304038Y95845D01*
X304038Y103404D02*
X304038Y105775D01*
X304040Y105853D01*
X304046Y105930D01*
X304055Y106007D01*
X304068Y106083D01*
X304085Y106159D01*
X304106Y106234D01*
X304130Y106307D01*
X304158Y106380D01*
X304190Y106451D01*
X304225Y106520D01*
X304263Y106587D01*
X304304Y106653D01*
X304349Y106716D01*
X304397Y106777D01*
X304447Y106836D01*
X304501Y106892D01*
X304557Y106946D01*
X304616Y106996D01*
X304677Y107044D01*
X304740Y107089D01*
X304806Y107130D01*
X304873Y107168D01*
X304942Y107203D01*
X305013Y107235D01*
X305086Y107263D01*
X305159Y107287D01*
X305234Y107308D01*
X305310Y107325D01*
X305386Y107338D01*
X305463Y107347D01*
X305540Y107353D01*
X305618Y107355D01*
X306409Y107355D01*
X306487Y107353D01*
X306564Y107347D01*
X306641Y107338D01*
X306717Y107325D01*
X306793Y107308D01*
X306868Y107287D01*
X306941Y107263D01*
X307014Y107235D01*
X307085Y107203D01*
X307154Y107168D01*
X307221Y107130D01*
X307287Y107089D01*
X307350Y107044D01*
X307411Y106996D01*
X307470Y106946D01*
X307526Y106892D01*
X307580Y106836D01*
X307630Y106777D01*
X307678Y106716D01*
X307723Y106653D01*
X307764Y106587D01*
X307802Y106520D01*
X307837Y106451D01*
X307869Y106380D01*
X307897Y106307D01*
X307921Y106234D01*
X307942Y106159D01*
X307959Y106083D01*
X307972Y106007D01*
X307981Y105930D01*
X307987Y105853D01*
X307989Y105775D01*
X307989Y103404D01*
X311150Y103404D01*
X311150Y107355D01*
D12*
X304800Y79224D02*
X304800Y70636D01*
X330200Y70636D02*
X330200Y79224D01*
X320184Y82018D02*
X314816Y82018D01*
D14*
X333502Y64770D03*
D17*
X361292Y96343D02*
X361292Y103709D01*
X359246Y103709D01*
X359157Y103707D01*
X359068Y103701D01*
X358979Y103691D01*
X358891Y103678D01*
X358803Y103661D01*
X358716Y103639D01*
X358631Y103614D01*
X358546Y103586D01*
X358463Y103553D01*
X358381Y103517D01*
X358301Y103478D01*
X358223Y103435D01*
X358147Y103389D01*
X358072Y103339D01*
X358000Y103286D01*
X357931Y103230D01*
X357864Y103171D01*
X357799Y103110D01*
X357738Y103045D01*
X357679Y102978D01*
X357623Y102909D01*
X357570Y102837D01*
X357520Y102762D01*
X357474Y102686D01*
X357431Y102608D01*
X357392Y102528D01*
X357356Y102446D01*
X357323Y102363D01*
X357295Y102278D01*
X357270Y102193D01*
X357248Y102106D01*
X357231Y102018D01*
X357218Y101930D01*
X357208Y101841D01*
X357202Y101752D01*
X357200Y101663D01*
X357202Y101574D01*
X357208Y101485D01*
X357218Y101396D01*
X357231Y101308D01*
X357248Y101220D01*
X357270Y101133D01*
X357295Y101048D01*
X357323Y100963D01*
X357356Y100880D01*
X357392Y100798D01*
X357431Y100718D01*
X357474Y100640D01*
X357520Y100564D01*
X357570Y100489D01*
X357623Y100417D01*
X357679Y100348D01*
X357738Y100281D01*
X357799Y100216D01*
X357864Y100155D01*
X357931Y100096D01*
X358000Y100040D01*
X358072Y99987D01*
X358147Y99937D01*
X358223Y99891D01*
X358301Y99848D01*
X358381Y99809D01*
X358463Y99773D01*
X358546Y99740D01*
X358631Y99712D01*
X358716Y99687D01*
X358803Y99665D01*
X358891Y99648D01*
X358979Y99635D01*
X359068Y99625D01*
X359157Y99619D01*
X359246Y99617D01*
X361292Y99617D01*
X358837Y99617D02*
X357200Y96343D01*
X354028Y102072D02*
X351982Y103709D01*
X351982Y96343D01*
X354028Y96343D02*
X349936Y96343D01*
X346713Y102072D02*
X344667Y103709D01*
X344667Y96343D01*
X346713Y96343D02*
X342621Y96343D01*
X339702Y154763D02*
X339702Y162129D01*
X337656Y162129D01*
X337567Y162127D01*
X337478Y162121D01*
X337389Y162111D01*
X337301Y162098D01*
X337213Y162081D01*
X337126Y162059D01*
X337041Y162034D01*
X336956Y162006D01*
X336873Y161973D01*
X336791Y161937D01*
X336711Y161898D01*
X336633Y161855D01*
X336557Y161809D01*
X336482Y161759D01*
X336410Y161706D01*
X336341Y161650D01*
X336274Y161591D01*
X336209Y161530D01*
X336148Y161465D01*
X336089Y161398D01*
X336033Y161329D01*
X335980Y161257D01*
X335930Y161182D01*
X335884Y161106D01*
X335841Y161028D01*
X335802Y160948D01*
X335766Y160866D01*
X335733Y160783D01*
X335705Y160698D01*
X335680Y160613D01*
X335658Y160526D01*
X335641Y160438D01*
X335628Y160350D01*
X335618Y160261D01*
X335612Y160172D01*
X335610Y160083D01*
X335612Y159994D01*
X335618Y159905D01*
X335628Y159816D01*
X335641Y159728D01*
X335658Y159640D01*
X335680Y159553D01*
X335705Y159468D01*
X335733Y159383D01*
X335766Y159300D01*
X335802Y159218D01*
X335841Y159138D01*
X335884Y159060D01*
X335930Y158984D01*
X335980Y158909D01*
X336033Y158837D01*
X336089Y158768D01*
X336148Y158701D01*
X336209Y158636D01*
X336274Y158575D01*
X336341Y158516D01*
X336410Y158460D01*
X336482Y158407D01*
X336557Y158357D01*
X336633Y158311D01*
X336711Y158268D01*
X336791Y158229D01*
X336873Y158193D01*
X336956Y158160D01*
X337041Y158132D01*
X337126Y158107D01*
X337213Y158085D01*
X337301Y158068D01*
X337389Y158055D01*
X337478Y158045D01*
X337567Y158039D01*
X337656Y158037D01*
X339702Y158037D01*
X337247Y158037D02*
X335610Y154763D01*
X332438Y160492D02*
X330392Y162129D01*
X330392Y154763D01*
X332438Y154763D02*
X328346Y154763D01*
X325123Y154763D02*
X323077Y154763D01*
X322988Y154765D01*
X322899Y154771D01*
X322810Y154781D01*
X322722Y154794D01*
X322634Y154811D01*
X322547Y154833D01*
X322462Y154858D01*
X322377Y154886D01*
X322294Y154919D01*
X322212Y154955D01*
X322132Y154994D01*
X322054Y155037D01*
X321978Y155083D01*
X321903Y155133D01*
X321831Y155186D01*
X321762Y155242D01*
X321695Y155301D01*
X321630Y155362D01*
X321569Y155427D01*
X321510Y155494D01*
X321454Y155563D01*
X321401Y155635D01*
X321351Y155710D01*
X321305Y155786D01*
X321262Y155864D01*
X321223Y155944D01*
X321187Y156026D01*
X321154Y156109D01*
X321126Y156194D01*
X321101Y156279D01*
X321079Y156366D01*
X321062Y156454D01*
X321049Y156542D01*
X321039Y156631D01*
X321033Y156720D01*
X321031Y156809D01*
X321033Y156898D01*
X321039Y156987D01*
X321049Y157076D01*
X321062Y157164D01*
X321079Y157252D01*
X321101Y157339D01*
X321126Y157424D01*
X321154Y157509D01*
X321187Y157592D01*
X321223Y157674D01*
X321262Y157754D01*
X321305Y157832D01*
X321351Y157908D01*
X321401Y157983D01*
X321454Y158055D01*
X321510Y158124D01*
X321569Y158191D01*
X321630Y158256D01*
X321695Y158317D01*
X321762Y158376D01*
X321831Y158432D01*
X321903Y158485D01*
X321978Y158535D01*
X322054Y158581D01*
X322132Y158624D01*
X322212Y158663D01*
X322294Y158699D01*
X322377Y158732D01*
X322462Y158760D01*
X322547Y158785D01*
X322634Y158807D01*
X322722Y158824D01*
X322810Y158837D01*
X322899Y158847D01*
X322988Y158853D01*
X323077Y158855D01*
X322668Y162129D02*
X325123Y162129D01*
X322668Y162129D02*
X322589Y162127D01*
X322510Y162121D01*
X322431Y162112D01*
X322353Y162099D01*
X322276Y162081D01*
X322200Y162061D01*
X322125Y162036D01*
X322051Y162008D01*
X321978Y161977D01*
X321907Y161941D01*
X321838Y161903D01*
X321771Y161861D01*
X321706Y161816D01*
X321643Y161768D01*
X321582Y161717D01*
X321525Y161663D01*
X321469Y161607D01*
X321417Y161548D01*
X321367Y161486D01*
X321321Y161422D01*
X321277Y161356D01*
X321237Y161288D01*
X321201Y161218D01*
X321167Y161146D01*
X321137Y161072D01*
X321111Y160998D01*
X321088Y160922D01*
X321070Y160845D01*
X321054Y160768D01*
X321043Y160689D01*
X321035Y160611D01*
X321031Y160532D01*
X321031Y160452D01*
X321035Y160373D01*
X321043Y160295D01*
X321054Y160216D01*
X321070Y160139D01*
X321088Y160062D01*
X321111Y159986D01*
X321137Y159912D01*
X321167Y159838D01*
X321201Y159766D01*
X321237Y159696D01*
X321277Y159628D01*
X321321Y159562D01*
X321367Y159498D01*
X321417Y159436D01*
X321469Y159377D01*
X321525Y159321D01*
X321582Y159267D01*
X321643Y159216D01*
X321706Y159168D01*
X321771Y159123D01*
X321838Y159081D01*
X321907Y159043D01*
X321978Y159007D01*
X322051Y158976D01*
X322125Y158948D01*
X322200Y158923D01*
X322276Y158903D01*
X322353Y158885D01*
X322431Y158872D01*
X322510Y158863D01*
X322589Y158857D01*
X322668Y158855D01*
X324305Y158855D01*
X268809Y42568D02*
X261443Y42568D01*
X268809Y42568D02*
X268809Y44614D01*
X268807Y44703D01*
X268801Y44792D01*
X268791Y44881D01*
X268778Y44969D01*
X268761Y45057D01*
X268739Y45144D01*
X268714Y45229D01*
X268686Y45314D01*
X268653Y45397D01*
X268617Y45479D01*
X268578Y45559D01*
X268535Y45637D01*
X268489Y45713D01*
X268439Y45788D01*
X268386Y45860D01*
X268330Y45929D01*
X268271Y45996D01*
X268210Y46061D01*
X268145Y46122D01*
X268078Y46181D01*
X268009Y46237D01*
X267937Y46290D01*
X267862Y46340D01*
X267786Y46386D01*
X267708Y46429D01*
X267628Y46468D01*
X267546Y46504D01*
X267463Y46537D01*
X267378Y46565D01*
X267293Y46590D01*
X267206Y46612D01*
X267118Y46629D01*
X267030Y46642D01*
X266941Y46652D01*
X266852Y46658D01*
X266763Y46660D01*
X266674Y46658D01*
X266585Y46652D01*
X266496Y46642D01*
X266408Y46629D01*
X266320Y46612D01*
X266233Y46590D01*
X266148Y46565D01*
X266063Y46537D01*
X265980Y46504D01*
X265898Y46468D01*
X265818Y46429D01*
X265740Y46386D01*
X265664Y46340D01*
X265589Y46290D01*
X265517Y46237D01*
X265448Y46181D01*
X265381Y46122D01*
X265316Y46061D01*
X265255Y45996D01*
X265196Y45929D01*
X265140Y45860D01*
X265087Y45788D01*
X265037Y45713D01*
X264991Y45637D01*
X264948Y45559D01*
X264909Y45479D01*
X264873Y45397D01*
X264840Y45314D01*
X264812Y45229D01*
X264787Y45144D01*
X264765Y45057D01*
X264748Y44969D01*
X264735Y44881D01*
X264725Y44792D01*
X264719Y44703D01*
X264717Y44614D01*
X264717Y42568D01*
X264717Y45023D02*
X261443Y46660D01*
X267172Y49832D02*
X268809Y51878D01*
X261443Y51878D01*
X261443Y49832D02*
X261443Y53924D01*
X263080Y57147D02*
X268809Y58784D01*
X263080Y57147D02*
X263080Y61239D01*
X264717Y60011D02*
X261443Y60011D01*
D16*
X283452Y44572D02*
X291241Y44572D01*
X287346Y48466D02*
X287346Y40677D01*
X270652Y41763D02*
X262863Y41763D01*
M02*
