G04 EAGLE Gerber RS-274X export*
G75*
%MOMM*%
%FSLAX34Y34*%
%LPD*%
%INSolderpaste Bottom*%
%IPPOS*%
%AMOC8*
5,1,8,0,0,1.08239X$1,22.5*%
G01*
%ADD10R,0.600000X0.540000*%
%ADD11R,0.900000X1.700000*%
%ADD12R,4.500000X4.500000*%
%ADD13R,0.875000X0.250000*%
%ADD14R,1.200000X0.550000*%
%ADD15R,1.200000X0.800000*%
%ADD16R,1.100000X1.000000*%
%ADD17R,1.000000X0.800000*%
%ADD18R,1.000000X1.400000*%
%ADD19R,0.550000X1.200000*%
%ADD20R,0.540000X0.600000*%


D10*
X209550Y54100D03*
X209550Y62740D03*
X195580Y54100D03*
X195580Y62740D03*
D11*
X278130Y160360D03*
X278130Y340360D03*
X74930Y340360D03*
X49530Y340360D03*
D12*
X127430Y264160D03*
D11*
X49530Y160360D03*
X227330Y340360D03*
X214630Y160360D03*
X227330Y160360D03*
X201930Y160360D03*
X163830Y160360D03*
X214630Y340360D03*
X240030Y340360D03*
X201930Y340360D03*
X240030Y160360D03*
X151130Y160360D03*
X138430Y160360D03*
X113030Y160360D03*
X74930Y160360D03*
X62230Y160360D03*
X163830Y340360D03*
X176530Y340360D03*
X189230Y340360D03*
X138430Y340360D03*
X151130Y340360D03*
X113030Y340360D03*
X125730Y340360D03*
X125730Y160360D03*
X189230Y160360D03*
X176530Y160360D03*
X100330Y160360D03*
X265430Y160360D03*
X252730Y160360D03*
X252730Y340360D03*
X265430Y340360D03*
X100330Y340360D03*
X87630Y340360D03*
X87630Y160360D03*
X62230Y340360D03*
D13*
X225825Y43020D03*
X225825Y38020D03*
X225825Y33020D03*
X225825Y28020D03*
X225825Y23020D03*
X180575Y23020D03*
X180575Y28020D03*
X180575Y33020D03*
X180575Y38020D03*
X180575Y43020D03*
D14*
X272749Y114960D03*
X272749Y124460D03*
X272749Y133960D03*
X298751Y133960D03*
X298751Y114960D03*
D15*
X314960Y115460D03*
X314960Y133460D03*
X256540Y115460D03*
X256540Y133460D03*
D16*
X157090Y99060D03*
X140090Y99060D03*
X157090Y115570D03*
X140090Y115570D03*
D17*
X272980Y101600D03*
X295980Y101600D03*
D18*
X285750Y62660D03*
X295250Y84660D03*
X276250Y84660D03*
D19*
X327000Y61929D03*
X317500Y61929D03*
X308000Y61929D03*
X308000Y87931D03*
X327000Y87931D03*
D20*
X335790Y100330D03*
X327150Y100330D03*
X333250Y147320D03*
X324610Y147320D03*
D10*
X265430Y68070D03*
X265430Y76710D03*
M02*
