G04 EAGLE Gerber RS-274X export*
G75*
%MOMM*%
%FSLAX34Y34*%
%LPD*%
%INSoldermask Top*%
%IPPOS*%
%AMOC8*
5,1,8,0,0,1.08239X$1,22.5*%
G01*
%ADD10R,1.303200X1.203200*%
%ADD11R,0.803200X1.653200*%
%ADD12R,0.503200X1.653200*%
%ADD13C,1.361200*%
%ADD14C,0.903200*%
%ADD15R,0.803200X0.743200*%
%ADD16R,0.914400X1.625600*%
%ADD17R,1.625600X0.914400*%
%ADD18R,0.812800X1.447800*%
%ADD19R,1.397000X3.987800*%
%ADD20R,1.651000X1.600200*%
%ADD21R,1.193800X0.812800*%
%ADD22R,1.143000X1.041400*%
%ADD23C,0.349006*%
%ADD24R,2.703200X0.953200*%
%ADD25R,1.203200X1.103200*%
%ADD26R,0.743200X0.803200*%
%ADD27R,0.963200X1.473200*%
%ADD28R,1.103200X1.203200*%
%ADD29R,1.203200X1.854200*%
%ADD30C,0.505344*%


D10*
X68190Y361950D03*
X51190Y361950D03*
D11*
X171970Y83970D03*
X179970Y83970D03*
D12*
X201970Y83970D03*
X196970Y83970D03*
X191970Y83970D03*
X186970Y83970D03*
X206970Y83970D03*
X211970Y83970D03*
X216970Y83970D03*
X221970Y83970D03*
D11*
X228970Y83970D03*
X236970Y83970D03*
D13*
X161270Y80610D02*
X161270Y69030D01*
X247670Y69030D02*
X247670Y80610D01*
X161270Y38810D02*
X161270Y27230D01*
X247670Y27230D02*
X247670Y38810D01*
D14*
X175570Y69520D03*
X233370Y69520D03*
D15*
X102870Y366270D03*
X102870Y357630D03*
X186690Y109730D03*
X186690Y101090D03*
X222250Y109730D03*
X222250Y101090D03*
X87630Y366270D03*
X87630Y357630D03*
D16*
X178474Y163990D03*
X191174Y163990D03*
X318174Y163990D03*
X178603Y339206D03*
X191303Y339206D03*
X216703Y339206D03*
X229403Y339206D03*
X242103Y339206D03*
X318303Y339206D03*
D17*
X148511Y219640D03*
X148511Y232340D03*
X148511Y270440D03*
X148511Y283140D03*
X148511Y295840D03*
X148511Y308540D03*
D16*
X204003Y339206D03*
X305603Y339206D03*
X292903Y339206D03*
D18*
G36*
X112216Y74613D02*
X105785Y79583D01*
X114638Y91037D01*
X121069Y86067D01*
X112216Y74613D01*
G37*
G36*
X103513Y81340D02*
X97082Y86310D01*
X105935Y97764D01*
X112366Y92794D01*
X103513Y81340D01*
G37*
G36*
X94809Y88066D02*
X88378Y93036D01*
X97231Y104490D01*
X103662Y99520D01*
X94809Y88066D01*
G37*
G36*
X86106Y94793D02*
X79675Y99763D01*
X88528Y111217D01*
X94959Y106247D01*
X86106Y94793D01*
G37*
G36*
X77402Y101520D02*
X70971Y106490D01*
X79824Y117944D01*
X86255Y112974D01*
X77402Y101520D01*
G37*
G36*
X68699Y108247D02*
X62268Y113217D01*
X71121Y124671D01*
X77552Y119701D01*
X68699Y108247D01*
G37*
G36*
X59995Y114974D02*
X53564Y119944D01*
X62417Y131398D01*
X68848Y126428D01*
X59995Y114974D01*
G37*
G36*
X51292Y121700D02*
X44861Y126670D01*
X53714Y138124D01*
X60145Y133154D01*
X51292Y121700D01*
G37*
D19*
G36*
X21572Y97276D02*
X10519Y105819D01*
X34904Y137370D01*
X45957Y128827D01*
X21572Y97276D01*
G37*
D20*
G36*
X117374Y47861D02*
X104312Y57957D01*
X114098Y70617D01*
X127160Y60521D01*
X117374Y47861D01*
G37*
D21*
G36*
X112109Y41108D02*
X102664Y48407D01*
X107635Y54838D01*
X117080Y47539D01*
X112109Y41108D01*
G37*
D22*
G36*
X94169Y41206D02*
X85126Y48195D01*
X91495Y56434D01*
X100538Y49445D01*
X94169Y41206D01*
G37*
D23*
X345622Y362711D02*
X363862Y362488D01*
X363808Y358047D01*
X345568Y358270D01*
X345622Y362711D01*
X345606Y361362D02*
X363848Y361362D01*
X364018Y375187D02*
X345778Y375410D01*
X364018Y375187D02*
X363964Y370746D01*
X345724Y370969D01*
X345778Y375410D01*
X345762Y374061D02*
X364004Y374061D01*
X364173Y387886D02*
X345933Y388109D01*
X364173Y387886D02*
X364119Y383445D01*
X345879Y383668D01*
X345933Y388109D01*
X345917Y386760D02*
X364159Y386760D01*
X364328Y400585D02*
X346088Y400808D01*
X364328Y400585D02*
X364274Y396144D01*
X346034Y396367D01*
X346088Y400808D01*
X346072Y399459D02*
X364314Y399459D01*
X314832Y401190D02*
X296592Y401413D01*
X314832Y401190D02*
X314778Y396749D01*
X296538Y396972D01*
X296592Y401413D01*
X296576Y400064D02*
X314818Y400064D01*
X314676Y388491D02*
X296436Y388714D01*
X314676Y388491D02*
X314622Y384050D01*
X296382Y384273D01*
X296436Y388714D01*
X296420Y387365D02*
X314662Y387365D01*
X314521Y375792D02*
X296281Y376015D01*
X314521Y375792D02*
X314467Y371351D01*
X296227Y371574D01*
X296281Y376015D01*
X296265Y374666D02*
X314507Y374666D01*
X314366Y363093D02*
X296126Y363316D01*
X314366Y363093D02*
X314312Y358652D01*
X296072Y358875D01*
X296126Y363316D01*
X296110Y361967D02*
X314352Y361967D01*
D24*
G36*
X317070Y458878D02*
X290775Y452613D01*
X288566Y461884D01*
X314861Y468149D01*
X317070Y458878D01*
G37*
G36*
X324602Y427263D02*
X298307Y420998D01*
X296098Y430269D01*
X322393Y436534D01*
X324602Y427263D01*
G37*
D25*
X51690Y420550D03*
X67690Y420550D03*
X67690Y379550D03*
X51690Y379550D03*
X121540Y420550D03*
X137540Y420550D03*
X137540Y379550D03*
X121540Y379550D03*
D26*
G36*
X87081Y133137D02*
X79651Y133033D01*
X79539Y141063D01*
X86969Y141167D01*
X87081Y133137D01*
G37*
G36*
X95721Y133257D02*
X88291Y133153D01*
X88179Y141183D01*
X95609Y141287D01*
X95721Y133257D01*
G37*
D27*
G36*
X326994Y45694D02*
X318971Y40364D01*
X310820Y52634D01*
X318843Y57964D01*
X326994Y45694D01*
G37*
G36*
X337572Y52722D02*
X329549Y47392D01*
X321398Y59662D01*
X329421Y64992D01*
X337572Y52722D01*
G37*
G36*
X284826Y109162D02*
X276803Y103832D01*
X268652Y116102D01*
X276675Y121432D01*
X284826Y109162D01*
G37*
G36*
X295404Y116190D02*
X287381Y110860D01*
X279230Y123130D01*
X287253Y128460D01*
X295404Y116190D01*
G37*
G36*
X348150Y59750D02*
X340127Y54420D01*
X331976Y66690D01*
X339999Y72020D01*
X348150Y59750D01*
G37*
G36*
X358728Y66778D02*
X350705Y61448D01*
X342554Y73718D01*
X350577Y79048D01*
X358728Y66778D01*
G37*
G36*
X305982Y123218D02*
X297959Y117888D01*
X289808Y130158D01*
X297831Y135488D01*
X305982Y123218D01*
G37*
G36*
X316560Y130246D02*
X308537Y124916D01*
X300386Y137186D01*
X308409Y142516D01*
X316560Y130246D01*
G37*
D28*
G36*
X131433Y427368D02*
X131472Y438398D01*
X143503Y438356D01*
X143464Y427326D01*
X131433Y427368D01*
G37*
G36*
X115433Y427424D02*
X115472Y438454D01*
X127503Y438412D01*
X127464Y427382D01*
X115433Y427424D01*
G37*
G36*
X115577Y468424D02*
X115616Y479454D01*
X127647Y479412D01*
X127608Y468382D01*
X115577Y468424D01*
G37*
G36*
X131577Y468368D02*
X131616Y479398D01*
X143647Y479356D01*
X143608Y468326D01*
X131577Y468368D01*
G37*
D26*
X102360Y125730D03*
X111000Y125730D03*
G36*
X125153Y109011D02*
X117723Y108959D01*
X117667Y116989D01*
X125097Y117041D01*
X125153Y109011D01*
G37*
G36*
X133793Y109071D02*
X126363Y109019D01*
X126307Y117049D01*
X133737Y117101D01*
X133793Y109071D01*
G37*
X141730Y101600D03*
X150370Y101600D03*
X78230Y302260D03*
X86870Y302260D03*
X191010Y140970D03*
X182370Y140970D03*
D29*
X77980Y230770D03*
X77980Y282310D03*
X109980Y282310D03*
X109980Y230770D03*
D30*
X349570Y133150D02*
X356550Y133150D01*
X356550Y126170D01*
X349570Y126170D01*
X349570Y133150D01*
X349570Y130970D02*
X356550Y130970D01*
X356550Y150690D02*
X349570Y150690D01*
X356550Y150690D02*
X356550Y143710D01*
X349570Y143710D01*
X349570Y150690D01*
X349570Y148510D02*
X356550Y148510D01*
D15*
X247650Y121160D03*
X247650Y112520D03*
X234950Y112520D03*
X234950Y121160D03*
D25*
X103250Y379550D03*
X87250Y379550D03*
X87250Y420550D03*
X103250Y420550D03*
D26*
X332230Y416560D03*
X340870Y416560D03*
X332230Y430530D03*
X340870Y430530D03*
M02*
