G04 EAGLE Gerber RS-274X export*
G75*
%MOMM*%
%FSLAX34Y34*%
%LPD*%
%INSolderpaste Top*%
%IPPOS*%
%AMOC8*
5,1,8,0,0,1.08239X$1,22.5*%
G01*
%ADD10R,1.100000X1.000000*%
%ADD11R,0.600000X1.450000*%
%ADD12R,0.300000X1.450000*%
%ADD13R,0.600000X0.540000*%
%ADD14R,0.711200X1.422400*%
%ADD15R,1.422400X0.711200*%
%ADD16R,0.609600X1.244600*%
%ADD17R,1.193800X3.784600*%
%ADD18R,1.447800X1.397000*%
%ADD19R,0.990600X0.609600*%
%ADD20R,0.939800X0.838200*%
%ADD21C,0.147500*%
%ADD22R,2.500000X0.750000*%
%ADD23R,1.000000X0.900000*%
%ADD24R,0.540000X0.600000*%
%ADD25R,0.760000X1.270000*%
%ADD26R,0.900000X1.000000*%
%ADD27R,1.000000X1.651000*%
%ADD28C,0.300000*%


D10*
X68190Y361950D03*
X51190Y361950D03*
D11*
X171970Y83970D03*
X179970Y83970D03*
D12*
X201970Y83970D03*
X196970Y83970D03*
X191970Y83970D03*
X186970Y83970D03*
X206970Y83970D03*
X211970Y83970D03*
X216970Y83970D03*
X221970Y83970D03*
D11*
X228970Y83970D03*
X236970Y83970D03*
D13*
X102870Y366270D03*
X102870Y357630D03*
X186690Y109730D03*
X186690Y101090D03*
X222250Y109730D03*
X222250Y101090D03*
X87630Y366270D03*
X87630Y357630D03*
D14*
X178474Y163990D03*
X191174Y163990D03*
X318174Y163990D03*
X178603Y339206D03*
X191303Y339206D03*
X216703Y339206D03*
X229403Y339206D03*
X242103Y339206D03*
X318303Y339206D03*
D15*
X148511Y219640D03*
X148511Y232340D03*
X148511Y270440D03*
X148511Y283140D03*
X148511Y295840D03*
X148511Y308540D03*
D14*
X204003Y339206D03*
X305603Y339206D03*
X292903Y339206D03*
D16*
G36*
X112034Y76038D02*
X107210Y79766D01*
X114820Y89612D01*
X119644Y85884D01*
X112034Y76038D01*
G37*
G36*
X103331Y82765D02*
X98507Y86493D01*
X106117Y96339D01*
X110941Y92611D01*
X103331Y82765D01*
G37*
G36*
X94627Y89491D02*
X89803Y93219D01*
X97413Y103065D01*
X102237Y99337D01*
X94627Y89491D01*
G37*
G36*
X85924Y96218D02*
X81100Y99946D01*
X88710Y109792D01*
X93534Y106064D01*
X85924Y96218D01*
G37*
G36*
X77220Y102945D02*
X72396Y106673D01*
X80006Y116519D01*
X84830Y112791D01*
X77220Y102945D01*
G37*
G36*
X68517Y109672D02*
X63693Y113400D01*
X71303Y123246D01*
X76127Y119518D01*
X68517Y109672D01*
G37*
G36*
X59813Y116399D02*
X54989Y120127D01*
X62599Y129973D01*
X67423Y126245D01*
X59813Y116399D01*
G37*
G36*
X51110Y123125D02*
X46286Y126853D01*
X53896Y136699D01*
X58720Y132971D01*
X51110Y123125D01*
G37*
D17*
G36*
X21389Y98701D02*
X11944Y106001D01*
X35087Y135945D01*
X44532Y128645D01*
X21389Y98701D01*
G37*
D18*
G36*
X117192Y49286D02*
X105737Y58140D01*
X114280Y69192D01*
X125735Y60338D01*
X117192Y49286D01*
G37*
D19*
G36*
X111926Y42533D02*
X104090Y48590D01*
X107818Y53413D01*
X115654Y47356D01*
X111926Y42533D01*
G37*
D20*
G36*
X93987Y42631D02*
X86552Y48378D01*
X91677Y55009D01*
X99112Y49262D01*
X93987Y42631D01*
G37*
D21*
X345630Y362703D02*
X363854Y362480D01*
X363800Y358055D01*
X345576Y358278D01*
X345630Y362703D01*
X345590Y359456D02*
X363817Y359456D01*
X363834Y360857D02*
X345607Y360857D01*
X345625Y362258D02*
X363851Y362258D01*
X364010Y375179D02*
X345786Y375402D01*
X364010Y375179D02*
X363956Y370754D01*
X345732Y370977D01*
X345786Y375402D01*
X345746Y372155D02*
X363973Y372155D01*
X363990Y373556D02*
X345763Y373556D01*
X345781Y374957D02*
X364007Y374957D01*
X364165Y387878D02*
X345941Y388101D01*
X364165Y387878D02*
X364111Y383453D01*
X345887Y383676D01*
X345941Y388101D01*
X345901Y384854D02*
X364128Y384854D01*
X364145Y386255D02*
X345918Y386255D01*
X345936Y387656D02*
X364162Y387656D01*
X364320Y400577D02*
X346096Y400800D01*
X364320Y400577D02*
X364266Y396152D01*
X346042Y396375D01*
X346096Y400800D01*
X346056Y397553D02*
X364283Y397553D01*
X364300Y398954D02*
X346073Y398954D01*
X346091Y400355D02*
X364317Y400355D01*
X314824Y401182D02*
X296600Y401405D01*
X314824Y401182D02*
X314770Y396757D01*
X296546Y396980D01*
X296600Y401405D01*
X296560Y398158D02*
X314787Y398158D01*
X314804Y399559D02*
X296577Y399559D01*
X296595Y400960D02*
X314821Y400960D01*
X314668Y388483D02*
X296444Y388706D01*
X314668Y388483D02*
X314614Y384058D01*
X296390Y384281D01*
X296444Y388706D01*
X296404Y385459D02*
X314631Y385459D01*
X314648Y386860D02*
X296421Y386860D01*
X296439Y388261D02*
X314665Y388261D01*
X314513Y375784D02*
X296289Y376007D01*
X314513Y375784D02*
X314459Y371359D01*
X296235Y371582D01*
X296289Y376007D01*
X296249Y372760D02*
X314476Y372760D01*
X314493Y374161D02*
X296266Y374161D01*
X296284Y375562D02*
X314510Y375562D01*
X314358Y363085D02*
X296134Y363308D01*
X314358Y363085D02*
X314304Y358660D01*
X296080Y358883D01*
X296134Y363308D01*
X296094Y360061D02*
X314321Y360061D01*
X314338Y361462D02*
X296111Y361462D01*
X296129Y362863D02*
X314355Y362863D01*
D22*
G36*
X315846Y459630D02*
X291528Y453837D01*
X289790Y461132D01*
X314108Y466925D01*
X315846Y459630D01*
G37*
G36*
X323378Y428015D02*
X299060Y422222D01*
X297322Y429517D01*
X321640Y435310D01*
X323378Y428015D01*
G37*
D23*
X51690Y420550D03*
X67690Y420550D03*
X67690Y379550D03*
X51690Y379550D03*
X121540Y420550D03*
X137540Y420550D03*
X137540Y379550D03*
X121540Y379550D03*
D24*
G36*
X86051Y134138D02*
X80653Y134063D01*
X80569Y140062D01*
X85967Y140137D01*
X86051Y134138D01*
G37*
G36*
X94691Y134258D02*
X89293Y134183D01*
X89209Y140182D01*
X94607Y140257D01*
X94691Y134258D01*
G37*
D25*
G36*
X325586Y45978D02*
X319255Y41773D01*
X312228Y52350D01*
X318559Y56555D01*
X325586Y45978D01*
G37*
G36*
X336164Y53006D02*
X329833Y48801D01*
X322806Y59378D01*
X329137Y63583D01*
X336164Y53006D01*
G37*
G36*
X283418Y109446D02*
X277087Y105241D01*
X270060Y115818D01*
X276391Y120023D01*
X283418Y109446D01*
G37*
G36*
X293996Y116474D02*
X287665Y112269D01*
X280638Y122846D01*
X286969Y127051D01*
X293996Y116474D01*
G37*
G36*
X346742Y60034D02*
X340411Y55829D01*
X333384Y66406D01*
X339715Y70611D01*
X346742Y60034D01*
G37*
G36*
X357320Y67062D02*
X350989Y62857D01*
X343962Y73434D01*
X350293Y77639D01*
X357320Y67062D01*
G37*
G36*
X304574Y123502D02*
X298243Y119297D01*
X291216Y129874D01*
X297547Y134079D01*
X304574Y123502D01*
G37*
G36*
X315152Y130530D02*
X308821Y126325D01*
X301794Y136902D01*
X308125Y141107D01*
X315152Y130530D01*
G37*
D26*
G36*
X132453Y428380D02*
X132484Y437379D01*
X142483Y437344D01*
X142452Y428345D01*
X132453Y428380D01*
G37*
G36*
X116453Y428436D02*
X116484Y437435D01*
X126483Y437400D01*
X126452Y428401D01*
X116453Y428436D01*
G37*
G36*
X116597Y469436D02*
X116628Y478435D01*
X126627Y478400D01*
X126596Y469401D01*
X116597Y469436D01*
G37*
G36*
X132597Y469380D02*
X132628Y478379D01*
X142627Y478344D01*
X142596Y469345D01*
X132597Y469380D01*
G37*
D24*
X102360Y125730D03*
X111000Y125730D03*
G36*
X124130Y110019D02*
X118732Y109982D01*
X118690Y115981D01*
X124088Y116018D01*
X124130Y110019D01*
G37*
G36*
X132770Y110079D02*
X127372Y110042D01*
X127330Y116041D01*
X132728Y116078D01*
X132770Y110079D01*
G37*
X141730Y101600D03*
X150370Y101600D03*
X78230Y302260D03*
X86870Y302260D03*
X191010Y140970D03*
X182370Y140970D03*
D27*
X77980Y230770D03*
X77980Y282310D03*
X109980Y282310D03*
X109980Y230770D03*
D28*
X349560Y133160D02*
X356560Y133160D01*
X356560Y126160D01*
X349560Y126160D01*
X349560Y133160D01*
X349560Y129010D02*
X356560Y129010D01*
X356560Y131860D02*
X349560Y131860D01*
X349560Y150700D02*
X356560Y150700D01*
X356560Y143700D01*
X349560Y143700D01*
X349560Y150700D01*
X349560Y146550D02*
X356560Y146550D01*
X356560Y149400D02*
X349560Y149400D01*
D13*
X247650Y121160D03*
X247650Y112520D03*
X234950Y112520D03*
X234950Y121160D03*
D23*
X103250Y379550D03*
X87250Y379550D03*
X87250Y420550D03*
X103250Y420550D03*
D24*
X332230Y416560D03*
X340870Y416560D03*
X332230Y430530D03*
X340870Y430530D03*
M02*
