G04 EAGLE Gerber RS-274X export*
G75*
%MOMM*%
%FSLAX34Y34*%
%LPD*%
%INSoldermask Bottom*%
%IPPOS*%
%AMOC8*
5,1,8,0,0,1.08239X$1,22.5*%
G01*
%ADD10C,1.361200*%
%ADD11C,0.903200*%
%ADD12R,0.803200X0.743200*%
%ADD13R,1.103200X1.903200*%
%ADD14R,4.703200X4.703200*%
%ADD15R,1.100000X0.400000*%
%ADD16R,1.403200X0.753200*%
%ADD17R,1.403200X1.003200*%
%ADD18R,1.303200X1.203200*%
%ADD19R,1.203200X1.003200*%
%ADD20R,1.203200X1.603200*%
%ADD21R,0.753200X1.403200*%
%ADD22R,0.743200X0.803200*%
%ADD23C,1.603200*%


D10*
X161270Y69030D02*
X161270Y80610D01*
X247670Y80610D02*
X247670Y69030D01*
X161270Y38810D02*
X161270Y27230D01*
X247670Y27230D02*
X247670Y38810D01*
D11*
X175570Y69520D03*
X233370Y69520D03*
D12*
X209550Y54100D03*
X209550Y62740D03*
X195580Y54100D03*
X195580Y62740D03*
D13*
X278130Y160360D03*
X278130Y340360D03*
X74930Y340360D03*
X49530Y340360D03*
D14*
X127430Y264160D03*
D13*
X49530Y160360D03*
X227330Y340360D03*
X214630Y160360D03*
X227330Y160360D03*
X201930Y160360D03*
X163830Y160360D03*
X214630Y340360D03*
X240030Y340360D03*
X201930Y340360D03*
X240030Y160360D03*
X151130Y160360D03*
X138430Y160360D03*
X113030Y160360D03*
X74930Y160360D03*
X62230Y160360D03*
X163830Y340360D03*
X176530Y340360D03*
X189230Y340360D03*
X138430Y340360D03*
X151130Y340360D03*
X113030Y340360D03*
X125730Y340360D03*
X125730Y160360D03*
X189230Y160360D03*
X176530Y160360D03*
X100330Y160360D03*
X265430Y160360D03*
X252730Y160360D03*
X252730Y340360D03*
X265430Y340360D03*
X100330Y340360D03*
X87630Y340360D03*
X87630Y160360D03*
X62230Y340360D03*
D15*
X225700Y43020D03*
X225700Y38020D03*
X225700Y33020D03*
X225700Y28020D03*
X225700Y23020D03*
X180700Y23020D03*
X180700Y28020D03*
X180700Y33020D03*
X180700Y38020D03*
X180700Y43020D03*
D16*
X272749Y114960D03*
X272749Y124460D03*
X272749Y133960D03*
X298751Y133960D03*
X298751Y114960D03*
D17*
X314960Y115460D03*
X314960Y133460D03*
X256540Y115460D03*
X256540Y133460D03*
D18*
X157090Y99060D03*
X140090Y99060D03*
X157090Y115570D03*
X140090Y115570D03*
D19*
X272980Y101600D03*
X295980Y101600D03*
D20*
X285750Y62660D03*
X295250Y84660D03*
X276250Y84660D03*
D21*
X327000Y61929D03*
X317500Y61929D03*
X308000Y61929D03*
X308000Y87931D03*
X327000Y87931D03*
D22*
X335790Y100330D03*
X327150Y100330D03*
X333250Y147320D03*
X324610Y147320D03*
D12*
X265430Y68070D03*
X265430Y76710D03*
D23*
X287020Y31750D03*
X267970Y25400D03*
M02*
