M48
;GenerationSoftware,Autodesk,EAGLE,9.6.2*%
;CreationDate,2021-11-30T13:59:52Z*%
FMAT,2
ICI,OFF
METRIC,TZ,000.000
T3C0.300
T2C0.650
T1C0.700
%
G90
M71
T1
X17557Y6952
X23337Y6952
T2
X24767Y3302
X16127Y7482
X24767Y7482
X16127Y3302
T3
X8763Y17526
X12192Y17399
X12446Y35687
X33655Y33655
X33655Y32639
X33655Y31496
X33655Y30353
X33655Y29210
X33655Y28067
X33655Y27051
X33655Y25908
X33655Y24765
X33655Y23622
X33655Y22479
X33655Y21336
X33655Y20066
X33655Y18923
X33655Y17653
X33655Y16383
X5080Y32258
X5080Y31115
X5080Y29972
X5080Y28702
X5080Y27432
X5080Y26035
X5080Y24765
X26670Y18796
X15875Y48641
X16891Y48895
X18034Y49022
X19177Y49149
X20447Y49149
X21590Y49149
X22860Y49022
X24130Y48895
X25400Y48641
X26797Y48260
X28194Y47752
X29718Y47117
X32385Y45847
X14859Y1905
X13462Y2413
X12065Y2921
X18415Y20574
X24384Y14478
X4572Y7493
X5461Y6731
X6350Y5969
X7366Y5207
X10922Y3429
X19177Y45974
X19177Y43815
X19304Y41275
X19431Y38989
X21844Y46101
X21971Y43942
X21971Y41021
X22098Y38735
X25146Y38608
X25400Y41275
X25146Y43688
X25019Y45847
X27686Y45847
X18796Y29718
X18796Y26797
X18923Y23749
X20574Y23622
X20574Y26543
X20701Y29464
X25908Y29972
X26162Y27813
X26162Y25146
X26162Y23241
X29210Y23241
X29210Y25400
X29464Y27432
X29591Y29083
X29591Y30734
X31877Y30607
X31623Y28575
X31877Y25908
X31877Y23749
X31496Y21209
X32131Y19050
X11684Y29591
X13462Y20701
X14986Y20320
X15875Y36576
X32004Y35306
X19431Y37211
X22225Y36830
X26797Y37719
X31750Y7366
X5715Y22606
X5715Y21082
X7112Y19177
X11557Y20701
X30861Y3810
X30099Y19050
X30226Y16891
X29845Y21590
X18288Y25019
X19177Y28067
X27051Y20066
X27813Y27559
X27686Y30607
X30988Y7366
X13589Y4826
X14478Y3810
X14478Y6223
X9271Y7493
X7366Y7874
X5080Y9525
X5842Y8382
X8509Y6350
X12446Y7747
X10414Y32385
X13335Y32385
X17907Y30861
X17399Y27686
X12700Y22225
X30353Y24257
X14732Y48260
X10541Y46863
X9525Y46355
X8509Y45720
X7366Y45085
X6350Y44323
X33655Y44958
X16129Y46482
X17526Y43815
X15875Y40513
X15367Y41783
X15367Y44958
X17780Y47625
X21463Y47498
X27178Y44069
X21590Y19939
X18288Y5207
X20320Y4572
X4572Y13843
X4953Y11049
X26797Y2540
X18542Y6604
X22352Y6477
X26289Y10160
X26543Y8636
X31623Y8890
X6223Y32512
X16256Y21971
X17399Y14097
X10160Y14224
X6223Y10033
X24384Y21971
X7493Y17526
X6223Y17526
X20193Y14097
X10414Y40005
X10922Y11049
X9144Y12319
X20447Y20447
X27559Y23368
X22733Y13970
X20447Y17399
X21971Y17399
X24765Y22987
X25400Y20320
X20193Y2159
X20193Y3048
X11430Y10033
X19050Y35687
X16383Y17399
X24384Y20574
X9271Y28956
X34163Y14732
X33528Y7747
X29591Y4064
X28956Y4699
X24765Y10414
X28702Y3175
X7112Y13462
X6731Y40005
X20701Y9652
X20193Y6985
X10033Y17526
X20320Y31496
M30